<svg width="1920" height="1138" viewBox="0 0 1920 1138" fill="none" xmlns="http://www.w3.org/2000/svg">
<rect width="1920" height="1137.65" fill="url(#paint0_linear_1_1978)"/>
<mask id="mask0_1_1978" style="mask-type:alpha" maskUnits="userSpaceOnUse" x="0" y="0" width="1920" height="919">
<rect width="1920" height="919" fill="#D9D9D9"/>
</mask>
<g mask="url(#mask0_1_1978)">
<path d="M1783.51 837C1760.92 837 1739.32 834.373 1720.25 829.045C1709.89 826.218 1699.99 821.915 1690.86 816.27C1682.76 811.45 1674.11 807.311 1665.77 803.297C1658.64 799.877 1651.27 796.333 1644.22 792.368C1626.66 782.455 1608.52 778.453 1583.36 778.415H1581.34C1574.11 778.415 1568.83 778.415 1561.98 781.612C1535.37 793.824 1507.51 803.093 1478.88 809.257C1421.17 821.846 1369.68 809.74 1333.89 775.169C1289.89 732.656 1274.62 686.648 1275.01 657.764C1275.09 651.482 1275.46 644.915 1275.86 637.939C1277.75 604.793 1279.89 567.223 1250.42 547.782C1242.56 542.603 1233.9 538.514 1225.52 534.561C1211.62 528.018 1197.24 521.24 1186.02 509.234C1157.23 478.467 1153.84 425.446 1178.45 391.048L1179.29 389.871C1193.64 369.81 1209.9 347.06 1233.01 337.011C1234.25 336.454 1235.61 335.921 1236.92 335.376C1240.18 334.11 1243.37 332.641 1246.45 330.977C1256.61 325.19 1272.61 311.027 1276.22 299.442C1279.1 290.235 1278.96 279.79 1278.84 269.703C1278.61 251.241 1278.38 232.159 1295.83 218.529C1306.62 210.115 1319.58 204.812 1332.12 199.67C1349.86 192.396 1366.6 185.531 1378.27 170.613C1383.9 163.401 1387.39 154.653 1390.76 146.202C1394.62 136.513 1398.62 126.488 1405.89 118.409C1428.33 93.4539 1458.55 75.5366 1488.8 69.242C1509.57 64.9299 1535.44 71.398 1558.01 78.2998C1581.09 85.3502 1607.9 84.5944 1642.35 75.8959L1642.72 77.3705L1642.35 75.8959C1655.81 72.5008 1669.18 68.2507 1681.74 64.1988C1723.3 50.7546 1774.52 50.5687 1818.73 63.8395C1868.34 78.6467 1905.28 108.447 1922.91 147.875C1924.37 151.382 1925.53 155.005 1926.37 158.705C1927.27 162.793 1928.63 166.767 1930.42 170.551C1943.78 196.361 1970.33 211.986 1991.97 222.704C2030.02 241.551 2054.78 261.649 2060.7 303.618C2063.11 319.098 2063.63 334.813 2062.25 350.418C2060.82 366.65 2052.83 382.337 2046.38 392.647C2044.57 395.546 2042.66 398.347 2040.73 401.06C2037.26 405.768 2034.16 410.739 2031.46 415.929C2026.96 425.148 2020.82 434.59 2014.31 444.602C2000.1 466.448 1985.39 489.049 1985.88 512.195C1986.3 531.364 1994.97 549.232 2003.36 566.53C2007.92 575.91 2012.62 585.624 2015.94 595.401C2017.73 600.191 2019.96 604.807 2022.6 609.192C2023.33 610.518 2024.07 611.856 2024.8 613.206C2033.41 629.315 2032.59 650.962 2030.66 670.081C2028.66 689.684 2022.07 708.493 2012.05 722.966C2007.89 729.025 2003 734.812 1998.26 740.412C1994.54 744.749 1990.82 749.235 1987.43 753.77L1986.23 755.405C1980.53 763.075 1975.07 770.275 1967.11 776.272C1955.5 784.884 1944.11 793.148 1932.38 799.654C1928.94 801.481 1925.41 803.135 1921.8 804.61C1919 805.849 1916.09 807.088 1913.34 808.501C1899.13 815.787 1884.97 820.21 1871.72 824.113C1843.07 832.559 1813.37 836.897 1783.51 837V837ZM1584.07 775.38C1609.37 775.38 1627.85 779.679 1645.72 789.728C1652.68 793.644 1660.01 797.163 1667.09 800.558C1675.5 804.598 1684.2 808.786 1692.42 813.668C1701.33 819.176 1710.98 823.37 1721.08 826.121C1763.97 838.115 1819.98 836.294 1870.91 821.276C1884.03 817.397 1898.02 813.023 1912 805.861C1914.84 804.399 1917.79 803.123 1920.68 801.896C1924.12 800.397 1927.68 798.861 1930.99 797.027C1942.52 790.621 1953.82 782.405 1965.34 773.856C1973.01 768.168 1978.27 761.105 1983.85 753.621L1985.09 751.985C1988.54 747.376 1992.36 742.853 1996.04 738.479C2000.73 732.941 2005.57 727.204 2009.68 721.268C2019.38 707.18 2025.81 688.903 2027.73 669.796C2029.62 651.135 2030.45 629.996 2022.22 614.669C2021.5 613.318 2020.77 612.004 2020.04 610.691C2017.32 606.122 2015.03 601.315 2013.18 596.33C2009.93 586.739 2005.27 577.111 2000.78 567.831C1992.25 550.26 1983.42 532.083 1983.01 512.245C1982.48 488.169 1997.44 465.159 2011.92 442.929C2018.37 433.017 2024.47 423.637 2028.88 414.591C2031.64 409.254 2034.79 404.134 2038.32 399.276C2040.2 396.6 2042.12 393.824 2043.9 390.986C2050.1 380.962 2057.93 365.734 2059.31 350.096C2060.67 334.718 2060.16 319.231 2057.78 303.977C2052.05 263.334 2027.88 243.769 1990.72 225.356C1968.66 214.427 1941.57 198.48 1927.81 171.877C1925.94 167.918 1924.51 163.762 1923.56 159.486C1922.75 155.952 1921.65 152.492 1920.27 149.139C1903.02 110.578 1866.71 81.3232 1818.01 66.7762C1774.37 53.7284 1723.82 53.8524 1682.82 67.1107C1670.22 71.1873 1656.78 75.4498 1643.24 78.8574C1608.21 87.6921 1580.88 88.448 1557.24 81.224C1535.04 74.4338 1509.64 68.0524 1489.55 72.2406C1459.92 78.4361 1430.29 95.9817 1408.27 120.454C1401.37 128.136 1397.47 137.9 1393.7 147.342C1390.25 156.016 1386.68 164.95 1380.79 172.496C1368.57 188.022 1350.65 195.333 1333.32 202.47C1320.98 207.525 1308.22 212.754 1297.76 220.908C1281.49 233.608 1281.75 251.092 1281.94 269.679C1282.06 280.013 1282.2 290.743 1279.19 300.371C1275.33 312.7 1258.61 327.631 1248 333.641C1244.8 335.371 1241.48 336.894 1238.08 338.201C1236.84 338.734 1235.52 339.266 1234.24 339.824C1211.91 349.538 1195.89 371.917 1181.77 391.656L1180.93 392.833C1157.12 426.115 1160.4 477.414 1188.25 507.189C1199.08 518.762 1213.19 525.416 1226.83 531.847C1235.3 535.837 1244.07 539.976 1252.11 545.267C1283.03 565.675 1280.84 604.173 1278.9 638.199C1278.5 645.126 1278.13 651.668 1278.06 657.876C1277.67 686.127 1292.7 731.218 1336.01 773.112C1371.05 806.952 1421.59 818.785 1478.25 806.419C1506.64 800.299 1534.28 791.1 1560.67 778.985C1568.11 775.504 1573.97 775.516 1581.32 775.504H1584.03L1584.07 775.38Z" stroke="url(#paint1_linear_1_1978)" stroke-width="2" stroke-miterlimit="10"/>
<path d="M1845.85 852C1837.77 852 1829.74 851.802 1821.75 851.616L1810.53 851.355C1786.99 850.897 1761.71 849.893 1736.45 845.653C1711.19 841.414 1684.66 834.422 1653.14 823.724C1649.61 822.484 1646.04 821.245 1642.45 820.005C1611.59 809.22 1579.65 798.076 1547.83 808.576C1544.95 809.53 1542.1 810.795 1539.35 812.009C1536.16 813.494 1532.9 814.786 1529.56 815.877C1526.65 816.757 1523.66 817.489 1520.77 818.195C1516.71 819.113 1512.69 820.251 1508.74 821.604C1498.83 825.249 1488.7 828.249 1478.92 831.149C1474.15 832.563 1469.36 833.988 1464.55 835.488C1451.73 839.604 1438.37 841.776 1424.91 841.934C1422.28 841.934 1419.64 841.934 1416.99 841.934C1400.04 842.021 1382.51 842.083 1366.36 835.612L1365.42 835.228C1359.12 832.749 1352.6 830.096 1347.04 825.918C1345.66 824.877 1344.34 823.823 1343.04 822.782C1339.7 819.95 1336.09 817.458 1332.26 815.344C1319.39 808.65 1307.8 799.746 1298.01 789.039C1266.74 754.689 1263.32 721.938 1259.43 684.005C1257.91 669.266 1256.32 654.018 1252.99 637.581C1246.62 606.144 1235.64 583.272 1218.3 565.583C1215.11 562.56 1211.58 559.926 1207.77 557.736C1205.57 556.36 1203.31 554.922 1201.14 553.31C1198.31 551.203 1195.63 548.959 1193.02 546.79C1189.15 543.425 1185.07 540.299 1180.81 537.431C1178.27 535.794 1175.67 534.195 1173.06 532.596C1162.09 525.865 1150.76 518.898 1142.87 508.113C1134.7 496.607 1128.52 483.804 1124.61 470.243C1116.02 441 1123.01 404.815 1142.86 375.832C1161.72 348.288 1189.94 336.97 1217.28 326.024C1232.72 319.826 1237.2 309.041 1232.78 288.76C1230.65 278.967 1229.76 271.567 1231.54 262.728C1239.89 220.469 1268.28 211.556 1295.73 202.941C1316.44 196.445 1337.86 189.726 1352.08 169.086C1360 157.595 1364.68 144.492 1369.21 131.81C1374.62 116.712 1380.19 101.092 1391.29 87.7538C1408.64 66.9032 1436.68 48.817 1468.21 38.0941C1498.76 27.7184 1537.74 42.1725 1569.04 53.7879C1573.34 55.387 1577.48 56.9242 1581.43 58.325C1608.29 67.8949 1631.3 57.7671 1655.65 47.0443C1661.84 44.3171 1668.27 41.4907 1674.73 39.0239C1693.43 31.9332 1713.03 27.4896 1732.96 25.8218C1752.88 24.0161 1772.97 25.1901 1792.55 29.3051C1825.72 36.4454 1873 55.3374 1898.42 79.9194C1909.68 90.8281 1916.71 104.712 1923.49 118.174C1930.93 133.05 1938.75 148.397 1952.23 159.38C1968.85 172.929 1988.95 180.776 2008.39 188.375C2036.88 199.532 2066.26 210.973 2084.95 240.514C2090.01 248.522 2091.73 257.174 2092.76 267.687C2093.61 276.416 2094.03 285.183 2094 293.954V293.954C2093.71 341.445 2077.99 375.175 2052.72 414.199L2051.48 416.182C2027.52 453.173 2002.74 491.428 2010.59 536.575C2012.81 549.43 2017.75 561.789 2021.74 571.124C2025.99 580.929 2032.89 591.268 2040.09 602.214C2053.57 622.556 2067.52 643.593 2067.05 664.543C2066.07 708.475 2033.43 756.933 2005.79 785.085C1991.11 799.948 1974.54 812.803 1956.5 823.315C1936.94 834.769 1917.14 842.802 1897.65 847.178C1880.68 851.083 1863.2 852 1845.85 852ZM1574.93 801.336C1598.15 801.336 1621.08 809.344 1643.46 817.154C1647.04 818.394 1650.59 819.633 1654.12 820.873C1685.48 831.521 1711.81 838.451 1736.96 842.678C1762.11 846.905 1787.16 847.897 1810.59 848.343L1821.83 848.603C1846.72 849.211 1872.46 849.843 1897.03 844.327C1917.45 839.5 1937.01 831.556 1955.01 820.774C1972.83 810.396 1989.19 797.704 2003.67 783.027C2030.92 755.271 2063.14 707.583 2064.07 664.555C2064.51 644.547 2050.83 623.92 2037.61 603.962C2030.29 592.904 2023.37 582.454 2019.03 572.413C2014.92 562.918 2009.89 550.335 2007.62 537.17C1999.6 490.845 2024.7 452.094 2048.98 414.608L2050.21 412.624C2075.19 374.035 2090.73 340.726 2091.01 293.992C2091.04 285.323 2090.63 276.66 2089.77 268.034C2088.79 257.943 2087.17 249.687 2082.43 242.187C2064.26 213.49 2036.59 202.68 2007.32 191.251C1987.66 183.577 1967.34 175.631 1950.33 161.785C1936.34 150.392 1928.44 134.736 1920.79 119.637C1914.12 106.423 1907.17 92.7496 1896.31 82.2003C1871.32 58.0274 1824.69 39.4205 1791.93 32.367C1772.64 28.3157 1752.85 27.1626 1733.22 28.9456C1713.57 30.59 1694.24 34.971 1675.8 41.9618C1669.42 44.4411 1663.04 47.2054 1656.87 49.9202C1633.05 60.4199 1608.42 71.2667 1580.42 61.2877C1576.45 59.8745 1572.3 58.325 1568.03 56.7382C1537.17 45.284 1498.76 31.0282 1469.22 41.0693C1438.25 51.6061 1410.66 69.3701 1393.65 89.7868C1382.88 102.716 1377.39 118.075 1372.08 132.938C1367.48 145.793 1362.73 159.095 1354.58 170.908C1339.72 192.404 1317.85 199.284 1296.65 205.94C1268.82 214.618 1242.53 222.923 1234.53 263.41C1232.88 271.703 1233.75 278.769 1235.77 288.202C1239.11 303.562 1239.67 320.433 1218.42 328.924C1191.51 339.697 1163.7 350.854 1145.32 377.642C1125.98 405.893 1119.15 441.086 1127.48 469.474C1131.3 482.701 1137.32 495.189 1145.29 506.415C1152.81 516.716 1163.87 523.51 1174.61 530.092C1177.24 531.704 1179.85 533.315 1182.42 534.964C1186.78 537.898 1190.96 541.098 1194.93 544.546C1197.5 546.691 1200.16 548.91 1202.91 550.968C1204.98 552.505 1207.2 553.905 1209.35 555.257C1213.36 557.573 1217.08 560.357 1220.43 563.55C1238.12 581.673 1249.38 605.028 1255.88 637.06C1259.25 653.646 1260.83 668.968 1262.36 683.782C1266.22 721.181 1269.57 753.474 1300.17 787.08C1309.73 797.533 1321.05 806.219 1333.62 812.741C1337.62 814.958 1341.39 817.566 1344.88 820.526C1346.12 821.542 1347.47 822.584 1348.82 823.6C1354.06 827.542 1360.39 830.071 1366.51 832.525L1367.46 832.91C1383.05 839.108 1400.26 839.108 1416.94 839.009H1424.88C1438.03 838.909 1451.09 836.781 1463.6 832.699C1468.43 831.199 1473.22 829.773 1478.01 828.36C1487.74 825.472 1497.83 822.484 1507.65 818.865C1511.72 817.464 1515.85 816.292 1520.04 815.356C1522.89 814.662 1525.83 813.943 1528.72 813.088C1531.93 812.032 1535.08 810.79 1538.16 809.369C1541.02 808.046 1543.94 806.867 1546.92 805.836C1555.95 802.843 1565.41 801.323 1574.93 801.336V801.336Z" stroke="url(#paint2_linear_1_1978)" stroke-width="2" stroke-miterlimit="10"/>
<path d="M1857.58 882C1836.93 882 1816.26 879.212 1796.2 876.511L1786.1 875.161C1772.47 873.389 1761.18 871.568 1749.8 865.881C1738.2 860.083 1727.05 857.444 1714.71 854.829C1647.12 840.457 1581.19 829.022 1517.7 846.615C1508.42 849.192 1499.12 852.475 1490.21 855.647C1476.37 860.603 1462.06 865.633 1447.25 868.247C1431.31 871.06 1414.88 871.283 1399 871.506C1388.98 871.655 1378.62 871.791 1368.54 872.584C1303.92 877.664 1257.35 817.103 1239.78 754.808C1236.63 743.657 1236.93 732.023 1237.21 720.773L1237.29 717.725C1237.71 699.488 1237.29 673.556 1232.71 653.621C1230.24 642.854 1225.64 632.558 1221.44 623.997C1211.59 603.802 1191.49 593.296 1172.06 583.111C1158.1 575.801 1143.65 568.244 1132.92 557.093C1130.44 554.615 1128.09 552.137 1125.72 549.659C1098.25 521.572 1076.57 499.382 1081.78 454.965C1085.13 426.295 1093.98 386.995 1117.01 362.562C1132.22 346.456 1149.41 330.894 1172.11 326.285C1174.71 325.826 1177.33 325.586 1179.97 325.567C1182.72 325.564 1185.47 325.274 1188.16 324.7C1208.69 319.434 1204.87 303.216 1200.83 286.031C1198.94 278.028 1197.12 270.457 1197.82 263.879C1199.95 242.816 1206.6 229.448 1220.03 218.978C1232.33 209.401 1249.38 201.174 1270.7 194.558C1282.11 191.015 1292.76 187.707 1302.71 181.239C1312.57 174.967 1321.61 167.474 1329.59 158.938C1342.1 145.037 1346.41 127.964 1350.97 110.023C1353.06 101.082 1355.69 92.2775 1358.86 83.6582C1367.42 61.6169 1383.29 42.8837 1406.03 27.9666C1450.75 -1.34744 1492.91 13.6565 1537.55 29.6392L1544.28 32.0428C1547.2 33.0711 1550.09 34.1366 1552.95 35.1773C1575.4 43.3917 1596.6 51.1477 1620.59 44.0731C1631.74 40.7527 1642.15 34.7313 1652.16 28.8958C1662.17 23.0602 1672.76 16.9026 1684.28 13.4582C1714.58 4.41375 1746.74 3.41019 1777.84 2.44379L1786.87 2.15883C1849.03 0.0897568 1888.54 18.1291 1918.94 62.5214C1931.21 80.7455 1942.26 99.7642 1952.02 119.452C1958.22 131.842 1969.89 138.805 1980.52 143.959C1993.53 150.302 2006.54 155.184 2019.08 159.904C2042.07 168.577 2063.81 176.717 2084.93 192.923C2087.66 195.017 2090.43 197.036 2093.22 199.056C2098.95 203.072 2104.46 207.403 2109.71 212.028C2129.54 229.943 2136.86 259.703 2131.08 298.087C2124.79 340.125 2105.99 375.435 2100.42 385.347C2097.44 390.563 2094.06 395.915 2089.44 402.693C2085.23 408.887 2080.63 415.082 2075.81 421.785C2059.62 443.913 2041.25 469.002 2035.7 494.451C2031.52 513.679 2037.91 533.082 2044.02 545.992C2051.75 562.334 2063.22 579.196 2077.2 594.745C2081.92 599.986 2087.21 606.367 2090.83 613.9C2104.27 642.309 2103.08 685.016 2095.15 710.775C2084.24 746.184 2070.1 772.574 2050.67 793.785L2047.12 797.676C2033.85 812.283 2020.12 827.411 2002.6 835.972C1997.94 838.252 1993.08 840.16 1988.4 842.006C1983.21 844.05 1977.85 846.157 1972.82 848.746C1951.09 859.949 1928.32 869.007 1904.84 875.793C1891.78 879.54 1878.29 881.581 1864.71 881.864C1862.28 881.963 1859.92 882 1857.58 882ZM1587.57 834.647C1629.39 834.647 1672.02 842.65 1715.34 851.856C1727.42 854.421 1739.25 857.221 1751.16 863.168C1762.13 868.644 1773.18 870.416 1786.5 872.163C1789.87 872.596 1793.24 873.055 1796.61 873.513C1818.82 876.499 1841.78 879.621 1864.52 878.853C1877.84 878.579 1891.07 876.584 1903.88 872.918C1927.19 866.176 1949.78 857.188 1971.35 846.082C1976.51 843.526 1981.8 841.231 1987.2 839.206C1991.83 837.385 1996.63 835.489 2001.17 833.271C2018.17 824.946 2031.7 810.053 2044.79 795.656L2048.34 791.754C2067.46 770.852 2081.39 744.821 2092.17 709.858C2099.94 684.645 2101.11 642.953 2087.99 615.176C2084.6 607.99 2079.48 601.832 2074.91 596.74C2060.74 580.98 2049.1 563.87 2041.23 547.255C2032.19 528.151 2029.24 509.653 2032.71 493.782C2038.39 467.763 2056.95 442.34 2073.33 419.976C2078.18 413.348 2082.75 407.103 2086.96 400.958C2091.55 394.243 2094.89 388.952 2097.82 383.798C2109.23 363.777 2123.19 330.622 2128.15 297.628C2132.06 271.61 2131.7 236.002 2107.74 214.27C2102.54 209.725 2097.1 205.464 2091.44 201.509C2088.64 199.477 2085.82 197.445 2083.07 195.314C2062.32 179.393 2040.8 171.303 2018.01 162.729C2005.38 157.984 1992.33 153.078 1979.19 146.623C1968.15 141.245 1955.97 133.96 1949.36 120.753C1939.64 101.207 1928.64 82.3289 1916.42 64.2436C1886.69 20.8053 1847.94 3.15001 1786.96 5.1943L1777.92 5.47927C1747.02 6.44567 1715.07 7.43684 1685.13 16.3698C1673.98 19.7026 1663.65 25.7116 1653.67 31.5224C1643.51 37.4447 1633.01 43.5652 1621.46 46.9723C1596.51 54.4061 1574.85 46.4148 1551.91 38.027C1549.05 36.9862 1546.16 35.9331 1543.24 34.9048L1536.5 32.5012C1492.67 16.8158 1451.14 2.01015 1407.74 30.5064C1385.54 45.0643 1370.06 63.3267 1361.72 84.7485C1358.61 93.2851 1356.02 102.003 1353.97 110.854C1349.51 128.422 1344.9 146.598 1331.9 161.044C1323.74 169.791 1314.5 177.472 1304.42 183.903C1294.11 190.606 1283.28 193.964 1271.81 197.532C1250.68 204.086 1233.95 212.139 1221.95 221.493C1209.22 231.405 1202.93 244.204 1200.88 264.312C1200.26 270.383 1201.99 277.705 1203.82 285.461C1207.82 302.472 1212.37 321.763 1188.95 327.76C1186.05 328.397 1183.08 328.716 1180.11 328.714C1177.64 328.736 1175.18 328.96 1172.76 329.383C1150.89 333.831 1134.11 349.021 1119.26 364.768C1096.79 388.593 1088.13 427.224 1084.82 455.448C1079.78 498.428 1101.03 520.147 1127.93 547.652C1130.3 550.13 1132.71 552.608 1135.14 555.086C1145.54 565.852 1159.75 573.286 1173.55 580.472C1193.38 590.867 1213.97 601.535 1224.25 622.684C1228.54 631.456 1233.25 641.9 1235.76 652.964C1240.37 673.209 1240.83 699.413 1240.41 717.824L1240.33 720.872C1240.05 731.899 1239.76 743.297 1242.81 754.015C1260.05 815.108 1305.61 874.504 1368.4 869.598C1378.59 868.793 1389.01 868.644 1399.07 868.508C1414.83 868.285 1431.13 868.049 1446.84 865.286C1461.39 862.722 1475.58 857.679 1489.3 852.81C1498.31 849.626 1507.62 846.318 1517 843.716C1540 837.503 1563.74 834.451 1587.57 834.647Z" stroke="url(#paint3_linear_1_1978)" stroke-width="2" stroke-miterlimit="10"/>
<path d="M1860.99 921C1859.33 921 1857.65 921 1855.94 920.827C1851.22 920.467 1846.44 920.133 1841.66 919.811C1811.9 917.767 1781.26 915.661 1752.95 906.272C1741.79 902.556 1730.84 897.924 1720.24 893.427C1702.12 885.76 1683.4 877.82 1663.51 874.538C1638.58 870.438 1612.91 871.962 1588.07 873.448C1581.04 873.869 1574.03 874.29 1566.99 874.588C1537.64 875.826 1510.64 883.964 1484.53 891.83C1464.31 897.911 1443.41 904.216 1421.29 907.399C1407.45 909.406 1392.99 909.233 1379.01 909.072C1375.96 909.072 1372.93 908.997 1369.92 908.985C1334.66 908.836 1289.01 898.754 1266.57 870.921C1264.43 868.27 1262.24 865.62 1260.06 862.969C1251.55 852.7 1242.7 842.073 1236.25 830.207C1225.39 810.388 1218.67 791.969 1216.27 775.346C1213.51 756.184 1214.19 736.106 1214.85 716.684C1215.11 709.041 1215.38 701.139 1215.42 693.508C1215.58 666.667 1210.29 644.755 1199.71 628.392C1190.15 613.615 1179.34 609.391 1166.81 604.486C1159.87 601.955 1153.17 598.821 1146.78 595.122C1143.08 592.777 1139.56 590.178 1136.24 587.343C1133.76 585.287 1131.09 583.157 1128.41 581.336C1124.39 578.762 1120.16 576.517 1115.78 574.622C1112.13 572.999 1108.57 571.179 1105.11 569.172C1051.08 536.497 1034.88 455.848 1050.88 399.873C1054.16 388.366 1059.87 378.68 1065.91 368.411L1066.43 367.519C1082.38 340.356 1109.17 334.076 1137.53 327.374L1143.81 325.888C1171.57 319.212 1171.8 293.757 1172.01 269.133C1172.01 264.042 1172.11 259.224 1172.38 254.566C1174.55 218.645 1191.21 196.87 1223.33 187.939C1227.57 186.762 1231.79 185.536 1235.99 184.31C1246.06 181.374 1256.47 178.352 1266.99 176.06C1287.19 171.675 1300.75 166.733 1314.54 153.145C1333.2 134.764 1337.72 118.735 1340.29 91.8566C1340.93 85.366 1341.06 78.4295 1341.21 71.0967C1341.68 47.3765 1342.22 20.4976 1361.05 4.20931C1406.17 -34.9446 1469.51 -24.094 1519.64 -10.2706L1521.09 -9.8742C1576.77 5.47274 1613.53 15.6049 1666.25 -14.3705C1687.33 -26.3607 1711.29 -31.2782 1736.05 -35.6382C1804.49 -47.7275 1868.08 -34.3996 1910.46 0.778238C1927.82 15.1962 1938.58 34.9403 1949.01 54.0404C1960.37 74.8374 1972.1 96.3405 1992.29 110.449C2007.33 120.953 2029.24 130.478 2052.42 136.584C2057.75 137.82 2063.19 138.484 2068.65 138.566C2071.88 138.727 2075.21 138.888 2078.66 139.309C2105.6 142.641 2132.14 157.295 2149.65 178.5C2167.94 200.648 2179.73 230.524 2181.19 258.493L2181.55 264.686C2182.16 275.227 2182.51 285.483 2180.16 294.798C2172.72 324.228 2157.6 366.206 2127.37 399.08C2122.26 404.642 2116.91 410.228 2111.73 415.579C2093.03 435.014 2073.69 455.117 2061.3 479.667C2058.1 485.997 2053.6 495.547 2051.38 505.332C2049.35 514.498 2051.38 521.051 2054.41 529.325C2055.37 531.914 2056.14 534.515 2056.89 537.017C2058.54 542.517 2060.1 547.719 2063.35 552.55C2066.11 556.674 2069.55 559.672 2073.27 562.843C2076.47 565.45 2079.42 568.353 2082.08 571.513C2087.74 578.599 2095.36 584.495 2103.42 590.737C2117.77 601.811 2132.6 613.281 2135.56 632.034C2145.68 695.936 2112.52 751.701 2078.76 797.816C2076.97 800.293 2075.25 802.77 2073.53 805.148C2067.27 814.067 2060.78 823.282 2052.04 830.64C2038.37 842.172 2023.42 851.784 2008.89 861.086C1995.47 869.757 1981.61 878.601 1968.94 888.944C1967 890.517 1965.11 892.164 1963.21 893.811C1957.85 898.444 1952.31 903.25 1945.85 906.644C1939.39 910.038 1932.11 911.834 1925.1 913.531C1922.54 914.15 1919.98 914.769 1917.48 915.463C1908.4 917.94 1900.7 918.337 1891.8 918.733L1887.11 918.956C1883.39 919.154 1879.77 919.551 1876.24 919.922C1871.18 920.556 1866.09 920.916 1860.99 921V921ZM1627.26 868.865C1639.56 868.758 1651.85 869.657 1664.01 871.553C1684.24 874.885 1703.15 882.899 1721.43 890.641C1731.98 895.112 1742.88 899.732 1753.9 903.386C1781.85 912.664 1812.36 914.757 1841.87 916.776L1856.18 917.792C1862.77 918.113 1869.39 917.819 1875.93 916.912C1879.5 916.528 1883.21 916.132 1886.96 915.934L1891.68 915.711C1900.36 915.315 1907.93 914.98 1916.67 912.54C1919.15 911.834 1921.81 911.215 1924.41 910.583C1931.22 908.935 1938.27 907.226 1944.44 903.968C1950.6 900.711 1955.95 896.041 1961.19 891.582C1963.11 889.91 1965.03 888.25 1966.98 886.627C1979.77 876.185 1993.71 867.23 2007.2 858.572C2021.62 849.319 2036.53 839.744 2050.13 828.299C2058.56 821.189 2064.65 812.543 2071.08 803.377C2072.82 800.9 2074.56 798.423 2076.34 796.007C2109.75 750.388 2142.54 695.292 2132.6 632.505C2129.82 614.941 2115.47 603.855 2101.6 593.128C2093.74 587.059 2085.62 580.741 2079.73 573.396C2077.19 570.392 2074.37 567.638 2071.31 565.171C2067.33 562.038 2063.8 558.37 2060.83 554.271C2057.32 549.057 2055.62 543.384 2053.97 537.909C2053.24 535.431 2052.47 532.954 2051.55 530.402C2048.42 521.93 2046.2 514.647 2048.41 504.7C2050.61 494.754 2055.26 484.795 2058.54 478.317C2071.13 453.37 2090.64 433.106 2109.5 413.498C2114.66 408.135 2120 402.586 2125.08 397.061C2154.84 364.646 2169.85 323.163 2177.16 294.079C2179.41 285.173 2179.06 275.19 2178.46 264.884L2178.35 262.828L2178.12 258.716C2176.68 231.403 2165.13 202.159 2147.25 180.495C2130.48 160.168 2104.03 145.565 2078.24 142.381C2074.9 141.973 2071.62 141.812 2068.46 141.65C2062.78 141.562 2057.13 140.864 2051.6 139.57C2028.05 133.376 2005.81 123.702 1990.49 112.988C1969.73 98.471 1957.81 76.6583 1946.3 55.5516C1936 36.6992 1925.37 17.2152 1908.48 3.18123C1866.78 -31.5011 1804.1 -44.507 1736.52 -32.5911C1712.04 -28.2682 1688.36 -23.4251 1667.72 -11.6826C1613.94 18.8626 1576.68 8.557 1520.29 -6.95097L1518.83 -7.34734C1424.78 -33.26 1386.16 -13.6149 1363.05 6.40173C1345.17 21.8478 1344.7 46.9553 1344.21 71.1091C1344.08 78.541 1343.93 85.4899 1343.29 92.1043C1340.64 119.726 1335.98 136.225 1316.65 155.276C1302.33 169.384 1288.37 174.5 1267.61 178.996C1257.16 181.263 1246.8 184.285 1236.78 187.196C1232.57 188.434 1228.34 189.673 1224.09 190.837C1193.37 199.384 1177.44 220.28 1175.36 254.727C1175.07 259.31 1175.03 264.079 1174.98 269.133C1174.77 293.72 1174.53 321.59 1144.46 328.811L1138.16 330.298C1110.46 336.801 1084.29 342.994 1068.98 369.006L1068.46 369.897C1062.52 379.993 1056.92 389.518 1053.73 400.653C1033.58 471.182 1065.5 541.662 1106.63 566.534C1109.98 568.48 1113.44 570.246 1116.99 571.823C1121.54 573.795 1125.91 576.14 1130.07 578.834C1132.85 580.729 1135.53 582.897 1138.11 585.027C1141.32 587.772 1144.72 590.288 1148.29 592.558C1154.58 596.174 1161.18 599.233 1168 601.699C1180.48 606.58 1192.26 611.187 1202.35 626.782C1213.25 643.615 1218.69 666.085 1218.54 693.533C1218.54 701.213 1218.23 709.14 1217.97 716.795C1217.32 736.081 1216.63 756.036 1219.36 774.925C1221.71 791.189 1228.31 809.31 1239 828.757C1245.38 840.363 1254.07 850.88 1262.47 861.049C1264.68 863.712 1266.88 866.363 1269.02 869.026C1290.8 896.029 1335.47 905.814 1370.02 905.963C1373.03 905.963 1376.07 905.963 1379.13 906.049C1393 906.21 1407.34 906.384 1420.94 904.414C1442.81 901.243 1463.61 894.988 1483.71 888.944C1510.01 881.029 1537.2 872.841 1566.92 871.602C1573.91 871.305 1580.92 870.884 1587.92 870.463C1600.89 869.645 1614.08 868.865 1627.29 868.865H1627.26Z" stroke="url(#paint4_linear_1_1978)" stroke-width="2" stroke-miterlimit="10"/>
<path d="M1884.19 950C1872.43 950 1860.16 947.658 1848.26 945.378C1846.3 945.006 1844.35 944.622 1842.43 944.275C1810.83 938.414 1777.16 931.19 1744.9 918.166C1729.23 911.847 1715 906.494 1699.6 905.056C1688.07 903.978 1676.62 902.107 1665.56 900.31C1642.92 896.593 1621.52 893.123 1598.55 895.564L1589.41 896.506C1582.37 897.213 1575.1 897.944 1568.02 898.898C1546.62 901.748 1524.92 908.737 1503.94 915.49C1494.59 918.501 1484.91 921.611 1475.45 924.263C1470.33 925.828 1465.3 927.682 1460.39 929.814C1454.03 932.441 1447.45 935.155 1440.56 936.568L1439.96 936.679C1427.75 939.158 1415.18 941.71 1402.33 939.69C1393.57 938.526 1384.74 937.913 1375.9 937.856C1360.31 937.435 1344.19 936.989 1329.89 930.669C1322.17 927.262 1314.33 924.251 1306.74 921.339C1279.49 910.88 1253.75 901.004 1235.43 874.251C1212.99 841.538 1202.16 809.457 1200.32 770.163C1200.11 765.839 1199.77 761.489 1199.44 757.227C1198.92 750.436 1198.37 743.423 1198.37 736.446C1198.37 732.332 1198.48 728.206 1198.61 724.055C1199.01 715.962 1198.93 707.852 1198.37 699.768C1197.07 685.233 1192.26 676.224 1186.7 665.728C1183.56 660.053 1180.75 654.203 1178.28 648.207C1175.48 641.193 1174 638.653 1167.21 635.568C1135.29 621.008 1109.78 607.984 1086.95 594.565C1068.27 583.672 1051.17 563.512 1041.41 548.357C1038.26 543.251 1035.41 537.968 1032.86 532.533C1031.02 528.816 1029.15 524.888 1027.03 521.195C1025.79 518.977 1024.55 516.808 1023.31 514.665C1016.51 503.017 1010.08 492.013 1007.7 477.726C1000.99 437.355 1014.48 389.226 1042.09 355.113C1048.91 346.699 1057.92 342.374 1066.57 338.669C1074.17 335.623 1081.97 333.089 1089.91 331.086C1104.53 327.046 1119.64 322.87 1130.97 312.214C1144.22 299.736 1144.38 283.292 1144.59 265.895C1144.59 261.582 1144.67 257.134 1144.93 252.797C1146.17 232.537 1147.64 207.308 1163.02 191.695C1177.06 177.222 1201.74 174.421 1223.46 171.943C1230.77 171.125 1237.67 170.344 1243.76 169.18C1246.24 168.696 1248.93 168.411 1251.49 168.139C1256.05 167.643 1260.75 167.135 1264.75 165.549C1304.99 149.638 1307.46 106.268 1310.08 60.1847C1311.95 27.3474 1313.88 -6.60509 1330.9 -29.616C1336.75 -37.4721 1347.11 -44.7831 1354.8 -48.5005C1360.13 -51.0903 1366.09 -52.0196 1371.85 -52.9118L1373.87 -53.234C1406.07 -58.4136 1444.7 -56.6169 1491.85 -47.7322C1498.79 -46.2605 1505.61 -44.3189 1512.28 -41.9206C1515.1 -40.9789 1517.92 -40.0371 1520.73 -39.1697C1579.2 -21.2022 1642.59 -25.1303 1690.29 -49.6653C1693.34 -51.2266 1696.36 -52.9862 1699.28 -54.6962C1704.4 -57.8399 1709.74 -60.5904 1715.28 -62.9241C1736.09 -71.1148 1764.9 -70.2722 1788.04 -69.5907L1794.56 -69.4172C1806.47 -69.1074 1818.22 -67.4346 1829.6 -65.8237C1836.52 -64.8448 1843.68 -63.8287 1850.8 -63.1347L1852.68 -62.9489C1860.57 -62.193 1868.02 -61.4743 1875.79 -58.4384C1899.33 -49.2687 1919.87 -36.0223 1936.92 -24.2753C1957.59 -10.0251 1965.57 8.28939 1974.8 29.4787C1976.04 32.242 1977.28 35.0672 1978.52 37.9297C1997.83 81.1757 2042.81 97.7059 2086.29 113.703C2107.35 121.448 2129.16 129.453 2147.34 140.382C2176.88 158.126 2198.6 193.516 2211.89 245.597C2212.41 247.654 2212.87 249.72 2213.29 251.793C2220.98 290.566 2211.9 340.156 2191.22 372.386C2186.79 379.025 2181.98 385.401 2176.8 391.482C2173.83 395.112 2170.75 398.855 2167.91 402.634C2165.53 405.794 2163.24 409.077 2161.03 412.262C2156.89 418.514 2152.34 424.483 2147.41 430.13C2144 433.856 2140.59 437.574 2137.16 441.283C2122.53 457.206 2107.43 473.674 2093.29 490.576C2085.14 500.34 2079.01 508.791 2080.2 521.083C2082.68 546.04 2102 561.058 2120.73 575.606C2130.61 583.338 2140.88 591.318 2148.53 600.686C2172.7 630.425 2173.88 670.301 2152.11 722.58C2150.74 725.889 2149.4 729.21 2148.06 732.493C2143.89 742.877 2139.56 753.621 2134.08 763.658C2131.88 767.437 2129.27 770.964 2126.31 774.178C2124.88 775.839 2123.43 777.511 2122.05 779.345C2120.71 781.161 2119.47 783.048 2118.33 784.996C2116.72 787.797 2114.86 790.444 2112.77 792.902C2102.05 804.686 2092.08 817.474 2082.44 829.853C2069.76 846.123 2056.64 862.938 2041.66 877.758C2014.4 904.722 1977.41 927.051 1937.6 940.607C1921.53 945.965 1904.8 949.076 1887.88 949.851C1886.63 949.988 1885.41 950 1884.19 950ZM1614.12 891.76C1631.9 891.76 1649.2 894.586 1666.06 897.336C1677.08 899.133 1688.47 901.054 1699.89 902.058C1715.68 903.532 1730.74 909.207 1746.04 915.378C1778.05 928.303 1811.56 935.477 1842.99 941.314L1848.85 942.429C1861.82 944.907 1875.27 947.46 1887.72 946.927C1904.35 946.151 1920.8 943.091 1936.59 937.832C1976.03 924.412 2012.58 902.355 2039.54 875.701C2054.41 861.017 2067.43 844.276 2080.06 828.081C2089.74 815.689 2099.75 802.827 2110.53 790.907C2112.5 788.598 2114.25 786.109 2115.75 783.472C2116.95 781.432 2118.25 779.459 2119.66 777.561C2121.09 775.677 2122.59 773.943 2124.03 772.257C2126.87 769.21 2129.36 765.856 2131.46 762.258C2136.85 752.344 2141.14 741.725 2145.29 731.415C2146.63 728.082 2147.96 724.749 2149.35 721.428C2170.65 670.276 2169.62 631.404 2146.23 602.619C2138.8 593.499 2128.65 585.606 2118.81 577.985C2099.57 563.115 2079.68 547.638 2077.13 521.381C2075.81 507.911 2082.29 498.952 2090.9 488.63C2105.05 471.679 2120.21 455.174 2134.87 439.226L2145.1 428.073C2149.96 422.527 2154.44 416.661 2158.52 410.515C2160.74 407.318 2163.04 403.997 2165.46 400.8C2168.34 396.971 2171.44 393.192 2174.44 389.549C2179.56 383.55 2184.33 377.261 2188.72 370.714C2209.01 339.091 2217.91 290.43 2210.36 252.363C2209.97 250.343 2209.51 248.336 2209 246.329C2195.91 195.065 2174.66 160.283 2145.82 142.972C2127.88 132.191 2106.18 124.236 2085.29 116.541C2041.19 100.333 1995.59 83.5673 1975.77 39.1564C1974.53 36.2816 1973.29 33.4564 1972.05 30.6807C1963.01 9.91267 1955.2 -8.0301 1935.24 -21.7846C1918.33 -33.4325 1897.93 -46.5674 1874.73 -55.6255C1867.29 -58.5127 1860.1 -59.2067 1852.43 -59.9378L1850.56 -60.1236C1843.37 -60.8299 1836.19 -61.846 1829.22 -62.8373C1817.94 -64.4358 1806.27 -66.0963 1794.54 -66.3937L1788.01 -66.5796C1765.13 -67.2487 1736.67 -68.0789 1716.43 -60.1236C1711.04 -57.836 1705.84 -55.1478 1700.86 -52.0816C1697.89 -50.3592 1694.83 -48.5748 1691.73 -46.9763C1643.29 -22.0696 1579.05 -18.0795 1519.84 -36.233C1517 -37.1004 1514.16 -38.0545 1511.31 -39.0087C1504.77 -41.3551 1498.09 -43.2635 1491.29 -44.7211C1444.48 -53.581 1406.25 -55.3653 1374.35 -50.2477L1372.3 -49.8635C1366.77 -48.9961 1361.04 -48.104 1356.11 -45.7124C1349 -42.2676 1338.84 -35.1797 1333.34 -27.7449C1316.87 -5.4403 1314.96 28.0165 1313.11 60.4201C1310.55 105.364 1307.91 151.856 1265.86 168.486C1261.49 170.22 1256.57 170.753 1251.82 171.261C1249.2 171.546 1246.71 171.819 1244.38 172.277C1238.19 173.517 1231.21 174.248 1223.84 175.078C1202.63 177.469 1178.58 180.171 1165.11 193.851C1150.54 208.721 1149.08 233.243 1147.9 252.995C1147.64 257.27 1147.6 261.669 1147.57 265.944C1147.39 283.218 1147.23 301.086 1133.04 314.444C1121.16 325.596 1105.68 329.896 1090.7 334.035C1082.9 335.997 1075.23 338.481 1067.76 341.47C1059.37 344.977 1050.76 349.14 1044.38 356.984C1017.3 390.441 1004.05 437.627 1010.63 477.181C1012.92 490.935 1019.21 501.703 1025.86 513.116C1027.1 515.272 1028.34 517.453 1029.67 519.683C1031.8 523.401 1033.72 527.378 1035.59 531.17C1038.08 536.512 1040.87 541.705 1043.96 546.721C1053.54 561.591 1070.26 581.33 1088.56 592.061C1111.31 605.432 1136.71 618.406 1168.55 632.953C1176.25 636.46 1178.22 639.83 1181.16 647.228C1183.6 653.123 1186.37 658.874 1189.46 664.452C1194.94 674.762 1200.11 684.501 1201.47 699.644C1202.03 707.847 1202.12 716.077 1201.72 724.29C1201.59 728.392 1201.47 732.493 1201.48 736.583C1201.48 743.447 1202.01 750.399 1202.53 757.128C1202.88 761.465 1203.22 765.802 1203.41 770.163C1205.23 808.8 1215.9 840.398 1238 872.628C1255.79 898.563 1281.1 908.278 1307.91 918.563C1315.53 921.487 1323.41 924.511 1331.19 927.943C1344.95 934.027 1360.76 934.461 1376.06 934.882C1385.03 934.926 1393.99 935.547 1402.88 936.741C1415.14 938.699 1426.94 936.295 1439.44 933.755L1440.03 933.643C1446.67 932.293 1453.11 929.641 1459.34 927.063C1464.37 924.883 1469.51 922.992 1474.74 921.401C1484.08 918.761 1493.73 915.651 1503.06 912.652C1524.12 905.849 1546 898.823 1567.67 895.936C1574.79 894.982 1582.09 894.251 1589.15 893.532L1598.28 892.603C1603.53 892.034 1608.82 891.744 1614.1 891.736L1614.12 891.76Z" stroke="url(#paint5_linear_1_1978)" stroke-width="2" stroke-miterlimit="10"/>
<path d="M1859.24 988.999C1854.12 988.999 1849.09 988.615 1843.9 988.231L1837.28 987.761C1819.43 986.659 1798.79 980.442 1780.58 974.957L1772.14 972.48C1764.41 970.032 1756.84 967.138 1749.45 963.812C1746.65 962.573 1743.85 961.409 1741.03 960.257C1678.5 934.748 1629.37 926.723 1576.76 933.485C1563.27 935.218 1550.88 938.81 1537.78 942.611L1536.02 943.119C1521.09 947.453 1498.94 953.335 1479.01 954.413C1474.41 954.673 1469.84 954.883 1465.29 955.094C1443.31 956.109 1422.55 957.063 1401.11 962.177L1393.97 963.898C1380.67 967.143 1368.1 970.189 1354.42 971.638C1311.61 976.133 1276.63 966.87 1237.41 940.679C1221.19 929.844 1204.49 905.176 1197 887.431C1189.8 870.404 1185.29 850.677 1183.59 828.808C1182.71 817.564 1182.86 806.048 1183.01 794.928C1183.01 790.606 1183.12 786.259 1183.12 781.987V777.925C1183.12 746.038 1183.12 709.891 1164.71 682.97C1162.25 679.586 1159.53 676.395 1156.58 673.422C1153.9 670.686 1151.38 667.791 1149.04 664.754C1140.8 653.609 1123.01 648.656 1107.26 644.247C1100.36 642.478 1093.59 640.269 1086.97 637.634C1079.53 634.44 1072.19 631.146 1064.82 627.852L1052.43 622.341C1039.53 616.694 1030.46 610.267 1023.02 601.525C1019.2 597.03 1015.16 592.572 1010.89 587.903C996.995 572.449 982.556 556.511 974.798 538.221C972.617 533.094 970.039 527.856 967.535 522.804C962.132 511.869 956.542 500.514 954.126 488.601C952.787 481.939 952.948 475.078 953.097 468.453C953.097 466.472 953.196 464.491 953.196 462.509C953.196 451.798 953.803 442.77 956.48 433.545C968.304 392.618 985.369 366.464 1013.55 346.081C1023.11 339.196 1033.31 333.004 1043.16 326.961C1061.56 315.816 1080.59 304.188 1095.67 287.719C1101.87 280.92 1105.78 275.112 1105.87 267.137C1105.87 264.289 1105.87 261.429 1105.87 258.581C1105.87 256.5 1105.87 254.42 1105.87 252.389C1105.87 248.055 1105.87 243.721 1105.87 239.399C1105.87 230.223 1105.87 221.034 1105.87 211.858C1105.67 193.37 1110.91 178.287 1121.45 167.018C1132.32 155.415 1146.31 148.877 1159.7 143.168C1170.42 138.598 1181.46 137.051 1192.15 135.54C1198.51 134.648 1205.09 133.719 1211.59 132.172C1214.81 131.496 1218.09 131.143 1221.38 131.119C1223.19 131.045 1225 130.983 1226.84 130.785C1232.58 130.153 1241.71 125.893 1246.54 122.314C1269.95 105.064 1273.13 78.8241 1273.1 53.042V51.1597C1273.1 30.6034 1273.01 9.34122 1279.86 -10.3978C1281.42 -14.9054 1283.21 -19.4624 1284.93 -23.8709C1285.91 -26.3476 1286.87 -28.8242 1287.82 -31.3009C1288.28 -32.5392 1288.7 -33.7776 1289.06 -34.9168C1290.82 -39.9568 1292.48 -44.712 1296.85 -49.0957C1302.38 -54.4313 1308.43 -59.198 1314.91 -63.3242C1321.03 -67.3642 1327.59 -70.6883 1334.47 -73.2309C1343.65 -76.8592 1352.47 -78.3947 1361.82 -80.0169C1364.3 -80.4503 1366.89 -80.8961 1369.47 -81.3791C1396.27 -86.481 1425.41 -79.6454 1451.1 -73.6147L1451.63 -73.4909C1453.43 -73.0699 1455.2 -72.7231 1456.96 -72.3764C1461.88 -71.6008 1466.69 -70.2027 1471.25 -68.2156C1476.29 -65.6485 1481.58 -63.6068 1487.04 -62.123C1489.12 -61.5122 1491.13 -60.7293 1493.08 -59.7826C1495.48 -58.5342 1498.07 -57.6772 1500.75 -57.244C1507.83 -56.6517 1514.95 -56.7637 1522 -57.5783C1547.71 -60.4636 1574.34 -60.055 1600.08 -59.6835C1606.28 -59.5968 1612.55 -59.4977 1618.75 -59.4482C1634.7 -59.3491 1651.59 -62.7793 1671.65 -70.3208C1681.79 -74.1225 1689.24 -80.0417 1696.44 -85.7628C1707.6 -94.6169 1718.12 -102.976 1737.34 -103.595C1744.61 -103.842 1752.03 -104.276 1759.18 -104.709C1766.33 -105.143 1773.86 -105.576 1781.23 -105.811C1824.87 -107.186 1863.55 -101.044 1895.91 -87.4717C1925.72 -74.9769 1940.13 -56.922 1956.78 -36.0189C1962.73 -28.5889 1968.87 -20.8494 1976.12 -12.8869C1978.33 -10.4102 1980.42 -7.93354 1982.52 -5.45687C1986.75 -0.0982424 1991.46 4.87456 1996.57 9.40313C2005.14 16.5731 2013.07 24.548 2020.74 32.2752C2025.42 36.9808 2030.26 41.8475 2035.18 46.4665C2048.81 59.2461 2065.6 67.0475 2081.86 74.6014C2091.72 78.9721 2101.34 83.8706 2110.67 89.2756C2112.95 90.6502 2115.12 92.0247 2117.25 93.3621C2124.82 98.1545 2131.98 102.674 2141.25 105.473C2144.45 106.451 2147.59 107.343 2150.66 108.222C2166.45 112.742 2181.37 117.014 2195.19 128.717C2210.56 141.719 2220.61 156.084 2231.25 171.29C2234.97 176.591 2238.79 182.076 2242.95 187.624C2255.93 204.961 2261.21 226.916 2264.67 246.086C2266.77 257.788 2266.74 268.97 2266.7 280.759V281.254C2266.7 284.623 2266.77 288.003 2266.85 291.384C2267.11 302.529 2267.39 313.996 2264.37 324.992C2254.11 361.969 2237.66 395.491 2216.83 421.942C2187.08 459.748 2159.74 482.806 2128.29 496.712C2116.98 501.665 2110.74 508.179 2109.77 515.943C2107.1 537.54 2143.7 566.145 2167.91 585.08C2177.18 592.324 2184.49 598.045 2187.83 601.909C2195.51 610.775 2200.41 621.722 2205.18 632.322L2206.29 634.799C2220.57 666.599 2201.97 710.548 2187.02 745.865C2183.55 754.063 2180.27 761.802 2177.72 768.7C2175.45 774.38 2172.78 779.889 2169.72 785.182C2166.77 790.259 2164.18 795.54 2161.98 800.983C2158.53 810.221 2155.78 816.858 2149.46 824.648C2145.23 830.068 2141.34 835.751 2137.83 841.662C2134.11 847.908 2129.97 853.895 2125.44 859.581C2122.18 863.506 2119.07 867.704 2116.05 871.779C2111.34 878.432 2106.2 884.762 2100.64 890.725C2096.92 894.44 2093.64 898.576 2090.4 902.539C2087.17 906.501 2083.88 910.526 2080.24 914.29C2053.06 942.326 2029.95 950.673 1994.96 963.304L1988.93 965.496C1954.83 977.879 1921.48 981.965 1886.17 986.324C1880.81 986.981 1875.43 987.649 1870 988.343C1866.43 988.796 1862.84 989.015 1859.24 988.999ZM1611.81 928.123C1652.47 928.123 1693.27 937.447 1742.17 957.397C1745.01 958.561 1747.82 959.762 1750.65 960.963C1757.91 964.247 1765.36 967.104 1772.96 969.52C1775.7 970.325 1778.52 971.18 1781.41 971.997C1799.47 977.446 1819.93 983.612 1837.44 984.69C1839.68 984.826 1841.9 984.999 1844.08 985.16C1852.76 985.804 1860.84 986.399 1869.59 985.284C1875.03 984.591 1880.42 983.918 1885.78 983.266C1920.92 978.932 1954.1 974.845 1987.87 962.598L1993.91 960.406C2028.5 947.911 2051.35 939.664 2078.05 912.111C2081.6 908.396 2084.88 904.433 2088.04 900.557C2091.2 896.681 2094.69 892.397 2098.45 888.546C2103.91 882.699 2108.97 876.494 2113.6 869.971C2116.64 865.872 2119.8 861.637 2123.08 857.587C2127.51 852.006 2131.55 846.131 2135.18 840.003C2138.76 833.977 2142.71 828.186 2147.03 822.666C2153.08 815.236 2155.7 808.822 2159.06 799.856C2161.3 794.31 2163.93 788.93 2166.93 783.758C2169.93 778.59 2172.54 773.209 2174.74 767.659C2177.33 760.7 2180.62 752.923 2184.1 744.688C2198.82 709.916 2217.14 666.673 2203.39 636.062L2202.29 633.585C2197.64 623.195 2192.85 612.447 2185.46 603.865C2182.33 600.224 2174.74 594.305 2165.97 587.445C2141.18 568.09 2103.8 538.853 2106.7 515.547C2107.8 506.656 2114.63 499.375 2126.99 493.913C2157.97 480.218 2184.92 457.445 2214.37 420.047C2234.96 393.906 2251.22 360.743 2261.37 324.163C2264.31 313.6 2264.04 302.331 2263.78 291.434C2263.7 288.016 2263.61 284.61 2263.63 281.23V280.722C2263.63 269.032 2263.7 257.974 2261.64 246.544C2258.07 226.731 2253.04 206.174 2240.49 189.37C2236.3 183.773 2232.44 178.225 2228.73 172.95C2218.2 157.916 2208.25 143.7 2193.19 130.946C2179.86 119.677 2165.93 115.677 2149.82 111.07C2146.72 110.179 2143.62 109.275 2140.36 108.309C2130.71 105.374 2123.37 100.755 2115.57 95.8512C2113.47 94.5138 2111.31 93.1516 2109.04 91.7895C2099.81 86.4426 2090.29 81.5978 2080.54 77.2762C2064.07 69.6357 2047.06 61.7227 2033.08 48.6088C2028.13 43.9526 2023.26 39.0736 2018.56 34.3432C2010.94 26.6779 2003.05 18.7526 1994.59 11.6693C1989.35 7.03544 1984.53 1.95115 1980.18 -3.52507C1978.11 -6.00174 1976.02 -8.47841 1973.84 -10.8312C1966.53 -18.868 1960.36 -26.62 1954.37 -34.1243C1937.98 -54.7054 1923.8 -72.5126 1894.71 -84.6854C1862.79 -98.0718 1824.56 -104.127 1781.26 -102.765C1773.94 -102.53 1766.49 -102.084 1759.3 -101.651C1752.11 -101.217 1744.69 -100.784 1737.38 -100.548C1719.21 -99.9541 1709.06 -91.8802 1698.33 -83.3604C1690.89 -77.4907 1683.3 -71.4353 1672.72 -67.4478C1652.3 -59.7826 1635.14 -56.2285 1618.72 -56.3895C1612.53 -56.3895 1606.33 -56.5381 1600.05 -56.6248C1574.39 -57.0087 1547.86 -57.405 1522.34 -54.5444C1515.07 -53.7047 1507.73 -53.5927 1500.44 -54.2101C1497.41 -54.655 1494.48 -55.5964 1491.76 -56.9963C1489.97 -57.8713 1488.11 -58.5961 1486.2 -59.1634C1480.56 -60.7004 1475.1 -62.8082 1469.89 -65.4541C1465.53 -67.3448 1460.95 -68.6683 1456.26 -69.392C1454.46 -69.7388 1452.65 -70.0979 1450.82 -70.5313L1450.28 -70.6551C1424.88 -76.6115 1396.09 -83.3728 1369.9 -78.3947C1367.31 -77.8994 1364.76 -77.4536 1362.22 -77.0202C1353.03 -75.4227 1344.36 -73.9119 1335.46 -70.3951C1328.8 -67.9278 1322.44 -64.7035 1316.52 -60.7856C1310.21 -56.765 1304.32 -52.1273 1298.94 -46.941C1295.06 -43.0527 1293.58 -38.8176 1291.87 -33.9138C1291.45 -32.6754 1291.02 -31.4371 1290.54 -30.1988C1289.6 -27.7221 1288.62 -25.2454 1287.64 -22.7688C1285.93 -18.3851 1284.16 -13.8652 1282.61 -9.40716C1275.93 9.86131 1275.98 30.8511 1276.02 51.1597V52.9801C1276.02 79.5671 1272.72 106.662 1248.22 124.704C1243.05 128.506 1233.5 133.051 1227.07 133.744C1225.14 133.955 1223.26 134.029 1221.38 134.103C1218.29 134.121 1215.21 134.444 1212.18 135.069C1205.54 136.654 1198.9 137.546 1192.46 138.499C1181.48 140.035 1171.12 141.496 1160.77 145.929C1147.69 151.514 1134.02 157.892 1123.59 169.074C1113.6 179.736 1108.63 194.113 1108.83 211.809C1108.93 220.997 1108.91 230.186 1108.83 239.386C1108.83 243.708 1108.83 248.055 1108.83 252.364C1108.83 254.432 1108.83 256.5 1108.83 258.556C1108.83 261.429 1108.83 264.302 1108.83 267.224C1108.72 277.131 1103.09 284.09 1097.84 289.836C1082.46 306.616 1063.24 318.318 1044.66 329.624C1034.93 335.481 1024.79 341.673 1015.32 348.533C987.749 368.495 970.968 394.166 959.393 434.387C956.815 443.216 956.27 452.058 956.233 462.522C956.233 464.515 956.233 466.522 956.133 468.528C955.985 474.979 955.824 481.666 957.1 488.007C959.442 499.573 964.933 510.705 970.262 521.442C972.741 526.531 975.38 531.794 977.599 537.007C985.159 554.839 999.399 570.566 1013.17 585.785C1017.46 590.528 1021.51 595.011 1025.36 599.543C1032.46 607.914 1041.2 614.106 1053.67 619.629C1057.8 621.445 1061.93 623.282 1066.06 625.14C1073.41 628.421 1080.77 631.715 1088.17 634.898C1094.66 637.468 1101.31 639.623 1108.08 641.349C1124.26 645.857 1142.6 650.971 1151.45 662.971C1153.72 665.907 1156.17 668.706 1158.77 671.354C1161.83 674.435 1164.64 677.747 1167.19 681.261C1186.17 708.962 1186.14 745.654 1186.13 777.938V781.987C1186.13 786.296 1186.13 790.655 1186.02 794.965C1185.87 806.023 1185.72 817.465 1186.59 828.573C1188.26 850.12 1192.7 869.525 1199.76 886.255C1207.09 903.591 1223.31 927.615 1239.08 938.128C1278.16 964.27 1311.49 973.087 1354.07 968.616C1367.56 967.205 1380.03 964.171 1393.22 960.951L1400.38 959.23C1422.1 954.053 1443 953.038 1465.12 952.06C1469.67 951.849 1474.23 951.639 1478.83 951.391C1498.44 950.314 1520.37 944.493 1535.15 940.246L1536.9 939.738C1550.14 935.899 1562.63 932.308 1576.35 930.513C1588.11 928.963 1599.95 928.164 1611.81 928.123Z" stroke="url(#paint6_linear_1_1978)" stroke-width="2" stroke-miterlimit="10"/>
<path d="M261.916 1236.22C250.623 1255.78 237.545 1273.17 223.4 1287.02C215.771 1294.58 207.095 1301 197.639 1306.09C189.415 1310.69 181.508 1316.11 173.858 1321.33C167.331 1325.8 160.578 1330.41 153.622 1334.52C136.256 1344.78 123.717 1358.49 111.108 1380.25L110.098 1382C106.482 1388.27 103.84 1392.84 103.186 1400.37C100.457 1429.52 94.552 1458.29 85.5772 1486.16C67.6248 1542.43 31.3925 1580.98 -16.4378 1594.68C-75.258 1611.53 -122.736 1601.75 -147.557 1586.97C-152.955 1583.76 -158.456 1580.15 -164.299 1576.32C-192.061 1558.11 -223.525 1537.47 -255.096 1553.27C-263.513 1557.49 -271.383 1562.94 -278.998 1568.23C-291.616 1577 -304.673 1586.06 -320.684 1589.78C-361.722 1599.32 -409.333 1575.75 -426.818 1537.24L-427.416 1535.92C-437.614 1513.46 -449.186 1488 -446.336 1462.97C-446.198 1461.61 -445.978 1460.17 -445.799 1458.77C-445.261 1455.3 -444.94 1451.81 -444.839 1448.31C-444.772 1436.62 -449.037 1415.68 -457.266 1406.76C-463.8 1399.67 -472.915 1394.56 -481.712 1389.62C-497.813 1380.59 -514.456 1371.25 -517.535 1349.32C-519.426 1335.77 -517.538 1321.89 -515.722 1308.46C-513.153 1289.47 -510.726 1271.53 -517.81 1253.97C-521.24 1245.49 -527.074 1238.09 -532.706 1230.95C-539.168 1222.76 -545.847 1214.28 -549.209 1203.95C-559.603 1172.04 -560.007 1136.9 -550.333 1107.56C-543.686 1087.42 -525.149 1068.25 -507.885 1052.15C-490.239 1035.69 -477.492 1012.1 -467.798 977.91L-466.335 978.325L-467.798 977.91C-464.009 964.558 -461.005 950.854 -458.232 937.947C-449.094 895.232 -423.65 850.789 -390.049 819.132C-352.42 783.571 -308.144 766.484 -265.18 770.924C-261.416 771.419 -257.7 772.228 -254.071 773.342C-250.082 774.611 -245.963 775.423 -241.791 775.764C-212.759 777.101 -185.95 761.917 -165.847 748.532C-130.499 725.002 -100.716 713.612 -61.412 729.472C-46.8004 735.125 -32.9304 742.531 -20.1062 751.53C-6.76188 760.882 2.82978 775.642 8.53318 786.382C10.1388 789.4 11.609 792.455 12.9916 795.487C15.3327 800.847 18.0893 806.016 21.2363 810.945C26.969 819.454 32.0763 829.491 37.4911 840.137C49.3029 863.369 61.5212 887.408 81.8146 898.552C98.6262 907.771 118.435 909.197 137.607 910.585C148.013 911.322 158.776 912.108 168.899 914.129C173.945 914.969 179.057 915.346 184.172 915.256C185.686 915.285 187.217 915.31 188.753 915.352C207.007 915.951 225.345 927.484 240.935 938.719C256.913 950.25 269.909 965.358 277.432 981.273C280.596 987.912 283.164 995.037 285.646 1001.94C287.541 1007.33 289.565 1012.8 291.8 1018L292.615 1019.86C296.404 1028.63 299.911 1036.96 301.123 1046.85C302.776 1061.21 304.241 1075.2 304.008 1088.62C303.87 1092.51 303.537 1096.4 303.011 1100.26C302.682 1103.31 302.304 1106.44 302.151 1109.53C301.354 1125.48 298.109 1139.95 294.86 1153.38C287.852 1182.41 276.76 1210.3 261.916 1236.22V1236.22ZM108.833 1378.12C121.484 1356.21 134.447 1342.36 152.086 1331.9C158.956 1327.84 165.669 1323.25 172.15 1318.81C179.853 1313.55 187.827 1308.11 196.167 1303.43C205.389 1298.48 213.848 1292.21 221.283 1284.84C253.115 1253.69 279.543 1204.27 292 1152.66C295.202 1139.36 298.409 1125.06 299.196 1109.37C299.349 1106.18 299.72 1102.98 300.103 1099.87C300.522 1096.14 300.971 1092.29 301.039 1088.51C301.258 1075.32 299.793 1061.42 298.15 1047.17C297.057 1037.69 293.57 1029.6 289.879 1021.03L289.082 1019.13C286.814 1013.84 284.808 1008.27 282.862 1002.9C280.409 996.067 277.859 989.01 274.778 982.476C267.426 967.032 254.81 952.33 239.225 941.112C224.006 930.148 206.115 918.859 188.729 918.317C187.2 918.265 185.697 918.242 184.193 918.219C178.877 918.287 173.567 917.872 168.327 916.978C158.396 914.997 147.727 914.221 137.444 913.469C117.961 912.074 97.8037 910.633 80.4189 901.068C59.3083 889.482 46.8598 865.023 34.8456 841.373C29.4856 830.831 24.4134 820.857 18.7875 812.51C15.5409 807.458 12.6846 802.166 10.2433 796.679C8.86185 793.718 7.41934 790.666 5.85496 787.7C0.274347 777.318 -9.0009 762.926 -21.855 753.915C-34.4903 745.044 -48.1583 737.744 -62.5582 732.176C-100.621 716.817 -129.651 727.969 -164.177 750.943C-184.674 764.587 -212.028 780.072 -241.945 778.682C-246.311 778.329 -250.624 777.486 -254.803 776.171C-258.267 775.106 -261.814 774.327 -265.406 773.844C-307.427 769.505 -350.92 786.327 -387.865 821.223C-420.988 852.497 -446.151 896.329 -455.171 938.469C-457.941 951.42 -460.972 965.195 -464.786 978.617C-474.654 1013.38 -487.661 1037.42 -505.737 1054.28C-522.718 1070.11 -540.945 1088.92 -547.364 1108.41C-556.814 1137.17 -556.434 1171.6 -546.248 1202.91C-543.049 1212.73 -536.54 1220.98 -530.249 1228.97C-524.461 1236.29 -518.51 1243.85 -514.92 1252.73C-507.583 1271.07 -510.213 1290.25 -512.695 1308.82C-514.487 1322.04 -516.34 1335.7 -514.507 1348.84C-511.644 1369.28 -496.372 1377.8 -480.183 1386.93C-471.171 1391.99 -461.81 1397.23 -454.979 1404.66C-446.231 1414.16 -441.659 1436.11 -441.757 1448.3C-441.862 1451.94 -442.2 1455.57 -442.769 1459.17C-442.928 1460.51 -443.13 1461.93 -443.286 1463.31C-446.035 1487.5 -434.667 1512.57 -424.63 1534.66L-424.032 1535.98C-407.116 1573.24 -361.047 1596.05 -321.338 1586.82C-305.902 1583.23 -293.082 1574.33 -280.691 1565.73C-273 1560.39 -265.032 1554.87 -256.431 1550.55C-223.297 1533.98 -191.054 1555.13 -162.554 1573.82C-156.754 1577.63 -151.274 1581.22 -145.935 1584.39C-121.661 1598.85 -75.0952 1608.37 -17.1587 1591.81C29.6663 1578.39 65.185 1540.54 82.8035 1485.29C91.6983 1457.64 97.5497 1429.11 100.254 1400.2C100.959 1392.01 103.903 1386.94 107.563 1380.57L108.922 1378.22L108.833 1378.12Z" stroke="url(#paint7_linear_1_1978)" stroke-width="2" stroke-miterlimit="10"/>
<path d="M306.077 1189.73C302.038 1196.72 297.852 1203.58 293.696 1210.4L287.858 1219.99C275.691 1240.15 262.184 1261.54 245.881 1281.3C229.579 1301.05 210.261 1320.53 185.237 1342.48C182.398 1344.91 179.54 1347.38 176.67 1349.88C151.899 1371.21 126.278 1393.3 119.463 1426.1C118.846 1429.08 118.516 1432.18 118.193 1435.17C117.888 1438.67 117.372 1442.15 116.648 1445.58C115.955 1448.54 115.095 1451.49 114.264 1454.35C113.024 1458.33 112.002 1462.38 111.201 1466.47C109.402 1476.88 106.932 1487.15 104.557 1497.07C103.396 1501.91 102.233 1506.77 101.128 1511.68C98.2825 1524.84 93.4824 1537.5 86.8877 1549.24C85.5744 1551.52 84.2549 1553.8 82.9293 1556.1C74.53 1570.82 65.8181 1586.03 52.1425 1596.78L51.3389 1597.4C46.0386 1601.62 40.4828 1605.94 34.0835 1608.67C32.4941 1609.34 30.9187 1609.96 29.3665 1610.57C25.2457 1612.04 21.2824 1613.92 17.5357 1616.18C5.30531 1623.98 -8.20099 1629.57 -22.3673 1632.69C-67.751 1642.59 -97.8241 1629.18 -132.62 1613.58C-146.146 1607.53 -160.144 1601.28 -176.046 1595.95C-206.455 1585.75 -231.751 1583.82 -255.743 1589.99C-259.955 1591.24 -264.004 1592.99 -267.804 1595.19C-270.092 1596.4 -272.471 1597.65 -274.951 1598.72C-278.188 1600.11 -281.476 1601.32 -284.655 1602.49C-289.509 1604.16 -294.256 1606.13 -298.869 1608.39C-301.556 1609.77 -304.241 1611.22 -306.927 1612.67C-318.245 1618.81 -329.941 1625.14 -343.227 1626.58C-357.278 1627.91 -371.452 1626.85 -385.155 1623.46C-414.773 1616.27 -442.616 1592.13 -457.792 1560.45C-472.218 1530.35 -467.908 1500.25 -463.715 1471.09C-461.364 1454.63 -468.462 1445.35 -488.237 1439.04C-497.783 1435.99 -504.638 1433.06 -511.401 1427.1C-543.823 1398.73 -537.35 1369.7 -531.083 1341.61C-526.357 1320.44 -521.465 1298.52 -532.228 1275.89C-538.222 1263.28 -547.228 1252.68 -555.943 1242.41C-566.318 1230.18 -577.057 1217.54 -583.058 1201.26C-592.443 1175.81 -594.087 1142.49 -587.608 1109.82C-581.317 1078.18 -549.311 1051.65 -523.598 1030.34C-520.063 1027.42 -516.663 1024.6 -513.474 1021.88C-491.756 1003.4 -489.023 978.414 -486.136 951.969C-485.401 945.241 -484.634 938.259 -483.542 931.436C-480.332 911.694 -474.381 892.499 -465.861 874.405C-457.461 856.245 -446.402 839.438 -433.047 824.538C-410.28 799.385 -370.28 767.887 -336.28 758.16C-321.202 753.862 -305.665 754.72 -290.612 755.571C-274.012 756.571 -256.813 757.474 -240.561 751.292C-220.514 743.667 -203.671 730.188 -187.37 717.152C-163.46 698.053 -138.864 678.334 -103.933 676.913C-94.4705 676.539 -86.116 679.374 -76.4981 683.74C-68.5107 687.364 -60.7114 691.389 -53.13 695.801V695.801C-12.1447 719.792 9.20561 750.274 30.3638 791.674L31.462 793.738C51.5163 832.985 72.2566 873.571 115.283 889.343C127.525 893.85 140.7 895.748 150.778 896.96C161.395 898.183 173.799 897.376 186.877 896.615C211.234 895.112 236.428 893.549 254.335 904.432C291.893 927.245 317.535 979.747 328.095 1017.76C333.631 1037.9 336.478 1058.68 336.56 1079.56C336.699 1102.23 333.756 1123.39 327.801 1142.45C322.696 1159.11 314.75 1174.71 306.077 1189.73ZM126.741 1399.02C138.35 1378.91 156.751 1363.05 174.702 1347.58C177.566 1345.1 180.418 1342.64 183.257 1340.2C208.157 1318.37 227.322 1299.04 243.559 1279.37C259.795 1259.7 273.179 1238.5 285.28 1218.43L291.124 1208.83C304.095 1187.58 317.516 1165.6 325.022 1141.57C331.053 1121.47 333.951 1100.56 333.616 1079.57C333.536 1058.96 330.724 1038.45 325.253 1018.57C314.845 981.083 289.652 929.342 252.853 907.024C235.749 896.633 211.046 898.165 187.152 899.635C173.915 900.447 161.402 901.22 150.538 899.955C140.258 898.769 126.846 896.834 114.312 892.215C70.1848 875.995 49.176 834.881 28.8473 795.119L27.749 793.054C6.8179 752.128 -14.2603 722.019 -54.5908 698.405C-62.0829 694.045 -69.7928 690.072 -77.6905 686.499C-86.9186 682.301 -94.88 679.579 -103.748 679.938C-137.682 681.319 -160.882 699.884 -185.412 719.513C-201.889 732.704 -218.93 746.328 -239.427 754.136C-256.286 760.554 -273.798 759.571 -290.696 758.642C-305.479 757.818 -320.795 757 -335.358 761.125C-368.787 770.68 -408.218 801.763 -430.705 826.605C-443.86 841.288 -454.753 857.848 -463.025 875.742C-471.426 893.581 -477.294 912.507 -480.459 931.971C-481.502 938.736 -482.299 945.644 -483.033 952.345C-485.852 978.228 -488.774 1004.98 -511.416 1024.24C-514.622 1026.97 -518.039 1029.79 -521.55 1032.7C-546.901 1053.7 -578.451 1079.83 -584.523 1110.43C-590.885 1142.52 -589.296 1175.3 -580.12 1200.24C-574.306 1216.03 -563.749 1228.46 -553.535 1240.5C-544.7 1250.9 -535.554 1261.66 -529.399 1274.63C-518.217 1298.25 -523.193 1320.63 -528.027 1342.32C-534.425 1370.76 -540.378 1397.68 -509.317 1424.85C-502.959 1430.42 -496.406 1433.21 -487.227 1436.17C-472.253 1440.96 -457.363 1448.91 -460.633 1471.56C-464.759 1500.25 -469.004 1529.91 -454.992 1559.22C-440.195 1590.09 -413.137 1613.61 -384.383 1620.59C-371.019 1623.89 -357.194 1624.93 -343.489 1623.64C-330.808 1622.28 -319.393 1616.09 -308.322 1610.08C-305.613 1608.61 -302.91 1607.15 -300.2 1605.76C-295.477 1603.44 -290.616 1601.43 -285.645 1599.71C-282.505 1598.56 -279.251 1597.37 -276.094 1596.01C-273.728 1594.99 -271.406 1593.77 -269.158 1592.58C-265.149 1590.27 -260.879 1588.44 -256.438 1587.13C-231.897 1580.87 -206.04 1582.8 -175.053 1593.19C-159.004 1598.56 -144.942 1604.85 -131.351 1610.94C-97.0294 1626.29 -67.3907 1639.54 -22.9857 1629.84C-9.15465 1626.79 4.02953 1621.33 15.9627 1613.7C19.8835 1611.34 24.0279 1609.38 28.3356 1607.84C29.8354 1607.28 31.4124 1606.63 32.968 1605.97C39.0022 1603.4 44.3578 1599.18 49.5437 1595.11L50.3473 1594.48C63.5142 1584.07 72.1187 1569.17 80.3709 1554.68L84.3417 1547.8C90.8321 1536.36 95.5186 1523.99 98.2359 1511.12C99.3528 1506.18 100.516 1501.32 101.683 1496.47C104.051 1486.59 106.506 1476.36 108.284 1466.04C109.101 1461.83 110.155 1457.66 111.44 1453.56C112.264 1450.75 113.109 1447.84 113.812 1444.92C114.505 1441.6 115.006 1438.25 115.311 1434.88C115.595 1431.74 116.036 1428.62 116.632 1425.53C118.557 1416.21 121.97 1407.26 126.741 1399.02V1399.02Z" stroke="url(#paint8_linear_1_1978)" stroke-width="2" stroke-miterlimit="10"/>
<path d="M337.923 1194.57C327.596 1212.45 314.848 1228.96 302.479 1244.98L296.261 1253.05C287.912 1263.97 280.691 1272.83 270.072 1279.85C259.252 1287 251.391 1295.33 242.957 1304.71C196.716 1356.06 153.848 1407.44 137.34 1471.22C134.932 1480.54 133.123 1490.24 131.415 1499.54C128.787 1514.01 125.988 1528.92 120.849 1543.05C115.311 1558.26 107.29 1572.6 99.5467 1586.46C94.6636 1595.21 89.6024 1604.25 85.2463 1613.38C57.3378 1671.88 -18.3969 1681.94 -81.1309 1666.01C-92.3613 1663.16 -102.288 1657.08 -111.888 1651.21L-114.49 1649.62C-130.074 1640.14 -152.742 1627.54 -172.292 1621.53C-182.856 1618.29 -194.07 1617.12 -203.585 1616.48C-226 1614.91 -245.147 1627.07 -263.681 1638.8C-276.993 1647.24 -290.762 1655.97 -305.784 1659.69C-309.169 1660.59 -312.492 1661.39 -315.821 1662.2C-353.88 1671.95 -383.939 1679.63 -419.803 1652.92C-442.953 1635.67 -472.564 1608.36 -482.207 1576.2C-488.554 1554.98 -493.432 1532.31 -486.074 1510.34C-485.174 1507.87 -484.069 1505.47 -482.768 1503.18C-481.394 1500.8 -480.273 1498.27 -479.424 1495.65C-473.719 1475.24 -489.673 1470.44 -506.574 1465.34C-514.454 1462.98 -521.92 1460.77 -527.265 1456.87C-544.44 1444.5 -552.697 1432.06 -555.048 1415.2C-557.19 1399.75 -555.79 1380.87 -550.858 1359.1C-548.221 1347.44 -545.764 1336.57 -546.39 1324.72C-546.89 1313.04 -548.862 1301.47 -552.261 1290.29C-558.048 1272.51 -570.678 1260.24 -583.935 1247.32C-590.633 1241.04 -596.94 1234.35 -602.822 1227.3C-617.629 1208.87 -625.917 1185.75 -627.467 1158.61C-630.496 1105.22 -596.42 1076.21 -560.257 1045.54L-554.812 1040.92C-552.459 1038.9 -550.093 1036.93 -547.761 1034.97C-529.421 1019.64 -512.104 1005.15 -506.237 980.842C-503.537 969.525 -503.548 957.501 -503.596 945.913C-503.644 934.325 -503.686 922.083 -500.907 910.381C-493.587 879.613 -478.38 851.266 -463.667 823.849L-459.397 815.885C-430.108 761.016 -394.729 735.817 -341.088 731.692C-319.168 730.173 -297.171 730.112 -275.243 731.507C-261.416 732.337 -249.55 725.71 -239.771 719.081C-227.772 710.986 -217.04 702.16 -206.683 693.661C-187.673 678.082 -169.758 663.331 -145.16 653.138C-141.984 651.825 -138.847 650.431 -135.705 649.026C-129.36 646.07 -122.857 643.468 -116.225 641.23C-90.7973 633.02 -61.363 641.558 -31.0091 665.75C2.24991 692.22 23.4318 726.153 29.2278 735.938C32.2582 741.121 35.2022 746.726 38.7606 754.117C42.0191 760.863 45.0856 767.942 48.4805 775.467C59.5469 800.556 72.0935 829.002 91.357 846.534C105.916 859.775 125.915 863.939 140.15 865.104C158.168 866.58 178.508 865.075 198.962 860.745C205.861 859.277 214.032 857.886 222.365 858.519C253.69 861.082 290.081 883.465 308.423 903.212C333.631 930.37 349.417 955.808 358.072 983.239L359.663 988.264C365.679 1007.06 371.916 1026.51 370.57 1045.97C370.215 1051.14 369.439 1056.3 368.696 1061.28C367.871 1066.8 367.018 1072.49 366.746 1078.14C365.583 1102.56 362.043 1126.81 356.176 1150.54C352.892 1163.72 347.914 1176.42 341.367 1188.33C340.239 1190.48 339.094 1192.54 337.923 1194.57ZM161.909 1404.73C182.818 1368.51 211.067 1335.59 240.697 1302.68C248.959 1293.5 257.3 1284.65 268.404 1277.31C278.629 1270.56 285.69 1261.87 293.862 1251.21C295.923 1248.51 298.005 1245.82 300.087 1243.13C313.781 1225.38 327.964 1207.06 338.667 1186.98C345.091 1175.31 349.979 1162.85 353.21 1149.93C359.022 1126.37 362.536 1102.31 363.701 1078.08C364.069 1072.33 364.726 1066.6 365.67 1060.92C366.41 1056 367.166 1050.9 367.519 1045.85C368.808 1026.96 362.676 1007.8 356.75 989.271L355.148 984.24C346.606 957.233 331.026 932.157 306.136 905.339C288.186 886.005 252.668 864.14 222.052 861.615C214.131 860.962 206.239 862.314 199.544 863.728C178.814 868.113 158.173 869.644 139.85 868.151C118.783 866.431 101.289 859.736 89.2783 848.796C69.5894 830.862 56.8522 802.076 45.6749 776.709C42.3568 769.199 39.235 762.117 36.0194 755.396C32.496 748.068 29.5871 742.526 26.5856 737.417C14.952 717.523 -6.779 688.853 -32.8744 668.064C-53.4492 651.664 -84.4663 634.171 -115.268 644.058C-121.805 646.288 -128.216 648.872 -134.472 651.798C-137.632 653.207 -140.798 654.627 -144.019 655.944C-168.183 665.956 -185.951 680.55 -204.769 695.996C-215.191 704.558 -225.97 713.414 -238.127 721.561C-248.304 728.433 -260.703 735.338 -275.449 734.464C-297.232 733.103 -319.082 733.192 -340.854 734.731C-393.341 738.765 -428.003 763.491 -456.725 817.327L-460.995 825.292C-475.608 852.537 -490.727 880.706 -497.959 911.097C-500.648 922.42 -500.611 934.374 -500.565 945.917C-500.517 957.677 -500.47 969.837 -503.293 981.541C-509.332 1006.87 -527.082 1021.63 -545.813 1037.3C-548.145 1039.26 -550.501 1041.23 -552.854 1043.25L-558.305 1047.88C-593.801 1077.99 -627.39 1106.56 -624.413 1158.39C-622.907 1184.9 -614.829 1207.44 -600.447 1225.37C-594.609 1232.33 -588.355 1238.93 -581.717 1245.14C-568.732 1257.79 -555.296 1270.86 -549.284 1289.34C-545.79 1300.79 -543.755 1312.62 -543.229 1324.57C-542.578 1336.85 -545.085 1347.91 -547.731 1359.63C-552.618 1381.2 -554.007 1399.71 -551.909 1414.79C-549.688 1430.77 -541.751 1442.62 -525.359 1454.44C-520.411 1458.01 -513.209 1460.18 -505.575 1462.47C-488.842 1467.51 -469.862 1473.22 -476.378 1496.5C-477.279 1499.33 -478.485 1502.06 -479.975 1504.64C-481.187 1506.78 -482.222 1509.02 -483.069 1511.33C-490.152 1532.5 -485.385 1554.62 -479.175 1575.36C-469.774 1606.73 -440.649 1633.54 -417.86 1650.52C-383.16 1676.38 -353.726 1668.83 -316.456 1659.29C-313.127 1658.48 -309.773 1657.63 -306.413 1656.76C-291.891 1653.14 -278.347 1644.55 -265.223 1636.19C-246.308 1624.22 -226.774 1611.72 -203.316 1613.39C-193.576 1614.06 -182.176 1615.21 -171.337 1618.56C-151.5 1624.69 -128.577 1637.4 -112.843 1646.97L-110.241 1648.56C-100.834 1654.32 -91.1051 1660.26 -80.2999 1662.98C-18.7739 1678.6 55.4443 1668.84 82.5923 1612.01C86.9872 1602.79 92.0686 1593.69 96.981 1584.91C104.668 1571.15 112.617 1556.91 118.08 1541.92C123.132 1528.04 125.858 1513.23 128.506 1498.91C130.252 1489.52 132.04 1479.8 134.476 1470.38C140.597 1447.35 149.827 1425.26 161.909 1404.73Z" stroke="url(#paint9_linear_1_1978)" stroke-width="2" stroke-miterlimit="10"/>
<path d="M373.401 1211.12C372.57 1212.56 371.733 1214.01 370.728 1215.4C368.054 1219.31 365.378 1223.28 362.706 1227.26C346.056 1252.01 328.913 1277.5 306.628 1297.32C297.83 1305.12 288.344 1312.29 279.149 1319.22C263.451 1331.08 247.214 1343.32 234.427 1358.9C218.408 1378.45 206.894 1401.44 195.763 1423.69C192.613 1429.99 189.468 1436.28 186.211 1442.52C172.608 1468.55 166.153 1496.01 159.908 1522.56C155.069 1543.1 150.077 1564.36 141.773 1585.11C136.592 1598.1 129.213 1610.53 122.08 1622.56C120.555 1625.2 118.978 1627.79 117.461 1630.39C99.7061 1660.84 68.1468 1695.34 32.8215 1700.86C29.4595 1701.38 26.0665 1701.96 22.6798 1702.52C9.53402 1704.76 -4.09638 1707.11 -17.5968 1706.76C-40.1911 1706.26 -59.5025 1702.87 -75.0948 1696.63C-93.0721 1689.44 -110.12 1678.81 -126.611 1668.53C-133.1 1664.49 -139.807 1660.3 -146.396 1656.45C-169.561 1642.89 -191.185 1636.52 -210.644 1637.5C-228.221 1638.39 -237.285 1645.64 -247.795 1654.03C-253.457 1658.78 -259.523 1663.02 -265.923 1666.7C-269.799 1668.73 -273.811 1670.48 -277.93 1671.94C-280.95 1673.06 -284.128 1674.31 -287.044 1675.71C-291.285 1677.91 -295.342 1680.45 -299.176 1683.3C-302.407 1685.65 -305.763 1687.82 -309.228 1689.81C-364.544 1720.27 -442.485 1693.97 -482.963 1652.13C-491.285 1643.53 -496.822 1633.75 -502.696 1623.38L-503.208 1622.49C-518.753 1595.09 -510.8 1568.75 -502.425 1540.84L-500.569 1534.65C-492.469 1507.27 -514.402 1494.35 -535.622 1481.86C-540.031 1479.31 -544.154 1476.82 -548.051 1474.25C-578.074 1454.41 -588.6 1429.09 -580.277 1396.81C-579.176 1392.55 -578.13 1388.29 -577.09 1384.04C-574.598 1373.85 -572.008 1363.32 -568.735 1353.07C-562.433 1333.38 -559.93 1319.16 -564.804 1300.43C-571.392 1275.07 -583.016 1263.15 -605.005 1247.48C-610.309 1243.69 -616.248 1240.1 -622.524 1236.3C-642.831 1224.04 -665.842 1210.14 -670.531 1185.68C-681.878 1127.03 -640.813 1077.6 -603.776 1041.1L-602.707 1040.04C-561.58 999.497 -534.423 972.724 -534.021 912.077C-533.865 887.827 -526.146 864.622 -517.541 840.998C-493.788 775.678 -450.453 727.276 -398.797 708.161C-377.631 700.336 -355.151 700.888 -333.396 701.407C-309.706 701.969 -285.219 702.562 -262.908 692.134C-246.291 684.361 -227.087 670.149 -210.205 653.121C-206.473 649.128 -203.177 644.748 -200.373 640.056C-198.622 637.345 -196.814 634.536 -194.726 631.762C-178.368 610.093 -152.411 594.44 -125.292 589.881C-96.9675 585.115 -65.1978 589.841 -40.2445 602.559L-34.7011 605.344C-25.2686 610.088 -16.213 614.915 -9.31803 621.602C12.4496 642.761 41.24 676.85 54.5946 719.467C56.8568 726.672 59.0226 734.094 61.0652 741.258C68.5467 767.168 76.2851 793.972 91.3526 816.974C95.2346 822.909 101.255 831.582 108.619 838.397C115.541 844.741 122.232 846.257 130.91 847.774C133.636 848.23 136.273 848.865 138.812 849.472C144.399 850.794 149.686 852.042 155.494 851.644C160.448 851.311 164.762 849.836 169.368 848.2C173.228 846.728 177.218 845.623 181.285 844.9C190.248 843.546 199.167 839.89 208.603 836.031C225.366 829.144 242.714 822.036 260.437 828.846C320.837 852.035 352.552 908.631 375.607 960.929C376.859 963.714 378.143 966.445 379.341 969.127C383.933 979.009 388.672 989.233 390.673 1000.48C393.828 1018.08 394.675 1035.84 395.465 1053.07C396.266 1069.03 396.994 1085.46 399.614 1101.6C400.01 1104.06 400.488 1106.53 400.966 1109C402.3 1115.95 403.69 1123.16 403.399 1130.45C403.109 1137.74 401.025 1144.94 398.992 1151.86C398.245 1154.39 397.504 1156.91 396.852 1159.43C394.459 1168.52 390.953 1175.39 386.844 1183.3L384.694 1187.47C383.006 1190.79 381.539 1194.12 380.094 1197.37C378.112 1202.07 375.878 1206.66 373.401 1211.12V1211.12ZM211.385 1387.47C217.444 1376.76 224.369 1366.56 232.089 1356.98C245.093 1341.12 261.488 1328.75 277.331 1316.8C286.479 1309.89 295.93 1302.77 304.606 1295.05C326.615 1275.48 343.679 1250.11 360.183 1225.56L368.217 1213.68C371.794 1208.13 374.846 1202.25 377.332 1196.13C378.785 1192.85 380.295 1189.44 382.002 1186.09L384.165 1181.9C388.162 1174.18 391.66 1167.45 393.918 1158.66C394.546 1156.16 395.336 1153.55 396.091 1150.98C398.068 1144.26 400.116 1137.3 400.376 1130.33C400.636 1123.37 399.27 1116.39 398.024 1109.63C397.537 1107.13 397.061 1104.64 396.629 1102.14C393.984 1085.84 393.197 1069.29 392.444 1053.28C391.641 1036.16 390.801 1018.47 387.691 1000.97C385.749 990.108 381.306 980.513 376.585 970.357C375.308 967.615 374.031 964.873 372.832 962.119C350.026 910.38 318.71 854.429 259.362 831.648C242.763 825.271 225.989 832.152 209.762 838.805C200.575 842.579 191.043 846.454 181.737 847.882C177.867 848.576 174.072 849.641 170.405 851.061C165.702 852.94 160.762 854.159 155.726 854.684C149.456 855.116 143.693 853.751 138.127 852.441C135.616 851.836 133.086 851.263 130.418 850.782C121.512 849.263 114.095 847.543 106.584 840.659C99.074 833.774 92.7744 824.768 88.8009 818.694C73.4955 795.31 65.6982 768.287 58.1471 742.15C56.0814 735.001 53.9477 727.598 51.7053 720.434C38.512 678.454 10.0888 644.719 -11.4405 623.842C-18.0311 617.445 -26.8508 612.754 -36.0733 608.117L-37.9098 607.185L-41.5889 605.333C-65.9613 592.923 -97.0599 588.298 -124.762 592.95C-150.753 597.316 -176.624 612.919 -192.277 633.663C-194.298 636.347 -196.081 639.112 -197.801 641.77C-200.716 646.641 -204.144 651.184 -208.029 655.323C-225.172 672.629 -244.666 687.046 -261.608 694.961C-284.558 705.678 -309.406 705.092 -333.445 704.514C-354.917 704.001 -377.11 703.472 -397.708 711.081C-448.594 729.852 -491.197 777.632 -514.666 842.113C-523.161 865.472 -530.808 888.404 -530.961 912.154C-531.397 973.999 -558.952 1001.11 -600.579 1042.2L-601.647 1043.26C-671.114 1111.75 -673.413 1155.02 -667.634 1185.05C-663.197 1208.25 -641.689 1221.22 -621.013 1233.71C-614.645 1237.55 -608.702 1241.15 -603.29 1245C-580.695 1261.11 -568.738 1273.4 -561.905 1299.67C-556.847 1319.12 -559.398 1333.77 -565.883 1354C-569.146 1364.18 -571.705 1374.66 -574.194 1384.79C-575.229 1389.06 -576.27 1393.34 -577.389 1397.61C-585.344 1428.48 -575.214 1452.73 -546.423 1471.76C-542.597 1474.29 -538.486 1476.71 -534.134 1479.28C-512.946 1491.76 -488.934 1505.91 -497.715 1535.56L-499.577 1541.76C-507.795 1569 -515.513 1594.75 -500.643 1621.02L-500.131 1621.92C-494.358 1632.11 -488.912 1641.72 -480.861 1650.05C-429.856 1702.76 -352.861 1710.36 -310.756 1687.18C-307.391 1685.25 -304.132 1683.13 -300.993 1680.85C-297.011 1677.9 -292.793 1675.28 -288.38 1673.02C-285.35 1671.57 -282.134 1670.33 -278.999 1669.16C-275.016 1667.75 -271.136 1666.06 -267.387 1664.11C-261.11 1660.47 -255.163 1656.29 -249.613 1651.61C-239.15 1643.25 -229.27 1635.35 -210.718 1634.41C-190.69 1633.38 -168.509 1639.9 -144.813 1653.76C-138.162 1657.6 -131.451 1661.83 -124.952 1665.88C-108.579 1676.09 -91.6385 1686.66 -73.9158 1693.74C-58.6594 1699.85 -39.6612 1703.18 -17.4755 1703.65C-4.23761 1703.93 9.2157 1701.66 22.2261 1699.47C25.6359 1698.89 29.0289 1698.31 32.4078 1697.79C66.6795 1692.43 97.4917 1658.64 114.893 1628.79C116.399 1626.18 117.918 1623.55 119.525 1620.94C126.602 1609.01 133.919 1596.68 139.014 1583.92C147.205 1563.39 152.184 1542.25 156.999 1521.82C163.295 1495.09 169.8 1467.45 183.588 1441.09C186.827 1434.88 189.966 1428.61 193.104 1422.33C198.881 1410.69 204.795 1398.88 211.404 1387.43L211.385 1387.47Z" stroke="url(#paint10_linear_1_1978)" stroke-width="2" stroke-miterlimit="10"/>
<path d="M410.118 1205.52C404.24 1215.7 396.073 1225.16 388.152 1234.32C386.846 1235.84 385.541 1237.34 384.28 1238.83C363.403 1263.26 340.311 1288.81 312.902 1310.24C299.594 1320.65 287.847 1330.29 278.903 1342.91C272.202 1352.36 264.858 1361.33 257.771 1370.02C243.229 1387.77 229.527 1404.56 220.157 1425.67L216.401 1434.06C213.494 1440.51 210.491 1447.17 207.775 1453.79C199.546 1473.74 194.746 1496.03 190.108 1517.57C188.039 1527.18 185.895 1537.11 183.459 1546.63C182.253 1551.85 181.344 1557.13 180.734 1562.46C179.832 1569.27 178.893 1576.33 176.672 1583L176.465 1583.58C172.51 1595.39 168.434 1607.55 160.261 1617.67C154.87 1624.68 149.925 1632.02 145.455 1639.65C137.297 1652.93 128.852 1666.67 116.225 1675.9C109.415 1680.88 102.887 1686.16 96.5739 1691.27C73.8895 1709.65 52.4652 1727 20.1351 1729.5C-19.4131 1732.57 -52.6101 1725.9 -87.5619 1707.86C-91.4125 1705.88 -95.3464 1703.99 -99.2052 1702.15C-105.346 1699.2 -111.693 1696.17 -117.734 1692.68C-121.297 1690.62 -124.815 1688.47 -128.348 1686.28C-135.158 1681.89 -142.22 1677.9 -149.499 1674.34C-162.737 1668.2 -172.942 1667.86 -184.813 1667.43C-191.297 1667.31 -197.77 1666.82 -204.199 1665.96C-211.673 1664.88 -214.609 1664.89 -220.676 1669.23C-249.248 1689.59 -273.28 1705.17 -296.318 1718.23C-315.092 1728.97 -341.099 1733.69 -359.105 1734.57C-365.102 1734.74 -371.105 1734.57 -377.082 1734.06C-381.225 1733.8 -385.562 1733.46 -389.819 1733.44C-392.359 1733.41 -394.857 1733.4 -397.333 1733.4C-410.821 1733.46 -423.565 1733.53 -437.127 1728.45C-475.447 1714.08 -510.382 1678.33 -526.118 1637.36C-529.998 1627.25 -529.234 1617.28 -528.119 1607.94C-526.957 1599.83 -525.252 1591.81 -523.017 1583.93C-519.206 1569.25 -515.266 1554.07 -518.833 1538.94C-523.012 1521.22 -537.172 1512.86 -552.133 1503.98C-555.867 1501.82 -559.683 1499.53 -563.309 1497.14C-580.235 1485.94 -601.347 1472.05 -607.181 1450.93C-612.691 1431.52 -602.778 1408.75 -594.065 1388.7C-591.119 1381.97 -588.345 1375.6 -586.306 1369.74C-585.486 1367.35 -584.389 1364.88 -583.342 1362.52C-581.492 1358.33 -579.585 1354.01 -578.958 1349.75C-572.618 1306.95 -608.938 1283.12 -647.541 1257.81C-675.044 1239.77 -703.481 1221.12 -714.898 1194.88C-718.778 1185.88 -719.931 1173.26 -719.304 1164.74C-718.884 1158.83 -716.709 1153.2 -714.601 1147.77L-713.871 1145.86C-702.252 1115.38 -681.382 1082.82 -650.113 1046.43C-645.372 1041.16 -640.277 1036.22 -634.866 1031.65C-632.638 1029.67 -630.416 1027.71 -628.259 1025.7C-583.462 984.049 -555.168 927.186 -552.568 873.614C-552.397 870.194 -552.409 866.696 -552.428 863.309C-552.593 857.308 -552.302 851.302 -551.557 845.345C-548.244 823.225 -533.107 798.692 -520.946 778.991L-517.538 773.435C-511.317 763.28 -503.99 753.935 -496.909 744.891C-492.598 739.383 -488.138 733.69 -483.975 727.868L-482.879 726.341C-478.279 719.885 -473.928 713.786 -467.415 708.577C-447.705 692.777 -425.963 681.612 -407.266 672.723C-384.587 661.942 -364.737 664.19 -341.772 666.792C-338.76 667.101 -335.694 667.441 -332.595 667.799C-285.486 672.696 -248.68 642.005 -213.084 612.347C-195.847 597.98 -178.013 583.1 -159.455 572.815C-129.321 556.11 -87.8137 554.998 -36.0638 569.527C-34.0223 570.105 -32.0004 570.733 -29.9982 571.412C7.42655 584.136 45.8328 616.796 63.4068 650.817C66.9394 657.975 70.0536 665.333 72.7337 672.852C74.3914 677.243 76.0899 681.785 77.9444 686.132C79.4916 689.771 81.1895 693.398 82.8449 696.9C86.1885 703.612 89.0819 710.54 91.5058 717.636C93.031 722.445 94.5428 727.262 96.0413 732.085C102.516 752.717 109.227 774.029 116.797 794.721C121.177 806.663 125.43 816.199 136.67 821.315C159.522 831.648 182.191 822.42 204.155 813.472C215.788 808.788 227.834 803.884 239.775 801.937C277.615 795.875 312.736 814.794 347.129 859.784C349.306 862.629 351.513 865.448 353.688 868.249C360.593 877.056 367.736 886.172 373.684 895.944C375.857 899.737 377.61 903.757 378.911 907.931C379.637 909.995 380.361 912.086 381.255 914.205C382.159 916.272 383.172 918.289 384.29 920.249C385.913 923.04 387.274 925.976 388.356 929.019C393.203 944.191 399.292 959.222 405.193 973.758C412.941 992.879 420.943 1012.65 426.289 1033.03C436.013 1070.11 436.855 1113.31 428.687 1154.57C425.294 1171.17 419.623 1187.21 411.835 1202.25C411.328 1203.4 410.725 1204.47 410.118 1205.52ZM224.648 1410.29C233.537 1394.89 244.631 1381.33 255.443 1368.1C262.512 1359.45 269.868 1350.55 276.448 1341.16C285.623 1328.22 298.064 1318.02 311.058 1307.86C338.256 1286.6 361.225 1261.16 381.994 1236.86L385.889 1232.34C394.521 1222.35 403.459 1211.98 409.222 1200.93C416.866 1186.14 422.438 1170.37 425.782 1154.06C433.876 1113.2 433.053 1070.51 423.449 1033.84C418.165 1013.62 410.177 993.973 402.469 974.932C396.576 960.357 390.442 945.257 385.507 929.963C384.494 927.101 383.213 924.34 381.682 921.718C380.512 919.666 379.454 917.551 378.514 915.383C377.602 913.197 376.849 911.031 376.108 908.944C374.889 904.961 373.231 901.125 371.164 897.507C365.274 887.884 358.22 878.862 351.367 870.113C349.149 867.288 346.931 864.462 344.749 861.6C311.098 817.582 276.92 799.036 240.297 804.899C228.682 806.776 216.773 811.617 205.255 816.325C182.758 825.551 159.407 835.043 135.391 824.125C123.07 818.527 118.551 808.437 113.917 795.819C106.31 775.091 99.5975 753.707 93.1141 733.041L88.5723 718.603C86.1985 711.621 83.3594 704.807 80.0743 698.204C78.4144 694.686 76.6906 691.03 75.1298 687.339C73.257 682.925 71.5325 678.353 69.8765 673.935C67.2406 666.503 64.1789 659.228 60.7068 652.147C43.4667 618.762 5.77235 586.729 -30.9664 574.229C-32.9138 573.563 -34.8815 572.956 -36.8739 572.392C-87.8165 558.101 -128.562 559.109 -157.974 575.43C-176.279 585.575 -194.021 600.393 -211.128 614.634C-247.216 644.724 -284.536 675.834 -332.908 670.794C-336.017 670.43 -339.083 670.09 -342.106 669.775C-364.614 667.223 -384.055 665.01 -405.946 675.417C-424.488 684.237 -446.065 695.34 -465.511 710.906C-471.728 715.899 -475.928 721.786 -480.395 728.061L-481.492 729.588C-485.696 735.458 -490.169 741.172 -494.508 746.706C-501.535 755.681 -508.808 764.957 -514.932 774.968L-518.357 780.529C-530.377 800.01 -545.324 824.239 -548.556 845.747C-549.267 851.554 -549.542 857.406 -549.377 863.254C-549.366 866.679 -549.351 870.222 -549.521 873.714C-552.171 928.116 -580.832 985.739 -626.161 1027.95C-628.331 1029.97 -630.576 1031.95 -632.827 1033.94C-638.128 1038.43 -643.125 1043.27 -647.784 1048.42C-678.864 1084.53 -699.525 1116.75 -711.043 1146.93L-711.732 1148.9C-713.75 1154.13 -715.839 1159.53 -716.233 1164.99C-716.805 1172.88 -715.746 1185.22 -712.058 1193.7C-700.98 1219.12 -672.959 1237.5 -645.82 1255.3C-608.179 1279.99 -569.235 1305.52 -575.857 1350.25C-576.541 1354.91 -578.539 1359.43 -580.477 1363.81C-581.537 1366.21 -582.546 1368.51 -583.314 1370.75C-585.338 1376.74 -588.192 1383.14 -591.158 1389.94C-599.692 1409.5 -609.381 1431.69 -604.267 1450.19C-598.674 1470.24 -578.168 1483.77 -561.65 1494.66C-558.078 1497.03 -554.287 1499.26 -550.603 1501.43C-535.731 1510.22 -520.337 1519.29 -515.867 1538.26C-512.149 1554.13 -516.162 1569.68 -520.066 1584.72C-522.27 1592.46 -523.952 1600.34 -525.099 1608.31C-526.256 1617.32 -526.955 1626.86 -523.352 1636.31C-507.918 1676.49 -473.681 1711.56 -436.138 1725.64C-423.08 1730.53 -410.608 1730.47 -397.398 1730.41C-394.911 1730.42 -392.403 1730.44 -389.809 1730.4C-385.524 1730.42 -381.119 1730.74 -376.9 1731.02C-371.03 1731.53 -365.135 1731.71 -359.245 1731.54C-341.58 1730.68 -316.122 1726.07 -297.68 1715.59C-274.729 1702.58 -250.789 1687.06 -222.271 1666.76C-215.388 1661.85 -211.484 1661.83 -203.603 1662.97C-197.28 1663.81 -190.914 1664.29 -184.537 1664.4C-172.87 1664.81 -161.853 1665.21 -148.058 1671.6C-140.671 1675.21 -133.502 1679.25 -126.589 1683.71C-123.099 1685.87 -119.609 1688.02 -116.062 1690.06C-110.116 1693.49 -103.83 1696.5 -97.7425 1699.42C-93.8131 1701.29 -89.8899 1703.16 -86.0134 1705.17C-51.6427 1722.92 -18.9448 1729.48 20.0177 1726.45C51.3731 1724.01 72.4412 1706.95 94.7523 1688.88C101.094 1683.74 107.652 1678.43 114.515 1673.41C126.666 1664.53 134.945 1651.06 142.96 1638.02C147.483 1630.27 152.5 1622.82 157.98 1615.72C165.807 1606.08 169.622 1594.66 173.672 1582.57L173.873 1582C176.024 1575.57 176.948 1568.67 177.832 1561.98C178.454 1556.54 179.387 1551.15 180.627 1545.81C183.011 1536.41 185.143 1526.49 187.21 1516.91C191.849 1495.27 196.703 1472.81 205.037 1452.61C207.772 1445.96 210.787 1439.28 213.695 1432.8L217.456 1424.43C219.59 1419.59 221.979 1414.88 224.614 1410.3L224.648 1410.29Z" stroke="url(#paint11_linear_1_1978)" stroke-width="2" stroke-miterlimit="10"/>
<path d="M431.418 1246.63C428.859 1251.06 426.01 1255.23 423.081 1259.53L419.365 1265.03C409.487 1279.93 393.78 1294.71 379.926 1307.73L373.561 1313.8C367.579 1319.27 361.284 1324.38 354.708 1329.12C352.235 1330.92 349.827 1332.77 347.423 1334.63C294.062 1376.03 262.549 1414.57 242.099 1463.51C236.859 1476.05 233.772 1488.58 230.515 1501.83L230.074 1503.61C226.361 1518.71 220.381 1540.83 211.35 1558.62C209.276 1562.74 207.172 1566.8 205.08 1570.85C194.966 1590.39 185.413 1608.85 179.122 1629.97L177.043 1637.02C173.204 1650.16 169.558 1662.56 163.972 1675.14C146.461 1714.45 120.946 1740.12 78.6582 1760.99C61.1629 1769.62 31.447 1771.75 12.3363 1769.36C-6.0099 1767.09 -25.3493 1761.13 -45.1373 1751.66C-55.3149 1746.8 -65.2141 1740.92 -74.7702 1735.23C-78.5129 1733.07 -82.2214 1730.8 -85.9213 1728.66L-89.4389 1726.63C-117.054 1710.69 -148.358 1692.61 -180.875 1695.09C-185.037 1695.53 -189.16 1696.29 -193.208 1697.36C-196.921 1698.32 -200.688 1699.05 -204.489 1699.56C-218.262 1701.13 -231.444 1714.05 -243.137 1725.49C-248.118 1730.58 -253.42 1735.34 -259.008 1739.75C-265.493 1744.59 -272.021 1749.31 -278.554 1754.04L-289.523 1762.02C-300.864 1770.37 -310.966 1775.01 -322.255 1777.08C-328.057 1778.14 -333.938 1779.41 -340.119 1780.78C-360.449 1785.08 -381.47 1789.62 -401.189 1787.19C-406.72 1786.52 -412.545 1786.13 -418.172 1785.77C-430.344 1784.98 -442.972 1784.15 -454.498 1780.28C-460.936 1778.11 -466.797 1774.54 -472.46 1771.1C-474.176 1770.11 -475.842 1769.03 -477.558 1768.04C-486.835 1762.69 -494.349 1757.65 -501 1750.72C-530.532 1720.01 -544.649 1692.16 -548.21 1657.56C-549.395 1645.84 -549.657 1633.91 -549.964 1622.36C-550.414 1600.85 -550.972 1578.56 -557.694 1557.26C-560.484 1548.49 -563.555 1542.2 -570.418 1538.14C-572.885 1536.71 -575.362 1535.28 -577.829 1533.86C-579.63 1532.82 -581.432 1531.78 -583.191 1530.76C-586.944 1528.59 -590.698 1526.43 -594.441 1524.27C-602.387 1519.68 -610.345 1515.08 -618.291 1510.5C-634.402 1501.42 -644.843 1489.34 -649.335 1474.58C-653.949 1459.37 -652.615 1443.98 -650.867 1429.54C-649.464 1417.97 -645.283 1407.63 -641.244 1397.61C-638.837 1391.66 -636.351 1385.5 -634.444 1379.1C-633.419 1375.97 -632.084 1372.96 -630.46 1370.09C-629.62 1368.49 -628.769 1366.89 -628.017 1365.19C-625.695 1359.91 -624.817 1349.87 -625.506 1343.9C-628.739 1315 -649.872 1299.13 -672.218 1286.27L-673.848 1285.33C-691.65 1275.05 -710.107 1264.49 -723.775 1248.69C-726.898 1245.08 -729.952 1241.26 -732.909 1237.56C-734.566 1235.48 -736.23 1233.41 -737.899 1231.35C-738.743 1230.33 -739.604 1229.34 -740.411 1228.46C-743.896 1224.42 -747.184 1220.6 -748.793 1214.62C-750.65 1207.17 -751.754 1199.55 -752.086 1191.87C-752.527 1184.55 -752.124 1177.21 -750.888 1169.98C-749.438 1160.21 -746.356 1151.8 -743.088 1142.9C-742.224 1140.54 -741.315 1138.07 -740.445 1135.6C-731.46 1109.83 -710.971 1088.02 -692.903 1068.78L-692.529 1068.38C-691.266 1067.04 -690.079 1065.67 -688.899 1064.32C-685.767 1060.45 -682.156 1056.99 -678.151 1054.03C-673.408 1050.95 -668.994 1047.39 -664.98 1043.4C-663.414 1041.91 -661.727 1040.55 -659.935 1039.34C-657.651 1037.89 -655.614 1036.07 -653.901 1033.97C-649.849 1028.14 -646.386 1021.91 -643.563 1015.4C-633.21 991.693 -619.54 968.832 -606.347 946.725C-603.174 941.402 -599.953 936.021 -596.811 930.679C-588.75 916.915 -583.275 900.571 -579.773 879.423C-577.997 868.743 -579.399 859.333 -580.753 850.236C-582.844 836.149 -584.822 822.858 -575.747 805.901C-572.324 799.477 -568.994 792.842 -565.794 786.432C-562.594 780.023 -559.201 773.28 -555.724 766.787C-535.09 728.298 -510.431 697.872 -482.497 676.634C-456.773 657.068 -433.931 653.613 -407.506 649.65C-398.097 648.214 -388.321 646.76 -377.8 644.462C-374.552 643.79 -371.36 643.215 -368.168 642.639C-361.409 641.65 -354.751 640.063 -348.271 637.898C-337.78 634.066 -326.908 631.185 -316.38 628.404C-309.963 626.7 -303.331 624.948 -296.871 622.996C-278.987 617.58 -263.834 606.937 -249.162 596.632C-240.448 590.281 -231.399 584.403 -222.053 579.026C-219.722 577.738 -217.448 576.547 -215.224 575.37C-207.287 571.208 -199.791 567.265 -192.732 560.636C-190.286 558.356 -187.946 556.086 -185.648 553.864C-173.839 542.45 -162.678 531.663 -145.635 525.547C-126.69 518.74 -109.224 517.217 -90.7321 515.601C-84.2831 515.031 -77.6237 514.468 -70.7371 513.636C-49.2351 511.067 -27.5812 517.472 -9.2511 524.063C1.93679 528.089 11.6022 533.712 21.7932 539.639L22.2221 539.887C25.1391 541.571 28.1041 543.197 31.069 544.823C40.851 550.17 50.9242 555.656 58.9353 563.774C85.8272 591.149 106.635 622.152 119.125 653.42C136.994 698.082 143.293 733.288 139.609 767.482C138.241 779.758 140.765 788.413 147.006 793.133C164.371 806.249 207.443 788.857 235.948 777.352C246.857 772.946 255.468 769.474 260.481 768.519C272.001 766.297 283.929 767.531 295.495 768.699L298.198 768.972C332.876 772.507 361.635 810.592 384.748 841.194C390.112 848.299 395.173 855.013 399.87 860.672C403.659 865.47 407.094 870.538 410.147 875.836C413.068 880.932 416.347 885.814 419.958 890.445C426.236 898.048 430.608 903.749 434.194 913.118C436.772 919.492 439.753 925.696 443.116 931.692C446.665 938.038 449.779 944.617 452.437 951.385C454.207 956.17 456.288 960.963 458.304 965.619C461.714 973.02 464.623 980.642 467.009 988.434C468.368 993.511 470.307 998.423 472.122 1003.21C473.936 1007.99 475.78 1012.85 477.218 1017.88C487.908 1055.44 483.58 1079.63 477.025 1116.24L475.906 1122.57C469.583 1158.28 456.446 1189.21 442.567 1221.97C440.452 1226.94 438.342 1231.94 436.228 1236.98C434.837 1240.3 433.23 1243.52 431.418 1246.63ZM254.98 1430.47C275.311 1395.26 303.786 1364.59 345.515 1332.21C347.943 1330.34 350.389 1328.5 352.843 1326.65C359.318 1322.01 365.517 1316.98 371.407 1311.61C373.474 1309.64 375.627 1307.62 377.778 1305.53C391.525 1292.62 407.097 1277.98 416.786 1263.35C418.025 1261.48 419.285 1259.64 420.515 1257.84C425.41 1250.64 429.965 1243.94 433.375 1235.81C435.493 1230.75 437.608 1225.74 439.72 1220.78C453.54 1188.18 466.59 1157.4 472.869 1122.03L473.989 1115.71C480.463 1079.5 484.748 1055.59 474.234 1018.69C472.795 1013.76 470.999 1008.94 469.223 1004.27C467.446 999.59 465.483 994.421 464.025 989.244C461.693 981.59 458.851 974.102 455.517 966.83C453.486 962.151 451.398 957.296 449.534 952.427C446.913 945.804 443.846 939.367 440.353 933.16C436.922 927.051 433.886 920.728 431.263 914.231C427.852 905.278 423.611 899.795 417.526 892.404C413.841 887.694 410.497 882.726 407.519 877.539C404.541 872.363 401.186 867.412 397.482 862.728C392.75 857.005 387.657 850.273 382.267 843.139C359.515 813.002 331.224 775.517 297.841 772.115L295.145 771.831C283.824 770.662 272.117 769.441 260.992 771.547C256.271 772.442 247.352 776.051 237.024 780.22C207.868 792.008 163.859 809.76 145.126 795.596C137.978 790.195 135.086 780.641 136.535 767.209C140.165 733.529 133.915 698.809 116.257 654.598C103.911 623.7 83.3216 593.037 56.7171 565.956C49.038 558.131 39.1426 552.733 29.5751 547.509C26.578 545.865 23.5855 544.237 20.6639 542.536L20.2242 542.282C10.1005 536.437 0.5609 530.844 -10.3663 526.911C-29.3098 520.095 -49.628 514.174 -70.4581 516.645C-77.4 517.474 -84.1316 518.038 -90.5592 518.62C-108.839 520.216 -126.127 521.727 -144.702 528.39C-161.129 534.304 -171.558 544.368 -183.603 556.018C-185.924 558.255 -188.256 560.486 -190.722 562.826C-198.091 569.72 -205.76 573.764 -213.904 578.063C-216.116 579.219 -218.374 580.406 -220.688 581.689C-229.935 587.012 -238.888 592.83 -247.509 599.118C-262.361 609.562 -277.716 620.331 -296.063 625.881C-302.574 627.846 -309.235 629.625 -315.68 631.327C-326.129 634.096 -336.934 636.959 -347.3 640.748C-353.933 642.969 -360.748 644.604 -367.666 645.633C-370.846 646.188 -374.031 646.752 -377.16 647.465C-387.776 649.779 -397.575 651.248 -407.067 652.68C-433.089 656.589 -455.6 659.964 -480.685 679.068C-508.241 700.023 -532.596 730.096 -553.067 768.278C-556.526 774.739 -559.864 781.413 -563.083 787.854C-566.302 794.296 -569.638 800.942 -573.09 807.392C-581.66 823.424 -579.743 836.251 -577.731 849.806C-576.366 859.181 -574.914 868.777 -576.753 879.937C-580.326 901.457 -585.825 918.089 -594.175 932.23C-597.273 937.596 -600.5 942.888 -603.717 948.287C-616.877 970.312 -630.487 993.093 -640.769 1016.62C-643.677 1023.34 -647.248 1029.75 -651.429 1035.76C-653.327 1038.15 -655.608 1040.22 -658.179 1041.88C-659.833 1042.99 -661.391 1044.24 -662.838 1045.61C-666.988 1049.72 -671.546 1053.4 -676.441 1056.59C-680.257 1059.42 -683.694 1062.72 -686.668 1066.43C-687.867 1067.81 -689.082 1069.2 -690.375 1070.57L-690.749 1070.97C-708.61 1089.99 -728.861 1111.55 -737.643 1136.71C-738.509 1139.2 -739.4 1141.64 -740.295 1144.06C-743.503 1152.81 -746.532 1161.08 -747.936 1170.54C-749.129 1177.54 -749.514 1184.66 -749.082 1191.75C-748.754 1199.22 -747.683 1206.64 -745.886 1213.9C-744.458 1219.2 -741.528 1222.6 -738.136 1226.53C-737.274 1227.51 -736.419 1228.51 -735.582 1229.54C-733.908 1231.59 -732.253 1233.68 -730.597 1235.76C-727.656 1239.43 -724.628 1243.23 -721.542 1246.8C-708.195 1262.22 -689.992 1272.67 -672.386 1282.79L-670.809 1283.7C-647.784 1297 -625.968 1313.4 -622.593 1343.64C-621.885 1350.02 -622.727 1360.56 -625.343 1366.48C-626.121 1368.25 -626.998 1369.92 -627.876 1371.59C-629.406 1374.27 -630.666 1377.1 -631.637 1380.03C-633.586 1386.58 -636.135 1392.78 -638.526 1398.83C-642.686 1409.1 -646.601 1418.81 -647.936 1429.98C-649.643 1444.11 -650.955 1459.14 -646.482 1473.76C-642.243 1487.74 -632.277 1499.23 -616.853 1507.91C-608.846 1512.41 -600.901 1517.03 -592.97 1521.7C-589.227 1523.86 -585.463 1526.03 -581.731 1528.18C-579.94 1529.22 -578.149 1530.25 -576.369 1531.28C-573.881 1532.72 -571.393 1534.15 -568.862 1535.61C-560.338 1540.66 -557.125 1549.02 -554.776 1556.44C-547.935 1578.15 -547.411 1600.65 -546.909 1622.39C-546.701 1633.74 -546.408 1645.62 -545.201 1657.25C-541.701 1691.11 -527.86 1718.48 -498.815 1748.61C-492.457 1755.26 -485.073 1760.15 -476.029 1765.42C-474.303 1766.42 -472.565 1767.42 -470.878 1768.51C-465.365 1771.86 -459.654 1775.34 -453.525 1777.41C-442.337 1781.16 -429.951 1781.98 -417.989 1782.73C-412.342 1783.13 -406.464 1783.47 -400.84 1784.16C-381.617 1786.53 -360.877 1782.06 -340.812 1777.74C-334.561 1776.4 -328.652 1775.13 -322.8 1774.06C-312 1772.1 -302.269 1767.63 -291.252 1759.59C-287.613 1756.92 -283.957 1754.26 -280.283 1751.61C-273.766 1746.89 -267.233 1742.16 -260.777 1737.34C-255.306 1733.01 -250.115 1728.33 -245.238 1723.33C-233.241 1711.57 -219.641 1698.24 -204.825 1696.58C-201.147 1696.08 -197.502 1695.36 -193.909 1694.44C-189.71 1693.33 -185.433 1692.54 -181.115 1692.09C-147.638 1689.51 -115.874 1707.88 -87.9223 1724.03L-84.4155 1726.05C-80.6834 1728.21 -76.9085 1730.39 -73.2322 1732.64C-63.7298 1738.3 -53.8949 1744.15 -43.8414 1748.95C-24.3446 1758.27 -5.32125 1764.13 12.6994 1766.38C31.3756 1768.71 60.2922 1766.67 77.2793 1758.27C119.463 1737.49 143.761 1713.04 161.182 1673.93C166.701 1661.54 170.308 1649.23 174.119 1636.19L176.204 1629.13C182.584 1607.73 192.152 1589.13 202.366 1569.48C204.458 1565.43 206.556 1561.38 208.64 1557.27C217.517 1539.75 223.438 1517.85 227.153 1502.92L227.587 1501.15C230.88 1487.77 234.016 1475.16 239.321 1462.38C243.857 1451.42 249.087 1440.76 254.98 1430.47Z" stroke="url(#paint12_linear_1_1978)" stroke-width="2" stroke-miterlimit="10"/>
</g>
<defs>
<linearGradient id="paint0_linear_1_1978" x1="340" y1="150.995" x2="2002.63" y2="1036.94" gradientUnits="userSpaceOnUse">
<stop stop-color="#FFF6F2"/>
<stop offset="1" stop-color="#EEC1AC"/>
</linearGradient>
<linearGradient id="paint1_linear_1_1978" x1="1612.5" y1="54" x2="1612.5" y2="837" gradientUnits="userSpaceOnUse">
<stop stop-color="#EAB196"/>
<stop offset="1" stop-color="#FFF0E9" stop-opacity="0"/>
</linearGradient>
<linearGradient id="paint2_linear_1_1978" x1="1607.5" y1="25" x2="1607.5" y2="852" gradientUnits="userSpaceOnUse">
<stop stop-color="#EAB196"/>
<stop offset="1" stop-color="#FFF0E9" stop-opacity="0"/>
</linearGradient>
<linearGradient id="paint3_linear_1_1978" x1="1607" y1="2" x2="1607" y2="882" gradientUnits="userSpaceOnUse">
<stop stop-color="#EAB196"/>
<stop offset="1" stop-color="#FFF0E9" stop-opacity="0"/>
</linearGradient>
<linearGradient id="paint4_linear_1_1978" x1="1613.5" y1="-40" x2="1613.5" y2="921" gradientUnits="userSpaceOnUse">
<stop stop-color="#EAB196"/>
<stop offset="1" stop-color="#FFF0E9" stop-opacity="0"/>
</linearGradient>
<linearGradient id="paint5_linear_1_1978" x1="1611" y1="-70" x2="1611" y2="950" gradientUnits="userSpaceOnUse">
<stop stop-color="#EAB196"/>
<stop offset="1" stop-color="#FFF0E9" stop-opacity="0"/>
</linearGradient>
<linearGradient id="paint6_linear_1_1978" x1="1610" y1="-106" x2="1610" y2="989" gradientUnits="userSpaceOnUse">
<stop stop-color="#EAB196"/>
<stop offset="1" stop-color="#FFF0E9" stop-opacity="0"/>
</linearGradient>
<linearGradient id="paint7_linear_1_1978" x1="-501.686" y1="992.814" x2="176.412" y2="1384.31" gradientUnits="userSpaceOnUse">
<stop stop-color="#EAB196"/>
<stop offset="1" stop-color="#FFF0E9" stop-opacity="0"/>
</linearGradient>
<linearGradient id="paint8_linear_1_1978" x1="-529.301" y1="982.643" x2="186.902" y2="1396.14" gradientUnits="userSpaceOnUse">
<stop stop-color="#EAB196"/>
<stop offset="1" stop-color="#FFF0E9" stop-opacity="0"/>
</linearGradient>
<linearGradient id="paint9_linear_1_1978" x1="-549.47" y1="971.577" x2="212.633" y2="1411.58" gradientUnits="userSpaceOnUse">
<stop stop-color="#EAB196"/>
<stop offset="1" stop-color="#FFF0E9" stop-opacity="0"/>
</linearGradient>
<linearGradient id="paint10_linear_1_1978" x1="-582.593" y1="944.948" x2="249.658" y2="1425.45" gradientUnits="userSpaceOnUse">
<stop stop-color="#EAB196"/>
<stop offset="1" stop-color="#FFF0E9" stop-opacity="0"/>
</linearGradient>
<linearGradient id="paint11_linear_1_1978" x1="-609.823" y1="932.112" x2="273.523" y2="1442.11" gradientUnits="userSpaceOnUse">
<stop stop-color="#EAB196"/>
<stop offset="1" stop-color="#FFF0E9" stop-opacity="0"/>
</linearGradient>
<linearGradient id="paint12_linear_1_1978" x1="-641.5" y1="914.978" x2="306.798" y2="1462.48" gradientUnits="userSpaceOnUse">
<stop stop-color="#EAB196"/>
<stop offset="1" stop-color="#FFF0E9" stop-opacity="0"/>
</linearGradient>
</defs>
</svg>
