<svg width="448" height="358" viewBox="0 0 448 358" fill="none" xmlns="http://www.w3.org/2000/svg">
<rect width="448" height="358" rx="5" fill="url(#paint0_linear_1_1778)"/>
<mask id="mask0_1_1778" style="mask-type:alpha" maskUnits="userSpaceOnUse" x="0" y="0" width="448" height="358">
<rect width="448" height="358" rx="5" fill="url(#paint1_linear_1_1778)"/>
</mask>
<g mask="url(#mask0_1_1778)">
<path d="M322.292 -191.647C322.923 -191.816 323.56 -191.987 324.228 -192.095C326.061 -192.44 327.91 -192.799 329.762 -193.164C341.285 -195.419 353.148 -197.739 364.867 -197.054C369.489 -196.778 374.123 -196.132 378.612 -195.502C386.281 -194.433 394.208 -193.322 402.104 -194.1C412.002 -195.081 421.605 -198.275 430.896 -201.37C433.526 -202.247 436.152 -203.122 438.795 -203.951C449.827 -207.412 459.265 -213.257 468.392 -218.908C475.457 -223.279 482.763 -227.806 490.849 -231.27C495.906 -233.442 501.42 -234.849 506.754 -236.213C507.914 -236.524 509.072 -236.804 510.218 -237.106C523.636 -240.64 542.021 -241.458 553.389 -233.163C554.47 -232.372 555.575 -231.588 556.674 -230.802C560.954 -227.765 565.403 -224.626 569.063 -220.772C575.212 -214.343 579.643 -208.025 582.247 -201.949C585.25 -194.945 587.036 -187.242 588.765 -179.791C589.445 -176.859 590.146 -173.826 590.909 -170.922C593.582 -160.7 597.827 -152.909 603.516 -147.765C608.656 -143.121 613.197 -142.617 618.458 -142.028C621.354 -141.772 624.223 -141.264 627.03 -140.509C628.672 -139.993 630.276 -139.364 631.83 -138.625C632.982 -138.096 634.212 -137.557 635.416 -137.138C637.208 -136.57 639.044 -136.146 640.904 -135.873C642.457 -135.627 643.996 -135.298 645.513 -134.887C669.387 -127.969 683.76 -98.9561 683.381 -76.0452C683.304 -71.3355 682.122 -67.0718 680.872 -62.5526L680.765 -62.1605C677.465 -50.2072 667.922 -45.0912 657.823 -39.6546L655.584 -38.449C645.709 -33.0824 648.218 -23.382 650.646 -13.9985C651.165 -12.0629 651.618 -10.2209 651.989 -8.42241C654.823 5.45564 650.705 15.4323 639.405 22.0994C637.913 22.9787 636.435 23.8744 634.962 24.7689C631.433 26.9107 627.781 29.1208 624.017 31.0632C616.784 34.788 612.13 38.049 608.272 44.6197C603.05 53.5094 602.966 60.0631 604.724 70.545C605.145 73.0771 605.8 75.7282 606.49 78.5313C608.727 87.5976 611.263 97.8712 605.761 105.983C592.595 125.465 567.409 127.792 546.941 127.644L546.349 127.641C523.619 127.478 508.609 127.371 491.618 144.138C484.825 150.844 476.218 155.155 467.248 159.335C442.457 170.904 416.925 172.314 397.228 163.257C389.159 159.544 383.056 153.134 377.145 146.934C370.708 140.185 364.058 133.204 354.946 129.897C348.158 127.435 338.857 126.046 329.419 126.086C327.269 126.159 325.133 126.461 323.047 126.986C321.805 127.254 320.52 127.532 319.167 127.723C308.583 129.201 297.002 126.333 288.185 120.055C278.975 113.498 271.448 103.34 268.043 92.8555L267.275 90.5375C265.97 86.5917 264.794 82.7278 264.736 78.9476C264.566 67.0004 266.041 49.4995 274.185 33.9213C275.561 31.2864 277.024 28.6181 278.449 26.0557C283.578 16.7619 288.885 7.14813 291.093 -3.44764C291.665 -6.17999 292.403 -10.2694 292.25 -14.2159C292.089 -17.9079 290.649 -20.192 288.656 -23.0296C288.024 -23.9153 287.467 -24.826 286.929 -25.7014C285.742 -27.6244 284.618 -29.4431 282.891 -30.9488C281.419 -32.2353 279.808 -33.0251 278.071 -33.8517C276.587 -34.5166 275.169 -35.3196 273.835 -36.2501C270.964 -38.3678 267.464 -39.8326 263.764 -41.385C257.181 -44.1336 250.375 -46.9837 247.338 -53.8117C236.981 -77.0763 243.906 -101.655 252.045 -122.628C252.471 -123.751 252.874 -124.869 253.287 -125.949C254.759 -129.977 256.286 -134.142 258.86 -137.83C262.88 -143.606 267.586 -148.784 272.164 -153.801C276.381 -158.464 280.751 -163.239 284.515 -168.462C285.09 -169.257 285.644 -170.077 286.197 -170.896C287.762 -173.203 289.38 -175.595 291.49 -177.544C293.6 -179.492 296.185 -180.917 298.675 -182.275C299.588 -182.772 300.496 -183.268 301.378 -183.787C304.576 -185.653 307.463 -186.589 310.808 -187.646L312.567 -188.208C313.961 -188.663 315.297 -189.182 316.603 -189.684C318.462 -190.44 320.361 -191.096 322.292 -191.647V-191.647ZM416.466 -195.636C411.799 -194.342 407.035 -193.432 402.219 -192.914C394.186 -192.12 386.181 -193.24 378.443 -194.322C373.976 -194.947 369.361 -195.593 364.798 -195.859C353.227 -196.539 341.417 -194.228 329.991 -191.989L324.448 -190.917C321.907 -190.368 319.423 -189.582 317.028 -188.571C315.709 -188.061 314.34 -187.533 312.932 -187.075L311.163 -186.51C307.903 -185.475 305.057 -184.576 301.982 -182.758C301.111 -182.237 300.165 -181.731 299.24 -181.225C296.819 -179.905 294.311 -178.537 292.3 -176.671C290.289 -174.804 288.728 -172.483 287.193 -170.255C286.633 -169.423 286.071 -168.596 285.496 -167.781C281.695 -162.507 277.308 -157.683 273.061 -153.017C268.521 -148.03 263.83 -142.871 259.825 -137.134C257.343 -133.572 255.909 -129.665 254.396 -125.524C253.989 -124.405 253.581 -123.287 253.148 -122.186C245.096 -101.439 238.239 -77.151 248.416 -54.2925C251.262 -47.8977 257.845 -45.1444 264.213 -42.4796C267.82 -40.9729 271.552 -39.3985 274.539 -37.2059C275.81 -36.3221 277.162 -35.5622 278.578 -34.9366C280.41 -34.1506 282.124 -33.1152 283.672 -31.8598C285.538 -30.2347 286.761 -28.2509 287.946 -26.3373C288.477 -25.47 289.021 -24.6065 289.63 -23.7298C291.686 -20.8282 293.272 -18.2853 293.446 -14.2788C293.62 -10.2724 292.867 -6.01246 292.282 -3.21601C290.034 7.55193 284.683 17.2433 279.51 26.6195C278.095 29.1841 276.629 31.8383 275.258 34.4565C267.247 49.8124 265.768 67.1123 265.95 78.9151C266.004 82.5297 267.153 86.2901 268.429 90.1476L268.681 90.918L269.189 92.4575C272.519 102.695 279.887 112.638 288.892 119.053C297.341 125.072 308.884 127.93 319.014 126.512C320.324 126.328 321.589 126.055 322.808 125.794C324.975 125.249 327.194 124.939 329.427 124.868C339.014 124.823 348.453 126.236 355.371 128.748C364.741 132.153 371.494 139.232 378.024 146.083C383.857 152.202 389.887 158.526 397.737 162.141C417.124 171.08 442.28 169.639 466.759 158.224C475.624 154.087 484.135 149.833 490.788 143.266C508.122 126.174 523.338 126.296 546.358 126.447L546.95 126.45C585.347 126.721 598.031 115.317 604.779 105.352C610.003 97.6585 607.625 88.0647 605.348 78.8323C604.643 75.9928 603.991 73.3357 603.558 70.7565C601.753 59.9844 601.845 53.2367 607.253 44.0245C611.261 37.2016 616.048 33.8343 623.482 30.0103C627.225 28.0836 630.853 25.8798 634.366 23.7525C635.843 22.852 637.324 21.9504 638.822 21.0744C649.629 14.6961 653.558 5.12833 650.841 -8.18047C650.482 -9.95197 650.011 -11.7688 649.515 -13.6953C647.09 -23.0648 644.345 -33.686 655.041 -39.4947L657.285 -40.7015C667.154 -45.9958 676.47 -51.0158 679.642 -62.4654L679.749 -62.8575C680.979 -67.3007 682.14 -71.4931 682.217 -76.0514C682.692 -104.919 663.378 -128.463 645.207 -133.73C643.732 -134.128 642.236 -134.446 640.727 -134.685C638.798 -134.971 636.895 -135.417 635.039 -136.017C633.79 -136.455 632.551 -137.006 631.354 -137.554C629.852 -138.27 628.303 -138.88 626.716 -139.38C623.955 -140.113 621.136 -140.604 618.289 -140.847C613.049 -141.431 608.102 -141.983 602.675 -146.884C596.817 -152.174 592.458 -160.162 589.719 -170.613C588.936 -173.533 588.246 -176.578 587.566 -179.515C585.851 -186.914 584.077 -194.571 581.116 -201.474C578.568 -207.419 574.209 -213.635 568.164 -219.94C564.559 -223.704 560.183 -226.816 555.951 -229.826C554.84 -230.614 553.736 -231.398 552.649 -232.192C541.62 -240.24 523.638 -239.409 510.489 -235.947C509.343 -235.64 508.188 -235.33 507.015 -235.051C501.723 -233.699 496.256 -232.305 491.285 -230.17C483.292 -226.736 476.024 -222.24 468.998 -217.894C459.805 -212.206 450.301 -206.323 439.127 -202.824C436.498 -201.998 433.878 -201.124 431.257 -200.251C426.409 -198.619 421.478 -196.979 416.452 -195.633L416.466 -195.636Z" stroke="url(#paint2_linear_1_1778)" stroke-width="2" stroke-miterlimit="10"/>
<path d="M310.515 -200.308C314.985 -201.506 319.891 -201.866 324.645 -202.211C325.432 -202.27 326.21 -202.323 326.976 -202.386C339.588 -203.377 353.126 -204.061 366.717 -202.396C373.319 -201.59 379.272 -201.003 385.273 -202.025C389.768 -202.791 394.31 -203.245 398.699 -203.689C407.688 -204.583 416.176 -205.443 424.659 -208.711L428.039 -210.001C430.643 -210.986 433.333 -212.005 435.93 -213.089C443.774 -216.353 451.314 -221.221 458.6 -225.925C461.849 -228.023 465.211 -230.191 468.539 -232.163C470.327 -233.28 472.05 -234.497 473.701 -235.808C475.849 -237.455 478.074 -239.156 480.549 -240.395L480.768 -240.499C485.155 -242.685 489.676 -244.936 494.766 -245.477C498.217 -245.927 501.636 -246.594 505.004 -247.473C510.972 -248.9 517.145 -250.373 523.229 -249.428C526.51 -248.918 529.798 -248.573 532.977 -248.238C544.405 -247.038 555.198 -245.906 564.89 -237.601C576.752 -227.449 584.137 -216.355 588.842 -201.604C589.362 -199.981 589.933 -198.362 590.494 -196.775C591.384 -194.246 592.305 -191.635 593.016 -188.983C593.435 -187.419 593.813 -185.839 594.189 -184.248C594.862 -181.13 595.718 -178.055 596.753 -175.038C598.728 -169.644 601.473 -166.709 604.657 -163.285C606.428 -161.447 608.094 -159.509 609.645 -157.482C611.424 -155.1 612.243 -154.285 615.139 -153.803C628.759 -151.52 639.784 -149.167 649.832 -146.391C658.044 -144.153 666.598 -138.229 671.853 -133.462C673.571 -131.842 675.194 -130.124 676.715 -128.317C677.795 -127.092 678.907 -125.789 680.088 -124.601C680.785 -123.883 681.477 -123.185 682.167 -122.496C685.939 -118.761 689.504 -115.232 691.864 -110.043C698.53 -95.3777 698.304 -75.7052 691.28 -59.9222C689.547 -56.0292 686.559 -53.4663 683.648 -51.1767C681.069 -49.244 678.362 -47.4864 675.547 -45.9158C670.401 -42.8908 665.08 -39.7634 661.861 -34.5583C658.093 -28.4638 659.706 -22.1957 661.399 -15.5598C661.838 -13.9203 662.263 -12.2214 662.606 -10.546C664.199 -2.71704 666.208 7.02507 661.954 14.5273C658.087 21.4611 648.99 25.0398 640.986 28.1944C638.29 29.2499 635.747 30.2497 633.548 31.3135C632.655 31.7496 631.662 32.1318 630.715 32.4967C629.032 33.1496 627.299 33.8211 625.939 34.8317C612.262 44.98 615.738 61.7215 619.439 79.5085C622.073 92.1837 624.797 105.289 620.67 115.772C619.247 119.354 616.054 123.189 613.508 125.386C611.746 126.913 609.576 127.874 607.476 128.8L606.741 129.128C595.023 134.379 580.154 137.631 561.323 139.056C558.537 139.203 555.744 139.16 552.964 138.928C551.794 138.857 550.629 138.786 549.472 138.742C525.41 137.868 501.709 145.819 486.075 160.006C485.076 160.91 484.106 161.887 483.168 162.835C481.544 164.552 479.791 166.142 477.926 167.593C470.847 172.827 459.806 175.442 450.938 177.541L448.443 178.138C443.885 179.233 439.245 179.795 434.757 180.341C432.025 180.675 429.199 181.018 426.42 181.48L425.69 181.599C422.612 182.116 419.704 182.602 416.441 182.24C406.558 181.151 397.4 178.207 389.722 175.478C380.409 172.166 375.51 166.016 369.843 158.9C369.09 157.976 368.331 157.028 367.569 156.066C355.82 141.591 337.034 139.889 318.873 138.237C310.077 137.438 300.972 136.615 292.944 134.313C279.908 130.575 268.046 119.332 257.686 100.886C257.279 100.157 256.891 99.4189 256.523 98.6727C249.648 84.7152 248.048 64.936 252.626 50.576C253.635 47.6003 254.816 44.6858 256.163 41.847C256.924 40.1638 257.715 38.4268 258.409 36.7008C258.991 35.2572 259.528 33.7753 260.042 32.3399C260.98 29.5411 262.102 26.8078 263.403 24.1581C264.317 22.395 265.237 20.6337 266.162 18.8744C270.102 11.3301 274.166 3.53049 277.818 -4.33552C279.923 -8.87834 281.393 -12.7161 279.689 -17.2684C276.204 -26.5042 267.327 -30.2454 258.723 -33.8681C254.182 -35.802 249.464 -37.7897 245.599 -40.5714C233.38 -49.416 228.871 -64.4566 231.82 -86.5504C232.006 -87.9484 232.176 -89.3473 232.35 -90.732C232.88 -95.1053 233.429 -99.6303 234.493 -104.005C234.944 -105.666 235.575 -107.273 236.375 -108.797C236.747 -109.573 237.128 -110.357 237.468 -111.195C237.792 -112.022 238.072 -112.866 238.306 -113.722C238.631 -114.951 239.07 -116.147 239.615 -117.294C242.489 -122.866 244.978 -128.744 247.381 -134.433C250.547 -141.911 253.821 -149.64 258.006 -156.801C265.621 -169.829 277.41 -182.087 291.167 -191.297C296.73 -194.97 302.774 -197.857 309.127 -199.876C309.589 -200.055 310.054 -200.185 310.515 -200.308ZM419.126 -205.679C412.367 -203.867 405.504 -203.18 398.814 -202.508C394.439 -202.068 389.915 -201.638 385.47 -200.856C379.314 -199.808 373.014 -200.432 366.568 -201.22C353.081 -202.872 339.609 -202.186 327.066 -201.204L324.724 -201.031C319.54 -200.651 314.165 -200.251 309.486 -198.78C303.242 -196.791 297.302 -193.952 291.832 -190.344C278.207 -181.224 266.555 -169.114 259.021 -156.234C254.865 -149.137 251.62 -141.446 248.466 -134.001C246.05 -128.304 243.554 -122.395 240.671 -116.764C240.156 -115.686 239.744 -114.561 239.441 -113.405C239.195 -112.508 238.901 -111.625 238.559 -110.76C238.205 -109.898 237.812 -109.086 237.437 -108.299C236.668 -106.85 236.061 -105.321 235.63 -103.739C234.591 -99.4215 234.043 -94.9473 233.515 -90.6048C233.346 -89.2012 233.177 -87.7976 232.988 -86.3937C230.102 -64.7766 234.453 -50.1024 246.278 -41.5411C250.033 -38.8309 254.695 -36.8635 259.211 -34.9682C268.04 -31.2748 277.181 -27.4174 280.827 -17.6944C282.698 -12.7072 281.147 -8.64096 278.925 -3.83945C275.274 4.04667 271.19 11.8667 267.243 19.4229L264.488 24.7054C263.206 27.3092 262.099 29.9961 261.176 32.7479C260.659 34.1893 260.121 35.6866 259.528 37.1482C258.821 38.898 258.028 40.6505 257.26 42.3409C255.925 45.1432 254.752 48.02 253.748 50.957C249.254 65.0471 250.83 84.454 257.576 98.1581C257.933 98.8857 258.311 99.6022 258.709 100.314C268.91 118.47 280.531 129.53 293.259 133.173C301.178 135.444 310.24 136.258 318.965 137.056C337.384 138.725 356.429 140.454 368.489 155.319C369.253 156.286 370.012 157.234 370.766 158.163C376.32 165.138 381.115 171.164 390.104 174.36C397.72 177.066 406.815 179.982 416.56 181.062C419.68 181.402 422.487 180.933 425.477 180.429L426.207 180.309C429.011 179.846 431.846 179.5 434.594 179.168C439.048 178.626 443.654 178.068 448.145 176.986L450.646 176.392C459.413 174.315 470.317 171.732 477.202 166.645C479.017 165.227 480.722 163.675 482.304 162.001C483.254 161.045 484.235 160.055 485.255 159.13C501.134 144.726 525.148 136.666 549.512 137.535C550.679 137.576 551.854 137.649 553.035 137.722C555.76 137.948 558.497 137.992 561.228 137.854C579.93 136.454 594.647 133.237 606.253 128.042L606.992 127.688C609.009 126.794 611.094 125.871 612.725 124.46C615.077 122.426 618.217 118.696 619.551 115.309C623.543 105.15 620.86 92.236 618.261 79.7282C614.657 62.3796 610.924 44.4345 625.216 33.8288C626.702 32.7237 628.517 32.0201 630.274 31.3423C631.239 30.9677 632.158 30.6104 632.997 30.1988C635.226 29.0967 637.803 28.1082 640.521 27.0416C648.341 23.9717 657.212 20.4938 660.938 13.9209C664.962 6.78332 663.02 -2.689 661.455 -10.3185C661.119 -11.9703 660.685 -13.6466 660.263 -15.2757C658.569 -21.8607 656.81 -28.6706 660.847 -35.1956C664.228 -40.6459 669.673 -43.857 674.946 -46.9563C677.713 -48.4973 680.374 -50.2225 682.911 -52.1203C685.742 -54.308 688.592 -56.768 690.218 -60.4001C697.106 -75.8791 697.339 -95.1696 690.808 -109.537C688.536 -114.533 685.046 -117.986 681.354 -121.648C680.663 -122.341 679.97 -123.044 679.239 -123.757C678.05 -124.953 676.915 -126.27 675.818 -127.521C674.328 -129.299 672.736 -130.988 671.049 -132.58C665.894 -137.258 657.524 -143.059 649.474 -145.275C639.465 -148.041 628.483 -150.385 614.896 -152.673C611.614 -153.222 610.522 -154.303 608.647 -156.815C607.12 -158.809 605.481 -160.713 603.737 -162.518C600.605 -165.88 597.648 -169.057 595.588 -174.675C594.537 -177.737 593.667 -180.857 592.983 -184.02C592.612 -185.592 592.241 -187.164 591.82 -188.718C591.121 -191.328 590.21 -193.917 589.327 -196.422C588.753 -198.035 588.184 -199.65 587.664 -201.288C583.036 -215.792 575.762 -226.719 564.076 -236.721C554.67 -244.769 544.058 -245.885 532.817 -247.064C529.623 -247.4 526.319 -247.746 523.012 -248.259C517.159 -249.17 511.105 -247.724 505.245 -246.326C501.83 -245.429 498.361 -244.752 494.859 -244.3C489.996 -243.795 485.757 -241.68 481.264 -239.441L481.049 -239.338C478.662 -238.148 476.483 -236.483 474.377 -234.869C472.69 -233.528 470.928 -232.285 469.099 -231.147C465.816 -229.192 462.464 -227.026 459.223 -224.936C451.909 -220.204 444.307 -215.304 436.363 -211.999C433.752 -210.91 431.053 -209.889 428.441 -208.896L425.065 -207.613C423.125 -206.861 421.147 -206.213 419.138 -205.672L419.126 -205.679Z" stroke="url(#paint3_linear_1_1778)" stroke-width="2" stroke-miterlimit="10"/>
<path d="M316.028 -217.678C317.974 -218.199 319.926 -218.566 321.94 -218.949L324.504 -219.444C331.401 -220.843 339.885 -220.583 347.365 -220.352L350.826 -220.27C354.013 -220.127 357.189 -219.798 360.337 -219.286C361.528 -219.101 362.711 -218.944 363.898 -218.792C390.274 -215.465 409.769 -217.419 429.082 -225.349C434.032 -227.382 438.378 -230.009 442.972 -232.789L443.589 -233.162C448.825 -236.331 456.646 -240.823 464.113 -243.263C465.835 -243.83 467.552 -244.376 469.26 -244.92C477.515 -247.546 485.311 -250.023 492.941 -254.152L495.48 -255.533C500.205 -258.121 504.673 -260.56 509.727 -262.505C525.544 -268.574 539.79 -268.617 557.366 -262.654C564.638 -260.187 573.503 -252.511 578.157 -246.527C582.629 -240.786 586.354 -233.746 589.227 -225.605C590.707 -221.419 591.824 -217.026 592.9 -212.783C593.34 -211.139 593.741 -209.476 594.176 -207.851L594.59 -206.307C597.838 -194.184 601.52 -180.441 611.26 -172.08C612.542 -171.045 613.9 -170.108 615.324 -169.279C616.624 -168.512 617.877 -167.668 619.077 -166.752C623.345 -163.354 630.612 -163.283 637.049 -163.211C639.852 -163.241 642.653 -163.092 645.437 -162.764C648.589 -162.307 651.719 -161.803 654.853 -161.301L660.127 -160.468C665.607 -159.636 669.711 -158.116 673.429 -155.55C675.338 -154.23 677.328 -152.947 679.429 -151.607C686.286 -147.147 693.399 -142.558 698.212 -136.395C699.563 -134.668 701.077 -132.939 702.543 -131.273C705.712 -127.666 708.994 -123.918 711.126 -119.635C712.314 -117.239 712.951 -114.614 713.57 -112.08C713.772 -111.327 713.936 -110.564 714.138 -109.81C715.229 -105.738 715.918 -102.244 715.84 -98.4634C715.514 -81.6987 711.69 -70.0167 703.051 -59.3962C700.12 -55.805 696.873 -52.4119 693.742 -49.1106C687.881 -42.9984 681.832 -36.6395 677.776 -28.8412C676.112 -25.6252 675.215 -23.0182 675.995 -19.9773C676.285 -18.8945 676.576 -17.8069 676.866 -16.724C677.078 -15.9331 677.29 -15.1421 677.497 -14.37C677.939 -12.7222 678.38 -11.0743 678.82 -9.43121C679.755 -5.94251 680.691 -2.44912 681.626 1.03957C683.585 8.04855 683.128 14.3171 680.271 19.6746C677.321 25.1933 672.667 29.1046 668.16 32.6386C664.55 35.468 660.509 37.1815 656.596 38.8454C654.27 39.8321 651.863 40.8556 649.551 42.1057C648.396 42.6906 647.185 43.1588 645.936 43.5033C645.256 43.7159 644.574 43.9238 643.892 44.1872C641.775 45.0119 638.736 47.562 637.268 49.4138C630.124 58.3571 631.587 68.658 634.227 78.4565L634.419 79.1721C636.513 86.9875 638.712 95.0625 638.117 103.265C637.983 105.138 637.769 107.053 637.563 108.904C637.444 109.945 637.331 110.985 637.222 112.023C637.174 112.541 637.139 113.054 637.119 113.524C636.963 115.62 636.816 117.597 635.6 119.709C634.042 122.301 632.227 124.729 630.184 126.958C628.269 129.117 626.113 131.05 623.758 132.717C620.636 135.032 617.437 136.515 614.05 138.083C613.151 138.501 612.212 138.934 611.281 139.38C601.609 144.051 589.835 144.42 579.453 144.745L579.238 144.752C578.511 144.775 577.802 144.824 577.098 144.871C575.148 145.078 573.18 145.035 571.241 144.745C569.064 144.282 566.844 144.045 564.618 144.037C563.767 144.016 562.92 143.924 562.084 143.762C561.043 143.533 559.971 143.471 558.909 143.579C556.158 144.075 553.462 144.842 550.862 145.871C541.384 149.586 531.216 152.144 521.392 154.625C519.027 155.224 516.632 155.825 514.271 156.437C508.197 158.025 502.124 161.05 495.264 165.961C491.797 168.439 489.568 171.448 487.413 174.357C484.074 178.86 480.926 183.109 473.68 185.303C470.94 186.138 468.166 187.058 465.492 187.951C462.817 188.845 459.996 189.777 457.221 190.617C440.766 195.586 425.434 197.191 411.749 195.328C399.144 193.614 391.825 188.218 383.367 181.966C380.348 179.747 377.223 177.431 373.655 175.142C372.564 174.425 371.516 173.697 370.467 172.969C368.311 171.363 366.016 169.951 363.61 168.751C359.623 166.897 355.795 164.673 352.092 162.517C349.831 161.205 347.498 159.847 345.156 158.592C338.671 155.122 331.492 153.867 324.54 152.652C320.347 151.994 316.193 151.111 312.095 150.007C311.088 149.716 310.123 149.415 309.177 149.123C305.809 148.073 302.626 147.084 298.816 146.964C297.501 146.918 296.218 146.899 294.96 146.877C288.496 146.768 282.388 146.663 275.942 143.622C268.774 140.244 263.49 135.807 257.893 131.11C255.939 129.473 253.929 127.776 251.781 126.091C245.081 120.822 240.837 113.012 237.57 106.077C235.577 101.842 234.452 97.5869 233.265 93.101L233.214 92.9127C232.871 91.6321 232.499 90.3543 232.126 89.0766C230.892 84.8658 229.615 80.5352 229.645 76.0464C229.779 60.9426 232.617 46.5224 237.843 34.3436C245.3 16.9397 253.346 5.388 263.888 -3.10355C267.685 -6.1395 269.392 -9.25102 268.968 -12.3015C267.786 -20.7851 250.958 -27.9324 239.822 -32.6641C235.559 -34.4739 232.196 -35.9041 230.535 -37.0334C226.71 -39.6216 223.734 -43.2849 220.84 -46.8289L220.164 -47.6569C211.496 -58.2928 214.091 -76.8969 216.176 -91.847C216.66 -95.3173 217.121 -98.5944 217.389 -101.477C217.669 -103.867 218.124 -106.234 218.749 -108.558C219.354 -110.789 219.8 -113.06 220.084 -115.354C220.453 -119.218 220.823 -122.021 222.432 -125.627C223.488 -128.119 224.386 -130.675 225.119 -133.28C225.897 -136.034 226.861 -138.732 228.005 -141.355C228.844 -143.18 229.599 -145.092 230.334 -146.95C231.445 -149.958 232.756 -152.889 234.261 -155.722C235.296 -157.513 236.123 -159.42 236.949 -161.257C237.776 -163.093 238.614 -164.957 239.616 -166.76C247.093 -180.188 255.031 -185.716 267.046 -194.082L269.117 -195.53C280.818 -203.712 293.081 -208.663 306.062 -213.917C308.035 -214.713 310.012 -215.516 312.005 -216.332C313.315 -216.868 314.659 -217.317 316.028 -217.678ZM416.303 -219.74C400.843 -215.597 384.382 -214.986 363.756 -217.589C362.559 -217.742 361.367 -217.912 360.17 -218.081C357.074 -218.59 353.951 -218.917 350.817 -219.062C349.694 -219.089 348.532 -219.126 347.351 -219.142C339.931 -219.374 331.523 -219.634 324.755 -218.26C323.889 -218.083 323.028 -217.923 322.182 -217.762C318.818 -217.123 315.685 -216.526 312.472 -215.211C310.476 -214.393 308.493 -213.588 306.524 -212.795C293.603 -207.566 281.405 -202.633 269.813 -194.536L267.741 -193.088C255.863 -184.814 248.015 -179.35 240.672 -166.155C239.698 -164.38 238.858 -162.54 238.051 -160.744C237.245 -158.949 236.352 -156.964 235.317 -155.117C233.836 -152.338 232.543 -149.463 231.447 -146.511C230.71 -144.643 229.94 -142.711 229.103 -140.837C227.989 -138.264 227.051 -135.619 226.296 -132.919C225.551 -130.264 224.636 -127.659 223.557 -125.121C222.015 -121.68 221.67 -118.973 221.306 -115.223C221.021 -112.886 220.569 -110.573 219.954 -108.3C219.342 -106.031 218.898 -103.719 218.625 -101.384C218.35 -98.4746 217.893 -95.1834 217.408 -91.6977C215.353 -76.9775 212.794 -58.6708 221.138 -48.4325L221.809 -47.6033C224.635 -44.1267 227.553 -40.5287 231.236 -38.0184C232.799 -36.9537 236.285 -35.4759 240.32 -33.7615C251.716 -28.9279 268.906 -21.62 270.177 -12.4639C270.664 -8.97114 268.809 -5.50712 264.668 -2.17208C254.283 6.19145 246.359 17.5944 238.969 34.8139C233.806 46.8498 231.002 61.1145 230.869 76.0563C230.829 80.3715 232.08 84.6281 233.29 88.7447C233.666 90.0365 234.046 91.3224 234.386 92.609L234.437 92.802C235.628 97.2465 236.726 101.458 238.673 105.594C242.048 112.764 246.056 120.066 252.541 125.176C254.704 126.878 256.734 128.594 258.685 130.221C264.217 134.865 269.449 139.256 276.473 142.571C282.691 145.497 288.395 145.599 294.99 145.709C296.259 145.732 297.529 145.76 298.866 145.795C302.836 145.928 306.096 146.936 309.559 148.007C310.496 148.3 311.455 148.599 312.456 148.885C316.511 149.978 320.623 150.85 324.772 151.499C331.813 152.726 339.083 154.003 345.734 157.564C348.094 158.83 350.442 160.188 352.71 161.508C356.389 163.646 360.193 165.856 364.133 167.687C366.597 168.915 368.949 170.357 371.161 171.996C372.2 172.726 373.244 173.456 374.313 174.128C377.912 176.439 381.048 178.757 384.088 181.001C392.419 187.155 399.623 192.481 411.922 194.146C425.424 195.983 440.572 194.391 456.897 189.462C459.658 188.627 462.444 187.698 465.133 186.801C467.822 185.904 470.6 184.983 473.356 184.149C480.203 182.072 483.24 177.968 486.452 173.636C488.681 170.646 490.948 167.571 494.566 164.977C501.55 159.982 507.71 156.884 513.969 155.272C516.325 154.641 518.696 154.066 521.094 153.459C530.887 150.991 541.015 148.439 550.426 144.752C553.105 143.692 555.882 142.902 558.718 142.394C559.913 142.254 561.124 142.314 562.3 142.569C563.07 142.719 563.852 142.805 564.636 142.826C566.936 142.836 569.228 143.081 571.478 143.556C573.327 143.831 575.204 143.868 577.062 143.665C577.781 143.613 578.506 143.566 579.247 143.544L579.462 143.536C589.729 143.213 601.363 142.85 610.812 138.29C611.747 137.838 612.672 137.408 613.594 136.985C616.922 135.442 620.067 133.983 623.092 131.74C625.373 130.123 627.46 128.25 629.313 126.157C631.301 123.986 633.068 121.623 634.588 119.102C635.667 117.228 635.796 115.468 635.947 113.429C635.981 112.916 636.02 112.401 636.073 111.882C636.179 110.844 636.299 109.803 636.418 108.762C636.622 106.921 636.835 105.022 636.97 103.169C637.547 95.1627 635.39 87.1875 633.307 79.4701L633.121 78.778C630.413 68.6697 628.906 58.0326 636.384 48.6768C637.961 46.705 641.131 44.0037 643.506 43.0847C644.215 42.809 644.923 42.5888 645.632 42.3687C646.805 42.0474 647.943 41.6106 649.03 41.0646C651.394 39.7853 653.829 38.7696 656.177 37.7518C660.195 36.0494 663.986 34.4383 667.469 31.6986C671.875 28.242 676.423 24.4247 679.247 19.1115C681.958 14.0402 682.383 8.06782 680.505 1.36016C679.531 -2.12314 678.605 -5.61906 677.695 -9.12474C677.255 -10.7679 676.812 -12.4204 676.373 -14.0588C676.163 -14.8451 675.952 -15.6313 675.743 -16.4129C675.45 -17.5051 675.157 -18.5974 674.86 -19.7085C673.893 -23.4864 675.323 -26.7055 676.735 -29.4254C680.874 -37.3717 686.99 -43.779 692.901 -49.9701C696.003 -53.1881 699.227 -56.5749 702.128 -60.1478C710.578 -70.5464 714.343 -82.0158 714.647 -98.4869C714.727 -102.106 714.034 -105.523 712.982 -109.506C712.779 -110.264 712.574 -111.026 712.408 -111.799C711.807 -114.267 711.187 -116.826 710.056 -119.106C707.987 -123.265 704.765 -126.938 701.646 -130.477C700.185 -132.16 698.645 -133.892 697.27 -135.648C692.58 -141.658 685.563 -146.186 678.778 -150.57C676.665 -151.936 674.667 -153.228 672.74 -154.558C669.187 -157.017 665.235 -158.481 659.932 -159.311C658.176 -159.581 656.418 -159.858 654.658 -160.143C651.53 -160.642 648.396 -161.145 645.258 -161.601C642.529 -161.917 639.782 -162.059 637.034 -162.026C630.421 -162.091 622.926 -162.167 618.339 -165.828C617.177 -166.713 615.964 -167.528 614.705 -168.27C613.228 -169.13 611.82 -170.102 610.492 -171.178C600.456 -179.777 596.727 -193.73 593.443 -206.005L593.031 -207.544C592.592 -209.183 592.148 -210.84 591.751 -212.49C590.681 -216.709 589.572 -221.075 588.111 -225.21C585.279 -233.231 581.616 -240.157 577.226 -245.798C572.675 -251.643 564.06 -259.124 556.995 -261.515C539.47 -267.472 525.902 -267.429 510.167 -261.391C505.184 -259.481 500.753 -257.057 496.063 -254.488L493.52 -253.106C485.787 -248.924 477.946 -246.41 469.635 -243.784C467.927 -243.241 466.215 -242.696 464.492 -242.133C457.143 -239.725 449.4 -235.279 444.211 -232.158L443.599 -231.787C438.958 -228.979 434.574 -226.341 429.541 -224.26C425.229 -222.473 420.807 -220.963 416.303 -219.74Z" stroke="url(#paint4_linear_1_1778)" stroke-width="2" stroke-miterlimit="10"/>
</g>
<defs>
<linearGradient id="paint0_linear_1_1778" x1="181.5" y1="-30" x2="319.5" y2="420" gradientUnits="userSpaceOnUse">
<stop stop-color="#FFF1DC"/>
<stop offset="1" stop-color="#FFDBCB"/>
</linearGradient>
<linearGradient id="paint1_linear_1_1778" x1="136.5" y1="-13" x2="296" y2="370" gradientUnits="userSpaceOnUse">
<stop stop-color="#FFBB50"/>
<stop offset="1" stop-color="#EBA536" stop-opacity="0"/>
</linearGradient>
<linearGradient id="paint2_linear_1_1778" x1="514.285" y1="148.509" x2="416.385" y2="-216.859" gradientUnits="userSpaceOnUse">
<stop stop-color="#FF9968"/>
<stop offset="1" stop-color="#FFF0E9" stop-opacity="0"/>
</linearGradient>
<linearGradient id="paint3_linear_1_1778" x1="518.292" y1="159.66" x2="414.381" y2="-228.139" gradientUnits="userSpaceOnUse">
<stop stop-color="#FF9968"/>
<stop offset="1" stop-color="#FFF0E9" stop-opacity="0"/>
</linearGradient>
<linearGradient id="paint4_linear_1_1778" x1="522.34" y1="173.245" x2="410.789" y2="-243.069" gradientUnits="userSpaceOnUse">
<stop stop-color="#FF9968"/>
<stop offset="1" stop-color="#FFF0E9" stop-opacity="0"/>
</linearGradient>
</defs>
</svg>
