<svg width="1920" height="1772" viewBox="0 0 1920 1772" fill="none" xmlns="http://www.w3.org/2000/svg">
<path d="M0 0H1920V1772H0V0Z" fill="#F5F1EF"/>
<mask id="mask0_1_4551" style="mask-type:alpha" maskUnits="userSpaceOnUse" x="0" y="0" width="1920" height="1772">
<path d="M0 0H1920V1772H0V0Z" fill="#F5F1EF"/>
</mask>
<g mask="url(#mask0_1_4551)">
<path d="M2357.82 859.707C2366.24 874.284 2372.59 889.208 2376.26 903.498C2378.29 911.239 2379.2 919.232 2378.96 927.231C2378.87 934.255 2379.42 941.376 2379.94 948.26C2380.39 954.137 2380.85 960.213 2380.91 966.238C2381.06 981.267 2385.24 994.47 2394.59 1010.72L2395.34 1012.02C2398.04 1016.69 2400.01 1020.1 2404.62 1023.33C2422.42 1035.95 2438.78 1050.48 2453.43 1066.66C2483.06 1099.22 2494.44 1136.97 2485.46 1172.95C2474.42 1217.19 2450.41 1244.19 2431.62 1254.7C2427.54 1256.99 2423.16 1259.2 2418.51 1261.54C2396.41 1272.67 2371.36 1285.29 2369.8 1311.56C2369.38 1318.56 2369.97 1325.67 2370.54 1332.56C2371.5 1343.97 2372.48 1355.77 2368.92 1367.49C2359.79 1397.54 2326.83 1419.48 2295.46 1416.42L2294.38 1416.31C2276.09 1414.52 2255.34 1412.51 2240.25 1401.34C2239.42 1400.74 2238.57 1400.06 2237.74 1399.42C2235.7 1397.79 2233.57 1396.28 2231.34 1394.91C2223.82 1390.51 2208.72 1385.46 2199.9 1387.45C2192.88 1389.02 2186.19 1393 2179.73 1396.84C2167.89 1403.86 2155.66 1411.13 2140.36 1404.94C2130.91 1401.11 2122.66 1394.72 2114.67 1388.55C2103.36 1379.81 2092.69 1371.56 2078.72 1369.59C2071.96 1368.64 2065.02 1369.65 2058.31 1370.62C2050.62 1371.74 2042.65 1372.89 2034.73 1371.21C2010.26 1366.03 1987.43 1353.2 1972.1 1336.02C1961.58 1324.23 1956.11 1305.12 1952.15 1287.98C1948.1 1270.45 1937.63 1253.43 1919.17 1234.44L1919.99 1233.65L1919.17 1234.44C1911.97 1227.01 1904.24 1219.97 1896.95 1213.37C1872.78 1191.55 1853.58 1158.57 1845.67 1125.09C1836.74 1087.55 1842.21 1052.6 1861.08 1026.53C1862.8 1024.28 1864.71 1022.18 1866.78 1020.26C1869.09 1018.16 1871.15 1015.8 1872.92 1013.23C1884.6 994.994 1884.79 972.032 1883.65 954.069C1881.63 922.486 1885.38 899.018 1910.26 879.56C1919.35 872.235 1929.3 866.043 1939.89 861.119C1950.9 855.991 1964 855.301 1973.06 855.622C1975.6 855.71 1978.12 855.899 1980.6 856.137C1984.93 856.623 1989.29 856.77 1993.64 856.576C2001.27 856.046 2009.65 856.49 2018.54 856.962C2037.94 857.996 2058.01 859.068 2072.76 850.122C2084.98 842.707 2093.28 830.453 2101.32 818.595C2105.67 812.154 2110.19 805.5 2115.27 799.72C2117.69 796.776 2119.84 793.617 2121.69 790.282C2122.27 789.315 2122.86 788.336 2123.46 787.361C2130.65 775.802 2144.92 768.264 2157.98 762.388C2171.38 756.372 2185.98 753.614 2199.05 754.689C2204.51 755.121 2210.07 756.118 2215.45 757.089C2219.64 757.875 2223.92 758.605 2228.11 759.1L2229.61 759.267C2236.69 760.091 2243.37 760.931 2250.21 763.836C2260.09 768.119 2269.67 772.388 2278.24 777.537C2280.7 779.078 2283.08 780.74 2285.38 782.519C2287.22 783.866 2289.11 785.278 2291.04 786.528C2301.04 792.987 2309.17 800.473 2316.63 807.576C2332.76 822.917 2346.62 840.469 2357.82 859.707V859.707ZM2392.37 1011.39C2382.94 995.063 2378.83 981.533 2378.65 966.252C2378.59 960.302 2378.13 954.26 2377.68 948.424C2377.15 941.491 2376.62 934.319 2376.7 927.192C2376.94 919.392 2376.05 911.598 2374.06 904.051C2365.82 871.9 2343.77 836.427 2315.1 809.154C2307.71 802.129 2299.67 794.729 2289.84 788.376C2287.84 787.088 2285.91 785.658 2284.04 784.25C2281.8 782.592 2279.48 780.867 2277.06 779.413C2268.63 774.355 2259.11 770.124 2249.3 765.873C2242.78 763.045 2236.26 762.283 2229.35 761.469L2227.83 761.278C2223.57 760.77 2219.23 759.99 2215.03 759.243C2209.71 758.281 2204.2 757.296 2198.84 756.85C2186.13 755.84 2171.94 758.504 2158.89 764.384C2146.14 770.121 2132.19 777.462 2125.36 788.481C2124.76 789.448 2124.18 790.41 2123.61 791.372C2121.67 794.829 2119.42 798.102 2116.89 801.15C2111.92 806.822 2107.44 813.419 2103.12 819.776C2094.96 831.831 2086.52 844.304 2073.87 851.961C2058.52 861.269 2038.1 860.189 2018.36 859.131C2009.55 858.662 2001.23 858.219 1993.74 858.74C1989.27 858.953 1984.79 858.824 1980.34 858.355C1977.91 858.143 1975.41 857.937 1972.91 857.842C1964.13 857.574 1951.38 858.198 1940.78 863.137C1930.34 867.986 1920.54 874.088 1911.58 881.307C1887.48 900.151 1883.86 923.044 1885.82 953.889C1886.99 972.203 1886.79 995.629 1874.75 1014.42C1872.89 1017.11 1870.74 1019.58 1868.34 1021.78C1866.36 1023.62 1864.53 1025.62 1862.88 1027.76C1844.42 1053.27 1839.07 1087.61 1847.83 1124.46C1855.67 1157.49 1874.59 1190.06 1898.42 1211.59C1905.75 1218.2 1913.51 1225.29 1920.75 1232.76C1939.51 1252.08 1950.18 1269.43 1954.33 1287.38C1958.22 1304.24 1963.57 1323.01 1973.76 1334.42C1988.8 1351.24 2011.16 1363.82 2035.16 1368.91C2042.69 1370.51 2050.45 1369.38 2057.95 1368.3C2064.83 1367.29 2071.93 1366.27 2078.99 1367.26C2093.57 1369.36 2104.96 1378.2 2116.03 1386.73C2123.89 1392.81 2132.02 1399.1 2141.18 1402.81C2155.44 1408.58 2166.63 1401.89 2178.55 1394.85C2185.18 1390.92 2192.05 1386.83 2199.39 1385.19C2208.79 1383.08 2224.65 1388.31 2232.48 1392.91C2234.8 1394.34 2237.01 1395.91 2239.12 1397.62C2239.93 1398.22 2240.77 1398.88 2241.6 1399.5C2256.19 1410.29 2276.61 1412.29 2294.61 1414.04L2295.68 1414.15C2326.04 1417.12 2357.92 1395.88 2366.77 1366.81C2370.2 1355.51 2369.24 1343.92 2368.3 1332.72C2367.72 1325.76 2367.13 1318.56 2367.55 1311.4C2369.2 1283.84 2394.86 1270.91 2417.54 1259.48C2422.16 1257.16 2426.52 1254.96 2430.56 1252.69C2448.94 1242.41 2472.44 1215.91 2483.34 1172.34C2492.12 1137.12 2480.93 1100.09 2451.83 1068.13C2437.3 1052.08 2421.07 1037.67 2403.41 1025.16C2398.39 1021.65 2396.22 1017.86 2393.47 1013.12L2392.46 1011.37L2392.37 1011.39Z" stroke="url(#paint0_linear_1_4551)" stroke-width="2" stroke-miterlimit="10"/>
<path d="M2344.27 813.879C2347.28 819.093 2350.14 824.348 2353 829.576L2357.02 836.917C2365.49 852.282 2374.26 868.969 2380.94 886.854C2387.62 904.739 2392.99 924.465 2397.83 948.796C2398.34 951.536 2398.87 954.301 2399.41 957.082C2403.95 981.021 2408.66 1005.79 2427.3 1022.41C2428.99 1023.92 2430.87 1025.29 2432.67 1026.61C2434.82 1028.11 2436.87 1029.74 2438.82 1031.49C2440.47 1033.04 2442.06 1034.69 2443.59 1036.29C2445.7 1038.58 2447.93 1040.74 2450.27 1042.79C2456.32 1047.83 2462.03 1053.25 2467.54 1058.48C2470.23 1061.03 2472.94 1063.59 2475.7 1066.14C2483.13 1072.88 2489.52 1080.69 2494.63 1089.32C2495.61 1091.02 2496.6 1092.72 2497.58 1094.43C2503.96 1105.34 2510.53 1116.63 2512.37 1129.46L2512.47 1130.21C2513.22 1135.21 2513.94 1140.4 2513.31 1145.55C2513.15 1146.83 2512.97 1148.07 2512.78 1149.3C2512.2 1152.51 2511.93 1155.77 2512 1159.03C2512.47 1169.83 2511.04 1180.63 2507.78 1190.94C2497.26 1223.92 2477.4 1238.33 2454.36 1254.98C2445.42 1261.45 2436.17 1268.16 2426.8 1276.44C2408.88 1292.26 2398.21 1307.87 2393.26 1325.66C2392.49 1328.84 2392.11 1332.1 2392.12 1335.38C2392.05 1337.31 2391.96 1339.3 2391.73 1341.3C2391.42 1343.91 2390.98 1346.48 2390.55 1348.97C2389.82 1352.73 2389.32 1356.53 2389.06 1360.34C2388.95 1362.59 2388.89 1364.87 2388.82 1367.14C2388.57 1376.74 2388.29 1386.64 2384.27 1395.76C2379.89 1405.32 2373.93 1414.07 2366.63 1421.65C2350.96 1438.09 2325 1447.07 2298.9 1445.06C2274.09 1443.15 2256.27 1429.15 2239.02 1415.58C2229.26 1407.93 2220.63 1409.05 2209.19 1419.46C2203.66 1424.49 2199.22 1427.82 2192.85 1429.96C2162.46 1440.32 2146.13 1425.32 2130.34 1410.81C2118.43 1399.87 2106.11 1388.55 2087.49 1387.06C2077.12 1386.23 2066.92 1388.09 2057.05 1389.89C2045.29 1392.03 2033.13 1394.25 2020.38 1392.06C2000.46 1388.63 1978.34 1377.28 1959.67 1360.92C1941.59 1345.07 1936.39 1314.52 1932.22 1289.99C1931.65 1286.62 1931.1 1283.37 1930.53 1280.3C1926.7 1259.4 1911.59 1248.32 1895.6 1236.61C1891.53 1233.62 1887.31 1230.53 1883.31 1227.28C1871.77 1217.85 1861.59 1206.86 1853.09 1194.61C1844.5 1182.43 1837.77 1169.02 1833.13 1154.85C1825.38 1130.78 1819.96 1093.23 1826.35 1067.66C1829.19 1056.33 1835.54 1046.62 1841.7 1037.22C1848.53 1026.88 1855.52 1016.11 1857.59 1003.32C1860.13 987.54 1857.71 971.645 1855.37 956.267C1851.95 933.717 1848.39 910.493 1860.49 887.418C1863.78 881.172 1868.72 876.836 1875.12 872.255C1880.44 868.45 1885.94 864.916 1891.61 861.666V861.666C1922.37 844.153 1950 841.732 1984.61 843.503L1986.35 843.564C2019.15 845.245 2053.08 846.982 2079.29 825.089C2086.76 818.867 2092.9 811.071 2097.44 805.017C2102.18 798.621 2106.28 790.314 2110.66 781.589C2118.77 765.308 2127.15 748.465 2140.85 740.962C2169.57 725.222 2213.01 728.236 2241.48 735.586C2256.54 739.516 2271.01 745.423 2284.52 753.15C2299.2 761.509 2311.77 771.294 2321.85 782.242C2330.7 791.742 2337.81 802.684 2344.27 813.879ZM2412.53 1007.62C2403.87 992.635 2400.5 974.849 2397.2 957.497C2396.66 954.724 2396.14 951.967 2395.62 949.226C2390.81 925.019 2385.47 905.444 2378.83 887.635C2372.19 869.827 2363.49 853.288 2355.05 838L2351.03 830.65C2342.15 814.358 2332.96 797.506 2320.24 783.704C2309.52 772.322 2297.1 762.66 2283.44 755.057C2270.1 747.427 2255.81 741.597 2240.94 737.72C2212.87 730.47 2170.09 727.45 2141.97 742.884C2128.89 750.052 2120.67 766.567 2112.72 782.537C2108.31 791.383 2104.14 799.748 2099.28 806.288C2094.68 812.482 2088.44 820.417 2080.78 826.786C2053.87 849.223 2019.51 847.462 1986.27 845.766L1984.52 845.705C1950.31 843.964 1923.02 846.349 1892.75 863.58C1887.14 866.791 1881.71 870.286 1876.46 874.053C1870.31 878.445 1865.59 882.569 1862.51 888.426C1850.76 910.843 1854.1 932.736 1857.62 955.883C1860 971.433 1862.44 987.509 1859.84 1003.65C1857.7 1016.92 1850.54 1027.86 1843.65 1038.42C1837.61 1047.65 1831.37 1057.23 1828.61 1068.17C1822.32 1093.31 1827.68 1130.34 1835.34 1154.11C1839.91 1168.07 1846.54 1181.28 1855.01 1193.28C1863.39 1205.35 1873.42 1216.19 1884.81 1225.49C1888.78 1228.68 1892.95 1231.77 1897 1234.74C1912.65 1246.21 1928.83 1258.06 1932.82 1279.85C1933.39 1282.94 1933.94 1286.19 1934.51 1289.55C1938.61 1313.73 1943.72 1343.83 1961.21 1359.16C1979.55 1375.22 2001.3 1386.41 2020.82 1389.78C2033.18 1391.91 2045.13 1389.73 2056.71 1387.62C2066.72 1385.8 2077.07 1383.91 2087.73 1384.77C2107.15 1386.35 2119.74 1397.9 2131.93 1409.1C2147.9 1423.83 2163.06 1437.7 2192.18 1427.78C2198.14 1425.76 2202.38 1422.56 2207.72 1417.75C2216.38 1409.86 2227.06 1403.22 2240.46 1413.77C2257.44 1427.12 2275.01 1440.92 2299.15 1442.79C2324.59 1444.75 2349.85 1436.05 2365.07 1420.09C2372.18 1412.69 2378 1404.15 2382.28 1394.83C2386.12 1386.14 2386.38 1376.46 2386.63 1367.08C2386.69 1364.78 2386.76 1362.49 2386.87 1360.22C2387.13 1356.31 2387.64 1352.42 2388.39 1348.58C2388.82 1346.12 2389.26 1343.58 2389.56 1341.03C2389.78 1339.13 2389.86 1337.17 2389.93 1335.28C2389.93 1331.83 2390.34 1328.39 2391.15 1325.04C2396.26 1306.87 2407.13 1290.89 2425.39 1274.77C2434.84 1266.41 2444.14 1259.68 2453.13 1253.17C2475.83 1236.74 2495.43 1222.55 2505.71 1190.27C2508.9 1180.21 2510.28 1169.67 2509.81 1159.12C2509.75 1155.71 2510.03 1152.31 2510.64 1148.95C2510.83 1147.77 2511 1146.51 2511.15 1145.26C2511.74 1140.41 2511.02 1135.38 2510.32 1130.52L2510.22 1129.77C2508.41 1117.39 2501.99 1106.28 2495.72 1095.56L2492.76 1090.43C2487.79 1081.98 2481.55 1074.34 2474.26 1067.79C2471.49 1065.23 2468.78 1062.67 2466.09 1060.11C2460.59 1054.9 2454.91 1049.5 2448.91 1044.51C2446.49 1042.41 2444.19 1040.18 2442.03 1037.82C2440.52 1036.24 2438.96 1034.61 2437.33 1033.07C2435.45 1031.39 2433.48 1029.81 2431.41 1028.36C2429.49 1027.01 2427.64 1025.56 2425.87 1024.02C2420.57 1019.31 2416.06 1013.77 2412.53 1007.62V1007.62Z" stroke="url(#paint1_linear_1_4551)" stroke-width="2" stroke-miterlimit="10"/>
<path d="M2359.26 795.127C2366.96 808.459 2372.86 822.837 2378.59 836.791L2381.48 843.812C2385.42 853.269 2388.45 861.233 2389.02 870.701C2389.6 880.348 2392.05 888.528 2394.96 897.468C2410.87 946.448 2428.06 993.262 2463.08 1027.68C2468.2 1032.71 2473.78 1037.5 2479.15 1042.06C2487.51 1049.15 2496.09 1056.51 2503.29 1065.09C2511.05 1074.34 2517.31 1084.86 2523.37 1095.02C2527.2 1101.44 2531.15 1108.07 2535.42 1114.28C2562.78 1154.1 2541.05 1206.73 2507.39 1241.28C2501.36 1247.47 2493.74 1251.61 2486.38 1255.62L2484.38 1256.71C2472.45 1263.23 2455.87 1273.17 2444.71 1283.54C2438.68 1289.16 2433.75 1295.96 2429.79 1301.86C2420.43 1315.74 2421.13 1332.63 2421.8 1348.97C2422.29 1360.7 2422.79 1372.84 2419.59 1383.92C2418.92 1386.45 2418.19 1388.89 2417.48 1391.34C2409.58 1419.54 2403.34 1441.8 2372.73 1454.99C2352.98 1463.51 2324.32 1472.45 2299.96 1466.68C2283.9 1462.87 2267.45 1457.57 2256.02 1444.64C2254.75 1443.14 2253.62 1441.53 2252.63 1439.84C2251.6 1438.06 2250.39 1436.4 2249.01 1434.87C2237.96 1423.58 2228.92 1432.09 2219.33 1441.1C2214.87 1445.31 2210.67 1449.3 2206.16 1451.3C2191.77 1457.77 2180.66 1458.47 2168.9 1453.7C2158.14 1449.33 2146.47 1441.39 2134.26 1430.09C2127.72 1424.05 2121.62 1418.41 2113.73 1414.4C2106.01 1410.37 2097.81 1407.33 2089.32 1405.36C2075.69 1402.47 2063.06 1406.05 2049.78 1409.79C2043.23 1411.77 2036.57 1413.35 2029.83 1414.52C2012.41 1417.21 1994.4 1413.94 1976.3 1404.83C1940.72 1386.89 1934.69 1354.08 1928.37 1319.31L1927.42 1314.08C1926.99 1311.8 1926.6 1309.54 1926.21 1307.31C1923.14 1289.76 1920.25 1273.18 1906.74 1260.34C1900.44 1254.38 1892.68 1249.9 1885.18 1245.62C1877.69 1241.33 1869.77 1236.79 1863.25 1230.64C1846.12 1214.45 1833.49 1194.07 1821.28 1174.36L1817.73 1168.63C1793.23 1129.28 1790.15 1097.06 1807.47 1060.9C1814.66 1046.19 1822.82 1031.97 1831.89 1018.33C1837.58 1009.72 1837.72 999.588 1837.09 990.806C1836.34 980.045 1834.64 969.829 1833.01 959.977C1830.04 941.902 1827.2 924.842 1829.78 905.168C1830.12 902.628 1830.39 900.084 1830.65 897.532C1831.11 892.336 1831.85 887.169 1832.88 882.054C1837.06 862.583 1853.54 846.766 1880.46 836.19C1909.94 824.587 1939.73 823.561 1948.21 823.466C1952.68 823.441 1957.4 823.63 1963.5 824.087C1969.06 824.498 1974.78 825.157 1980.9 825.77C2001.21 827.976 2024.25 830.479 2042.74 824.578C2056.72 820.116 2066.86 808.759 2072.91 800.006C2080.58 788.926 2087.19 775.237 2092.02 760.421C2093.64 755.422 2095.79 749.629 2099.3 744.487C2112.63 725.223 2140.64 710.076 2160.22 705.596C2187.14 699.446 2209.44 698.737 2230.37 703.372L2234.21 704.218C2248.58 707.339 2263.46 710.563 2275.51 718.681C2278.72 720.838 2281.76 723.262 2284.7 725.597C2287.95 728.186 2291.31 730.856 2294.85 733.138C2310.18 742.988 2324.51 754.309 2337.64 766.939C2344.93 773.972 2351.27 781.918 2356.52 790.58C2357.49 792.11 2358.39 793.616 2359.26 795.127ZM2429.31 987.048C2413.73 960.057 2403.01 929.556 2392.81 898.168C2389.96 889.415 2387.36 880.734 2386.76 870.833C2386.21 861.715 2383.24 853.921 2379.4 844.673C2378.42 842.336 2377.46 839.99 2376.5 837.644C2370.15 822.193 2363.61 806.21 2354.64 791.822C2349.5 783.325 2343.28 775.529 2336.14 768.626C2323.11 756.098 2308.89 744.864 2293.68 735.082C2290.11 732.702 2286.66 730.143 2283.34 727.416C2280.44 725.104 2277.43 722.715 2274.3 720.607C2262.59 712.737 2247.94 709.554 2233.77 706.474L2229.93 705.633C2209.31 701.082 2187.32 701.793 2160.74 707.865C2141.57 712.246 2114.22 727.022 2101.18 745.843C2097.81 750.712 2095.74 756.309 2094.16 761.158C2089.26 776.171 2082.56 790.064 2074.77 801.334C2065.81 814.291 2054.97 823.088 2043.43 826.763C2024.52 832.788 2001.19 830.282 1980.65 828.043C1974.57 827.386 1968.84 826.762 1963.3 826.333C1957.26 825.877 1952.6 825.689 1948.18 825.722C1931 825.818 1904.4 829.16 1881.26 838.256C1863.01 845.424 1840.16 858.926 1835.06 882.49C1834.07 887.541 1833.34 892.641 1832.9 897.77C1832.63 900.334 1832.37 902.907 1832.02 905.476C1829.48 924.804 1832.28 941.71 1835.23 959.612C1836.87 969.53 1838.57 979.787 1839.3 990.669C1839.95 999.799 1839.78 1010.37 1833.72 1019.57C1824.73 1033.12 1816.64 1047.26 1809.52 1061.88C1792.57 1097.26 1795.61 1128.85 1819.65 1167.45L1823.2 1173.17C1835.34 1192.76 1847.89 1213.01 1864.81 1229C1871.12 1234.96 1878.85 1239.39 1886.31 1243.66C1893.92 1248.01 1901.79 1252.51 1908.29 1258.7C1922.39 1272.03 1925.3 1288.99 1928.43 1306.92C1928.83 1309.15 1929.22 1311.41 1929.65 1313.68L1930.61 1318.93C1936.82 1353.06 1942.74 1385.38 1977.3 1402.78C1994.97 1411.68 2012.53 1414.87 2029.46 1412.27C2036.13 1411.09 2042.72 1409.52 2049.2 1407.54C2062.2 1403.88 2075.65 1400.08 2089.82 1403.08C2098.51 1405.09 2106.91 1408.19 2114.82 1412.3C2122.98 1416.46 2129.19 1422.2 2135.76 1428.27C2147.87 1439.47 2159.3 1447.26 2169.81 1451.52C2180.95 1456.04 2191.55 1455.34 2205.3 1449.16C2209.44 1447.3 2213.53 1443.46 2217.85 1439.39C2227.34 1430.46 2238.1 1420.34 2250.69 1433.22C2252.19 1434.86 2253.5 1436.65 2254.61 1438.58C2255.54 1440.16 2256.6 1441.66 2257.78 1443.07C2268.8 1455.53 2284.85 1460.69 2300.55 1464.41C2324.3 1470.03 2352.46 1461.23 2371.91 1452.85C2401.53 1440.09 2407.63 1418.28 2415.36 1390.67C2416.08 1388.21 2416.78 1385.73 2417.47 1383.24C2420.55 1372.52 2420.05 1360.58 2419.54 1348.99C2418.86 1332.32 2418.08 1315.05 2427.89 1300.54C2431.96 1294.5 2436.95 1287.57 2443.15 1281.82C2454.5 1271.3 2471.24 1261.24 2483.28 1254.65L2485.28 1253.57C2492.5 1249.64 2499.96 1245.58 2505.74 1239.62C2538.75 1205.73 2560.11 1154.19 2533.55 1115.49C2529.23 1109.21 2525.25 1102.54 2521.41 1096.1C2515.4 1086.01 2509.17 1075.57 2501.53 1066.46C2494.46 1058.03 2485.91 1050.75 2477.66 1043.7C2472.24 1039.08 2466.64 1034.3 2461.47 1029.22C2448.88 1016.69 2438.07 1002.5 2429.31 987.048Z" stroke="url(#paint2_linear_1_4551)" stroke-width="2" stroke-miterlimit="10"/>
<path d="M2383.16 778.396C2383.78 779.469 2384.41 780.549 2384.93 781.718C2386.46 784.901 2388.02 788.107 2389.6 791.316C2399.37 811.285 2409.43 831.846 2413.92 853.615C2415.68 862.203 2416.77 870.996 2417.82 879.514C2419.62 894.064 2421.47 909.107 2426.76 923.168C2433.41 940.79 2443.96 956.788 2454.17 972.265C2457.06 976.646 2459.95 981.018 2462.76 985.445C2474.5 1003.93 2489.81 1018.33 2504.62 1032.25C2516.08 1043.03 2527.94 1054.17 2538.24 1067.26C2544.69 1075.45 2549.96 1084.84 2555.07 1093.93C2556.21 1095.9 2557.29 1097.88 2558.4 1099.83C2571.44 1122.64 2581.95 1155.86 2572.35 1180.72C2571.43 1183.08 2570.54 1185.49 2569.64 1187.88C2566.18 1197.2 2562.62 1206.88 2557.37 1215.46C2548.62 1229.85 2539.24 1241.06 2529.4 1248.8C2518.06 1257.72 2504.85 1264.76 2492.07 1271.58C2487.04 1274.26 2481.84 1277.02 2476.9 1279.84C2459.51 1289.74 2447.34 1301.32 2440.72 1314.25C2434.75 1325.93 2436.05 1334.48 2437.55 1344.39C2438.51 1349.81 2438.98 1355.31 2438.98 1360.81C2438.84 1364.07 2438.47 1367.31 2437.88 1370.51C2437.48 1372.88 2437.1 1375.39 2436.92 1377.8C2436.76 1381.36 2436.89 1384.92 2437.3 1388.46C2437.61 1391.42 2437.76 1394.4 2437.75 1397.37C2436.8 1444.43 2390.78 1484.93 2348.69 1495.47C2340.04 1497.63 2331.66 1497.56 2322.78 1497.49L2322.01 1497.49C2298.53 1497.31 2284.5 1482.36 2269.61 1466.56L2266.31 1463.05C2251.65 1447.62 2235.14 1456.96 2219.17 1466C2215.88 1467.9 2212.73 1469.63 2209.63 1471.19C2185.63 1483.18 2165.37 1480.54 2147.64 1463.14C2145.3 1460.84 2142.93 1458.57 2140.58 1456.32C2134.93 1450.91 2129.1 1445.32 2123.7 1439.38C2113.34 1427.98 2105.1 1421.07 2091.19 1417.23C2072.37 1412.04 2060.35 1415.09 2042.04 1423.45C2037.61 1425.46 2033.08 1427.95 2028.29 1430.59C2012.81 1439.13 1995.26 1448.8 1977.73 1442.71C1935.64 1428.18 1919.05 1383.25 1909.29 1345.75L1909 1344.66C1898.16 1303.01 1891 1275.5 1852.01 1252.65C1836.41 1243.51 1824.31 1229.88 1812.27 1215.52C1778.96 1175.85 1763.87 1129.84 1770.78 1089.38C1773.62 1072.8 1782.35 1058.5 1790.79 1044.65C1799.98 1029.57 1809.49 1013.98 1811.07 995.698C1812.25 982.076 1810.23 964.385 1805.53 947.144C1804.35 943.247 1802.75 939.487 1800.76 935.929C1799.67 933.788 1798.53 931.576 1797.52 929.194C1789.63 910.561 1789.2 887.974 1796.36 868.772C1803.84 848.714 1818.73 829.97 1836.23 818.603L1840.1 816.063C1846.67 811.743 1853.16 807.697 1860.05 805.738C1881.82 799.573 1914.55 793.694 1947.03 800.955C1952.53 802.18 1958.12 803.548 1963.51 804.899C1983.02 809.726 2003.2 814.719 2023.66 813.566C2028.94 813.272 2036.78 812.618 2043.93 810.404C2050.6 808.301 2054.07 804.547 2058.28 799.511C2059.59 797.922 2060.99 796.456 2062.32 795.044C2065.26 791.93 2068.04 788.983 2069.94 785.086C2071.57 781.764 2072.23 778.43 2072.89 774.848C2073.38 771.808 2074.15 768.821 2075.2 765.927C2077.67 759.637 2078.63 752.518 2079.66 744.99C2081.46 731.603 2083.34 717.758 2094.33 708.856C2131.81 678.513 2180.16 679.133 2222.5 683.741C2224.77 683.971 2227.01 684.16 2229.19 684.386C2237.28 685.104 2245.64 685.856 2253.65 688.756C2266.18 693.278 2277.96 699.348 2289.38 705.261C2299.97 710.69 2310.85 716.342 2322.25 720.667C2323.98 721.329 2325.75 721.939 2327.52 722.55C2332.51 724.281 2337.68 726.068 2342.27 728.972C2346.87 731.877 2350.74 735.906 2354.45 739.795C2355.81 741.221 2357.16 742.639 2358.54 743.997C2363.52 748.932 2366.64 753.755 2370.22 759.353L2372.11 762.295C2373.62 764.622 2375.23 766.811 2376.78 768.954C2379.08 771.984 2381.21 775.136 2383.16 778.396V778.396ZM2436.61 948.683C2431.96 940.781 2427.96 932.513 2424.65 923.96C2419.26 909.657 2417.39 894.466 2415.57 879.784C2414.53 871.308 2413.45 862.551 2411.7 854.075C2407.27 832.578 2397.26 812.111 2387.56 792.311L2382.89 782.697C2380.63 778.319 2377.98 774.16 2374.96 770.276C2373.38 768.114 2371.74 765.869 2370.21 763.517L2368.31 760.559C2364.82 755.105 2361.78 750.34 2356.95 745.607C2355.57 744.269 2354.18 742.787 2352.81 741.342C2349.21 737.562 2345.47 733.645 2341.07 730.882C2336.67 728.118 2331.66 726.401 2326.84 724.685C2325.04 724.068 2323.25 723.446 2321.48 722.794C2309.97 718.426 2299 712.768 2288.38 707.287C2277.04 701.427 2265.3 695.375 2252.85 690.861C2245.12 688.068 2237.27 687.361 2228.95 686.623C2226.71 686.425 2224.46 686.228 2222.24 685.976C2180.34 681.415 2132.56 680.778 2095.74 710.594C2085.44 718.932 2083.63 732.322 2081.88 745.275C2080.89 752.611 2079.84 760.207 2077.29 766.746C2076.3 769.502 2075.57 772.348 2075.12 775.245C2074.58 778.98 2073.53 782.623 2071.99 786.069C2069.93 790.277 2066.91 793.488 2063.99 796.592C2062.66 797.988 2061.35 799.407 2060.04 800.95C2055.74 806.132 2051.87 810.279 2044.63 812.561C2037.38 814.842 2029.22 815.552 2023.82 815.854C2003.03 817.019 1982.68 811.981 1963 807.115C1957.61 805.784 1952.04 804.403 1946.58 803.18C1914.57 796.052 1882.2 801.827 1860.7 807.943C1854.12 809.813 1847.81 813.757 1841.38 817.982L1840.09 818.82L1837.52 820.505C1820.43 831.611 1805.86 849.96 1798.54 869.573C1791.67 887.976 1792.1 910.488 1799.66 928.321C1800.63 930.626 1801.75 932.807 1802.83 934.908C1804.89 938.604 1806.54 942.51 1807.77 946.56C1812.55 964.073 1814.59 982.028 1813.38 995.912C1811.75 1014.72 1802.11 1030.54 1792.78 1045.84C1784.45 1059.51 1775.84 1073.63 1773.07 1089.76C1766.22 1129.6 1781.19 1174.9 1814.06 1214.08C1825.97 1228.27 1837.92 1241.75 1853.2 1250.7C1892.95 1274.03 1900.18 1301.92 1911.19 1344.09L1911.47 1345.18C1929.8 1415.54 1956.87 1433.15 1978.4 1440.6C1995.03 1446.39 2011.41 1437.34 2027.18 1428.65C2032.03 1425.97 2036.57 1423.47 2041.08 1421.42C2059.89 1412.84 2072.28 1409.7 2091.78 1415.08C2106.22 1419.06 2114.73 1426.17 2125.36 1437.89C2130.72 1443.79 2136.53 1449.35 2142.14 1454.73C2144.51 1456.99 2146.89 1459.26 2149.23 1461.57C2166.19 1478.21 2185.61 1480.7 2208.62 1469.21C2211.69 1467.69 2214.78 1465.93 2218.06 1464.08C2234.01 1455.06 2252.09 1444.83 2267.95 1461.55L2271.26 1465.06C2285.78 1480.52 2299.53 1495.09 2322.02 1495.28L2322.79 1495.29C2331.52 1495.36 2339.76 1495.43 2348.13 1493.34C2401.16 1480.06 2434.76 1433.19 2435.49 1397.38C2435.49 1394.49 2435.34 1391.6 2435.04 1388.72C2434.62 1385.05 2434.5 1381.35 2434.69 1377.66C2434.88 1375.16 2435.28 1372.63 2435.69 1370.17C2436.26 1367.07 2436.62 1363.94 2436.76 1360.79C2436.75 1355.38 2436.26 1349.98 2435.31 1344.66C2433.81 1334.79 2432.4 1325.47 2438.7 1313.14C2445.5 1299.84 2457.98 1287.95 2475.75 1277.82C2480.71 1274.96 2485.94 1272.2 2490.98 1269.52C2503.67 1262.75 2516.8 1255.76 2527.98 1246.96C2537.6 1239.39 2546.84 1228.37 2555.41 1214.22C2560.52 1205.78 2564.07 1196.25 2567.5 1187.04C2568.4 1184.62 2569.29 1182.22 2570.21 1179.84C2579.52 1155.72 2569.19 1123.24 2556.42 1100.89C2555.29 1098.95 2554.16 1096.99 2553.07 1094.98C2548.01 1085.96 2542.78 1076.64 2536.44 1068.6C2526.24 1055.66 2514.46 1044.57 2503.06 1033.85C2488.16 1019.83 2472.74 1005.33 2460.86 986.606C2458.06 982.203 2455.18 977.838 2452.3 973.473C2446.94 965.407 2441.52 957.19 2436.6 948.659L2436.61 948.683Z" stroke="url(#paint3_linear_1_4551)" stroke-width="2" stroke-miterlimit="10"/>
<path d="M2393.24 752.613C2397.62 760.201 2400.68 768.998 2403.64 777.523C2404.13 778.933 2404.61 780.332 2405.1 781.7C2413.1 804.282 2420.98 828.707 2424.6 854.381C2426.36 866.851 2428.2 878.025 2433.01 888.5C2436.61 896.346 2439.67 904.431 2442.63 912.241C2448.67 928.243 2454.41 943.345 2464.54 957.26L2468.56 962.81C2471.63 967.088 2474.82 971.509 2478.07 975.728C2487.88 988.474 2500.48 999.879 2512.66 1010.9C2518.09 1015.81 2523.7 1020.9 2528.94 1026.02C2531.86 1028.74 2534.93 1031.3 2538.14 1033.68C2542.2 1036.8 2546.4 1040.03 2549.88 1043.95L2550.18 1044.3C2556.33 1051.25 2562.66 1058.42 2566.14 1067.46C2568.66 1073.56 2571.55 1079.48 2574.81 1085.21C2580.35 1095.43 2586.06 1106 2587.32 1117.59C2587.99 1123.84 2588.97 1130.02 2589.92 1136C2593.32 1157.49 2596.54 1177.78 2586.1 1199.58C2573.35 1226.25 2556.68 1245.19 2532 1261.03C2529.29 1262.77 2526.61 1264.61 2523.98 1266.42C2519.79 1269.28 2515.47 1272.25 2510.97 1274.85C2508.31 1276.38 2505.61 1277.85 2502.88 1279.31C2497.51 1282.07 2492.3 1285.14 2487.29 1288.51C2478.4 1294.77 2474.37 1301.23 2469.67 1308.73C2467.18 1312.87 2464.45 1316.87 2461.5 1320.7C2458.02 1325.12 2456.93 1327.02 2457.47 1332.55C2459.96 1358.58 2461.06 1379.9 2460.91 1399.63C2460.84 1415.75 2454.2 1434.3 2448.06 1446.25C2445.93 1450.18 2443.59 1453.99 2441.03 1457.66C2439.32 1460.24 2437.48 1462.91 2435.88 1465.65C2434.91 1467.28 2433.98 1468.88 2433.05 1470.48C2428.07 1479.21 2423.36 1487.46 2415.03 1494.32C2391.47 1513.7 2355.38 1522.93 2323.08 1517.82C2315.11 1516.55 2308.95 1512.34 2303.34 1508.14C2298.54 1504.37 2294 1500.28 2289.75 1495.91C2281.69 1487.98 2273.37 1479.78 2262.27 1476.44C2249.27 1472.53 2238.6 1478.56 2227.29 1484.9C2224.51 1486.51 2221.61 1488.12 2218.72 1489.57C2205.18 1496.32 2188.34 1504.77 2172.54 1500.67C2157.96 1496.99 2146.96 1482.11 2137.27 1469.01C2134.01 1464.6 2130.94 1460.44 2127.92 1456.94C2126.68 1455.52 2125.49 1453.89 2124.36 1452.34C2122.34 1449.58 2120.27 1446.74 2117.75 1444.75C2092.49 1424.7 2063.57 1439.27 2032.85 1454.75C2010.96 1465.78 1988.33 1477.19 1967.13 1474.77C1959.88 1473.93 1951.31 1469.97 1946.04 1466.39C1942.38 1463.91 1939.56 1460.41 1936.84 1457.03L1935.88 1455.85C1920.53 1436.99 1907.3 1411.39 1895.46 1377.64C1893.83 1372.62 1892.54 1367.49 1891.6 1362.29C1891.16 1360.12 1890.72 1357.95 1890.23 1355.81C1880.04 1311.38 1853.88 1271.93 1820.27 1250.28C1818.13 1248.9 1815.86 1247.6 1813.67 1246.35C1809.74 1244.22 1805.97 1241.8 1802.4 1239.1C1789.36 1228.72 1779.16 1209.8 1770.98 1194.61L1768.66 1190.34C1764.43 1182.54 1761.13 1174.33 1757.93 1166.39C1755.98 1161.56 1753.97 1156.56 1751.76 1151.7L1751.18 1150.42C1748.73 1145.05 1746.42 1139.97 1745.48 1133.82C1742.63 1115.21 1743.52 1097.02 1744.75 1081.64C1746.25 1062.98 1755.09 1051.01 1765.33 1037.16C1766.65 1035.33 1768.01 1033.48 1769.4 1031.61C1790.12 1003.03 1784.02 967.835 1778.14 933.808C1775.3 917.329 1772.34 900.274 1772.61 884.463C1773.06 858.788 1787.81 831.583 1816.47 803.596C1817.61 802.494 1818.77 801.423 1819.95 800.384C1842.11 780.97 1877.5 768.351 1906.01 769.686C1911.94 770.074 1917.85 770.805 1923.71 771.878C1927.16 772.444 1930.72 773.04 1934.22 773.463C1937.14 773.821 1940.12 774.076 1942.99 774.313C1948.57 774.656 1954.12 775.37 1959.61 776.45C1963.28 777.258 1966.95 778.077 1970.62 778.907C1986.35 782.416 2002.61 786.026 2018.78 788.851C2028.12 790.474 2035.86 791.283 2043.35 785.934C2058.54 775.035 2061.03 756.965 2063.44 739.454C2064.75 730.2 2066.08 720.598 2069.27 712.166C2079.46 685.483 2104.76 669.864 2146.61 664.432C2149.26 664.086 2151.9 663.712 2154.52 663.352C2162.78 662.177 2171.32 660.964 2179.84 660.766C2183.1 660.777 2186.35 661.144 2189.53 661.859C2191.13 662.16 2192.75 662.472 2194.45 662.685C2196.12 662.872 2197.8 662.969 2199.48 662.978C2201.89 662.971 2204.29 663.186 2206.66 663.622C2218.26 666.147 2230.23 667.818 2241.81 669.426C2257.04 671.551 2272.78 673.753 2287.93 677.897C2315.49 685.44 2343.68 700.995 2367.27 721.643C2376.72 730.016 2384.96 739.655 2391.76 750.285C2392.32 751.042 2392.78 751.829 2393.24 752.613ZM2456.28 948.626C2449.66 937.152 2445.04 924.937 2440.53 913.03C2437.58 905.244 2434.58 897.18 2430.97 889.433C2426.04 878.689 2424.09 866.859 2422.37 854.685C2418.78 829.207 2410.93 804.905 2402.98 782.444L2401.52 778.246C2398.29 768.951 2394.92 759.316 2389.94 751.479C2383.24 741.034 2375.13 731.56 2365.85 723.325C2342.5 702.874 2314.64 687.498 2287.39 680.031C2272.37 675.908 2256.72 673.742 2241.55 671.622C2229.95 669.995 2217.92 668.327 2206.21 665.813C2203.98 665.4 2201.72 665.198 2199.46 665.209C2197.7 665.2 2195.94 665.094 2194.19 664.893C2192.44 664.667 2190.76 664.346 2189.14 664.046C2186.11 663.349 2183.02 662.99 2179.91 662.975C2171.51 663.191 2163.06 664.382 2154.86 665.545C2152.21 665.924 2149.56 666.302 2146.9 666.644C2105.94 671.961 2081.24 687.11 2071.37 712.933C2068.26 721.129 2066.94 730.619 2065.69 739.807C2063.26 757.766 2060.69 776.375 2044.69 787.807C2036.49 793.674 2028.29 792.83 2018.42 791.119C2002.21 788.305 1985.9 784.669 1970.15 781.152L1959.14 778.703C1953.75 777.634 1948.29 776.927 1942.8 776.587C1939.91 776.347 1936.91 776.097 1933.95 775.729C1930.4 775.293 1926.81 774.703 1923.34 774.125C1917.56 773.057 1911.72 772.322 1905.86 771.925C1877.89 770.611 1843.17 783.004 1821.41 802.058C1820.25 803.067 1819.13 804.111 1818.02 805.187C1789.81 832.741 1775.28 859.416 1774.85 884.481C1774.58 900.077 1777.53 917.05 1780.35 933.399C1786.32 967.904 1792.5 1003.58 1771.22 1032.93C1769.82 1034.8 1768.46 1036.65 1767.13 1038.48C1757.1 1052.06 1748.42 1063.78 1746.98 1081.79C1745.77 1097.05 1744.89 1115.11 1747.69 1133.46C1748.6 1139.34 1750.83 1144.24 1753.22 1149.46L1753.8 1150.74C1756.02 1155.64 1758.04 1160.66 1759.99 1165.52C1763.17 1173.4 1766.45 1181.55 1770.62 1189.23L1772.94 1193.52C1781.03 1208.53 1791.1 1227.21 1803.78 1237.31C1807.26 1239.93 1810.94 1242.29 1814.77 1244.36C1816.99 1245.63 1819.28 1246.94 1821.47 1248.35C1855.6 1270.34 1882.11 1310.31 1892.46 1355.29C1892.95 1357.45 1893.4 1359.64 1893.84 1361.83C1894.76 1366.93 1896.02 1371.95 1897.61 1376.88C1909.34 1410.4 1922.44 1435.74 1937.63 1454.42L1938.64 1455.6C1941.26 1458.85 1943.97 1462.21 1947.35 1464.5C1952.22 1467.81 1960.58 1471.72 1967.43 1472.5C1987.97 1474.83 2010.27 1463.59 2031.88 1452.71C2061.84 1437.61 2092.83 1421.99 2119.23 1442.93C2121.98 1445.11 2124.16 1448.08 2126.26 1450.96C2127.42 1452.55 2128.52 1454.05 2129.68 1455.38C2132.79 1458.92 2135.86 1463.15 2139.15 1467.6C2148.59 1480.4 2159.3 1494.92 2173.15 1498.51C2188.18 1502.37 2204.55 1494.18 2217.74 1487.58C2220.59 1486.15 2223.44 1484.54 2226.22 1482.97C2237.43 1476.64 2249.02 1470.09 2262.94 1474.27C2274.56 1477.79 2283.1 1486.17 2291.36 1494.3C2295.53 1498.6 2299.99 1502.62 2304.7 1506.33C2310.09 1510.44 2315.99 1514.45 2323.43 1515.64C2355.11 1520.65 2390.51 1511.62 2413.59 1492.64C2421.61 1486.03 2426.22 1477.96 2431.1 1469.41C2432.03 1467.81 2432.98 1466.2 2433.93 1464.51C2435.53 1461.75 2437.38 1459.03 2439.13 1456.41C2441.65 1452.81 2443.96 1449.07 2446.05 1445.21C2452.08 1433.49 2458.59 1415.34 2458.69 1399.53C2458.85 1379.86 2457.75 1358.63 2455.28 1332.66C2454.68 1326.39 2456.12 1323.86 2459.79 1319.2C2462.69 1315.43 2465.37 1311.5 2467.82 1307.42C2472.43 1300.05 2476.79 1293.08 2486.06 1286.56C2491.14 1283.14 2496.42 1280.02 2501.87 1277.22C2504.57 1275.77 2507.26 1274.32 2509.89 1272.79C2514.33 1270.23 2518.61 1267.3 2522.76 1264.45C2525.43 1262.61 2528.11 1260.78 2530.85 1259.03C2555.11 1243.45 2571.53 1224.8 2584.09 1198.52C2594.21 1177.37 2591.04 1157.42 2587.69 1136.28C2586.74 1130.27 2585.76 1124.06 2585.07 1117.76C2583.87 1106.61 2578.26 1096.25 2572.83 1086.21C2569.52 1080.41 2566.58 1074.39 2564.04 1068.21C2560.73 1059.57 2554.78 1052.85 2548.48 1045.73L2548.19 1045.39C2544.85 1041.6 2540.73 1038.43 2536.75 1035.37C2533.47 1032.94 2530.33 1030.33 2527.35 1027.54C2522.17 1022.5 2516.57 1017.43 2511.15 1012.52C2498.92 1001.47 2486.23 989.964 2476.29 977.055C2473.02 972.813 2469.83 968.376 2466.73 964.086L2462.73 958.539C2460.41 955.36 2458.25 952.06 2456.28 948.652L2456.28 948.626Z" stroke="url(#paint4_linear_1_4551)" stroke-width="2" stroke-miterlimit="10"/>
<path d="M2427.7 754.183C2429.61 757.487 2431.24 760.878 2432.93 764.373L2435.09 768.819C2441.03 780.749 2444.71 796.392 2447.95 810.187L2449.5 816.558C2450.8 822.456 2451.75 828.425 2452.36 834.434C2452.6 836.703 2452.9 838.945 2453.2 841.19C2460.04 891.06 2473.17 925.759 2497.14 957.196C2503.28 965.253 2510.22 971.914 2517.55 978.952L2518.54 979.899C2526.9 987.923 2538.95 1000.03 2547.07 1012.49C2548.95 1015.36 2550.79 1018.23 2552.62 1021.09C2561.47 1034.9 2569.82 1047.94 2581.11 1059.88L2584.88 1063.84C2591.93 1071.22 2598.58 1078.19 2604.62 1086.48C2623.47 1112.44 2630.53 1138.47 2628.24 1173.54C2627.29 1188.05 2617.59 1208.02 2608.93 1219.47C2600.62 1230.46 2589.57 1240.72 2576.09 1249.97C2569.16 1254.73 2561.67 1258.92 2554.44 1262.97C2551.65 1264.58 2548.8 1266.13 2546.04 1267.72L2543.42 1269.23C2522.84 1281.12 2499.51 1294.59 2488.99 1316.5C2487.73 1319.35 2486.68 1322.29 2485.86 1325.3C2485.09 1328.06 2484.16 1330.76 2483.08 1333.4C2478.95 1342.88 2482.38 1356.2 2485.41 1368.01C2486.84 1373.12 2487.94 1378.32 2488.7 1383.57C2489.41 1389.56 2490.02 1395.53 2490.64 1401.51L2491.7 1411.56C2492.86 1421.99 2492.1 1430.25 2489.23 1438.3C2487.75 1442.44 2486.37 1446.71 2484.95 1451.21C2480.16 1465.94 2475.25 1481.19 2466.34 1493.02C2463.84 1496.34 2461.42 1499.95 2459.09 1503.45C2454.05 1511.01 2448.8 1518.85 2442.01 1524.85C2438.21 1528.2 2433.72 1530.65 2429.39 1533.02C2428.11 1533.76 2426.8 1534.43 2425.52 1535.17C2418.61 1539.16 2412.55 1542.14 2405.6 1543.85C2374.78 1551.47 2351.54 1550.2 2327.88 1539.6C2319.88 1536 2312.08 1531.73 2304.51 1527.62C2290.45 1519.89 2275.86 1511.95 2259.61 1508.35C2252.91 1506.88 2247.7 1506.52 2242.53 1509.44C2240.69 1510.5 2238.84 1511.56 2237 1512.62C2235.66 1513.4 2234.32 1514.17 2233.01 1514.93C2230.21 1516.55 2227.41 1518.16 2224.62 1519.77C2218.7 1523.19 2212.77 1526.62 2206.85 1530.03C2194.99 1537.05 2183.3 1539.29 2172.1 1536.69C2160.56 1534 2151.13 1527.4 2142.45 1520.89C2135.51 1515.67 2130.39 1509.12 2125.43 1502.78C2122.49 1499.01 2119.44 1495.11 2116.02 1491.5C2114.38 1489.67 2112.93 1487.68 2111.69 1485.57C2110.97 1484.43 2110.25 1483.28 2109.44 1482.17C2106.89 1478.7 2100.74 1474.39 2096.63 1472.61C2076.77 1463.93 2058.65 1471.65 2042.02 1481.28L2040.81 1481.99C2027.54 1489.65 2013.85 1497.62 1998.56 1500.56C1995.07 1501.23 1991.46 1501.77 1987.97 1502.31C1986.01 1502.6 1984.05 1502.9 1982.1 1503.21C1981.13 1503.38 1980.17 1503.57 1979.3 1503.76C1975.4 1504.5 1971.71 1505.2 1967.25 1504.01C1961.74 1502.43 1956.41 1500.3 1951.34 1497.66C1946.45 1495.21 1941.86 1492.22 1937.65 1488.73C1931.89 1484.15 1927.61 1479.03 1923.08 1473.6C1921.88 1472.16 1920.62 1470.66 1919.35 1469.17C1906.07 1453.77 1899.62 1432.42 1893.94 1413.59L1893.82 1413.2C1893.43 1411.88 1892.99 1410.61 1892.56 1409.34C1891.22 1405.88 1890.34 1402.26 1889.92 1398.57C1889.7 1394.36 1889.04 1390.19 1887.97 1386.11C1887.59 1384.54 1887.34 1382.95 1887.23 1381.34C1887.14 1379.32 1886.73 1377.33 1886.01 1375.44C1883.75 1370.65 1881.03 1366.1 1877.87 1361.85C1866.43 1346.34 1856.77 1328.99 1847.42 1312.24C1845.16 1308.21 1842.89 1304.12 1840.61 1300.11C1834.73 1289.77 1826.23 1280.15 1813.88 1270.01C1807.65 1264.88 1801.05 1262.28 1794.68 1259.76C1784.81 1255.86 1775.49 1252.19 1767.93 1240.01C1765.06 1235.41 1762.01 1230.79 1759.07 1226.33C1756.13 1221.88 1753.04 1217.18 1750.14 1212.51C1732.99 1184.85 1722.54 1157.6 1719.24 1131.65C1716.2 1107.76 1722.48 1091.73 1729.77 1073.2C1732.35 1066.59 1735.05 1059.74 1737.49 1052.09C1738.27 1049.74 1739.09 1047.47 1739.9 1045.19C1741.78 1040.46 1743.24 1035.57 1744.26 1030.59C1745.7 1022.39 1747.89 1014.29 1750.02 1006.46C1751.31 1001.69 1752.65 996.753 1753.79 991.856C1756.96 978.295 1755.74 964.549 1754.56 951.239C1753.7 943.248 1753.28 935.217 1753.3 927.181C1753.33 925.197 1753.41 923.284 1753.48 921.41C1753.75 914.737 1754 908.429 1752.35 901.403C1751.79 898.974 1751.2 896.618 1750.62 894.307C1747.65 882.432 1744.85 871.209 1747.25 857.929C1749.92 843.164 1755.45 831.324 1761.29 818.786C1763.33 814.411 1765.45 809.903 1767.48 805.148C1773.83 790.313 1786.03 778.723 1797.12 769.348C1803.89 763.628 1811.12 759.485 1818.74 755.116L1819.06 754.931C1821.23 753.676 1823.39 752.368 1825.54 751.06C1832.64 746.739 1839.93 742.282 1848.16 740.136C1875.85 732.98 1903.61 731.104 1928.45 734.694C1963.94 739.803 1989.01 748.857 2009.7 763.977C2017.12 769.434 2023.64 771.031 2029.02 768.761C2043.95 762.441 2048.78 728.16 2051.97 705.474C2053.2 696.791 2054.16 689.94 2055.41 686.348C2058.27 678.085 2063.51 670.846 2068.58 663.816L2069.76 662.173C2084.97 641.108 2120.26 636.737 2148.63 633.224C2155.21 632.408 2161.43 631.644 2166.84 630.722C2171.35 630.064 2175.9 629.735 2180.45 629.739C2184.83 629.753 2189.2 629.456 2193.54 628.85C2200.78 627.632 2206.09 626.934 2213.48 628.111C2218.55 628.822 2223.67 629.21 2228.79 629.274C2234.21 629.348 2239.62 629.79 2244.97 630.596C2248.72 631.237 2252.59 631.68 2256.35 632.114C2262.4 632.67 2268.4 633.633 2274.32 634.997C2278.1 636.012 2281.99 636.59 2285.76 637.202C2289.52 637.813 2293.34 638.433 2297.13 639.382C2325.35 646.477 2339.35 658.285 2360.54 676.16L2364.21 679.238C2384.9 696.63 2399.97 716.633 2415.94 737.798C2418.36 741.017 2420.8 744.239 2423.27 747.485C2424.89 749.619 2426.37 751.856 2427.7 754.183ZM2480.62 936.572C2465.46 910.327 2456.28 880.519 2450.93 841.52C2450.62 839.255 2450.35 836.991 2450.07 834.72C2449.49 828.808 2448.56 822.936 2447.28 817.132C2446.78 815.065 2446.28 812.922 2445.73 810.754C2442.52 797.069 2438.88 781.564 2433.05 769.86C2432.3 768.361 2431.58 766.865 2430.87 765.397C2428.06 759.558 2425.43 754.121 2421.45 748.888C2418.98 745.638 2416.53 742.406 2414.11 739.194C2398.22 718.123 2383.22 698.232 2362.73 680.998L2359.07 677.919C2338.11 660.25 2324.27 648.572 2296.54 641.61C2292.82 640.698 2289.04 640.063 2285.36 639.468C2281.68 638.872 2277.61 638.213 2273.73 637.225C2267.92 635.878 2262.03 634.922 2256.09 634.363C2252.31 633.931 2248.4 633.469 2244.57 632.859C2239.31 632.082 2234.02 631.663 2228.71 631.604C2223.49 631.542 2218.27 631.146 2213.1 630.417C2206.05 629.282 2200.93 629.977 2193.9 631.15C2189.48 631.774 2185.03 632.081 2180.57 632.07C2176.12 632.063 2171.68 632.384 2167.27 633.029C2161.82 633.951 2155.57 634.729 2148.96 635.55C2121.03 639.004 2086.29 643.296 2071.66 663.574L2070.47 665.209C2065.5 672.08 2060.35 679.181 2057.56 687.147C2056.38 690.527 2055.38 697.629 2054.23 705.848C2050.97 729.059 2046.03 764.08 2029.9 770.893C2023.76 773.494 2016.51 771.8 2008.38 765.86C1988 750.966 1963.26 742.061 1928.14 736.983C1903.6 733.438 1876.13 735.301 1848.74 742.381C1840.83 744.422 1833.66 748.797 1826.72 753.026C1824.54 754.347 1822.38 755.672 1820.19 756.924L1819.86 757.113C1812.32 761.469 1805.15 765.542 1798.54 771.129C1787.08 780.816 1775.69 791.724 1769.52 806.09C1767.47 810.879 1765.33 815.434 1763.31 819.8C1757.53 832.193 1752.06 843.914 1749.44 858.386C1747.13 871.192 1749.74 881.674 1752.77 893.79C1753.35 896.122 1753.92 898.458 1754.51 900.922C1756.22 908.247 1755.97 914.704 1755.71 921.563C1755.63 923.421 1755.56 925.32 1755.52 927.292C1755.51 935.244 1755.93 943.191 1756.78 951.098C1757.98 964.576 1759.21 978.5 1755.96 992.41C1754.8 997.345 1753.47 1002.31 1752.16 1007.1C1750.06 1014.88 1747.88 1022.92 1746.46 1031.02C1745.42 1036.13 1743.94 1041.14 1742.02 1045.99C1741.2 1048.24 1740.37 1050.51 1739.67 1052.8C1737.21 1060.51 1734.5 1067.38 1731.89 1074.04C1724.72 1092.29 1718.51 1108.08 1721.49 1131.39C1724.75 1156.99 1735.08 1183.91 1752.1 1211.35C1754.98 1215.99 1758.04 1220.63 1761 1225.11C1763.96 1229.59 1767 1234.22 1769.88 1238.85C1777.03 1250.36 1786.03 1253.9 1795.53 1257.65C1802.09 1260.27 1808.82 1262.9 1815.34 1268.25C1827.9 1278.58 1836.58 1288.32 1842.6 1298.98C1844.91 1302.98 1847.12 1307.04 1849.41 1311.12C1858.72 1327.83 1868.35 1345.1 1879.7 1360.5C1882.96 1364.88 1885.76 1369.58 1888.08 1374.51C1888.92 1376.63 1889.41 1378.87 1889.52 1381.15C1889.62 1382.63 1889.84 1384.11 1890.19 1385.55C1891.3 1389.76 1891.98 1394.07 1892.21 1398.42C1892.61 1401.94 1893.46 1405.39 1894.75 1408.69C1895.19 1409.98 1895.64 1411.28 1896.04 1412.62L1896.16 1413.01C1901.78 1431.63 1908.14 1452.73 1921.12 1467.78C1922.4 1469.27 1923.64 1470.75 1924.87 1472.23C1929.32 1477.56 1933.53 1482.6 1939.11 1487.03C1943.19 1490.41 1947.64 1493.31 1952.37 1495.67C1957.32 1498.24 1962.51 1500.32 1967.86 1501.86C1971.82 1502.92 1975.1 1502.29 1978.9 1501.57C1979.86 1501.38 1980.82 1501.2 1981.8 1501.04C1983.74 1500.73 1985.71 1500.43 1987.67 1500.14C1991.14 1499.61 1994.72 1499.07 1998.17 1498.41C2013.1 1495.54 2026.63 1487.69 2039.72 1480.1L2040.89 1479.42C2058.05 1469.51 2076.77 1461.54 2097.55 1470.63C2101.93 1472.55 2108.42 1477.03 2111.27 1480.92C2112.12 1482.08 2112.87 1483.27 2113.62 1484.46C2114.78 1486.45 2116.14 1488.31 2117.67 1490.03C2121.17 1493.73 2124.22 1497.68 2127.23 1501.48C2132.31 1508 2137.12 1514.14 2143.83 1519.17C2152.32 1525.53 2161.53 1531.98 2172.63 1534.54C2183.23 1537.01 2194.36 1534.86 2205.71 1528.14C2211.6 1524.65 2217.54 1521.25 2223.51 1517.86C2226.3 1516.25 2229.1 1514.63 2231.89 1513.03C2233.22 1512.26 2234.56 1511.49 2235.88 1510.72C2237.74 1509.65 2239.59 1508.58 2241.48 1507.49C2247.91 1503.87 2254.5 1504.91 2260.17 1506.16C2276.73 1509.83 2291.45 1517.88 2305.67 1525.66C2313.07 1529.75 2320.85 1533.99 2328.8 1537.55C2351.96 1547.91 2374.78 1549.17 2405.06 1541.65C2411.72 1540.03 2417.63 1537.08 2424.4 1533.21C2425.68 1532.47 2426.98 1531.72 2428.31 1531.03C2432.53 1528.73 2436.9 1526.34 2440.52 1523.15C2447.11 1517.33 2452.25 1509.64 2457.2 1502.2C2459.56 1498.7 2461.97 1495.04 2464.51 1491.66C2473.2 1480.14 2478.05 1465.09 2482.74 1450.53C2484.2 1445.99 2485.58 1441.71 2487.07 1437.53C2489.83 1429.83 2490.57 1421.88 2489.49 1411.77C2489.12 1408.43 2488.77 1405.08 2488.43 1401.72C2487.81 1395.75 2487.19 1389.78 2486.49 1383.81C2485.73 1378.67 2484.64 1373.57 2483.23 1368.56C2480.11 1356.44 2476.58 1342.69 2481.02 1332.51C2482.07 1329.95 2482.97 1327.33 2483.71 1324.67C2484.56 1321.54 2485.65 1318.49 2486.96 1315.53C2497.77 1292.97 2521.47 1279.31 2542.31 1267.29L2544.92 1265.78C2547.7 1264.17 2550.52 1262.55 2553.34 1261.01C2560.53 1256.99 2567.97 1252.82 2574.82 1248.12C2588.1 1239.01 2598.97 1228.92 2607.14 1218.12C2615.6 1206.94 2625.06 1187.51 2625.97 1173.42C2628.28 1138.45 2621.55 1113.65 2602.8 1087.83C2596.86 1079.66 2590.26 1072.74 2583.26 1065.42L2579.48 1061.45C2568.05 1049.35 2559.6 1036.24 2550.73 1022.33C2548.9 1019.47 2547.06 1016.61 2545.19 1013.73C2537.18 1001.47 2525.26 989.49 2517.01 981.53L2516.03 980.591C2508.62 973.478 2501.64 966.753 2495.37 958.567C2489.99 951.557 2485.06 944.211 2480.62 936.572Z" stroke="url(#paint5_linear_1_4551)" stroke-width="2" stroke-miterlimit="10"/>
<path d="M-339.264 439.885C-339.041 439.051 -338.816 438.211 -338.499 437.375C-337.683 435.052 -336.873 432.701 -336.068 430.342C-331.04 415.68 -325.862 400.585 -317.342 387.639C-313.976 382.538 -310.179 377.665 -306.496 372.949C-300.211 364.887 -293.708 356.558 -289.386 347.016C-283.974 335.052 -281.287 321.964 -278.693 309.298C-277.959 305.713 -277.226 302.134 -276.43 298.565C-273.104 283.667 -273.557 269.018 -273.993 254.853C-274.327 243.89 -274.68 232.55 -273.303 221.018C-272.449 213.803 -270.417 206.57 -268.456 199.571C-268.045 198.04 -267.601 196.531 -267.19 195.021C-262.374 177.347 -251.173 155.788 -234.185 148.266C-232.568 147.552 -230.942 146.807 -229.318 146.068C-223.02 143.18 -216.495 140.166 -209.672 138.525C-198.264 135.739 -188.115 134.843 -179.45 135.877C-169.46 137.066 -159.474 140.109 -149.814 143.051C-146.013 144.209 -142.083 145.409 -138.258 146.454C-124.808 150.145 -113.097 150.434 -103.462 147.326C-94.7594 144.515 -91.1852 139.656 -87.0389 134.03C-84.8349 130.887 -82.3605 127.943 -79.6439 125.232C-77.9708 123.695 -76.1925 122.277 -74.3221 120.988C-72.9566 120.02 -71.5287 118.968 -70.2545 117.869C-68.4217 116.195 -66.7265 114.376 -65.1856 112.43C-63.8797 110.816 -62.4878 109.274 -61.0159 107.811C-37.3477 85.0828 5.30981 87.8012 31.2537 103.358C36.5875 106.555 40.6822 110.72 45.0241 115.132L45.4017 115.513C56.8896 127.176 56.4396 141.464 55.9892 156.599L55.8898 159.954C55.507 174.787 68.2532 178.322 80.5845 181.74C83.1397 182.424 85.5448 183.122 87.8458 183.885C105.584 189.805 114.272 201.099 114.435 218.419C114.456 220.706 114.504 222.987 114.554 225.261C114.674 230.71 114.79 236.344 114.526 241.93C114.01 252.658 114.667 260.131 119.632 268.879C126.349 280.718 133.787 285.139 146.931 290.048C150.104 291.239 153.567 292.24 157.227 293.301C169.07 296.728 182.489 300.61 188.132 312.254C201.715 340.168 187.751 370.499 174.071 393.802L173.677 394.477C158.486 420.357 148.456 437.447 156.411 467.941C159.594 480.134 158.84 492.819 157.698 505.834C154.561 541.815 139.32 571.937 115.964 588.478C106.392 595.252 95.0346 597.999 84.0453 600.664C72.0792 603.568 59.7088 606.564 49.9126 614.798C42.6177 620.935 34.8901 630.651 28.7066 641.468C27.3705 643.974 26.3053 646.616 25.5289 649.348C25.0145 650.944 24.4851 652.597 23.8102 654.27C18.514 667.346 7.59049 678.694 -5.40787 684.63C-18.9838 690.831 -35.5654 692.732 -49.8004 689.704L-52.9573 689.052C-58.3298 687.939 -63.5243 686.734 -67.8843 684.305C-81.6556 676.613 -100.691 663.374 -113.126 643.78C-115.23 640.468 -117.315 637.034 -119.304 633.713C-126.544 621.714 -134.033 609.302 -144.689 599.782C-147.436 597.326 -151.624 593.782 -156.237 591.352C-160.564 589.098 -164.126 589.238 -168.686 589.644C-170.116 589.781 -171.525 589.817 -172.881 589.854C-175.863 589.942 -178.684 590.027 -181.546 591.007C-183.988 591.841 -185.954 593.161 -188.046 594.602C-189.786 595.86 -191.64 596.951 -193.584 597.861C-197.9 599.746 -201.885 602.781 -206.103 605.986C-213.59 611.698 -221.342 617.599 -231.153 616.564C-264.588 613.048 -288.118 588.906 -306.724 565.757C-307.727 564.528 -308.738 563.33 -309.7 562.145C-313.335 557.803 -317.088 553.308 -319.605 547.931C-323.556 539.522 -326.369 530.723 -329.084 522.178C-331.631 514.278 -334.206 506.131 -337.693 498.379C-338.222 497.197 -338.794 496.023 -339.366 494.849C-340.97 491.537 -342.637 488.109 -343.472 484.41C-344.307 480.711 -344.229 476.816 -344.139 473.072C-344.104 471.7 -344.072 470.335 -344.083 468.984C-344.106 464.096 -343.269 460.177 -342.271 455.656L-341.752 453.273C-341.351 451.379 -341.063 449.509 -340.775 447.685C-340.412 445.06 -339.908 442.456 -339.264 439.885V439.885ZM-281.662 329.581C-283.263 335.771 -285.367 341.82 -287.954 347.667C-292.348 357.376 -298.914 365.789 -305.257 373.921C-308.921 378.616 -312.706 383.465 -316.022 388.507C-324.438 401.287 -329.591 416.316 -334.573 430.856L-337.007 437.902C-338.056 441.17 -338.797 444.528 -339.222 447.934C-339.51 449.778 -339.809 451.692 -340.215 453.605L-340.737 456C-341.705 460.41 -342.557 464.257 -342.507 468.973C-342.487 470.313 -342.533 471.728 -342.566 473.12C-342.654 476.758 -342.745 480.529 -341.939 484.061C-341.133 487.592 -339.509 490.908 -337.975 494.134C-337.394 495.324 -336.819 496.512 -336.267 497.707C-332.747 505.534 -330.126 513.734 -327.595 521.67C-324.89 530.152 -322.089 538.921 -318.173 547.287C-315.739 552.476 -312.218 556.694 -308.483 561.157C-307.473 562.362 -306.463 563.566 -305.491 564.787C-287.086 587.689 -263.843 611.56 -230.991 615.013C-221.801 615.981 -214.308 610.271 -207.058 604.75C-202.954 601.62 -198.691 598.393 -194.212 596.425C-192.363 595.556 -190.601 594.511 -188.952 593.305C-186.844 591.73 -184.528 590.453 -182.071 589.512C-178.982 588.452 -175.906 588.363 -172.936 588.271C-171.595 588.237 -170.248 588.185 -168.844 588.067C-164.169 587.632 -160.215 587.498 -155.519 589.943C-150.824 592.389 -146.451 596.062 -143.639 598.576C-132.813 608.254 -125.264 620.77 -117.959 632.873C-115.961 636.183 -113.894 639.612 -111.805 642.906C-99.5374 662.203 -80.7341 675.312 -67.1202 682.896C-62.9519 685.22 -57.8942 686.388 -52.6416 687.476L-51.5945 687.696L-49.4987 688.131C-35.5966 691.082 -19.3654 689.221 -6.08698 683.16C6.37158 677.474 17.2586 666.163 22.325 653.646C22.9788 652.026 23.5015 650.399 24.0076 648.833C24.8153 645.997 25.9253 643.255 27.3183 640.655C33.5953 629.663 41.4409 619.806 48.8799 613.554C58.958 605.088 71.5089 602.041 83.652 599.098C94.4986 596.468 105.709 593.748 115.024 587.159C138.04 570.894 152.998 541.182 156.106 505.661C157.228 492.794 157.982 480.256 154.865 468.314C146.766 437.214 156.95 419.898 172.318 393.679L172.712 393.004C198.367 349.283 193.701 327.254 186.763 312.962C181.415 301.91 168.876 298.297 156.818 294.805C153.106 293.737 149.638 292.728 146.403 291.521C132.896 286.474 125.242 281.915 118.279 269.651C113.124 260.565 112.434 252.869 112.969 241.846C113.237 236.295 113.113 230.692 112.999 225.271C112.944 222.989 112.891 220.7 112.879 218.409C112.72 201.843 104.374 191.036 87.3647 185.357C85.1027 184.598 82.7141 183.938 80.1842 183.233C67.8716 179.821 53.9165 175.948 54.3358 159.884L54.4369 156.523C54.8984 141.745 55.3085 127.78 44.3121 116.596L43.9345 116.214C39.6663 111.875 35.6391 107.781 30.4785 104.684C-2.21186 85.0854 -41.8797 91.6262 -59.8951 108.925C-61.3237 110.349 -62.6753 111.848 -63.9439 113.416C-65.5454 115.433 -67.3108 117.314 -69.2222 119.039C-70.5469 120.179 -71.9951 121.231 -73.4113 122.239C-75.221 123.483 -76.9416 124.852 -78.5604 126.336C-81.2215 129.008 -83.644 131.908 -85.8001 135.002C-89.9273 140.607 -93.8243 145.9 -103.009 148.868C-112.924 152.075 -124.934 151.785 -138.691 148.019C-142.546 146.986 -146.483 145.764 -150.29 144.604C-159.882 141.681 -169.806 138.655 -179.654 137.483C-188.132 136.472 -198.116 137.352 -209.315 140.102C-215.997 141.74 -222.445 144.688 -228.68 147.54C-230.313 148.29 -231.939 149.035 -233.564 149.753C-250.046 157.05 -260.965 178.158 -265.686 195.477C-266.091 196.989 -266.5 198.514 -266.955 200.04C-268.902 206.982 -270.917 214.153 -271.758 221.246C-273.108 232.651 -272.765 243.929 -272.434 254.83C-271.998 269.095 -271.546 283.845 -274.921 298.929C-275.713 302.479 -276.444 306.052 -277.174 309.625C-278.508 316.245 -279.889 322.966 -281.667 329.6L-281.662 329.581Z" stroke="url(#paint6_linear_1_4551)" stroke-width="2" stroke-miterlimit="10"/>
<path d="M-345.32 415.084C-345.099 414.257 -344.876 413.425 -344.562 412.597C-343.753 410.295 -342.951 407.966 -342.153 405.629C-337.171 391.101 -332.041 376.144 -323.599 363.318C-320.264 358.263 -316.502 353.435 -312.853 348.762C-306.626 340.774 -300.182 332.521 -295.899 323.067C-290.538 311.213 -287.875 298.245 -285.305 285.696C-284.577 282.143 -283.851 278.597 -283.062 275.061C-279.767 260.3 -280.216 245.785 -280.648 231.75C-280.979 220.888 -281.329 209.651 -279.964 198.226C-279.118 191.077 -277.105 183.91 -275.161 176.975C-274.755 175.458 -274.315 173.964 -273.907 172.467C-269.136 154.955 -258.038 133.594 -241.205 126.141C-239.603 125.434 -237.992 124.696 -236.383 123.964C-230.143 121.102 -223.678 118.115 -216.917 116.49C-205.614 113.729 -195.558 112.841 -186.973 113.866C-177.074 115.044 -167.18 118.059 -157.609 120.974C-153.842 122.122 -149.949 123.311 -146.159 124.346C-132.832 128.003 -121.229 128.29 -111.682 125.21C-103.059 122.425 -99.518 117.61 -95.4098 112.036C-93.226 108.922 -90.7743 106.005 -88.0826 103.319C-86.4248 101.796 -84.6629 100.391 -82.8097 99.1137C-81.4567 98.1544 -80.0419 97.1125 -78.7794 96.0232C-76.9634 94.3648 -75.2838 92.5626 -73.757 90.6342C-72.4631 89.0353 -71.084 87.5074 -69.6256 86.0572C-46.1746 63.5379 -3.90864 66.2314 21.7972 81.6451C27.082 84.8126 31.1391 88.94 35.4411 93.3114L35.8152 93.6892C47.1977 105.245 46.7518 119.402 46.3056 134.397L46.2071 137.722C45.8279 152.418 58.457 155.921 70.6751 159.307C73.2069 159.986 75.5899 160.677 77.8698 161.434C95.4448 167.299 104.053 178.489 104.215 195.65C104.235 197.916 104.284 200.176 104.333 202.43C104.451 207.828 104.567 213.411 104.305 218.945C103.794 229.575 104.444 236.98 109.365 245.647C116.019 257.377 123.389 261.758 136.413 266.622C139.556 267.802 142.988 268.794 146.615 269.845C158.348 273.24 171.645 277.087 177.235 288.624C190.694 316.282 176.858 346.334 163.303 369.423L162.913 370.092C147.862 395.735 137.924 412.668 145.805 442.882C148.959 454.963 148.213 467.532 147.081 480.428C143.973 516.078 128.872 545.923 105.729 562.313C96.2459 569.025 84.9926 571.746 74.1042 574.387C62.248 577.264 49.991 580.232 40.2848 588.391C33.0568 594.472 25.4001 604.099 19.2734 614.816C17.9496 617.299 16.8942 619.917 16.1249 622.624C15.6152 624.206 15.0907 625.843 14.4219 627.501C9.17439 640.457 -1.64888 651.701 -14.5279 657.582C-27.9793 663.726 -44.4087 665.609 -58.513 662.61L-61.641 661.964C-66.9641 660.861 -72.1109 659.667 -76.431 657.26C-90.0759 649.639 -108.936 636.522 -121.257 617.107C-123.342 613.826 -125.408 610.423 -127.379 607.133C-134.552 595.244 -141.972 582.945 -152.531 573.514C-155.252 571.079 -159.402 567.568 -163.973 565.16C-168.26 562.928 -171.79 563.066 -176.308 563.468C-177.724 563.604 -179.12 563.639 -180.464 563.676C-183.418 563.763 -186.214 563.847 -189.049 564.819C-191.469 565.644 -193.417 566.953 -195.49 568.381C-197.214 569.627 -199.051 570.708 -200.977 571.61C-205.254 573.477 -209.202 576.484 -213.381 579.66C-220.8 585.319 -228.48 591.166 -238.201 590.141C-271.329 586.657 -294.643 562.737 -313.078 539.801C-314.072 538.583 -315.074 537.395 -316.028 536.221C-319.628 531.919 -323.347 527.466 -325.841 522.138C-329.756 513.806 -332.543 505.088 -335.233 496.621C-337.757 488.794 -340.308 480.721 -343.763 473.041C-344.288 471.869 -344.854 470.706 -345.421 469.543C-347.011 466.262 -348.662 462.865 -349.489 459.2C-350.316 455.535 -350.239 451.676 -350.15 447.966C-350.116 446.607 -350.083 445.254 -350.095 443.916C-350.117 439.072 -349.288 435.19 -348.299 430.709L-347.785 428.349C-347.388 426.472 -347.103 424.619 -346.817 422.812C-346.458 420.211 -345.958 417.631 -345.32 415.084V415.084ZM-288.247 305.793C-289.833 311.926 -291.918 317.919 -294.481 323.712C-298.834 333.332 -305.34 341.668 -311.625 349.725C-315.255 354.377 -319.005 359.182 -322.291 364.177C-330.63 376.84 -335.735 391.731 -340.672 406.138L-343.084 413.119C-344.123 416.357 -344.858 419.684 -345.279 423.059C-345.563 424.886 -345.86 426.783 -346.262 428.678L-346.779 431.051C-347.739 435.42 -348.582 439.232 -348.533 443.905C-348.513 445.232 -348.558 446.634 -348.591 448.013C-348.679 451.618 -348.769 455.355 -347.97 458.854C-347.171 462.353 -345.563 465.639 -344.042 468.835C-343.467 470.014 -342.898 471.191 -342.35 472.375C-338.862 480.13 -336.266 488.255 -333.758 496.118C-331.078 504.522 -328.302 513.21 -324.423 521.5C-322.01 526.641 -318.522 530.821 -314.821 535.243C-313.82 536.436 -312.82 537.629 -311.856 538.839C-293.62 561.531 -270.591 585.183 -238.04 588.604C-228.935 589.564 -221.51 583.906 -214.327 578.435C-210.261 575.335 -206.037 572.137 -201.599 570.187C-199.767 569.326 -198.022 568.291 -196.387 567.096C-194.298 565.535 -192.004 564.27 -189.57 563.338C-186.509 562.288 -183.461 562.199 -180.519 562.108C-179.189 562.074 -177.855 562.022 -176.464 561.906C-171.832 561.475 -167.914 561.342 -163.262 563.765C-158.609 566.188 -154.276 569.827 -151.491 572.318C-140.763 581.908 -133.284 594.308 -126.046 606.3C-124.066 609.58 -122.019 612.977 -119.949 616.242C-107.794 635.361 -89.1628 648.35 -75.6739 655.864C-71.5439 658.167 -66.5326 659.325 -61.3281 660.402L-60.2907 660.62L-58.2141 661.051C-44.4396 663.975 -28.3574 662.131 -15.2008 656.126C-2.85661 650.491 7.93046 639.284 12.9504 626.882C13.5981 625.278 14.1161 623.665 14.6175 622.114C15.4178 619.304 16.5176 616.587 17.8979 614.011C24.1173 603.12 31.8909 593.353 39.2616 587.159C49.2471 578.771 61.6828 575.751 73.7145 572.835C84.4616 570.229 95.569 567.535 104.799 561.006C127.604 544.89 142.424 515.451 145.503 480.256C146.615 467.507 147.362 455.084 144.274 443.252C136.249 412.437 146.339 395.28 161.566 369.302L161.957 368.633C187.376 325.313 182.754 303.487 175.879 289.325C170.58 278.375 158.156 274.795 146.209 271.336C142.531 270.277 139.095 269.277 135.89 268.082C122.506 263.081 114.922 258.564 108.024 246.412C102.916 237.409 102.233 229.784 102.763 218.862C103.028 213.362 102.905 207.81 102.792 202.44C102.738 200.178 102.685 197.91 102.673 195.64C102.515 179.227 94.2467 168.518 77.3931 162.892C75.1519 162.14 72.7853 161.486 70.2786 160.787C58.079 157.406 44.2519 153.569 44.6674 137.653L44.7676 134.322C45.2248 119.68 45.6311 105.843 34.7356 94.7615L34.3615 94.3836C30.1325 90.0846 26.1423 86.0281 21.0291 82.9594C-11.3613 63.5405 -50.665 70.0212 -68.5151 87.1611C-69.9306 88.572 -71.2697 90.0575 -72.5268 91.6115C-74.1135 93.6098 -75.8627 95.4733 -77.7565 97.1829C-79.0692 98.3117 -80.5041 99.3548 -81.9073 100.354C-83.7003 101.586 -85.4051 102.942 -87.0091 104.413C-89.6458 107.06 -92.046 109.933 -94.1824 112.999C-98.2716 118.552 -102.133 123.797 -111.233 126.738C-121.057 129.915 -132.957 129.628 -146.588 125.897C-150.407 124.873 -154.308 123.663 -158.08 122.513C-167.584 119.616 -177.417 116.618 -187.175 115.458C-195.575 114.456 -205.468 115.328 -216.563 118.052C-223.185 119.675 -229.573 122.596 -235.75 125.422C-237.369 126.165 -238.98 126.903 -240.59 127.615C-256.92 134.845 -267.74 155.759 -272.417 172.919C-272.819 174.417 -273.224 175.928 -273.675 177.44C-275.604 184.319 -277.6 191.424 -278.433 198.451C-279.771 209.751 -279.431 220.926 -279.103 231.727C-278.672 245.861 -278.223 260.475 -281.568 275.422C-282.352 278.939 -283.076 282.479 -283.8 286.019C-285.122 292.579 -286.49 299.238 -288.252 305.811L-288.247 305.793Z" stroke="url(#paint7_linear_1_4551)" stroke-width="2" stroke-miterlimit="10"/>
<path d="M-356.94 447.633C-355.359 441.732 -352.532 435.885 -349.788 430.222C-349.337 429.283 -348.883 428.359 -348.45 427.442C-341.258 412.368 -333.104 396.439 -322.228 381.999C-316.949 374.983 -312.349 368.564 -309.557 361.029C-307.464 355.385 -304.986 349.891 -302.596 344.58C-297.685 333.713 -293.066 323.442 -291.202 311.585L-290.445 306.869C-289.853 303.243 -289.242 299.494 -288.768 295.809C-287.321 284.687 -287.91 272.854 -288.479 261.418C-288.732 256.319 -288.992 251.044 -289.05 245.937C-289.147 243.156 -289.401 240.382 -289.811 237.629C-290.275 234.086 -290.752 230.419 -290.535 226.772L-290.509 226.452C-290.112 219.994 -289.702 213.34 -286.96 207.163C-285.197 202.92 -283.702 198.571 -282.484 194.141C-280.177 186.375 -277.785 178.345 -272.689 172.014C-269.941 168.598 -267.375 165.067 -264.893 161.653C-255.979 149.38 -247.559 137.787 -231.667 132.189C-212.23 125.328 -194.672 124.208 -174.701 128.566C-172.502 129.042 -170.274 129.459 -168.09 129.864C-164.611 130.516 -161.018 131.186 -157.516 132.124C-155.451 132.678 -153.395 133.288 -151.328 133.909C-147.32 135.197 -143.239 136.249 -139.106 137.057C-131.636 138.359 -126.468 137.158 -120.452 135.778C-117.181 134.966 -113.866 134.341 -110.524 133.906C-106.628 133.444 -105.154 133.046 -102.693 130.053C-91.0911 115.987 -81.1238 104.936 -71.3174 95.2811C-63.3379 87.3692 -50.9194 81.4998 -42 78.6381C-39.0135 77.7433 -35.9778 77.0213 -32.908 76.4758C-30.7939 76.0493 -28.5707 75.6387 -26.4324 75.072C-25.1525 74.7485 -23.8975 74.4184 -22.6549 74.0849C-15.8938 72.2377 -9.5061 70.4904 -2.01506 71.2181C19.1513 73.2775 41.4936 86.5217 54.9023 104.97C58.209 109.521 59.1667 114.629 59.8634 119.468C60.3703 123.693 60.5933 127.948 60.5308 132.203C60.5924 140.083 60.6557 148.231 64.4817 155.347C68.962 163.679 77.1937 165.971 85.8977 168.416C88.0621 168.996 90.2849 169.632 92.4268 170.346C102.429 173.692 114.894 177.825 120.663 187.642C126.038 196.639 124.125 209.402 122.448 220.636C121.875 224.415 121.339 227.983 121.104 231.199C121.013 232.507 120.795 233.895 120.587 235.219C120.223 237.574 119.846 239.999 120.104 242.22C122.678 264.556 144.114 271.633 166.893 279.143C183.123 284.498 199.904 290.034 209.165 301.672C212.322 305.664 214.598 311.845 215.43 316.207C216.013 319.229 215.678 322.345 215.351 325.356L215.241 326.413C213.509 343.276 207.412 362.423 196.612 384.893C194.941 388.176 193.048 391.34 190.947 394.365C190.095 395.656 189.244 396.941 188.43 398.236C171.548 425.169 164.994 457.515 170.894 484.754C171.268 486.493 171.745 488.247 172.21 489.944C173.1 492.935 173.761 495.988 174.189 499.079C175.501 510.626 171.202 524.976 167.748 536.5L166.785 539.747C165.028 545.681 162.607 551.357 160.269 556.848C158.846 560.193 157.373 563.65 156.067 567.132L155.722 568.046C154.281 571.905 152.918 575.552 150.349 579.042C142.581 589.623 133.17 598.151 124.981 605.127C115.048 613.589 104.783 615.13 92.906 616.913C91.3524 617.163 89.7678 617.405 88.1644 617.641C63.8607 621.519 49.5142 641.874 35.6367 661.547C28.9171 671.076 21.9669 680.943 14.0354 688.602C1.15696 701.039 -19.5268 707.18 -47.4553 706.847C-48.5577 706.832 -49.6571 706.788 -50.7534 706.716C-71.249 705.363 -94.9184 694.136 -108.315 679.424C-111.051 676.305 -113.603 673.031 -115.96 669.618C-117.382 667.637 -118.846 665.585 -120.361 663.653C-121.627 662.034 -122.967 660.442 -124.269 658.907C-126.85 655.988 -129.234 652.9 -131.405 649.664C-132.817 647.455 -134.224 645.241 -135.625 643.022C-141.649 633.537 -147.884 623.743 -154.466 614.375C-158.271 608.97 -161.688 604.756 -168.018 603.699C-180.877 601.587 -191.014 609.267 -200.835 616.712C-206.044 620.628 -211.431 624.709 -217.162 627.292C-235.34 635.424 -255.513 630.652 -278.826 612.696C-280.301 611.56 -281.788 610.442 -283.256 609.329C-287.907 605.837 -292.718 602.222 -297.018 598.118C-298.619 596.506 -300.039 594.724 -301.253 592.804C-301.895 591.866 -302.54 590.913 -303.274 589.97C-304.005 589.054 -304.785 588.178 -305.61 587.345C-306.8 586.162 -307.878 584.871 -308.83 583.49C-313.304 576.526 -318.381 569.801 -323.298 563.298C-329.758 554.743 -336.434 545.897 -341.858 536.386C-351.726 519.08 -357.959 497.51 -359.408 475.702C-359.937 466.917 -359.248 458.102 -357.362 449.506C-357.262 448.859 -357.103 448.242 -356.94 447.633ZM-291.387 319.913C-293.778 328.836 -297.522 337.136 -301.17 345.229C-303.555 350.521 -306.05 355.977 -308.09 361.575C-310.954 369.305 -315.827 376.096 -320.982 382.946C-331.774 397.275 -339.882 413.13 -347.039 428.12L-348.387 430.911C-351.375 437.088 -354.465 443.497 -355.872 449.818C-357.72 458.27 -358.395 466.936 -357.88 475.572C-356.448 497.168 -350.293 518.484 -340.541 535.599C-335.17 545.036 -328.518 553.822 -322.089 562.343C-317.17 568.866 -312.061 575.62 -307.527 582.633C-306.634 583.933 -305.62 585.146 -304.498 586.256C-303.635 587.129 -302.82 588.048 -302.057 589.01C-301.304 589.985 -300.635 590.97 -299.983 591.918C-298.835 593.754 -297.487 595.456 -295.963 596.994C-291.712 601.032 -286.959 604.612 -282.342 608.081C-280.849 609.201 -279.356 610.321 -277.876 611.464C-255.065 629.032 -235.416 633.744 -217.823 625.876C-212.245 623.371 -206.919 619.34 -201.771 615.428C-191.72 607.772 -181.276 599.867 -167.754 602.117C-160.816 603.27 -157.191 607.727 -153.168 613.436C-146.563 622.817 -140.317 632.648 -134.284 642.149L-130.062 648.784C-127.932 651.969 -125.591 655.008 -123.054 657.88C-121.747 659.423 -120.39 661.026 -119.111 662.669C-117.577 664.632 -116.097 666.695 -114.671 668.69C-112.349 672.066 -109.834 675.305 -107.139 678.392C-93.9953 692.831 -70.7674 703.84 -50.6463 705.172C-49.5792 705.245 -48.5099 705.285 -47.4341 705.3C-19.9427 705.622 0.372985 699.636 12.9404 687.489C20.764 679.935 27.6759 670.111 34.3474 660.662C48.4139 640.706 62.9619 620.072 87.9186 616.096C89.5281 615.861 91.1128 615.619 92.6726 615.37C104.313 613.624 114.368 612.12 123.956 603.953C132.077 597.032 141.414 588.557 149.081 578.129C151.53 574.787 152.846 571.267 154.244 567.517L154.589 566.603C155.91 563.091 157.386 559.621 158.82 556.26C161.14 550.811 163.543 545.176 165.27 539.328L166.242 536.076C169.655 524.681 173.899 510.51 172.628 499.28C172.204 496.27 171.555 493.296 170.686 490.383C170.22 488.665 169.735 486.889 169.351 485.113C163.365 457.451 170.001 424.674 187.076 397.393C187.893 396.086 188.754 394.791 189.616 393.489C191.673 390.522 193.53 387.422 195.175 384.209C205.919 361.902 211.956 342.953 213.677 326.254L213.76 325.176C214.069 322.28 214.391 319.287 213.854 316.491C213.081 312.459 210.89 306.406 207.898 302.646C198.918 291.376 182.382 285.919 166.366 280.634C144.153 273.303 121.172 265.726 118.48 242.385C118.197 239.957 118.591 237.417 118.976 234.961C119.185 233.61 119.383 232.324 119.466 231.093C119.677 227.817 120.248 224.218 120.823 220.407C122.475 209.44 124.354 197.001 119.299 188.403C113.795 179.09 101.683 175.059 91.9274 171.811C89.8166 171.106 87.6137 170.496 85.4729 169.902C76.8262 167.492 67.8792 165.008 63.0839 156.086C59.0841 148.623 59.0069 140.278 58.9439 132.204C59.0091 128.022 58.7933 123.841 58.2978 119.688C57.6657 115.007 56.7338 110.125 53.6549 105.868C40.5042 87.776 18.6029 74.7766 -2.1346 72.7589C-9.34654 72.0594 -15.5977 73.7699 -22.2206 75.5741C-23.4694 75.9059 -24.7307 76.2344 -26.0285 76.5998C-28.1809 77.1693 -30.4357 77.5982 -32.5904 78.0271C-35.6062 78.5572 -38.5885 79.2623 -41.5223 80.139C-50.2736 82.9457 -62.4306 88.6853 -70.2776 96.4261C-80.0475 106.044 -89.9765 117.052 -101.56 131.076C-104.355 134.466 -106.312 135.001 -110.421 135.486C-113.708 135.916 -116.967 136.534 -120.183 137.336C-126.094 138.698 -131.677 139.981 -139.461 138.628C-143.654 137.809 -147.796 136.743 -151.865 135.438C-153.907 134.824 -155.949 134.21 -158.003 133.667C-161.449 132.743 -165.009 132.076 -168.457 131.432C-170.68 131.023 -172.902 130.607 -175.118 130.12C-194.755 125.838 -212.05 126.942 -231.199 133.701C-246.609 139.142 -254.889 150.538 -263.657 162.611C-266.149 166.042 -268.727 169.59 -271.496 173.033C-276.401 179.123 -278.744 186.999 -281.013 194.622C-282.242 199.118 -283.758 203.532 -285.553 207.834C-288.185 213.726 -288.565 219.969 -288.971 226.585L-288.995 226.898C-289.21 230.413 -288.746 234.003 -288.29 237.477C-287.871 240.29 -287.613 243.125 -287.519 245.967C-287.45 251.011 -287.187 256.273 -286.936 261.358C-286.354 272.844 -285.77 284.77 -287.235 296.034C-287.714 299.737 -288.328 303.498 -288.917 307.139L-289.679 311.847C-290.1 314.56 -290.665 317.25 -291.371 319.904L-291.387 319.913Z" stroke="url(#paint8_linear_1_4551)" stroke-width="2" stroke-miterlimit="10"/>
<path d="M-373.16 429.865C-372.472 427.296 -371.602 424.822 -370.711 422.267L-369.585 419.008C-366.632 410.199 -360.735 400.672 -355.533 392.271L-353.155 388.368C-350.887 384.82 -348.415 381.406 -345.752 378.144C-344.754 376.905 -343.793 375.656 -342.836 374.398C-321.622 346.44 -310.987 322.861 -307.305 295.546C-306.362 288.545 -306.497 281.841 -306.644 274.755L-306.662 273.803C-306.829 265.724 -306.803 253.817 -304.663 243.67C-304.175 241.327 -303.666 239.003 -303.16 236.692C-300.713 225.52 -298.399 214.972 -298.083 203.523L-297.987 199.708C-297.827 192.597 -297.665 185.88 -296.553 178.818C-293.052 156.727 -283.697 140.412 -265.278 124.253C-257.657 117.568 -243.029 112.5 -233.116 111.129C-223.601 109.805 -213.093 110.194 -201.888 112.283C-196.126 113.353 -190.366 114.977 -184.804 116.547C-182.635 117.128 -180.468 117.769 -178.324 118.343L-176.285 118.89C-160.28 123.178 -142.137 128.039 -126.15 122.423C-124.12 121.641 -122.152 120.706 -120.264 119.626C-118.529 118.645 -116.737 117.77 -114.898 117.003C-108.196 114.366 -103.318 106.105 -98.9864 98.7919C-97.1707 95.5681 -95.1507 92.4639 -92.9388 89.4982C-90.3351 86.1956 -87.6934 82.9498 -85.05 79.6978L-80.6173 74.2183C-76.0479 68.5022 -71.602 64.8131 -66.2138 62.2565C-63.4442 60.9452 -60.6632 59.5168 -57.745 57.9986C-48.1195 53.1038 -38.1783 48.0003 -27.9546 46.5661C-25.0881 46.1608 -22.1123 45.5714 -19.2396 44.9943C-13.0246 43.7527 -6.5733 42.4744 -0.268968 42.8636C3.25498 43.0878 6.67669 44.0913 9.98198 45.057C10.9765 45.3234 11.9576 45.6397 12.9521 45.9061C18.3285 47.3467 22.7779 48.8656 27.0484 51.45C46.0005 62.8887 56.8325 74.9718 63.2729 91.8587C65.4436 97.5807 67.1796 103.533 68.8877 109.291C72.0064 120.027 75.2843 131.14 81.5224 140.925C84.1013 144.95 86.4896 147.697 90.4808 148.813C91.9103 149.196 93.3461 149.581 94.7757 149.964C95.8199 150.243 96.8641 150.523 97.8834 150.796C100.059 151.379 102.234 151.962 104.403 152.543C109.009 153.777 113.621 155.013 118.227 156.247C127.533 158.634 134.399 163.294 138.638 170.097C143 177.113 144.4 185.015 145.465 192.501C146.317 198.497 145.609 204.247 144.929 209.819C144.521 213.13 144.102 216.558 144.006 220.026C143.912 221.733 143.648 223.427 143.217 225.082C143.011 226 142.799 226.916 142.65 227.87C142.195 230.835 143.105 235.992 144.253 238.893C149.763 252.964 162.505 258.092 175.45 261.54L176.395 261.794C186.713 264.558 197.397 267.374 206.382 273.469C208.435 274.859 210.482 276.368 212.463 277.825C213.575 278.648 214.689 279.464 215.804 280.274C216.364 280.671 216.929 281.049 217.452 281.382C219.745 282.943 221.909 284.416 223.521 287.202C225.455 290.693 227.034 294.371 228.234 298.179C229.439 301.793 230.225 305.533 230.576 309.327C231.162 314.425 230.746 319.06 230.303 323.969C230.188 325.271 230.063 326.631 229.959 327.99C228.914 342.131 221.565 355.836 215.082 367.92L214.949 368.171C214.496 369.017 214.083 369.86 213.672 370.696C212.621 373.062 211.274 375.284 209.662 377.309C207.696 379.493 205.96 381.874 204.481 384.415C203.895 385.373 203.231 386.281 202.494 387.129C201.544 388.169 200.766 389.353 200.188 390.638C198.939 394.112 198.038 397.7 197.498 401.352C195.489 414.641 191.702 427.954 188.053 440.824C187.177 443.923 186.283 447.057 185.425 450.161C183.23 458.153 182.68 467.093 183.767 478.178C184.312 483.778 186.281 488.313 188.184 492.696C191.128 499.486 193.908 505.891 191.634 515.622C190.78 519.307 190.001 523.085 189.256 526.733C188.512 530.381 187.716 534.221 186.844 537.948C181.664 560.041 173.379 578.63 162.215 593.046C151.935 606.326 140.934 611.132 128.204 616.675C123.674 618.662 118.963 620.706 113.991 623.275C112.451 624.049 110.927 624.767 109.402 625.485C106.143 626.891 103.014 628.582 100.053 630.541C95.3026 633.875 90.2331 636.783 85.3229 639.595C82.3309 641.313 79.2382 643.085 76.2581 644.933C68.0102 650.057 61.836 657.437 55.8577 664.582C52.3382 668.942 48.5864 673.109 44.6187 677.065C43.6221 678.025 42.6405 678.929 41.6825 679.819C38.2587 682.975 35.0266 685.962 32.3752 690.239C31.4541 691.712 30.5849 693.166 29.7302 694.591C25.3381 701.908 21.1869 708.823 13.4548 714.185C4.86171 720.15 -3.70005 723.263 -12.7645 726.561C-15.9247 727.714 -19.1916 728.892 -22.5361 730.236C-32.983 734.418 -44.7131 734.115 -54.7997 733.272C-60.9567 732.756 -66.5643 731.233 -72.4765 729.629L-72.7251 729.563C-74.4157 729.11 -76.1226 728.692 -77.8294 728.275C-83.4583 726.907 -89.2522 725.508 -94.3649 722.511C-111.544 712.387 -126.158 699.624 -136.632 685.61C-151.608 665.596 -159.504 648.773 -162.254 631.115C-163.218 624.769 -165.649 620.764 -169.416 619.235C-179.896 614.986 -199.176 629.509 -211.936 639.117C-216.819 642.796 -220.674 645.696 -223.062 646.85C-228.545 649.514 -234.698 650.499 -240.66 651.469L-242.054 651.695C-259.935 654.585 -279.492 639.337 -295.209 627.085C-298.856 624.241 -302.299 621.552 -305.418 619.342C-307.965 617.444 -310.371 615.362 -312.616 613.113C-314.767 610.949 -317.07 608.939 -319.505 607.101C-323.678 604.129 -326.64 601.855 -329.699 597.635C-331.851 594.783 -334.181 592.069 -336.676 589.512C-339.311 586.804 -341.759 583.921 -344.003 580.881C-345.535 578.718 -347.224 576.592 -348.862 574.526C-351.569 571.27 -354.054 567.836 -356.3 564.246C-357.664 561.88 -359.299 559.675 -360.853 557.519C-362.407 555.362 -363.985 553.172 -365.384 550.837C-375.801 533.425 -376.882 520.701 -378.516 501.442L-378.805 498.118C-380.435 479.339 -378 462.05 -375.44 443.742C-375.047 440.96 -374.66 438.17 -374.278 435.352C-374.025 433.501 -373.652 431.668 -373.16 429.865ZM-309.327 313.859C-314.796 334.268 -324.963 353.492 -341.554 375.355C-342.52 376.623 -343.501 377.874 -344.484 379.131C-347.109 382.334 -349.545 385.689 -351.779 389.177C-352.551 390.443 -353.36 391.747 -354.159 393.086C-359.322 401.417 -365.169 410.858 -368.065 419.502C-368.435 420.61 -368.821 421.7 -369.195 422.773C-370.685 427.041 -372.07 431.017 -372.687 435.558C-373.07 438.38 -373.458 441.179 -373.851 443.954C-376.403 462.178 -378.814 479.38 -377.208 497.979L-376.92 501.303C-375.301 520.345 -374.235 532.925 -363.995 550.029C-362.609 552.314 -361.06 554.489 -359.54 556.597C-358.019 558.704 -356.339 561.035 -354.911 563.438C-352.711 566.965 -350.277 570.342 -347.626 573.544C-345.977 575.619 -344.276 577.775 -342.686 579.968C-340.48 582.94 -338.074 585.758 -335.486 588.404C-332.943 591.009 -330.568 593.774 -328.378 596.682C-325.462 600.717 -322.596 602.899 -318.548 605.79C-316.065 607.659 -313.718 609.702 -311.526 611.905C-309.335 614.103 -306.985 616.137 -304.496 617.989C-301.351 620.225 -297.89 622.92 -294.225 625.775C-278.752 637.842 -259.511 652.852 -242.297 650.07L-240.906 649.849C-235.066 648.914 -229.026 647.952 -223.725 645.399C-221.476 644.315 -217.485 641.304 -212.862 637.822C-199.813 627.984 -180.112 613.155 -168.804 617.745C-164.49 619.495 -161.753 623.901 -160.674 630.838C-157.967 648.231 -150.16 664.817 -135.351 684.633C-124.999 698.481 -110.541 711.103 -93.5451 721.117C-88.6383 724.012 -82.9455 725.391 -77.4409 726.726C-75.7154 727.148 -73.9945 727.562 -72.2993 728.023L-72.0445 728.092C-66.177 729.664 -60.6366 731.188 -54.623 731.693C-44.1982 732.566 -33.2037 732.805 -23.0808 728.764C-19.708 727.414 -16.4051 726.225 -13.2573 725.069C-4.29657 721.809 4.17725 718.726 12.6044 712.884C20.0539 707.706 23.935 701.252 28.414 693.785C29.2782 692.349 30.1487 690.916 31.0718 689.41C33.8433 684.959 37.1485 681.897 40.6582 678.644C41.6128 677.766 42.5866 676.867 43.5753 675.912C47.5008 671.997 51.2123 667.872 54.6935 663.557C60.7436 656.317 67.0021 648.847 75.4645 643.594C78.4682 641.732 81.5722 639.943 84.5782 638.222C89.4507 635.427 94.4887 632.537 99.1824 629.241C102.213 627.234 105.414 625.497 108.747 624.05C110.269 623.344 111.792 622.632 113.266 621.854C118.283 619.264 123.004 617.209 127.576 615.214C140.111 609.752 150.956 605.03 160.978 592.068C171.99 577.844 180.17 559.474 185.31 537.557C186.177 533.849 186.955 530.05 187.704 526.384C188.454 522.718 189.235 518.933 190.1 515.231C192.245 506.032 189.558 499.852 186.725 493.319C184.779 488.797 182.759 484.176 182.181 478.327C181.081 467.045 181.604 457.957 183.893 449.737C184.727 446.627 185.635 443.536 186.523 440.394C190.166 427.569 193.934 414.304 195.93 401.111C196.486 397.349 197.417 393.652 198.707 390.075C199.337 388.616 200.204 387.271 201.272 386.095C201.953 385.313 202.567 384.477 203.109 383.594C204.638 380.971 206.431 378.512 208.46 376.253C209.994 374.321 211.275 372.199 212.27 369.94C212.685 369.085 213.109 368.225 213.573 367.363L213.707 367.112C220.113 355.161 227.379 341.62 228.402 327.806C228.502 326.44 228.622 325.098 228.746 323.765C229.179 318.94 229.588 314.383 229.019 309.443C228.677 305.769 227.913 302.146 226.743 298.646C225.573 294.94 224.038 291.359 222.159 287.957C220.729 285.487 218.802 284.177 216.57 282.659C216.006 282.281 215.442 281.897 214.884 281.494C213.768 280.688 212.656 279.864 211.545 279.039C209.575 277.591 207.544 276.094 205.515 274.717C196.742 268.772 186.2 265.974 176.002 263.262L175.088 263.017C161.743 259.441 148.587 254.143 142.827 239.418C141.614 236.313 140.618 230.905 141.135 227.584C141.287 226.591 141.503 225.636 141.719 224.68C142.126 223.127 142.378 221.537 142.471 219.935C142.569 216.387 143.015 212.933 143.401 209.576C144.108 203.858 144.768 198.462 143.934 192.671C142.891 185.351 141.529 177.632 137.318 170.897C133.31 164.449 126.762 160.021 117.853 157.741C113.228 156.555 108.619 155.306 104.011 154.032C101.842 153.45 99.6605 152.866 97.4975 152.286C96.4595 152.008 95.4215 151.73 94.3897 151.454C92.9477 151.067 91.5057 150.681 90.0389 150.288C85.0815 148.899 82.3451 145.139 80.1678 141.729C73.8143 131.753 70.5259 120.531 67.3497 109.686C65.7182 104.015 63.9738 98.0936 61.8039 92.4185C55.4931 75.893 44.8652 64.018 26.2341 52.7986C22.1491 50.3173 17.7846 48.8545 12.5375 47.4285C11.5368 47.1604 10.5299 46.8906 9.53633 46.571C6.31805 45.6287 2.98335 44.6484 -0.370666 44.4365C-6.49096 44.0566 -12.8171 45.3151 -18.9226 46.546C-21.8106 47.1056 -24.8071 47.7228 -27.7222 48.1351C-37.6893 49.5314 -47.4981 54.5638 -56.9888 59.428C-59.946 60.9424 -62.7411 62.3737 -65.5343 63.6987C-70.6911 66.1372 -74.9739 69.69 -79.4228 75.2051C-80.89 77.0344 -82.3676 78.8609 -83.8555 80.6846C-86.491 83.932 -89.1344 87.184 -91.7269 90.4697C-93.8901 93.3818 -95.8658 96.4288 -97.642 99.5922C-102.081 107.11 -107.115 115.629 -114.328 118.456C-116.107 119.201 -117.84 120.05 -119.519 120.999C-121.477 122.12 -123.519 123.089 -125.625 123.897C-142.081 129.695 -160.494 124.748 -176.696 120.399L-178.729 119.855C-180.892 119.275 -183.08 118.689 -185.228 118.054C-190.758 116.492 -196.481 114.878 -202.173 113.82C-213.213 111.762 -223.55 111.379 -232.897 112.675C-242.584 114.019 -256.823 118.931 -264.221 125.43C-282.599 141.534 -291.506 157.075 -294.989 179.05C-296.094 186.008 -296.248 192.674 -296.407 199.731L-296.505 203.552C-296.829 215.153 -299.129 225.777 -301.614 237.013C-302.12 239.324 -302.627 241.641 -303.122 243.983C-305.219 253.975 -305.247 265.762 -305.103 273.754L-305.083 274.699C-304.937 281.859 -304.814 288.612 -305.758 295.74C-306.561 301.849 -307.753 307.901 -309.327 313.859Z" stroke="url(#paint9_linear_1_4551)" stroke-width="2" stroke-miterlimit="10"/>
</g>
<defs>
<linearGradient id="paint0_linear_1_4551" x1="1916.17" y1="1261.86" x2="2421.54" y2="970.082" gradientUnits="userSpaceOnUse">
<stop stop-color="#ECD9CF"/>
<stop offset="1" stop-color="#FFF0E9" stop-opacity="0"/>
</linearGradient>
<linearGradient id="paint1_linear_1_4551" x1="1899.31" y1="1275.9" x2="2433.09" y2="967.719" gradientUnits="userSpaceOnUse">
<stop stop-color="#ECD9CF"/>
<stop offset="1" stop-color="#FFF0E9" stop-opacity="0"/>
</linearGradient>
<linearGradient id="paint2_linear_1_4551" x1="1884.65" y1="1284.79" x2="2452.64" y2="956.862" gradientUnits="userSpaceOnUse">
<stop stop-color="#ECD9CF"/>
<stop offset="1" stop-color="#FFF0E9" stop-opacity="0"/>
</linearGradient>
<linearGradient id="paint3_linear_1_4551" x1="1855.12" y1="1296.24" x2="2475.39" y2="938.134" gradientUnits="userSpaceOnUse">
<stop stop-color="#ECD9CF"/>
<stop offset="1" stop-color="#FFF0E9" stop-opacity="0"/>
</linearGradient>
<linearGradient id="paint4_linear_1_4551" x1="1836.69" y1="1309.04" x2="2495.04" y2="928.941" gradientUnits="userSpaceOnUse">
<stop stop-color="#ECD9CF"/>
<stop offset="1" stop-color="#FFF0E9" stop-opacity="0"/>
</linearGradient>
<linearGradient id="paint5_linear_1_4551" x1="1813.83" y1="1323.1" x2="2520.58" y2="915.053" gradientUnits="userSpaceOnUse">
<stop stop-color="#ECD9CF"/>
<stop offset="1" stop-color="#FFF0E9" stop-opacity="0"/>
</linearGradient>
<linearGradient id="paint6_linear_1_4551" x1="176.369" y1="444.91" x2="-305.98" y2="315.665" gradientUnits="userSpaceOnUse">
<stop stop-color="#ECD9CF"/>
<stop offset="1" stop-color="#FFF0E9" stop-opacity="0"/>
</linearGradient>
<linearGradient id="paint7_linear_1_4551" x1="165.581" y1="420.063" x2="-312.341" y2="292.004" gradientUnits="userSpaceOnUse">
<stop stop-color="#ECD9CF"/>
<stop offset="1" stop-color="#FFF0E9" stop-opacity="0"/>
</linearGradient>
<linearGradient id="paint8_linear_1_4551" x1="191.764" y1="447.692" x2="-320.199" y2="310.512" gradientUnits="userSpaceOnUse">
<stop stop-color="#ECD9CF"/>
<stop offset="1" stop-color="#FFF0E9" stop-opacity="0"/>
</linearGradient>
<linearGradient id="paint9_linear_1_4551" x1="209.967" y1="452.031" x2="-339.64" y2="304.764" gradientUnits="userSpaceOnUse">
<stop stop-color="#ECD9CF"/>
<stop offset="1" stop-color="#FFF0E9" stop-opacity="0"/>
</linearGradient>
</defs>
</svg>
