<svg width="21" height="16" viewBox="0 0 21 16" fill="none" xmlns="http://www.w3.org/2000/svg">
<path d="M1.1665 6.83301H19.8332" stroke="#3B3A5D" stroke-width="1.5" stroke-linecap="round" stroke-linejoin="round"/>
<path d="M18.6665 12.667V14.417C18.6665 14.5717 18.5928 14.7201 18.4615 14.8295C18.3302 14.9389 18.1522 15.0003 17.9665 15.0003H15.8665C15.6809 15.0003 15.5028 14.9389 15.3715 14.8295C15.2403 14.7201 15.1665 14.5717 15.1665 14.417V12.667" stroke="#3B3A5D" stroke-width="1.5" stroke-linecap="round" stroke-linejoin="round"/>
<path d="M5.83301 12.667V14.417C5.83301 14.5717 5.75926 14.7201 5.62798 14.8295C5.49671 14.9389 5.31866 15.0003 5.13301 15.0003H3.03301C2.84736 15.0003 2.66931 14.9389 2.53803 14.8295C2.40676 14.7201 2.33301 14.5717 2.33301 14.417V12.667" stroke="#3B3A5D" stroke-width="1.5" stroke-linecap="round" stroke-linejoin="round"/>
<path d="M4.6665 9.16699H6.99984" stroke="#3B3A5D" stroke-width="1.5" stroke-linecap="round" stroke-linejoin="round"/>
<path d="M14 9.16699H16.3333" stroke="#3B3A5D" stroke-width="1.5" stroke-linecap="round" stroke-linejoin="round"/>
<path d="M18.6663 7.17647L16.1228 1.41176C16.07 1.28981 15.9832 1.18596 15.8729 1.11285C15.7627 1.03974 15.6337 1.00053 15.5018 1H5.49759C5.36564 1.00053 5.23668 1.03974 5.12642 1.11285C5.01617 1.18596 4.92937 1.28981 4.87658 1.41176L2.33301 7.17647V12.6667H18.6663V7.17647Z" stroke="#3B3A5D" stroke-width="1.5" stroke-linecap="round" stroke-linejoin="round"/>
</svg>
