<svg width="636" height="1161" viewBox="0 0 636 1161" fill="none" xmlns="http://www.w3.org/2000/svg">
<path d="M261.916 985.371C250.623 1007.01 237.545 1026.25 223.4 1041.56C215.771 1049.92 207.095 1057.03 197.639 1062.66C189.415 1067.75 181.508 1073.74 173.858 1079.52C167.331 1084.46 160.578 1089.55 153.622 1094.11C136.256 1105.45 123.717 1120.62 111.108 1144.69L110.098 1146.63C106.482 1153.55 103.84 1158.61 103.186 1166.94C100.457 1199.18 94.552 1231 85.5772 1261.83C67.6247 1324.07 31.3925 1366.71 -16.4378 1381.86C-75.2581 1400.5 -122.736 1389.68 -147.557 1373.34C-152.955 1369.78 -158.456 1365.8 -164.299 1361.56C-192.062 1341.42 -223.525 1318.59 -255.096 1336.06C-263.513 1340.73 -271.383 1346.76 -278.998 1352.61C-291.616 1362.31 -304.673 1372.33 -320.684 1376.44C-361.722 1387 -409.333 1360.92 -426.818 1318.33L-427.416 1316.87C-437.614 1292.03 -449.186 1263.87 -446.336 1236.18C-446.198 1234.68 -445.978 1233.08 -445.799 1231.53C-445.261 1227.7 -444.94 1223.84 -444.839 1219.96C-444.772 1207.03 -449.037 1183.87 -457.266 1174.01C-463.801 1166.16 -472.915 1160.51 -481.712 1155.05C-497.813 1145.06 -514.456 1134.73 -517.535 1110.48C-519.426 1095.49 -517.538 1080.14 -515.722 1065.28C-513.153 1044.27 -510.726 1024.44 -517.81 1005.01C-521.24 995.623 -527.074 987.447 -532.706 979.542C-539.168 970.488 -545.847 961.107 -549.209 949.677C-559.603 914.383 -560.007 875.52 -550.333 843.062C-543.686 820.789 -525.149 799.583 -507.885 781.778C-490.239 763.567 -477.492 737.475 -467.798 699.659L-466.335 700.119L-467.798 699.659C-464.009 684.891 -461.005 669.733 -458.232 655.457C-449.094 608.21 -423.65 559.052 -390.049 524.036C-352.42 484.703 -308.144 465.803 -265.18 470.714C-261.416 471.262 -257.7 472.157 -254.071 473.389C-250.082 474.792 -245.963 475.69 -241.791 476.067C-212.759 477.546 -185.95 460.751 -165.847 445.947C-130.499 419.92 -100.716 407.321 -61.412 424.865C-46.8005 431.117 -32.9304 439.309 -20.1062 449.263C-6.76189 459.606 2.82976 475.933 8.53316 487.812C10.1388 491.151 11.609 494.529 12.9916 497.883C15.3326 503.812 18.0892 509.529 21.2363 514.981C26.969 524.392 32.0763 535.495 37.4911 547.27C49.3029 572.966 61.5212 599.556 81.8146 611.882C98.6262 622.079 118.435 623.657 137.607 625.192C148.013 626.007 158.776 626.877 168.899 629.112C173.945 630.041 179.057 630.459 184.172 630.359C185.686 630.391 187.217 630.419 188.753 630.465C207.007 631.128 225.345 643.884 240.935 656.311C256.913 669.065 269.909 685.776 277.432 703.38C280.596 710.723 283.164 718.604 285.646 726.24C287.541 732.203 289.565 738.248 291.8 743.999L292.615 746.056C296.404 755.763 299.91 764.972 301.123 775.916C302.776 791.799 304.241 807.276 304.008 822.113C303.87 826.421 303.537 830.718 303.011 834.989C302.682 838.359 302.304 841.824 302.151 845.243C301.354 862.888 298.109 878.89 294.86 893.749C287.852 925.858 276.76 956.707 261.916 985.371V985.371ZM108.833 1142.33C121.484 1118.1 134.447 1102.77 152.086 1091.21C158.956 1086.71 165.669 1081.64 172.15 1076.73C179.853 1070.91 187.827 1064.9 196.167 1059.72C205.389 1054.24 213.848 1047.31 221.283 1039.15C253.115 1004.7 279.543 950.04 292 892.952C295.202 878.237 298.409 862.417 299.196 845.066C299.349 841.537 299.72 838.004 300.103 834.557C300.522 830.437 300.971 826.177 301.039 821.991C301.258 807.399 299.793 792.033 298.15 776.267C297.057 765.779 293.57 756.836 289.879 747.35L289.082 745.258C286.814 739.406 284.808 733.245 282.861 727.298C280.409 719.743 277.859 711.937 274.778 704.71C267.426 687.628 254.81 671.366 239.225 658.957C224.006 646.831 206.115 634.344 188.729 633.744C187.2 633.686 185.697 633.661 184.193 633.636C178.877 633.711 173.567 633.252 168.327 632.263C158.396 630.072 147.727 629.214 137.444 628.382C117.961 626.839 97.8037 625.245 80.4189 614.666C59.3082 601.85 46.8598 574.796 34.8456 548.637C29.4856 536.977 24.4133 525.944 18.7875 516.712C15.5409 511.125 12.6845 505.271 10.2433 499.201C8.86183 495.927 7.41932 492.55 5.85494 489.27C0.274329 477.786 -9.00091 461.867 -21.855 451.9C-34.4903 442.088 -48.1584 434.014 -62.5582 427.855C-100.621 410.867 -129.651 423.202 -164.177 448.613C-184.674 463.705 -212.028 480.833 -241.945 479.295C-246.311 478.904 -250.624 477.973 -254.803 476.518C-258.267 475.339 -261.814 474.478 -265.406 473.944C-307.427 469.144 -350.921 487.751 -387.865 526.35C-420.988 560.942 -446.151 609.424 -455.171 656.034C-457.941 670.359 -460.972 685.595 -464.786 700.442C-474.654 738.891 -487.661 765.482 -505.737 784.131C-522.718 801.642 -540.945 822.445 -547.364 844.008C-556.814 875.817 -556.434 913.904 -546.248 948.526C-543.049 959.392 -536.54 968.523 -530.249 977.356C-524.461 985.456 -518.51 993.819 -514.92 1003.64C-507.583 1023.92 -510.213 1045.14 -512.695 1065.68C-514.487 1080.3 -516.34 1095.41 -514.507 1109.94C-511.644 1132.55 -496.372 1141.97 -480.183 1152.07C-471.171 1157.67 -461.81 1163.47 -454.979 1171.68C-446.231 1182.2 -441.659 1206.47 -441.757 1219.95C-441.862 1223.98 -442.2 1228 -442.769 1231.98C-442.928 1233.46 -443.13 1235.03 -443.286 1236.56C-446.035 1263.32 -434.667 1291.04 -424.63 1315.48L-424.033 1316.94C-407.116 1358.15 -361.047 1383.38 -321.338 1373.17C-305.902 1369.2 -293.082 1359.36 -280.691 1349.85C-273 1343.94 -265.032 1337.83 -256.431 1333.06C-223.297 1314.72 -191.054 1338.12 -162.554 1358.79C-156.754 1363 -151.274 1366.98 -145.935 1370.48C-121.661 1386.47 -75.0952 1397.01 -17.1587 1378.69C29.6663 1363.85 65.185 1321.98 82.8035 1260.87C91.6983 1230.29 97.5497 1198.73 100.254 1166.75C100.959 1157.69 103.903 1152.08 107.563 1145.04L108.921 1142.44L108.833 1142.33Z" stroke="url(#paint0_linear_1_1422)" stroke-width="2" stroke-miterlimit="10"/>
<path d="M306.077 933.949C302.038 941.687 297.852 949.267 293.696 956.819L287.858 967.428C275.691 989.723 262.184 1013.38 245.881 1035.23C229.578 1057.09 210.261 1078.63 185.236 1102.9C182.397 1105.6 179.54 1108.33 176.67 1111.09C151.899 1134.69 126.278 1159.12 119.462 1195.4C118.846 1198.7 118.516 1202.13 118.193 1205.43C117.888 1209.3 117.372 1213.15 116.648 1216.95C115.955 1220.22 115.095 1223.49 114.264 1226.64C113.024 1231.05 112.002 1235.53 111.201 1240.05C109.402 1251.56 106.932 1262.93 104.557 1273.9C103.396 1279.25 102.233 1284.63 101.128 1290.06C98.2824 1304.62 93.4823 1318.62 86.8876 1331.61C85.5743 1334.12 84.2548 1336.65 82.9291 1339.19C74.5299 1355.47 65.818 1372.3 52.1424 1384.19L51.3387 1384.88C46.0385 1389.55 40.4827 1394.32 34.0834 1397.34C32.494 1398.08 30.9186 1398.77 29.3664 1399.44C25.2456 1401.07 21.2823 1403.15 17.5356 1405.65C5.3052 1414.27 -8.2011 1420.45 -22.3674 1423.9C-67.7511 1434.86 -97.8242 1420.02 -132.62 1402.77C-146.147 1396.08 -160.144 1389.17 -176.046 1383.27C-206.455 1371.98 -231.751 1369.85 -255.743 1376.68C-259.955 1378.06 -264.004 1379.99 -267.804 1382.43C-270.092 1383.77 -272.471 1385.15 -274.951 1386.33C-278.189 1387.87 -281.476 1389.21 -284.655 1390.5C-289.509 1392.35 -294.256 1394.53 -298.869 1397.02C-301.556 1398.55 -304.242 1400.16 -306.927 1401.77C-318.245 1408.56 -329.941 1415.55 -343.227 1417.15C-357.278 1418.62 -371.453 1417.45 -385.155 1413.7C-414.773 1405.75 -442.616 1379.05 -457.792 1344C-472.218 1310.71 -467.908 1277.41 -463.715 1245.17C-461.365 1226.95 -468.462 1216.69 -488.237 1209.71C-497.783 1206.34 -504.639 1203.1 -511.401 1196.5C-543.823 1165.13 -537.35 1133.01 -531.083 1101.95C-526.358 1078.53 -521.465 1054.29 -532.229 1029.25C-538.222 1015.31 -547.228 1003.58 -555.943 992.222C-566.318 978.697 -577.057 964.718 -583.058 946.708C-592.443 918.561 -594.087 881.702 -587.608 845.568C-581.317 810.563 -549.311 781.22 -523.598 757.654C-520.063 754.42 -516.663 751.306 -513.474 748.295C-491.756 727.858 -489.023 700.218 -486.137 670.967C-485.401 663.525 -484.634 655.803 -483.543 648.255C-480.332 626.419 -474.381 605.188 -465.861 585.174C-457.461 565.088 -446.402 546.497 -433.047 530.016C-410.28 502.195 -370.28 467.355 -336.28 456.597C-321.202 451.842 -305.666 452.791 -290.612 453.733C-274.013 454.839 -256.813 455.838 -240.561 449C-220.514 440.566 -203.671 425.656 -187.37 411.238C-163.46 390.112 -138.864 368.301 -103.933 366.729C-94.4706 366.316 -86.1161 369.452 -76.4982 374.28C-68.5108 378.289 -60.7115 382.742 -53.1301 387.621V387.621C-12.1448 414.158 9.20552 447.873 30.3637 493.665L31.462 495.949C51.5162 539.359 72.2565 584.252 115.283 601.696C127.524 606.681 140.699 608.781 150.778 610.122C161.395 611.474 173.799 610.582 186.877 609.74C211.234 608.078 236.428 606.349 254.335 618.386C291.893 643.62 317.535 701.692 328.095 743.738C333.631 766.012 336.477 788.996 336.56 812.092C336.698 837.166 333.756 860.574 327.801 881.662C322.696 900.081 314.75 917.334 306.077 933.949ZM126.741 1165.45C138.35 1143.21 156.751 1125.67 174.702 1108.55C177.566 1105.81 180.418 1103.09 183.257 1100.39C208.157 1076.24 227.322 1054.85 243.559 1033.1C259.795 1011.35 273.179 987.898 285.28 965.703L291.124 955.082C304.095 931.576 317.515 907.264 325.022 880.679C331.053 858.448 333.951 835.321 333.616 812.111C333.536 789.309 330.723 766.618 325.253 744.63C314.845 703.17 289.651 645.94 252.853 621.253C235.749 609.761 211.046 611.455 187.152 613.08C173.915 613.979 161.402 614.834 150.538 613.434C140.258 612.123 126.846 609.983 114.311 604.874C70.1847 586.932 49.176 541.457 28.8472 497.476L27.749 495.192C6.81781 449.924 -14.2604 416.621 -54.5909 390.502C-62.083 385.679 -69.7929 381.284 -77.6906 377.332C-86.9187 372.689 -94.8801 369.678 -103.748 370.076C-137.682 371.603 -160.882 392.138 -185.412 413.849C-201.889 428.44 -218.93 443.509 -239.427 452.145C-256.286 459.244 -273.798 458.157 -290.696 457.129C-305.479 456.218 -320.795 455.314 -335.358 459.876C-368.787 470.445 -408.218 504.825 -430.705 532.303C-443.86 548.543 -454.753 566.861 -463.025 586.653C-471.426 606.385 -477.294 627.318 -480.459 648.847C-481.502 656.331 -482.299 663.971 -483.033 671.383C-485.852 700.012 -488.774 729.604 -511.416 750.907C-514.622 753.923 -518.039 757.042 -521.551 760.259C-546.901 783.487 -578.451 812.393 -584.523 846.24C-590.885 881.737 -589.297 917.991 -580.12 945.577C-574.307 963.041 -563.749 976.793 -553.535 990.104C-544.701 1001.62 -535.554 1013.52 -529.399 1027.86C-518.217 1053.99 -523.193 1078.74 -528.027 1102.73C-534.426 1134.18 -540.378 1163.96 -509.318 1194.02C-502.959 1200.18 -496.406 1203.26 -487.227 1206.54C-472.253 1211.83 -457.363 1220.63 -460.633 1245.68C-464.759 1277.41 -469.004 1310.23 -454.992 1342.64C-440.195 1376.79 -413.137 1402.81 -384.383 1410.52C-371.019 1414.18 -357.194 1415.32 -343.489 1413.9C-330.808 1412.39 -319.393 1405.55 -308.322 1398.9C-305.613 1397.28 -302.91 1395.66 -300.2 1394.12C-295.477 1391.56 -290.616 1389.33 -285.645 1387.43C-282.505 1386.16 -279.252 1384.84 -276.094 1383.34C-273.728 1382.21 -271.407 1380.86 -269.158 1379.54C-265.149 1376.98 -260.879 1374.96 -256.438 1373.52C-231.897 1366.59 -206.04 1368.72 -175.053 1380.22C-159.004 1386.16 -144.942 1393.12 -131.351 1399.85C-97.0295 1416.83 -67.3908 1431.48 -22.9858 1420.76C-9.15475 1417.38 4.02942 1411.34 15.9626 1402.9C19.8834 1400.3 24.0278 1398.13 28.3355 1396.42C29.8353 1395.8 31.4123 1395.08 32.9679 1394.35C39.0021 1391.51 44.3577 1386.84 49.5435 1382.34L50.3472 1381.65C63.5141 1370.13 72.1186 1353.65 80.3708 1337.62L84.3416 1330.01C90.832 1317.36 95.5185 1303.67 98.2358 1289.44C99.3527 1283.98 100.515 1278.6 101.683 1273.23C104.05 1262.31 106.506 1251 108.283 1239.58C109.101 1234.92 110.154 1230.31 111.44 1225.77C112.264 1222.66 113.109 1219.45 113.812 1216.21C114.505 1212.55 115.006 1208.84 115.311 1205.11C115.595 1201.64 116.035 1198.19 116.631 1194.77C118.557 1184.46 121.97 1174.56 126.741 1165.45V1165.45Z" stroke="url(#paint1_linear_1_1422)" stroke-width="2" stroke-miterlimit="10"/>
<path d="M337.923 939.303C327.596 959.088 314.848 977.343 302.479 995.065L296.261 1003.99C287.912 1016.07 280.691 1025.87 270.072 1033.63C259.252 1041.54 251.391 1050.76 242.957 1061.13C196.716 1117.93 153.848 1174.76 137.34 1245.3C134.932 1255.62 133.123 1266.35 131.415 1276.64C128.787 1292.63 125.988 1309.12 120.849 1324.75C115.311 1341.58 107.29 1357.45 99.5467 1372.77C94.6636 1382.46 89.6025 1392.45 85.2464 1402.55C57.3379 1467.26 -18.3968 1478.38 -81.1309 1460.76C-92.3613 1457.61 -102.288 1450.89 -111.888 1444.39L-114.49 1442.63C-130.074 1432.14 -152.742 1418.21 -172.292 1411.56C-182.855 1407.98 -194.07 1406.69 -203.585 1405.98C-225.999 1404.25 -245.147 1417.69 -263.681 1430.66C-276.993 1440 -290.762 1449.66 -305.784 1453.77C-309.169 1454.77 -312.492 1455.66 -315.821 1456.55C-353.88 1467.33 -383.939 1475.83 -419.803 1446.28C-442.953 1427.21 -472.564 1397 -482.207 1361.42C-488.554 1337.95 -493.432 1312.87 -486.074 1288.58C-485.174 1285.84 -484.069 1283.19 -482.768 1280.66C-481.394 1278.02 -480.273 1275.23 -479.424 1272.33C-473.719 1249.75 -489.673 1244.44 -506.574 1238.81C-514.454 1236.2 -521.92 1233.75 -527.265 1229.44C-544.44 1215.75 -552.697 1201.99 -555.048 1183.34C-557.19 1166.26 -555.79 1145.37 -550.858 1121.29C-548.221 1108.4 -545.764 1096.37 -546.39 1083.27C-546.89 1070.35 -548.862 1057.55 -552.261 1045.18C-558.048 1025.51 -570.678 1011.94 -583.935 997.652C-590.633 990.704 -596.94 983.31 -602.822 975.51C-617.629 955.119 -625.917 929.555 -627.467 899.526C-630.496 840.48 -596.42 808.388 -560.257 774.465L-554.812 769.349C-552.459 767.117 -550.093 764.941 -547.761 762.775C-529.421 745.811 -512.104 729.794 -506.237 702.903C-503.537 690.385 -503.548 677.085 -503.596 664.268C-503.644 651.451 -503.686 637.909 -500.907 624.966C-493.587 590.934 -478.38 559.579 -463.667 529.254L-459.397 520.444C-430.108 459.755 -394.729 431.882 -341.088 427.319C-319.168 425.64 -297.171 425.572 -275.243 427.115C-261.416 428.033 -249.55 420.703 -239.771 413.37C-227.772 404.416 -217.04 394.654 -206.682 385.253C-187.673 368.022 -169.758 351.706 -145.16 340.432C-141.984 338.979 -138.847 337.437 -135.705 335.884C-129.36 332.614 -122.857 329.735 -116.225 327.26C-90.7973 318.179 -61.363 327.623 -31.0091 354.381C2.24996 383.66 23.4318 421.193 29.2278 432.016C32.2582 437.749 35.2022 443.949 38.7606 452.124C42.0192 459.586 45.0857 467.415 48.4806 475.739C59.5469 503.489 72.0935 534.954 91.3571 554.345C105.916 568.991 125.915 573.597 140.15 574.886C158.168 576.518 178.508 574.853 198.962 570.064C205.861 568.441 214.032 566.902 222.365 567.602C253.69 570.436 290.081 595.195 308.423 617.036C333.631 647.076 349.417 675.213 358.072 705.554L359.663 711.112C365.679 731.902 371.916 753.419 370.57 774.936C370.215 780.659 369.439 786.367 368.696 791.874C367.871 797.978 367.018 804.27 366.746 810.521C365.583 837.531 362.043 864.352 356.176 890.603C352.892 905.185 347.914 919.235 341.368 932.403C340.239 934.784 339.094 937.06 337.923 939.303ZM161.91 1171.76C182.818 1131.7 211.067 1095.29 240.698 1058.88C248.959 1048.73 257.3 1038.94 268.404 1030.83C278.629 1023.35 285.69 1013.75 293.862 1001.95C295.923 998.965 298.005 995.99 300.087 993.015C313.781 973.386 327.964 953.12 338.667 930.916C345.091 918.003 349.979 904.226 353.21 889.927C359.022 863.876 362.536 837.262 363.701 810.46C364.069 804.1 364.726 797.764 365.67 791.477C366.41 786.031 367.166 780.389 367.519 774.807C368.808 753.919 362.676 732.722 356.75 712.226L355.148 706.662C346.606 676.789 331.026 649.052 306.136 619.39C288.186 598.004 252.668 573.819 222.052 571.026C214.131 570.304 206.24 571.8 199.544 573.363C178.814 578.214 158.173 579.907 139.85 578.255C118.783 576.354 101.289 568.948 89.2784 556.848C69.5894 537.01 56.8523 505.171 45.675 477.112C42.3569 468.806 39.2351 460.973 36.0194 453.539C32.4961 445.433 29.5872 439.303 26.5856 433.651C14.952 411.647 -6.77895 379.935 -32.8743 356.941C-53.4492 338.801 -84.4663 319.452 -115.268 330.388C-121.805 332.855 -128.216 335.713 -134.472 338.949C-137.632 340.508 -140.798 342.078 -144.019 343.535C-168.183 354.61 -185.951 370.751 -204.769 387.836C-215.191 397.306 -225.97 407.102 -238.127 416.113C-248.304 423.715 -260.702 431.352 -275.449 430.386C-297.232 428.88 -319.082 428.978 -340.854 430.681C-393.341 435.142 -428.003 462.492 -456.725 522.04L-460.995 530.85C-475.608 560.985 -490.727 592.143 -497.959 625.758C-500.648 638.283 -500.611 651.505 -500.565 664.272C-500.517 677.28 -500.47 690.73 -503.293 703.676C-509.332 731.691 -527.082 748.017 -545.813 765.348C-548.145 767.514 -550.501 769.697 -552.854 771.929L-558.305 777.056C-593.801 810.361 -627.39 841.957 -624.413 899.293C-622.907 928.613 -614.829 953.537 -600.446 973.372C-594.609 981.073 -588.355 988.376 -581.717 995.239C-568.732 1009.23 -555.296 1023.69 -549.284 1044.13C-545.79 1056.79 -543.755 1069.88 -543.229 1083.1C-542.578 1096.68 -545.085 1108.91 -547.731 1121.88C-552.618 1145.74 -554.007 1166.21 -551.909 1182.89C-549.688 1200.56 -541.751 1213.67 -525.359 1226.75C-520.411 1230.7 -513.209 1233.1 -505.575 1235.63C-488.842 1241.2 -469.862 1247.52 -476.378 1273.27C-477.279 1276.4 -478.485 1279.42 -479.975 1282.27C-481.187 1284.64 -482.222 1287.12 -483.069 1289.68C-490.151 1313.08 -485.385 1337.55 -479.175 1360.49C-469.774 1395.19 -440.649 1424.85 -417.86 1443.63C-383.16 1472.23 -353.726 1463.89 -316.456 1453.33C-313.127 1452.43 -309.773 1451.49 -306.413 1450.53C-291.891 1446.53 -278.347 1437.03 -265.223 1427.78C-246.308 1414.54 -226.774 1400.71 -203.316 1402.56C-193.576 1403.3 -182.176 1404.57 -171.337 1408.28C-151.5 1415.06 -128.577 1429.11 -112.843 1439.7L-110.241 1441.46C-100.834 1447.83 -91.1051 1454.4 -80.2998 1457.41C-18.7738 1474.69 55.4443 1463.9 82.5923 1401.03C86.9873 1390.83 92.0686 1380.77 96.9811 1371.05C104.668 1355.83 112.617 1340.08 118.08 1323.51C123.132 1308.16 125.858 1291.78 128.506 1275.93C130.252 1265.54 132.04 1254.8 134.476 1244.38C140.597 1218.91 149.827 1194.47 161.91 1171.76Z" stroke="url(#paint2_linear_1_1422)" stroke-width="2" stroke-miterlimit="10"/>
<path d="M373.401 957.609C372.57 959.201 371.733 960.804 370.728 962.347C368.054 966.674 365.378 971.062 362.706 975.469C346.056 1002.84 328.913 1031.03 306.628 1052.95C297.83 1061.59 288.344 1069.51 279.149 1077.18C263.451 1090.29 247.214 1103.84 234.427 1121.08C218.408 1142.69 206.894 1168.12 195.763 1192.74C192.613 1199.7 189.468 1206.66 186.211 1213.56C172.608 1242.36 166.153 1272.73 159.908 1302.09C155.069 1324.81 150.077 1348.33 141.773 1371.28C136.592 1385.64 129.213 1399.4 122.08 1412.7C120.555 1415.63 118.978 1418.48 117.461 1421.36C99.7061 1455.05 68.1468 1493.21 32.8215 1499.31C29.4595 1499.89 26.0665 1500.52 22.6798 1501.15C9.53403 1503.62 -4.09637 1506.22 -17.5968 1505.83C-40.1911 1505.28 -59.5025 1501.53 -75.0948 1494.63C-93.0721 1486.68 -110.12 1474.92 -126.611 1463.55C-133.1 1459.08 -139.807 1454.44 -146.396 1450.19C-169.561 1435.19 -191.185 1428.14 -210.644 1429.23C-228.221 1430.21 -237.285 1438.23 -247.795 1447.52C-253.457 1452.76 -259.523 1457.45 -265.923 1461.53C-269.799 1463.77 -273.811 1465.7 -277.93 1467.32C-280.95 1468.56 -284.128 1469.94 -287.044 1471.5C-291.285 1473.93 -295.342 1476.73 -299.176 1479.89C-302.407 1482.49 -305.763 1484.89 -309.228 1487.09C-364.544 1520.78 -442.485 1491.69 -482.963 1445.41C-491.285 1435.9 -496.822 1425.08 -502.696 1413.61L-503.208 1412.62C-518.753 1382.31 -510.8 1353.18 -502.425 1322.31L-500.569 1315.47C-492.469 1285.18 -514.402 1270.89 -535.622 1257.07C-540.031 1254.26 -544.154 1251.5 -548.051 1248.66C-578.074 1226.72 -588.6 1198.71 -580.277 1163.01C-579.176 1158.29 -578.13 1153.58 -577.09 1148.87C-574.598 1137.6 -572.008 1125.96 -568.735 1114.62C-562.433 1092.84 -559.93 1077.12 -564.804 1056.39C-571.392 1028.35 -583.016 1015.16 -605.005 997.828C-610.309 993.633 -616.248 989.666 -622.524 985.468C-642.831 971.898 -665.842 956.522 -670.531 929.472C-681.878 864.596 -640.813 809.926 -603.776 769.55L-602.707 768.38C-561.58 723.537 -534.423 693.924 -534.021 626.843C-533.865 600.02 -526.146 574.353 -517.541 548.222C-493.788 475.972 -450.453 422.435 -398.797 401.292C-377.631 392.637 -355.151 393.247 -333.396 393.821C-309.706 394.443 -285.219 395.099 -262.908 383.565C-246.291 374.967 -227.087 359.247 -210.205 340.413C-206.473 335.996 -203.177 331.151 -200.373 325.962C-198.622 322.962 -196.814 319.856 -194.726 316.787C-178.369 292.82 -152.411 275.506 -125.292 270.463C-96.9675 265.192 -65.1978 270.419 -40.2445 284.486L-34.7012 287.567C-25.2686 292.814 -16.2131 298.154 -9.31806 305.55C12.4496 328.953 41.24 366.659 54.5946 413.798C56.8568 421.767 59.0226 429.976 61.0652 437.9C68.5467 466.56 76.2851 496.207 91.3526 521.65C95.2346 528.215 101.255 537.808 108.619 545.346C115.541 552.363 122.232 554.039 130.91 555.717C133.636 556.222 136.273 556.924 138.812 557.595C144.399 559.057 149.686 560.437 155.494 559.997C160.448 559.63 164.762 557.997 169.368 556.188C173.228 554.56 177.218 553.338 181.285 552.538C190.248 551.04 199.167 546.996 208.603 542.729C225.366 535.11 242.714 527.248 260.437 534.781C320.837 560.43 352.552 623.031 375.607 680.877C376.859 683.957 378.143 686.978 379.341 689.945C383.933 700.875 388.672 712.184 390.673 724.626C393.828 744.093 394.675 763.733 395.465 782.798C396.266 800.445 396.994 818.616 399.614 836.474C400.01 839.197 400.488 841.926 400.966 844.654C402.3 852.347 403.69 860.314 403.399 868.38C403.109 876.445 401.025 884.41 398.992 892.059C398.245 894.861 397.504 897.65 396.852 900.433C394.459 910.497 390.953 918.092 386.844 926.84L384.694 931.453C383.006 935.126 381.539 938.813 380.094 942.404C378.112 947.602 375.878 952.678 373.401 957.609V957.609ZM211.385 1152.67C217.444 1140.82 224.369 1129.55 232.089 1118.95C245.093 1101.41 261.488 1087.73 277.331 1074.5C286.479 1066.87 295.93 1058.98 304.606 1050.44C326.615 1028.8 343.679 1000.74 360.183 973.588L368.217 960.443C371.794 954.302 374.846 947.804 377.332 941.036C378.785 937.403 380.295 933.632 382.002 929.924L384.165 925.287C388.162 916.753 391.66 909.311 393.918 899.588C394.546 896.822 395.336 893.938 396.091 891.094C398.068 883.662 400.116 875.959 400.376 868.254C400.636 860.549 399.27 852.835 398.024 845.357C397.537 842.591 397.061 839.832 396.629 837.07C393.984 819.038 393.197 800.734 392.444 783.023C391.641 764.092 390.801 744.52 387.691 725.161C385.749 713.152 381.306 702.539 376.585 691.305C375.308 688.272 374.031 685.239 372.832 682.193C350.026 624.965 318.71 563.079 259.362 537.88C242.763 530.827 225.989 538.438 209.762 545.797C200.575 549.97 191.043 554.257 181.737 555.836C177.867 556.604 174.072 557.782 170.405 559.352C165.702 561.431 160.762 562.78 155.726 563.361C149.456 563.838 143.693 562.328 138.127 560.88C135.616 560.21 133.086 559.577 130.418 559.044C121.512 557.364 114.095 555.462 106.584 547.847C99.074 540.232 92.7744 530.27 88.8008 523.552C73.4955 497.687 65.6982 467.797 58.1471 438.887C56.0814 430.98 53.9477 422.792 51.7053 414.867C38.512 368.433 10.0888 331.119 -11.4405 308.027C-18.0311 300.952 -26.8508 295.763 -36.0733 290.634L-37.9098 289.603L-41.589 287.555C-65.9613 273.828 -97.0599 268.712 -124.762 273.858C-150.753 278.687 -176.624 295.945 -192.277 318.89C-194.298 321.859 -196.081 324.918 -197.801 327.857C-200.716 333.245 -204.144 338.271 -208.029 342.848C-225.172 361.99 -244.666 377.937 -261.608 386.692C-284.558 398.546 -309.406 397.897 -333.445 397.258C-354.917 396.69 -377.11 396.106 -397.708 404.522C-448.594 425.285 -491.197 478.133 -514.666 549.456C-523.161 575.293 -530.808 600.657 -530.961 626.928C-531.397 695.333 -558.952 725.326 -600.579 770.768L-601.647 771.939C-671.114 847.699 -673.413 895.562 -667.634 928.772C-663.197 954.442 -641.689 968.779 -621.013 982.6C-614.645 986.841 -608.702 990.827 -603.29 995.091C-580.695 1012.91 -568.738 1026.5 -561.905 1055.55C-556.847 1077.07 -559.398 1093.28 -565.883 1115.65C-569.146 1126.91 -571.705 1138.5 -574.194 1149.71C-575.229 1154.43 -576.27 1159.17 -577.389 1163.89C-585.344 1198.03 -575.214 1224.85 -546.423 1245.9C-542.597 1248.71 -538.486 1251.38 -534.134 1254.22C-512.946 1268.02 -488.934 1283.67 -497.715 1316.47L-499.577 1323.32C-507.795 1353.46 -515.513 1381.94 -500.643 1411L-500.131 1411.99C-494.358 1423.26 -488.912 1433.9 -480.861 1443.11C-429.856 1501.42 -352.861 1509.82 -310.756 1484.18C-307.391 1482.04 -304.132 1479.7 -300.993 1477.17C-297.011 1473.91 -292.793 1471.02 -288.38 1468.52C-285.35 1466.91 -282.134 1465.54 -278.999 1464.25C-275.016 1462.69 -271.136 1460.82 -267.387 1458.66C-261.11 1454.64 -255.163 1450.01 -249.613 1444.83C-239.15 1435.58 -229.27 1426.85 -210.718 1425.8C-190.69 1424.67 -168.509 1431.89 -144.813 1447.21C-138.162 1451.46 -131.451 1456.14 -124.952 1460.62C-108.579 1471.92 -91.6385 1483.6 -73.9158 1491.44C-58.6594 1498.19 -39.6612 1501.88 -17.4755 1502.4C-4.23761 1502.71 9.21571 1500.2 22.2261 1497.77C25.6359 1497.13 29.0289 1496.49 32.4078 1495.91C66.6795 1489.99 97.4917 1452.6 114.893 1419.6C116.399 1416.71 117.918 1413.8 119.525 1410.91C126.602 1397.71 133.919 1384.08 139.014 1369.96C147.205 1347.25 152.184 1323.88 156.999 1301.28C163.295 1271.71 169.8 1241.13 183.588 1211.98C186.827 1205.11 189.966 1198.17 193.104 1191.23C198.881 1178.35 204.795 1165.29 211.404 1152.63L211.385 1152.67Z" stroke="url(#paint3_linear_1_1422)" stroke-width="2" stroke-miterlimit="10"/>
<path d="M410.118 951.42C404.24 962.682 396.073 973.147 388.152 983.278C386.846 984.959 385.54 986.61 384.28 988.257C363.403 1015.29 340.31 1043.55 312.902 1067.25C299.594 1078.76 287.847 1089.43 278.903 1103.38C272.202 1113.83 264.858 1123.76 257.771 1133.37C243.229 1153 229.526 1171.58 220.157 1194.93L216.401 1204.21C213.494 1211.34 210.491 1218.71 207.775 1226.02C199.545 1248.09 194.746 1272.75 190.108 1296.58C188.039 1307.2 185.895 1318.19 183.459 1328.72C182.253 1334.49 181.344 1340.34 180.734 1346.22C179.832 1353.76 178.893 1361.56 176.672 1368.94L176.465 1369.59C172.51 1382.65 168.434 1396.1 160.261 1407.29C154.87 1415.04 149.925 1423.16 145.454 1431.6C137.297 1446.3 128.852 1461.49 116.225 1471.7C109.415 1477.21 102.886 1483.06 96.5738 1488.71C73.8894 1509.03 52.4651 1528.23 20.135 1530.98C-19.4132 1534.38 -52.6102 1527.01 -87.562 1507.05C-91.4126 1504.86 -95.3465 1502.77 -99.2053 1500.74C-105.346 1497.48 -111.693 1494.12 -117.734 1490.26C-121.297 1487.99 -124.815 1485.6 -128.348 1483.19C-135.158 1478.33 -142.22 1473.92 -149.499 1469.98C-162.737 1463.19 -172.942 1462.81 -184.813 1462.33C-191.297 1462.2 -197.77 1461.66 -204.199 1460.71C-211.673 1459.52 -214.61 1459.52 -220.676 1464.32C-249.248 1486.85 -273.28 1504.08 -296.318 1518.53C-315.092 1530.4 -341.099 1535.63 -359.105 1536.6C-365.102 1536.79 -371.105 1536.6 -377.083 1536.03C-381.225 1535.74 -385.562 1535.36 -389.819 1535.35C-392.359 1535.31 -394.857 1535.3 -397.333 1535.3C-410.821 1535.37 -423.565 1535.45 -437.127 1529.82C-475.447 1513.93 -510.382 1474.39 -526.118 1429.07C-529.998 1417.89 -529.234 1406.86 -528.119 1396.53C-526.957 1387.56 -525.252 1378.69 -523.017 1369.98C-519.206 1353.74 -515.266 1336.95 -518.833 1320.21C-523.012 1300.61 -537.172 1291.37 -552.133 1281.54C-555.868 1279.16 -559.683 1276.63 -563.309 1273.98C-580.235 1261.59 -601.347 1246.22 -607.181 1222.86C-612.691 1201.4 -602.778 1176.21 -594.066 1154.04C-591.119 1146.58 -588.345 1139.54 -586.306 1133.06C-585.486 1130.42 -584.389 1127.69 -583.343 1125.08C-581.492 1120.44 -579.585 1115.66 -578.958 1110.95C-572.618 1063.61 -608.939 1037.25 -647.541 1009.26C-675.044 989.305 -703.481 968.676 -714.898 939.645C-718.778 929.699 -719.932 915.735 -719.304 906.31C-718.884 899.775 -716.709 893.553 -714.602 887.541L-713.871 885.429C-702.252 851.71 -681.382 815.703 -650.113 775.451C-645.372 769.624 -640.278 764.16 -634.866 759.097C-632.638 756.912 -630.416 754.739 -628.259 752.525C-583.462 706.451 -555.168 643.555 -552.569 584.299C-552.397 580.516 -552.409 576.648 -552.429 572.901C-552.593 566.263 -552.302 559.62 -551.557 553.031C-548.245 528.565 -533.107 501.428 -520.946 479.638L-517.538 473.492C-511.317 462.259 -503.99 451.923 -496.909 441.92C-492.598 435.828 -488.138 429.53 -483.976 423.091L-482.879 421.402C-478.279 414.26 -473.928 407.514 -467.415 401.753C-447.705 384.277 -425.963 371.927 -407.267 362.095C-384.587 350.17 -364.738 352.657 -341.772 355.535C-338.76 355.876 -335.694 356.252 -332.595 356.649C-285.487 362.065 -248.68 328.119 -213.084 295.313C-195.847 279.423 -178.013 262.964 -159.455 251.588C-129.321 233.111 -87.8139 231.88 -36.0639 247.95C-34.0224 248.59 -32.0005 249.285 -29.9983 250.036C7.42643 264.11 45.8327 300.234 63.4067 337.865C66.9393 345.783 70.0535 353.921 72.7336 362.238C74.3912 367.094 76.0897 372.119 77.9443 376.926C79.4915 380.952 81.1894 384.964 82.8448 388.837C86.1884 396.262 89.0818 403.924 91.5056 411.773C93.0309 417.093 94.5427 422.42 96.0412 427.755C102.516 450.575 109.227 474.149 116.797 497.036C121.177 510.245 125.43 520.793 136.67 526.452C159.522 537.881 182.191 527.674 204.155 517.777C215.788 512.595 227.834 507.171 239.775 505.018C277.615 498.313 312.736 519.239 347.128 569.002C349.306 572.149 351.513 575.267 353.688 578.365C360.593 588.107 367.736 598.19 373.684 608.998C375.857 613.194 377.61 617.64 378.911 622.257C379.637 624.54 380.361 626.853 381.255 629.196C382.159 631.483 383.172 633.714 384.29 635.882C385.913 638.969 387.274 642.217 388.356 645.582C393.203 662.364 399.292 678.989 405.193 695.068C412.94 716.217 420.943 738.084 426.289 760.627C436.013 801.647 436.855 849.43 428.687 895.068C425.293 913.421 419.623 931.167 411.835 947.802C411.328 949.076 410.725 950.257 410.118 951.42ZM224.648 1177.91C233.537 1160.88 244.631 1145.88 255.443 1131.25C262.512 1121.68 269.868 1111.84 276.448 1101.45C285.623 1087.13 298.064 1075.85 311.058 1064.61C338.256 1041.1 361.225 1012.96 381.994 986.086L385.889 981.089C394.521 970.035 403.458 958.559 409.222 946.339C416.866 929.979 422.438 912.534 425.781 894.494C433.876 849.3 433.053 802.082 423.448 761.519C418.165 739.158 410.177 717.427 402.469 696.366C396.576 680.245 390.441 663.543 385.507 646.627C384.494 643.461 383.213 640.407 381.682 637.507C380.511 635.237 379.454 632.898 378.514 630.5C377.602 628.082 376.849 625.686 376.108 623.378C374.889 618.972 373.231 614.729 371.164 610.727C365.274 600.083 358.22 590.104 351.367 580.427C349.149 577.302 346.931 574.177 344.749 571.011C311.098 522.322 276.92 501.809 240.297 508.294C228.682 510.371 216.773 515.724 205.255 520.932C182.758 531.138 159.407 541.636 135.391 529.559C123.07 523.368 118.551 512.207 113.916 498.251C106.31 475.324 99.5974 451.671 93.1139 428.812L88.5721 412.843C86.1983 405.12 83.3593 397.583 80.0742 390.28C78.4143 386.388 76.6904 382.344 75.1296 378.262C73.2569 373.379 71.5324 368.322 69.8764 363.436C67.2404 355.215 64.1788 347.168 60.7067 339.337C43.4666 302.41 5.77223 266.977 -30.9665 253.152C-32.9139 252.415 -34.8816 251.743 -36.874 251.12C-87.8166 235.312 -128.562 236.427 -157.974 254.48C-176.279 265.701 -194.021 282.092 -211.129 297.844C-247.216 331.126 -284.537 365.536 -332.908 359.961C-336.017 359.558 -339.083 359.182 -342.107 358.834C-364.614 356.011 -384.055 353.564 -405.946 365.075C-424.488 374.831 -446.065 387.112 -465.511 404.329C-471.728 409.852 -475.928 416.363 -480.395 423.304L-481.492 424.993C-485.696 431.485 -490.169 437.806 -494.508 443.927C-501.536 453.854 -508.808 464.114 -514.932 475.188L-518.357 481.339C-530.377 502.887 -545.324 529.686 -548.556 553.476C-549.267 559.899 -549.542 566.372 -549.378 572.84C-549.366 576.629 -549.351 580.547 -549.521 584.41C-552.171 644.584 -580.832 708.32 -626.162 755.004C-628.331 757.242 -630.576 759.431 -632.827 761.633C-638.129 766.599 -643.125 771.95 -647.784 777.651C-678.865 817.596 -699.525 853.23 -711.043 886.618L-711.732 888.788C-713.75 894.572 -715.839 900.548 -716.233 906.594C-716.805 915.31 -715.746 928.961 -712.058 938.342C-700.98 966.46 -672.959 986.791 -645.82 1006.48C-608.18 1033.79 -569.235 1062.03 -575.857 1111.51C-576.541 1116.65 -578.539 1121.66 -580.477 1126.5C-581.537 1129.16 -582.546 1131.7 -583.314 1134.18C-585.338 1140.8 -588.192 1147.88 -591.158 1155.4C-599.692 1177.04 -609.381 1201.58 -604.267 1222.05C-598.674 1244.23 -578.168 1259.19 -561.65 1271.24C-558.078 1273.85 -554.287 1276.32 -550.604 1278.72C-535.731 1288.44 -520.337 1298.48 -515.867 1319.46C-512.149 1337.01 -516.162 1354.21 -520.066 1370.85C-522.27 1379.41 -523.952 1388.13 -525.099 1396.94C-526.256 1406.91 -526.955 1417.46 -523.352 1427.91C-507.918 1472.35 -473.681 1511.15 -436.138 1526.72C-423.08 1532.13 -410.608 1532.06 -397.398 1532C-394.912 1532 -392.403 1532.02 -389.809 1531.99C-385.524 1532 -381.119 1532.36 -376.9 1532.67C-371.03 1533.24 -365.135 1533.43 -359.245 1533.25C-341.58 1532.3 -316.123 1527.19 -297.681 1515.6C-274.729 1501.21 -250.789 1484.04 -222.271 1461.59C-215.388 1456.16 -211.484 1456.14 -203.603 1457.41C-197.28 1458.33 -190.914 1458.86 -184.537 1458.98C-172.87 1459.44 -161.853 1459.88 -148.058 1466.94C-140.671 1470.94 -133.502 1475.41 -126.589 1480.34C-123.099 1482.72 -119.609 1485.11 -116.062 1487.36C-110.116 1491.16 -103.83 1494.49 -97.7426 1497.72C-93.8132 1499.78 -89.89 1501.86 -86.0135 1504.08C-51.6428 1523.71 -18.9449 1530.96 20.0176 1527.62C51.373 1524.92 72.4411 1506.05 94.7522 1486.06C101.094 1480.38 107.652 1474.5 114.515 1468.95C126.665 1459.13 134.945 1444.23 142.96 1429.8C147.483 1421.23 152.5 1413 157.98 1405.14C165.807 1394.47 169.622 1381.85 173.672 1368.47L173.873 1367.84C176.023 1360.73 176.948 1353.09 177.832 1345.7C178.453 1339.68 179.387 1333.71 180.627 1327.82C183.011 1317.41 185.143 1306.44 187.21 1295.85C191.849 1271.91 196.703 1247.07 205.036 1224.72C207.772 1217.37 210.787 1209.97 213.695 1202.81L217.456 1193.55C219.59 1188.2 221.979 1182.99 224.614 1177.92L224.648 1177.91Z" stroke="url(#paint4_linear_1_1422)" stroke-width="2" stroke-miterlimit="10"/>
<path d="M431.418 996.888C428.859 1001.79 426.01 1006.4 423.082 1011.16L419.365 1017.24C409.487 1033.73 393.78 1050.07 379.926 1064.47L373.561 1071.19C367.579 1077.23 361.284 1082.89 354.708 1088.13C352.235 1090.13 349.827 1092.17 347.423 1094.22C294.062 1140.02 262.549 1182.64 242.099 1236.78C236.859 1250.65 233.772 1264.51 230.515 1279.16L230.074 1281.13C226.361 1297.83 220.381 1322.3 211.35 1341.98C209.276 1346.53 207.172 1351.03 205.08 1355.5C194.967 1377.12 185.413 1397.54 179.122 1420.9L177.043 1428.69C173.204 1443.23 169.558 1456.95 163.972 1470.86C146.461 1514.35 120.946 1542.74 78.6582 1565.82C61.163 1575.36 31.447 1577.72 12.3363 1575.08C-6.00986 1572.56 -25.3492 1565.97 -45.1372 1555.51C-55.3149 1550.13 -65.2141 1543.62 -74.7701 1537.33C-78.5129 1534.94 -82.2214 1532.42 -85.9212 1530.06L-89.4388 1527.82C-117.054 1510.18 -148.358 1490.19 -180.875 1492.93C-185.037 1493.42 -189.16 1494.26 -193.208 1495.44C-196.921 1496.5 -200.688 1497.31 -204.489 1497.87C-218.262 1499.6 -231.444 1513.9 -243.137 1526.55C-248.118 1532.18 -253.419 1537.45 -259.008 1542.33C-265.493 1547.68 -272.02 1552.9 -278.554 1558.13L-289.523 1566.96C-300.864 1576.19 -310.966 1581.33 -322.255 1583.62C-328.057 1584.79 -333.938 1586.19 -340.119 1587.71C-360.449 1592.47 -381.47 1597.48 -401.189 1594.8C-406.72 1594.05 -412.545 1593.63 -418.172 1593.23C-430.344 1592.36 -442.972 1591.43 -454.498 1587.16C-460.936 1584.76 -466.797 1580.81 -472.46 1577C-474.176 1575.91 -475.842 1574.72 -477.558 1573.62C-486.835 1567.7 -494.349 1562.12 -501 1554.45C-530.532 1520.49 -544.649 1489.68 -548.21 1451.41C-549.395 1438.45 -549.657 1425.26 -549.964 1412.48C-550.414 1388.69 -550.972 1364.03 -557.694 1340.48C-560.484 1330.78 -563.555 1323.82 -570.418 1319.32C-572.885 1317.75 -575.362 1316.17 -577.829 1314.59C-579.63 1313.44 -581.432 1312.29 -583.191 1311.17C-586.944 1308.77 -590.698 1306.37 -594.44 1303.98C-602.387 1298.91 -610.345 1293.83 -618.291 1288.75C-634.402 1278.72 -644.843 1265.35 -649.335 1249.03C-653.949 1232.2 -652.615 1215.18 -650.867 1199.2C-649.464 1186.41 -645.283 1174.97 -641.244 1163.89C-638.837 1157.31 -636.351 1150.49 -634.444 1143.41C-633.419 1139.96 -632.084 1136.62 -630.46 1133.45C-629.62 1131.68 -628.769 1129.91 -628.017 1128.03C-625.695 1122.19 -624.817 1111.08 -625.506 1104.48C-628.739 1072.52 -649.872 1054.96 -672.218 1040.73L-673.848 1039.69C-691.65 1028.32 -710.107 1016.65 -723.775 999.165C-726.898 995.177 -729.952 990.947 -732.909 986.859C-734.566 984.555 -736.23 982.263 -737.899 979.983C-738.743 978.859 -739.604 977.771 -740.411 976.796C-743.896 972.323 -747.184 968.103 -748.793 961.488C-750.65 953.243 -751.754 944.812 -752.086 936.322C-752.527 928.227 -752.124 920.103 -750.888 912.109C-749.438 901.306 -746.356 892.004 -743.088 882.155C-742.224 879.541 -741.315 876.813 -740.445 874.077C-731.459 845.577 -710.971 821.447 -692.903 800.172L-692.529 799.73C-691.266 798.242 -690.079 796.736 -688.899 795.242C-685.767 790.957 -682.156 787.131 -678.151 783.855C-673.408 780.447 -668.994 776.508 -664.98 772.1C-663.414 770.451 -661.727 768.95 -659.935 767.612C-657.651 765.998 -655.614 763.992 -653.901 761.668C-649.849 755.215 -646.386 748.333 -643.563 741.123C-633.21 714.905 -619.54 689.619 -606.347 665.167C-603.174 659.279 -599.953 653.327 -596.811 647.418C-588.75 632.194 -583.275 614.116 -579.773 590.725C-577.997 578.911 -579.399 568.503 -580.753 558.441C-582.844 542.86 -584.822 528.158 -575.747 509.403C-572.324 502.297 -568.994 494.958 -565.794 487.868C-562.594 480.779 -559.201 473.321 -555.724 466.139C-535.09 423.567 -510.431 389.912 -482.497 366.421C-456.773 344.78 -433.931 340.958 -407.506 336.575C-398.097 334.985 -388.321 333.377 -377.8 330.836C-374.552 330.093 -371.36 329.456 -368.168 328.819C-361.409 327.725 -354.751 325.97 -348.271 323.575C-337.78 319.337 -326.908 316.15 -316.38 313.075C-309.963 311.19 -303.331 309.251 -296.871 307.093C-278.987 301.101 -263.834 289.33 -249.162 277.932C-240.448 270.906 -231.399 264.405 -222.053 258.457C-219.722 257.033 -217.448 255.716 -215.224 254.414C-207.287 249.81 -199.791 245.448 -192.732 238.116C-190.286 235.594 -187.946 233.084 -185.648 230.626C-173.839 218.001 -162.678 206.07 -145.635 199.305C-126.69 191.775 -109.224 190.091 -90.732 188.304C-84.283 187.673 -77.6236 187.051 -70.7371 186.13C-49.2351 183.288 -27.5811 190.374 -9.25106 197.663C1.93682 202.117 11.6023 208.336 21.7932 214.892L22.2222 215.166C25.1392 217.029 28.1041 218.827 31.069 220.625C40.851 226.54 50.9242 232.609 58.9354 241.587C85.8272 271.866 106.635 306.159 119.125 340.744C136.994 390.145 143.293 429.086 139.609 466.907C138.241 480.486 140.765 490.059 147.006 495.279C164.371 509.788 207.443 490.551 235.948 477.825C246.857 472.951 255.468 469.111 260.481 468.054C272.001 465.597 283.929 466.962 295.495 468.254L298.198 468.555C332.876 472.466 361.636 514.591 384.748 548.44C390.112 556.298 395.173 563.724 399.87 569.985C403.659 575.292 407.094 580.897 410.147 586.757C413.068 592.394 416.347 597.793 419.958 602.916C426.236 611.325 430.608 617.632 434.194 627.994C436.772 635.044 439.753 641.907 443.116 648.539C446.665 655.558 449.779 662.835 452.438 670.321C454.207 675.614 456.288 680.916 458.304 686.066C461.714 694.251 464.623 702.682 467.01 711.301C468.368 716.917 470.308 722.35 472.122 727.64C473.936 732.93 475.78 738.302 477.218 743.874C487.908 785.414 483.58 812.171 477.025 852.67L475.906 859.664C469.583 899.171 456.446 933.378 442.567 969.611C440.452 975.115 438.342 980.637 436.228 986.22C434.837 989.888 433.23 993.452 431.418 996.888ZM254.98 1200.24C275.312 1161.29 303.786 1127.36 345.515 1091.55C347.943 1089.48 350.389 1087.45 352.843 1085.4C359.318 1080.26 365.517 1074.71 371.407 1068.77C373.474 1066.59 375.627 1064.35 377.778 1062.04C391.525 1047.76 407.097 1031.57 416.786 1015.39C418.025 1013.31 419.285 1011.28 420.515 1009.28C425.41 1001.33 429.965 993.918 433.375 984.92C435.493 979.329 437.608 973.789 439.72 968.3C453.54 932.234 466.59 898.194 472.869 859.07L473.989 852.077C480.463 812.032 484.748 785.58 474.234 744.77C472.795 739.308 470.999 733.983 469.223 728.812C467.446 723.641 465.483 717.923 464.025 712.196C461.693 703.731 458.851 695.449 455.517 687.405C453.486 682.229 451.398 676.86 449.534 671.474C446.913 664.148 443.846 657.028 440.353 650.162C436.922 643.406 433.886 636.412 431.263 629.225C427.853 619.322 423.611 613.258 417.526 605.082C413.841 599.873 410.497 594.378 407.519 588.641C404.541 582.915 401.186 577.44 397.482 572.259C392.75 565.928 387.657 558.482 382.267 550.591C359.515 517.257 331.224 475.795 297.841 472.031L295.145 471.718C283.824 470.424 272.117 469.074 260.992 471.404C256.271 472.394 247.352 476.386 237.024 480.997C207.868 494.036 163.859 513.671 145.126 498.004C137.978 492.031 135.086 481.462 136.535 466.606C140.166 429.352 133.915 390.949 116.257 342.047C103.911 307.871 83.3216 273.955 56.7172 244.001C49.038 235.346 39.1426 229.374 29.5751 223.597C26.578 221.778 23.5855 219.978 20.664 218.096L20.2243 217.815C10.1005 211.35 0.560935 205.163 -10.3662 200.813C-29.3097 193.274 -49.628 186.726 -70.4581 189.458C-77.3999 190.375 -84.1316 190.999 -90.5591 191.643C-108.839 193.408 -126.127 195.079 -144.702 202.449C-161.129 208.991 -171.558 220.123 -183.603 233.008C-185.924 235.483 -188.256 237.951 -190.722 240.539C-198.091 248.164 -205.76 252.638 -213.904 257.393C-216.116 258.671 -218.374 259.984 -220.688 261.403C-229.935 267.29 -238.888 273.726 -247.509 280.681C-262.361 292.233 -277.716 304.145 -296.063 310.284C-302.574 312.457 -309.235 314.425 -315.68 316.308C-326.129 319.37 -336.934 322.537 -347.3 326.728C-353.933 329.185 -360.748 330.993 -367.666 332.132C-370.846 332.744 -374.031 333.369 -377.16 334.157C-387.776 336.717 -397.575 338.342 -407.067 339.926C-433.089 344.25 -455.6 347.983 -480.685 369.113C-508.241 392.292 -532.596 425.555 -553.067 467.788C-556.526 474.934 -559.864 482.316 -563.083 489.441C-566.302 496.566 -569.638 503.917 -573.09 511.052C-581.66 528.784 -579.743 542.973 -577.731 557.965C-576.366 568.335 -574.914 578.949 -576.753 591.293C-580.326 615.097 -585.825 633.493 -594.175 649.134C-597.273 655.069 -600.5 660.923 -603.717 666.894C-616.877 691.256 -630.487 716.454 -640.769 742.48C-643.677 749.909 -647.248 756.998 -651.429 763.643C-653.327 766.295 -655.608 768.582 -658.179 770.412C-659.833 771.644 -661.391 773.026 -662.838 774.544C-666.988 779.093 -671.546 783.162 -676.441 786.688C-680.257 789.815 -683.694 793.472 -686.668 797.569C-687.867 799.098 -689.082 800.633 -690.375 802.15L-690.749 802.592C-708.61 823.635 -728.861 847.474 -737.643 875.312C-738.509 878.067 -739.4 880.759 -740.295 883.433C-743.503 893.113 -746.532 902.259 -747.936 912.728C-749.129 920.472 -749.514 928.342 -749.082 936.182C-748.754 944.447 -747.683 952.655 -745.886 960.685C-744.458 966.551 -741.528 970.306 -738.136 974.656C-737.274 975.745 -736.419 976.845 -735.582 977.981C-733.908 980.253 -732.253 982.561 -730.597 984.868C-727.656 988.931 -724.628 993.128 -721.542 997.078C-708.195 1014.13 -689.992 1025.69 -672.386 1036.89L-670.809 1037.9C-647.784 1052.6 -625.968 1070.74 -622.593 1104.19C-621.885 1111.24 -622.727 1122.91 -625.342 1129.46C-626.121 1131.41 -626.998 1133.26 -627.876 1135.1C-629.406 1138.07 -630.666 1141.2 -631.637 1144.45C-633.586 1151.69 -636.135 1158.54 -638.526 1165.23C-642.686 1176.6 -646.601 1187.33 -647.936 1199.7C-649.643 1215.32 -650.955 1231.94 -646.482 1248.11C-642.243 1263.58 -632.277 1276.29 -616.853 1285.89C-608.846 1290.87 -600.901 1295.98 -592.97 1301.14C-589.227 1303.53 -585.463 1305.93 -581.731 1308.31C-579.94 1309.46 -578.149 1310.6 -576.369 1311.74C-573.881 1313.33 -571.393 1314.92 -568.862 1316.53C-560.338 1322.12 -557.125 1331.36 -554.776 1339.57C-547.935 1363.58 -547.411 1388.47 -546.909 1412.51C-546.701 1425.07 -546.407 1438.21 -545.201 1451.07C-541.701 1488.53 -527.86 1518.8 -498.815 1552.13C-492.457 1559.48 -485.073 1564.9 -476.029 1570.72C-474.303 1571.82 -472.565 1572.93 -470.878 1574.13C-465.365 1577.85 -459.654 1581.7 -453.525 1583.98C-442.337 1588.13 -429.951 1589.03 -417.989 1589.86C-412.342 1590.31 -406.464 1590.69 -400.84 1591.45C-381.617 1594.07 -360.877 1589.12 -340.812 1584.35C-334.561 1582.87 -328.652 1581.46 -322.8 1580.28C-312 1578.1 -302.269 1573.16 -291.252 1564.27C-287.613 1561.32 -283.957 1558.38 -280.283 1555.45C-273.766 1550.22 -267.233 1544.99 -260.777 1539.66C-255.306 1534.87 -250.115 1529.69 -245.238 1524.17C-233.241 1511.15 -219.641 1496.41 -204.825 1494.57C-201.147 1494.02 -197.502 1493.23 -193.909 1492.2C-189.71 1490.98 -185.433 1490.11 -181.115 1489.61C-147.638 1486.76 -115.874 1507.07 -87.9223 1524.94L-84.4154 1527.18C-80.6834 1529.56 -76.9085 1531.97 -73.2322 1534.46C-63.7297 1540.72 -53.8949 1547.19 -43.8414 1552.5C-24.3446 1562.82 -5.32121 1569.3 12.6994 1571.78C31.3757 1574.35 60.2922 1572.1 77.2794 1562.81C119.463 1539.83 143.761 1512.78 161.182 1469.52C166.701 1455.82 170.308 1442.2 174.119 1427.78L176.204 1419.97C182.584 1396.3 192.152 1375.72 202.366 1353.99C204.458 1349.52 206.556 1345.03 208.64 1340.49C217.517 1321.1 223.438 1296.88 227.153 1280.37L227.587 1278.42C230.88 1263.61 234.016 1249.66 239.321 1235.53C243.857 1223.41 249.087 1211.62 254.98 1200.24Z" stroke="url(#paint5_linear_1_1422)" stroke-width="2" stroke-miterlimit="10"/>
<defs>
<linearGradient id="paint0_linear_1_1422" x1="-501.686" y1="716.145" x2="208.855" y2="1087.03" gradientUnits="userSpaceOnUse">
<stop stop-color="#EAB196"/>
<stop offset="1" stop-color="#FFF0E9" stop-opacity="0"/>
</linearGradient>
<linearGradient id="paint1_linear_1_1422" x1="-529.301" y1="704.896" x2="221.168" y2="1096.62" gradientUnits="userSpaceOnUse">
<stop stop-color="#EAB196"/>
<stop offset="1" stop-color="#FFF0E9" stop-opacity="0"/>
</linearGradient>
<linearGradient id="paint2_linear_1_1422" x1="-549.47" y1="692.655" x2="249.094" y2="1109.48" gradientUnits="userSpaceOnUse">
<stop stop-color="#EAB196"/>
<stop offset="1" stop-color="#FFF0E9" stop-opacity="0"/>
</linearGradient>
<linearGradient id="paint3_linear_1_1422" x1="-582.593" y1="663.2" x2="289.475" y2="1118.4" gradientUnits="userSpaceOnUse">
<stop stop-color="#EAB196"/>
<stop offset="1" stop-color="#FFF0E9" stop-opacity="0"/>
</linearGradient>
<linearGradient id="paint4_linear_1_1422" x1="-609.823" y1="649.004" x2="315.785" y2="1132.15" gradientUnits="userSpaceOnUse">
<stop stop-color="#EAB196"/>
<stop offset="1" stop-color="#FFF0E9" stop-opacity="0"/>
</linearGradient>
<linearGradient id="paint5_linear_1_1422" x1="-641.5" y1="630.052" x2="352.167" y2="1148.72" gradientUnits="userSpaceOnUse">
<stop stop-color="#EAB196"/>
<stop offset="1" stop-color="#FFF0E9" stop-opacity="0"/>
</linearGradient>
</defs>
</svg>
