<svg width="135" height="260" viewBox="0 0 135 260" fill="none" xmlns="http://www.w3.org/2000/svg">
<path d="M0.5 67C0.5 29.9969 30.4969 0 67.5 0C104.503 0 134.5 29.9969 134.5 67V260H0.5V67Z" fill="url(#paint0_linear_1_4924)"/>
<path d="M104.375 122.437V80.8239C104.368 80.3655 104.269 79.9132 104.084 79.4937C103.899 79.0741 103.632 78.6958 103.298 78.381L70.1735 48.2786C69.5628 47.72 68.7652 47.4102 67.9375 47.4102C67.1099 47.4102 66.3123 47.72 65.7016 48.2786L32.5766 78.381C32.2355 78.6896 31.9633 79.0667 31.7778 79.4876C31.5923 79.9086 31.4976 80.3639 31.5 80.8239V122.437" stroke="#FFBB50" stroke-width="3" stroke-linecap="round" stroke-linejoin="round"/>
<path d="M21.5 122.438H114.25" stroke="#FFBB50" stroke-width="3" stroke-linecap="round" stroke-linejoin="round"/>
<path d="M77.375 122.438V99.25C77.375 98.3715 77.026 97.5289 76.4048 96.9077C75.7836 96.2865 74.941 95.9375 74.0625 95.9375H60.8125C59.934 95.9375 59.0914 96.2865 58.4702 96.9077C57.849 97.5289 57.5 98.3715 57.5 99.25V122.438" stroke="#FFBB50" stroke-width="3" stroke-linecap="round" stroke-linejoin="round"/>
<circle cx="67.5" cy="52" r="26" fill="white"/>
<path d="M62.6462 52.5861C63.7667 54.9001 65.6379 56.7664 67.9548 57.881C68.1257 57.962 68.3147 57.997 68.5033 57.9827C68.6918 57.9683 68.8734 57.9052 69.0301 57.7994L72.4331 55.5262C72.5834 55.4242 72.7571 55.362 72.938 55.3453C73.1189 55.3287 73.3011 55.3581 73.4676 55.4309L79.8379 58.1669C80.0556 58.2575 80.2375 58.4172 80.3555 58.6213C80.4736 58.8255 80.5213 59.0628 80.4912 59.2967C80.2893 60.8726 79.5201 62.3209 78.3276 63.3706C77.135 64.4204 75.6008 64.9996 74.012 65C69.1023 65 64.3937 63.0496 60.922 59.578C57.4504 56.1063 55.5 51.3977 55.5 46.488C55.5004 44.8992 56.0796 43.365 57.1294 42.1724C58.1791 40.9799 59.6274 40.2107 61.2033 40.0088C61.4372 39.9787 61.6745 40.0264 61.8787 40.1445C62.0828 40.2625 62.2425 40.4444 62.3331 40.6621L65.0691 47.0461C65.1402 47.2099 65.17 47.3887 65.1558 47.5667C65.1415 47.7447 65.0837 47.9165 64.9874 48.0669L62.7142 51.5243C62.613 51.6807 62.5536 51.8604 62.5417 52.0463C62.5298 52.2322 62.5658 52.418 62.6462 52.5861V52.5861Z" stroke="#3B3A5D" stroke-width="2" stroke-linecap="round" stroke-linejoin="round"/>
<defs>
<linearGradient id="paint0_linear_1_4924" x1="67.5" y1="0" x2="67.5" y2="260" gradientUnits="userSpaceOnUse">
<stop stop-color="#FFE5BB"/>
<stop offset="1" stop-color="white" stop-opacity="0"/>
</linearGradient>
</defs>
</svg>
