<svg width="134" height="260" viewBox="0 0 134 260" fill="none" xmlns="http://www.w3.org/2000/svg">
<path d="M0 67C0 29.9969 29.9969 0 67 0C104.003 0 134 29.9969 134 67V260H0V67Z" fill="url(#paint0_linear_1_4889)"/>
<path d="M103.875 122.437V80.8239C103.868 80.3655 103.769 79.9132 103.584 79.4937C103.399 79.0741 103.132 78.6958 102.798 78.381L69.6735 48.2786C69.0628 47.72 68.2652 47.4102 67.4375 47.4102C66.6099 47.4102 65.8123 47.72 65.2016 48.2786L32.0766 78.381C31.7355 78.6896 31.4633 79.0667 31.2778 79.4876C31.0923 79.9086 30.9976 80.3639 31 80.8239V122.437" stroke="#FFBB50" stroke-width="3" stroke-linecap="round" stroke-linejoin="round"/>
<path d="M21 122.438H113.75" stroke="#FFBB50" stroke-width="3" stroke-linecap="round" stroke-linejoin="round"/>
<path d="M76.875 122.438V99.25C76.875 98.3715 76.526 97.5289 75.9048 96.9077C75.2836 96.2865 74.441 95.9375 73.5625 95.9375H60.3125C59.434 95.9375 58.5914 96.2865 57.9702 96.9077C57.349 97.5289 57 98.3715 57 99.25V122.438" stroke="#FFBB50" stroke-width="3" stroke-linecap="round" stroke-linejoin="round"/>
<circle cx="67" cy="52" r="26" fill="white"/>
<g clip-path="url(#clip0_1_4889)">
<path d="M54.8524 58.5949C54.5861 58.8038 54.4847 59.293 54.6268 59.6868C54.768 60.0807 55.0988 60.2307 55.3641 60.0205C55.5991 59.8354 56.8917 59.4472 58.1408 59.15C59.2078 58.8963 60.1991 58.7141 60.381 58.7926L65.3762 60.9666C67.9557 62.5435 70.1239 60.5699 70.4547 60.2447L83.4234 50.1272L83.1695 49.4151L83.4244 50.1286C83.4471 50.1117 83.468 50.0921 83.4879 50.0711C85.1719 48.6161 85.3368 47.5256 84.5388 46.6173C84.0356 46.044 82.9259 45.7594 81.5622 45.5337V45.5323C81.531 45.5267 81.5006 45.5267 81.4703 45.5281C80.4326 45.5197 78.2122 47.1401 76.2525 48.5698C74.9191 49.5426 73.7146 50.4215 73.2437 50.5519L71.6487 50.9962C71.4194 51.0607 71.3455 50.9387 71.2242 50.7397C71.0555 50.4622 70.848 50.1215 70.467 49.7557C69.1185 48.4591 67.5833 48.5755 66.1314 48.6834C66.0272 48.6918 65.923 48.6988 65.8206 48.7058C65.4378 48.7324 65.0369 48.7493 64.6114 48.7493C64.2058 48.7493 63.8078 48.7324 63.423 48.6904C62.863 48.6301 62.3304 48.0834 61.7855 47.5256C61.6443 47.3812 61.5021 47.2354 61.3865 47.1219C59.0543 44.8441 58.0905 45.601 56.4122 46.9172C55.9706 47.2634 55.4731 47.6545 54.8969 48.0148C54.6202 48.1872 54.4904 48.6582 54.6069 49.0675C54.7235 49.4768 55.0419 49.6688 55.3186 49.4964C55.9592 49.0941 56.4681 48.696 56.9192 48.3414C58.2365 47.3069 58.9927 46.714 60.7847 48.4633C60.9316 48.6077 61.0501 48.7282 61.1666 48.8474C61.8357 49.5328 62.4905 50.2028 63.3463 50.2954C63.7727 50.3416 64.1944 50.3598 64.6114 50.3598C65.0085 50.3598 65.433 50.3402 65.8718 50.3094C65.9751 50.3024 66.0784 50.294 66.1826 50.2869C67.4648 50.1902 68.8219 50.0893 69.8738 51.0999C70.1287 51.3452 70.286 51.6032 70.413 51.8134C70.7873 52.4302 71.0166 52.8058 71.8477 52.5745L73.4427 52.1302C74.0605 51.9578 75.3295 51.0327 76.7329 50.0094C78.5923 48.6525 80.7027 47.1135 81.4551 47.1331C82.6388 47.3293 83.5722 47.5452 83.8717 47.8858C83.8736 47.8872 83.613 48.1017 82.9401 48.6764C82.9316 48.682 82.9221 48.689 82.9136 48.696L82.9145 48.6974L69.9647 58.8052C69.9316 58.8262 69.9003 58.8528 69.87 58.8851L69.8719 58.8879C69.8539 58.9075 68.0315 60.8391 65.796 59.478C65.7704 59.4598 65.7429 59.4444 65.7145 59.4317L65.56 60.2069L65.7135 59.4345L60.689 57.2479C60.3412 57.0965 59.169 57.2759 57.9711 57.5604C56.6217 57.88 55.1803 58.337 54.8524 58.5949Z" fill="#3B3A5D"/>
<path d="M71.8131 51.8792C71.7979 51.4349 71.542 51.0929 71.2416 51.1153C70.9412 51.1377 70.71 51.5162 70.7261 51.9605C70.8067 54.2187 69.7159 54.9826 68.3731 55.0948C66.8132 55.2251 64.9226 54.5509 63.8186 54.1136C63.5277 53.9986 63.2291 54.2537 63.1514 54.6841C63.0737 55.1144 63.2462 55.5559 63.5371 55.6709C64.7056 56.1334 66.7128 56.8469 68.4328 56.7025C70.3679 56.5427 71.9382 55.3695 71.8131 51.8792Z" fill="#3B3A5D"/>
<path d="M55.6538 45.8074V61.1912C55.6538 61.637 55.4093 61.9986 55.1079 61.9986H50.5459C50.2445 61.9986 50 61.637 50 61.1912V45.8074C50 45.3616 50.2445 45 50.5459 45H55.1079C55.4093 45 55.6538 45.3616 55.6538 45.8074ZM54.562 60.3852V46.6148H51.0917V60.3852H54.562Z" fill="#3B3A5D"/>
</g>
<defs>
<linearGradient id="paint0_linear_1_4889" x1="67" y1="0" x2="67" y2="260" gradientUnits="userSpaceOnUse">
<stop stop-color="#FFE5BB"/>
<stop offset="1" stop-color="white" stop-opacity="0"/>
</linearGradient>
<clipPath id="clip0_1_4889">
<rect width="35" height="17" fill="white" transform="translate(50 45)"/>
</clipPath>
</defs>
</svg>
