<svg width="192" height="24" viewBox="0 0 192 24" fill="none" xmlns="http://www.w3.org/2000/svg">
<path d="M2.19109 17V2.6H4.51109V17H2.19109ZM3.51109 17V14.98H11.6511V17H3.51109ZM3.51109 10.5V8.54H10.3311V10.5H3.51109ZM3.51109 4.62V2.6H11.4311V4.62H3.51109ZM20.8948 17L17.6548 12.48L13.0748 6.28V6.1H15.5348L18.7748 10.62L23.3548 16.82V17H20.8948ZM13.2148 17V16.82L17.7948 10.78L21.0548 6.1H23.4148V6.28L18.8348 12.32L15.5748 17H13.2148ZM25.5895 21.64V10.06C25.5895 9.82 25.5829 9.49333 25.5695 9.08C25.5695 8.66667 25.5562 8.26 25.5295 7.86C25.5162 7.44667 25.4829 7.12 25.4295 6.88L25.4695 6.72C26.0962 6.46667 26.7762 6.26 27.5095 6.1C28.2562 5.94 28.9962 5.86 29.7295 5.86C30.5562 5.86 31.3095 5.98 31.9895 6.22C32.6829 6.46 33.2762 6.82 33.7695 7.3C34.2762 7.76667 34.6629 8.35333 34.9295 9.06C35.2095 9.76667 35.3495 10.5867 35.3495 11.52C35.3495 12.3733 35.2229 13.1533 34.9695 13.86C34.7162 14.5667 34.3429 15.1733 33.8495 15.68C33.3562 16.1733 32.7495 16.56 32.0295 16.84C31.3229 17.1067 30.5095 17.24 29.5895 17.24C29.1895 17.24 28.7895 17.2 28.3895 17.12C28.0029 17.04 27.6962 16.98 27.4695 16.94L27.5895 15.08C27.7495 15.16 27.9762 15.24 28.2695 15.32C28.5762 15.3867 28.9762 15.42 29.4695 15.42C30.6829 15.42 31.5829 15.08 32.1695 14.4C32.7695 13.72 33.0695 12.76 33.0695 11.52C33.0695 10.2667 32.7695 9.32 32.1695 8.68C31.5695 8.02667 30.7029 7.7 29.5695 7.7C29.1295 7.7 28.7095 7.75333 28.3095 7.86C27.9095 7.95333 27.5962 8.06667 27.3695 8.2L27.6695 7.58C27.7362 7.78 27.7762 8.02667 27.7895 8.32C27.8162 8.61333 27.8295 8.93333 27.8295 9.28V21.64H25.5895ZM38.1481 17V5.22C38.1481 4.95333 38.1415 4.60667 38.1281 4.18C38.1281 3.75333 38.1148 3.34 38.0881 2.94C38.0748 2.52667 38.0415 2.2 37.9881 1.96L38.0281 1.8H40.3881V17H38.1481ZM43.207 11.52C43.207 10.3067 43.4204 9.28 43.847 8.44C44.287 7.6 44.8937 6.96 45.667 6.52C46.4537 6.08 47.3537 5.86 48.367 5.86C49.3804 5.86 50.2737 6.08 51.047 6.52C51.8204 6.96 52.4204 7.6 52.847 8.44C53.287 9.28 53.507 10.3067 53.507 11.52C53.507 12.7333 53.287 13.76 52.847 14.6C52.4204 15.44 51.8204 16.08 51.047 16.52C50.2737 16.96 49.3804 17.18 48.367 17.18C47.327 17.18 46.4204 16.96 45.647 16.52C44.8737 16.08 44.2737 15.44 43.847 14.6C43.4204 13.76 43.207 12.7333 43.207 11.52ZM45.487 11.52C45.487 12.7733 45.7337 13.7267 46.227 14.38C46.7204 15.02 47.4337 15.34 48.367 15.34C49.287 15.34 49.9937 15.02 50.487 14.38C50.9804 13.7267 51.227 12.7733 51.227 11.52C51.227 10.24 50.9804 9.28 50.487 8.64C49.9937 8 49.287 7.68 48.367 7.68C47.4337 7.68 46.7204 8 46.227 8.64C45.7337 9.28 45.487 10.24 45.487 11.52ZM56.3317 17V10.08C56.3317 9.81333 56.3251 9.46667 56.3117 9.04C56.3117 8.61333 56.2984 8.2 56.2717 7.8C56.2584 7.38667 56.2251 7.06 56.1717 6.82L56.2117 6.66C56.5717 6.52667 57.0051 6.41333 57.5117 6.32C58.0184 6.21333 58.5384 6.13333 59.0717 6.08C59.6051 6.01333 60.0851 5.98 60.5117 5.98C60.8051 5.98 61.0651 5.98667 61.2917 6C61.5317 6.01333 61.7451 6.04 61.9317 6.08V7.96H61.7717C61.5851 7.92 61.3651 7.89333 61.1117 7.88C60.8717 7.86667 60.6451 7.86 60.4317 7.86C60.0184 7.86 59.5917 7.89333 59.1517 7.96C58.7117 8.02667 58.3317 8.1 58.0117 8.18L58.4117 7.62C58.5184 8.02 58.5717 8.59333 58.5717 9.34V17H56.3317ZM69.3861 17.18C68.3861 17.18 67.4994 17.06 66.7261 16.82C65.9661 16.58 65.3261 16.2267 64.8061 15.76C64.2861 15.28 63.8928 14.6867 63.6261 13.98C63.3728 13.2733 63.2461 12.4533 63.2461 11.52C63.2461 10.36 63.4594 9.36 63.8861 8.52C64.3128 7.66667 64.9128 7.01333 65.6861 6.56C66.4594 6.09333 67.3728 5.86 68.4261 5.86C69.6128 5.86 70.5728 6.10667 71.3061 6.6C72.0394 7.08 72.5661 7.76 72.8861 8.64C73.2194 9.50667 73.3594 10.5133 73.3061 11.66L73.2861 12.26H64.7461V10.62H71.0461V10.46C71.0461 9.54 70.8261 8.84667 70.3861 8.38C69.9461 7.9 69.2861 7.66 68.4061 7.66C67.8861 7.66 67.4061 7.77333 66.9661 8C66.5261 8.22667 66.1728 8.61333 65.9061 9.16C65.6528 9.69333 65.5261 10.42 65.5261 11.34V11.6C65.5261 12.5467 65.6928 13.2933 66.0261 13.84C66.3728 14.3733 66.8461 14.7533 67.4461 14.98C68.0594 15.2067 68.7528 15.32 69.5261 15.32C70.1928 15.32 70.7661 15.26 71.2461 15.14C71.7394 15.0067 72.1261 14.86 72.4061 14.7H72.5861V16.6C72.2394 16.76 71.7994 16.8933 71.2661 17C70.7461 17.12 70.1194 17.18 69.3861 17.18ZM82.4759 12.46V10.5H85.6359C86.3959 10.5 87.0159 10.34 87.4959 10.02C87.9893 9.7 88.3493 9.27333 88.5759 8.74C88.8026 8.19333 88.9159 7.59333 88.9159 6.94C88.9159 6.07333 88.6826 5.46667 88.2159 5.12C87.7626 4.76 87.1559 4.58 86.3959 4.58H82.4759V2.6H86.4359C87.9159 2.6 89.0893 2.96667 89.9559 3.7C90.8359 4.42 91.2759 5.49333 91.2759 6.92C91.2759 7.61333 91.1626 8.29333 90.9359 8.96C90.7226 9.62667 90.3826 10.2267 89.9159 10.76C89.4626 11.28 88.8826 11.6933 88.1759 12C87.4693 12.3067 86.6293 12.46 85.6559 12.46H82.4759ZM81.1559 17V2.6H83.4759V17H81.1559ZM93.8513 17V10.08C93.8513 9.81333 93.8446 9.46667 93.8313 9.04C93.8313 8.61333 93.8179 8.2 93.7913 7.8C93.7779 7.38667 93.7446 7.06 93.6913 6.82L93.7313 6.66C94.0913 6.52667 94.5246 6.41333 95.0313 6.32C95.5379 6.21333 96.0579 6.13333 96.5913 6.08C97.1246 6.01333 97.6046 5.98 98.0313 5.98C98.3246 5.98 98.5846 5.98667 98.8113 6C99.0513 6.01333 99.2646 6.04 99.4513 6.08V7.96H99.2913C99.1046 7.92 98.8846 7.89333 98.6313 7.88C98.3913 7.86667 98.1646 7.86 97.9513 7.86C97.5379 7.86 97.1113 7.89333 96.6713 7.96C96.2313 8.02667 95.8513 8.1 95.5313 8.18L95.9313 7.62C96.0379 8.02 96.0913 8.59333 96.0913 9.34V17H93.8513ZM100.766 11.52C100.766 10.3067 100.979 9.28 101.406 8.44C101.846 7.6 102.452 6.96 103.226 6.52C104.012 6.08 104.912 5.86 105.926 5.86C106.939 5.86 107.832 6.08 108.606 6.52C109.379 6.96 109.979 7.6 110.406 8.44C110.846 9.28 111.066 10.3067 111.066 11.52C111.066 12.7333 110.846 13.76 110.406 14.6C109.979 15.44 109.379 16.08 108.606 16.52C107.832 16.96 106.939 17.18 105.926 17.18C104.886 17.18 103.979 16.96 103.206 16.52C102.432 16.08 101.832 15.44 101.406 14.6C100.979 13.76 100.766 12.7333 100.766 11.52ZM103.046 11.52C103.046 12.7733 103.292 13.7267 103.786 14.38C104.279 15.02 104.992 15.34 105.926 15.34C106.846 15.34 107.552 15.02 108.046 14.38C108.539 13.7267 108.786 12.7733 108.786 11.52C108.786 10.24 108.539 9.28 108.046 8.64C107.552 8 106.846 7.68 105.926 7.68C104.992 7.68 104.279 8 103.786 8.64C103.292 9.28 103.046 10.24 103.046 11.52ZM113.89 21.64V10.06C113.89 9.82 113.884 9.49333 113.87 9.08C113.87 8.66667 113.857 8.26 113.83 7.86C113.817 7.44667 113.784 7.12 113.73 6.88L113.77 6.72C114.397 6.46667 115.077 6.26 115.81 6.1C116.557 5.94 117.297 5.86 118.03 5.86C118.857 5.86 119.61 5.98 120.29 6.22C120.984 6.46 121.577 6.82 122.07 7.3C122.577 7.76667 122.964 8.35333 123.23 9.06C123.51 9.76667 123.65 10.5867 123.65 11.52C123.65 12.3733 123.524 13.1533 123.27 13.86C123.017 14.5667 122.644 15.1733 122.15 15.68C121.657 16.1733 121.05 16.56 120.33 16.84C119.624 17.1067 118.81 17.24 117.89 17.24C117.49 17.24 117.09 17.2 116.69 17.12C116.304 17.04 115.997 16.98 115.77 16.94L115.89 15.08C116.05 15.16 116.277 15.24 116.57 15.32C116.877 15.3867 117.277 15.42 117.77 15.42C118.984 15.42 119.884 15.08 120.47 14.4C121.07 13.72 121.37 12.76 121.37 11.52C121.37 10.2667 121.07 9.32 120.47 8.68C119.87 8.02667 119.004 7.7 117.87 7.7C117.43 7.7 117.01 7.75333 116.61 7.86C116.21 7.95333 115.897 8.06667 115.67 8.2L115.97 7.58C116.037 7.78 116.077 8.02667 116.09 8.32C116.117 8.61333 116.13 8.93333 116.13 9.28V21.64H113.89ZM131.867 17.18C130.867 17.18 129.98 17.06 129.207 16.82C128.447 16.58 127.807 16.2267 127.287 15.76C126.767 15.28 126.373 14.6867 126.107 13.98C125.853 13.2733 125.727 12.4533 125.727 11.52C125.727 10.36 125.94 9.36 126.367 8.52C126.793 7.66667 127.393 7.01333 128.167 6.56C128.94 6.09333 129.853 5.86 130.907 5.86C132.093 5.86 133.053 6.10667 133.787 6.6C134.52 7.08 135.047 7.76 135.367 8.64C135.7 9.50667 135.84 10.5133 135.787 11.66L135.767 12.26H127.227V10.62H133.527V10.46C133.527 9.54 133.307 8.84667 132.867 8.38C132.427 7.9 131.767 7.66 130.887 7.66C130.367 7.66 129.887 7.77333 129.447 8C129.007 8.22667 128.653 8.61333 128.387 9.16C128.133 9.69333 128.007 10.42 128.007 11.34V11.6C128.007 12.5467 128.173 13.2933 128.507 13.84C128.853 14.3733 129.327 14.7533 129.927 14.98C130.54 15.2067 131.233 15.32 132.007 15.32C132.673 15.32 133.247 15.26 133.727 15.14C134.22 15.0067 134.607 14.86 134.887 14.7H135.067V16.6C134.72 16.76 134.28 16.8933 133.747 17C133.227 17.12 132.6 17.18 131.867 17.18ZM138.617 17V10.08C138.617 9.81333 138.61 9.46667 138.597 9.04C138.597 8.61333 138.584 8.2 138.557 7.8C138.544 7.38667 138.51 7.06 138.457 6.82L138.497 6.66C138.857 6.52667 139.29 6.41333 139.797 6.32C140.304 6.21333 140.824 6.13333 141.357 6.08C141.89 6.01333 142.37 5.98 142.797 5.98C143.09 5.98 143.35 5.98667 143.577 6C143.817 6.01333 144.03 6.04 144.217 6.08V7.96H144.057C143.87 7.92 143.65 7.89333 143.397 7.88C143.157 7.86667 142.93 7.86 142.717 7.86C142.304 7.86 141.877 7.89333 141.437 7.96C140.997 8.02667 140.617 8.1 140.297 8.18L140.697 7.62C140.804 8.02 140.857 8.59333 140.857 9.34V17H138.617ZM151.355 17.16C150.422 17.16 149.655 17.0133 149.055 16.72C148.455 16.4267 148.008 16.0067 147.715 15.46C147.422 14.9 147.275 14.22 147.275 13.42V3.2H149.515V13.22C149.515 13.9533 149.675 14.48 149.995 14.8C150.328 15.12 150.848 15.28 151.555 15.28C151.822 15.28 152.082 15.2533 152.335 15.2C152.602 15.1333 152.828 15.06 153.015 14.98H153.195V16.82C152.968 16.9133 152.702 16.9933 152.395 17.06C152.088 17.1267 151.742 17.16 151.355 17.16ZM145.575 7.98V6.1H152.575V7.98H145.575ZM156.213 21.64V21.4L158.753 15.22L162.173 6.1H164.433V6.34L158.393 21.64H156.213ZM158.193 17.58L153.813 6.34V6.1H156.173L159.453 15.12L158.193 17.58Z" fill="#3B3A5D"/>
<path d="M192 12C192 7.58192 188.194 4 183.5 4C178.806 4 175 7.58192 175 12C175 16.4181 178.806 20 183.5 20C188.194 20 192 16.4181 192 12ZM183.31 15.5138C183.249 15.4569 183.201 15.3893 183.167 15.3147C183.134 15.2402 183.117 15.1602 183.117 15.0794C183.116 14.9985 183.133 14.9184 183.165 14.8437C183.198 14.7689 183.246 14.7008 183.306 14.6435L185.444 12.6154H179.986C179.812 12.6154 179.646 12.5506 179.523 12.4351C179.401 12.3197 179.332 12.1632 179.332 12C179.332 11.8368 179.401 11.6803 179.523 11.5649C179.646 11.4495 179.812 11.3846 179.986 11.3846H185.444L183.306 9.35654C183.246 9.29911 183.198 9.23103 183.165 9.15619C183.133 9.08135 183.116 9.00122 183.117 8.92036C183.117 8.8395 183.134 8.7595 183.168 8.68494C183.201 8.61037 183.249 8.54269 183.31 8.48577C183.371 8.42885 183.444 8.38379 183.523 8.35318C183.603 8.32257 183.688 8.30699 183.774 8.30735C183.947 8.30807 184.113 8.37363 184.236 8.48962L187.48 11.5665C187.601 11.6818 187.67 11.8376 187.67 12C187.67 12.1624 187.601 12.3182 187.48 12.4335L184.236 15.5104C184.175 15.5679 184.103 15.6136 184.024 15.6449C183.945 15.6762 183.86 15.6925 183.774 15.6928C183.688 15.6931 183.602 15.6775 183.523 15.6468C183.443 15.6161 183.371 15.5709 183.31 15.5138Z" fill="#FFBB50"/>
</svg>
