<svg width="375" height="146" viewBox="0 0 375 146" fill="none" xmlns="http://www.w3.org/2000/svg">
<path opacity="0.3" d="M355.96 19.2222C355.96 19.2222 351.999 -0.265832 338.792 1.06521C332.79 1.66208 328.775 4.69422 325.294 9.42149C320.829 15.4559 319.228 11.9463 312.841 13.9279C307.124 15.7186 308.002 20.5712 304.479 21.4545C300.956 22.3379 298.323 18.3568 293.478 19.2401C288.633 20.1235 286 25 286 25H374C373.771 23.3432 373.065 21.79 371.971 20.5313C370.876 19.2725 369.44 18.3632 367.838 17.9151C362.122 16.1244 359.477 20.5533 355.96 19.2222Z" stroke="#B05529" stroke-miterlimit="10"/>
<path opacity="0.3" d="M299.96 63.2222C299.96 63.2222 295.999 43.7342 282.792 45.0652C276.79 45.6621 272.775 48.6942 269.294 53.4215C264.829 59.4559 263.228 55.9463 256.841 57.9279C251.124 59.7186 252.002 64.5712 248.479 65.4545C244.956 66.3379 242.323 62.3568 237.478 63.2401C232.633 64.1235 230 69 230 69H318C317.771 67.3432 317.065 65.79 315.971 64.5313C314.876 63.2725 313.44 62.3632 311.838 61.9151C306.122 60.1244 303.477 64.5533 299.96 63.2222Z" stroke="#B05529" stroke-miterlimit="10"/>
<path d="M17.6272 104.109C17.2459 104.487 16.9432 104.936 16.7367 105.432C16.5302 105.928 16.4238 106.459 16.4238 106.996C16.4238 107.533 16.5302 108.065 16.7367 108.561C16.9432 109.056 17.2459 109.506 17.6272 109.884C18.3901 110.637 19.419 111.06 20.4911 111.06C21.5632 111.06 22.5921 110.637 23.355 109.884L26.2189 107.02L23.355 104.156C22.5984 103.397 21.573 102.966 20.5009 102.957C19.4288 102.948 18.3963 103.362 17.6272 104.109ZM21.7798 105.712C22.035 105.967 22.2088 106.292 22.2793 106.646C22.3498 107 22.3138 107.366 22.1758 107.7C22.0378 108.033 21.8041 108.318 21.5042 108.518C21.2044 108.719 20.8518 108.826 20.4911 108.826C20.1304 108.826 19.7778 108.719 19.4779 108.518C19.178 108.318 18.9443 108.033 18.8064 107.7C18.6684 107.366 18.6324 107 18.7029 106.646C18.7734 106.292 18.9472 105.967 19.2023 105.712C19.5442 105.371 20.0078 105.179 20.4911 105.179C20.9744 105.179 21.4379 105.371 21.7798 105.712Z" fill="#C17D5B"/>
<path d="M154.093 37.6848C154.093 38.5816 154.359 39.4584 154.857 40.2041C155.355 40.9498 156.063 41.531 156.892 41.8742C157.721 42.2174 158.632 42.3072 159.512 42.1322C160.392 41.9573 161.2 41.5254 161.834 40.8912C162.468 40.257 162.9 39.4491 163.075 38.5695C163.25 37.6898 163.16 36.7781 162.817 35.9495C162.473 35.1209 161.892 34.4127 161.147 33.9145C160.401 33.4162 159.524 33.1503 158.627 33.1503C157.425 33.1503 156.271 33.628 155.421 34.4784C154.571 35.3288 154.093 36.4822 154.093 37.6848ZM161.577 37.6848C161.577 38.2682 161.404 38.8386 161.08 39.3237C160.756 39.8088 160.295 40.1868 159.756 40.4101C159.217 40.6334 158.624 40.6918 158.052 40.578C157.48 40.4641 156.954 40.1832 156.541 39.7707C156.129 39.3581 155.848 38.8325 155.734 38.2603C155.62 37.6881 155.679 37.095 155.902 36.5559C156.125 36.0169 156.503 35.5562 156.988 35.2321C157.474 34.908 158.044 34.735 158.627 34.735C159.41 34.735 160.16 35.0458 160.713 35.599C161.266 36.1522 161.577 36.9024 161.577 37.6848Z" fill="#C17D5B"/>
<path d="M158.628 35.8899C158.983 35.8899 159.33 35.9952 159.625 36.1924C159.92 36.3896 160.15 36.6699 160.286 36.9979C160.422 37.3258 160.457 37.6867 160.388 38.0348C160.319 38.3829 160.148 38.7027 159.897 38.9537C159.646 39.2047 159.326 39.3756 158.978 39.4449C158.63 39.5141 158.269 39.4786 157.941 39.3428C157.613 39.2069 157.333 38.9769 157.135 38.6818C156.938 38.3866 156.833 38.0396 156.833 37.6846C156.833 37.2087 157.022 36.7522 157.359 36.4156C157.695 36.079 158.152 35.8899 158.628 35.8899Z" fill="#C17D5B"/>
<path opacity="0.2" d="M41.5883 10.0478L32.3474 10.0478L59.3733 38.3338L49.0632 68.2141L-4.39743e-06 44.5481L-4.06819e-06 52.0803L28.462 65.0064L8.24234 131.138L8.24234 138.537L13.2065 138.537L23.8797 108.509L56.1466 126.189L66.2562 84.7102L75.6881 89.6362L61.8233 141.028L68.7349 141.028L81.7692 92.8247L105.034 104.958L99.4587 124.118L111.739 145.15L119.758 145.15L106.743 123.039L111.077 108.118L153.615 130.313L168.05 130.313L140.231 115.793L146.036 96.0418L171.429 96.0418L198.644 57.0085L198.644 41.4383L167.229 89.3593L147.993 89.3593L171.286 10.0478L164.317 10.0478L157.339 33.7133L117.482 26.4771L121.797 10L114.895 10L103.239 54.4577L65.2252 34.7348L41.5883 10.0478ZM51.7075 116.147L25.6649 101.827L34.5622 68.1472L60.1561 81.5122L51.7075 116.147ZM115.783 33.0069L155.477 40.1667L134.189 112.643L95.2869 92.3474L103.879 84.5766L108.652 60.1664L115.783 33.0069ZM101.654 61.207L97.7499 81.0731L88.929 89.0252L55.0488 71.3453L65.0916 42.2478L101.654 61.207Z" fill="#C86839"/>
<path opacity="0.4" d="M29.1016 53.2071L47.5548 62.7535L55.0487 38.3243L41.0919 24.8447C37.6714 34.5323 33.6673 44.0037 29.1016 53.2071Z" fill="#C07650"/>
<path opacity="0.4" d="M59.125 70.1807L66.7717 47.4984L90.5041 58.8395L83.1056 81.8655L59.125 70.1807Z" fill="#C07650"/>
<path opacity="0.4" d="M99.9835 47.4792C99.3438 47.2883 76.6807 36.3386 76.6807 36.3386L81.7307 20.1097L107.363 17.2458L99.9835 47.4792Z" fill="#C07650"/>
<path opacity="0.4" d="M135.133 80.7008C134.847 80.3571 111.63 72.825 111.63 72.825L117.816 37.6847L148.813 43.5366L135.133 80.7008Z" fill="#C07650"/>
<path opacity="0.4" d="M121.864 99.6121L125.358 89.0156L135.134 94.3139C135.134 94.3139 132.575 105.474 131.821 105.474C131.067 105.474 121.864 99.6121 121.864 99.6121Z" fill="#C07650"/>
<path opacity="0.4" d="M151.267 99.0299C151.897 99.2876 170.035 102.963 182.13 105.397L182.13 129.578L147.878 114.696L151.267 99.0299Z" fill="#C07650"/>
<path opacity="0.4" d="M173.892 10.0479L182.159 10.0479L182.159 30.019L172.851 58.1809C169.032 57.2835 165.328 56.2716 161.644 55.0688L173.892 10.0479Z" fill="#C07650"/>
<path opacity="0.4" d="M160.633 58.6676L155.134 78.8487L165.052 81.7126L171.659 61.732C167.936 60.8442 164.251 59.8896 160.633 58.6676Z" fill="#C07650"/>
<path opacity="0.4" d="M134.179 10.0477L155.315 10.0477L151.267 28.6155L131.258 24.8351L134.179 10.0477Z" fill="#C07650"/>
<path opacity="0.4" d="M93.6733 121.168L80.2129 115.278L85.0434 98.8771L99.1052 105.474L93.6733 121.168Z" fill="#C07650"/>
<path opacity="0.4" d="M46.8481 106.228L32.1943 98.1421L38.5618 76.2044L54.2084 83.5647L46.8481 106.228Z" fill="#C07650"/>
<path opacity="0.4" d="M13.1875 62.3908C17.302 64.4242 22.5239 67.0495 22.858 67.4695C23.1921 67.8896 16.3187 95.0109 13.1875 107.001L13.1875 62.3908Z" fill="#C07650"/>
<path opacity="0.4" d="M27.8986 115.287L59.2968 130.313L23.9941 130.313L27.8986 115.287Z" fill="#C07650"/>
<path d="M153.176 35.8804L153.176 36.0522C153.132 36.2997 152.992 36.5198 152.786 36.6645C152.581 36.8093 152.327 36.8671 152.079 36.8255L114.38 30.2958C112.967 34.9162 105.788 58.8491 101.874 81.9896C101.841 82.1976 101.741 82.3889 101.588 82.5337L89.6451 93.5407C89.5023 93.6732 89.3225 93.7588 89.1296 93.7861C88.9368 93.8134 88.7403 93.7811 88.5664 93.6935L63.9748 80.9204L54.8293 121.34C54.7961 121.484 54.7299 121.619 54.6358 121.733C54.5418 121.847 54.4224 121.938 54.2873 121.998C54.1521 122.058 54.0048 122.086 53.857 122.08C53.7092 122.073 53.5649 122.032 53.4356 121.96L28.6149 108.366C28.5046 108.304 28.4077 108.22 28.3297 108.12C28.2518 108.02 28.1943 107.905 28.1606 107.783C28.127 107.66 28.1177 107.533 28.1334 107.407C28.1491 107.281 28.1894 107.159 28.2521 107.049C28.3148 106.939 28.3986 106.842 28.4987 106.764C28.5989 106.686 28.7133 106.628 28.8357 106.595C28.958 106.561 29.0858 106.552 29.2117 106.567C29.3376 106.583 29.4592 106.623 29.5695 106.686L53.2828 119.717L62.4283 79.3261C62.4599 79.1829 62.5242 79.049 62.616 78.9347C62.7078 78.8203 62.8247 78.7287 62.9577 78.6668C63.0906 78.605 63.236 78.5746 63.3826 78.578C63.5292 78.5814 63.673 78.6185 63.803 78.6865L88.8814 91.7269L100.06 81.3881C104.413 55.7274 112.738 29.2266 112.824 28.9593C112.894 28.7405 113.041 28.5544 113.237 28.4352C113.434 28.3159 113.666 28.2715 113.893 28.3101L152.375 34.9448C152.597 34.9809 152.8 35.0947 152.947 35.2659C153.093 35.4372 153.175 35.6549 153.176 35.8804Z" fill="#C17D5B"/>
<path d="M173.186 22.9847C169.305 19.1526 164.045 17 158.56 17C153.075 17 147.815 19.1526 143.934 22.9847C140.131 26.8103 138 31.9594 138 37.3231C138 42.6869 140.131 47.836 143.934 51.6616L158.439 66L172.944 51.6616C176.779 47.8674 178.954 42.7358 178.999 37.372C179.044 32.0082 176.957 26.8415 173.186 22.9847ZM165.063 43.871C163.777 45.139 162.14 46.0019 160.359 46.3506C158.578 46.6994 156.732 46.5184 155.054 45.8305C153.377 45.1425 151.943 43.9786 150.935 42.4857C149.926 40.9927 149.388 39.2378 149.388 37.4426C149.388 35.6474 149.926 33.8925 150.935 32.3996C151.943 30.9067 153.377 29.7427 155.054 29.0548C156.732 28.3669 158.578 28.1859 160.359 28.5346C162.14 28.8834 163.777 29.7463 165.063 31.0142C165.942 31.8643 166.64 32.8793 167.116 33.9995C167.593 35.1198 167.838 36.3229 167.838 37.5382C167.838 38.7535 167.593 39.9566 167.116 41.0769C166.64 42.1972 165.942 43.2121 165.063 44.0622V43.871Z" fill="#BD6C43"/>
</svg>
