<svg width="442" height="464" viewBox="0 0 442 464" fill="none" xmlns="http://www.w3.org/2000/svg">
<rect width="442" height="464" rx="5" fill="url(#paint0_linear_1_5121)"/>
<mask id="mask0_1_5121" style="mask-type:alpha" maskUnits="userSpaceOnUse" x="0" y="0" width="442" height="464">
<rect width="442" height="464" rx="5" fill="url(#paint1_linear_1_5121)"/>
</mask>
<g mask="url(#mask0_1_5121)">
<g opacity="0.3">
<path d="M419.056 67.2806C418.868 67.2974 418.686 67.3565 418.524 67.4535C418.363 67.5506 418.225 67.683 418.121 67.8409C418.018 67.9988 417.952 68.1781 417.927 68.3653C417.903 68.5524 417.922 68.7427 417.981 68.9217C438.561 128.817 494.33 178.679 563.309 199.018C563.511 199.109 563.727 199.167 563.947 199.189L564.6 196.751C564.429 196.668 564.243 196.618 564.054 196.605C496.162 176.582 441.346 127.536 421.025 68.5896C420.907 68.1722 420.644 67.8108 420.283 67.5708C419.922 67.3307 419.487 67.2278 419.056 67.2806Z" fill="#E7B8A3"/>
<path d="M456.124 166.342C442.733 177.405 467.433 187.93 480.331 181.35C493.312 175.281 503.588 172.564 508.041 173.44C505.088 171.794 502.176 170.086 499.328 168.322C499.18 168.966 469.373 156.266 456.124 166.342Z" fill="#E7B8A3"/>
<path d="M429.923 139.64C414.337 148.503 436.947 162.18 451.18 157.545C465.345 153.526 476.122 152.312 480.359 153.813C477.75 151.796 475.198 149.744 472.711 147.637C472.447 148.348 445.159 131.806 429.923 139.64Z" fill="#E7B8A3"/>
<path d="M459.637 90.8034C441.709 96.7439 450.155 123.548 450.865 123.543C452.762 126.029 454.712 128.505 456.725 130.925C455.461 127.167 458.723 118.274 467.966 108.932C476.79 99.3308 476.511 84.6048 459.637 90.8034Z" fill="#E7B8A3"/>
<path d="M408.882 109.9C391.548 116.268 411.539 132.882 426.655 130.51C441.585 128.65 452.615 129.042 456.533 131.19C454.323 128.865 452.172 126.506 450.084 124.09C449.761 124.566 425.662 104.507 408.882 109.9Z" fill="#E7B8A3"/>
<path d="M448.111 66.5679C428.97 69.7418 432.256 97.2143 433.015 97.2957C434.44 99.9973 435.917 102.688 437.474 105.352C436.915 101.515 441.893 93.3256 452.986 85.5537C463.615 77.5107 466.163 63.0783 448.111 66.5679Z" fill="#E7B8A3"/>
<path d="M393.552 77.7109C374.964 81.3746 391.788 100.607 407.369 100.509C422.702 100.881 433.597 102.872 437.226 105.457C435.473 102.887 433.738 100.249 432.152 97.6015C431.736 98.1495 411.409 74.9503 393.552 77.7109Z" fill="#E7B8A3"/>
<path d="M424.508 81.5615C424.285 81.9411 406.547 60.9253 402.976 47.3683C399.057 34.1087 409.447 29.323 415.937 31.6235C422.426 33.924 424.817 43.1357 424.869 50.9635C424.187 61.1485 424.066 71.3633 424.508 81.5615Z" fill="#E7B8A3"/>
<path d="M425.532 81.9335L425.502 82.0474C425.379 82.2213 425.207 82.3552 425.008 82.4322C424.81 82.5092 424.593 82.5261 424.384 82.4806C424.237 82.4648 424.096 82.4125 423.973 82.3286C423.851 82.2446 423.751 82.1316 423.683 81.9996C419.737 78.5003 405.112 59.1733 402.052 47.5359C400.091 41.0033 401.397 35.4926 405.62 32.3997C407.157 31.2977 408.935 30.5771 410.806 30.2972C412.677 30.0174 414.587 30.1862 416.38 30.7899C425.335 33.8241 426.033 47.0753 426.063 51.0637C425.393 58.5761 425.285 79.3032 425.606 81.2939C425.639 81.3998 425.649 81.5113 425.636 81.6214C425.623 81.7315 425.588 81.8377 425.532 81.9335ZM403.968 37.7443C402.879 40.8118 402.905 44.1648 404.043 47.2146C406.844 57.9036 418.461 73.055 423.172 78.7126C423.107 76.7662 423.117 73.8141 423.176 68.9462C423.244 62.8597 423.43 54.8756 423.803 50.751C423.74 43.2377 421.583 34.4304 415.632 32.3965C414.188 31.9318 412.654 31.8143 411.156 32.0535C409.658 32.2927 408.237 32.882 407.01 33.7733C405.633 34.7748 404.576 36.1542 403.968 37.7443Z" fill="#E7B8A3"/>
<path d="M560.883 210.626C454.126 214.717 345.729 170.069 277.496 93.4493C277.059 92.9666 276.469 92.648 275.826 92.5466C275.182 92.4453 274.523 92.5671 273.958 92.892C273.707 93.0413 273.493 93.2462 273.334 93.491C273.174 93.7357 273.073 94.0139 273.038 94.3039C273.002 94.594 273.034 94.8883 273.13 95.1642C273.227 95.4401 273.385 95.6903 273.593 95.8954C342.557 173.248 451.818 218.592 559.711 215L560.883 210.626Z" fill="#E7B8A3"/>
<path d="M424.794 152.038C412.746 175.402 454.127 201.409 455.019 200.721C460.068 202.171 465.164 203.537 470.307 204.817C464.348 201.267 457.02 187.24 455.576 167.294C453.346 147.454 435.342 129.346 424.794 152.038Z" fill="#E7B8A3"/>
<path d="M393.633 221.121C382.787 244.465 424.121 247.409 437.379 231.011C451.139 215.382 463.448 206.08 470.198 205.13C464.98 204.188 459.792 203.139 454.631 201.984C454.923 202.99 404.979 199.375 393.633 221.121Z" fill="#E7B8A3"/>
<path d="M383.668 132.276C367.089 153.229 403.257 184.385 404.21 183.834C408.961 185.97 413.771 188.008 418.64 189.947C413.403 185.614 408.901 170.977 411.416 151.383C413.071 131.901 398.78 111.784 383.668 132.276Z" fill="#E7B8A3"/>
<path d="M338.996 194.832C323.57 215.948 364.291 224.735 380.764 210.737C397.538 197.528 411.604 190.235 418.498 190.3C413.491 188.633 408.543 186.867 403.654 185.004C403.745 186.029 354.605 175.402 338.996 194.832Z" fill="#E7B8A3"/>
<path d="M346.313 107.103C325.642 125.104 355.838 160.593 356.875 160.187C361.207 162.975 365.611 165.645 370.088 168.196C365.72 163.265 364.094 148.373 370.403 129.747C375.879 111.044 365.327 89.3655 346.313 107.103Z" fill="#E7B8A3"/>
<path d="M289.363 161.437C269.814 179.714 308.94 194.178 328.136 182.961C347.507 172.548 362.999 167.493 369.854 168.524C365.201 166.203 360.607 163.783 356.073 161.266C355.971 162.191 308.832 144.823 289.363 161.437Z" fill="#E7B8A3"/>
<path d="M313.601 76.9952C289.356 91.4746 312.906 130.531 313.962 130.325C317.786 133.645 321.685 136.863 325.671 140.031C322.244 134.595 323.492 119.912 333.412 102.669C342.571 85.3438 336.123 62.5669 313.601 76.9952Z" fill="#E7B8A3"/>
<path d="M245.929 121.4C222.781 136.344 259.302 156.337 280.768 148.219C302.249 140.959 318.76 138.302 325.426 140.308C321.184 137.364 317.046 134.31 313.01 131.145C312.711 132.261 268.683 108.205 245.929 121.4Z" fill="#E7B8A3"/>
</g>
</g>

<defs>
<linearGradient id="paint0_linear_1_5121" x1="11.2373" y1="11" x2="393.305" y2="489.629" gradientUnits="userSpaceOnUse">
<stop stop-color="#F3D1C1"/>
<stop offset="1" stop-color="#FFEEE6"/>
</linearGradient>
<linearGradient id="paint1_linear_1_5121" x1="11.2373" y1="11" x2="393.305" y2="489.629" gradientUnits="userSpaceOnUse">
<stop stop-color="#F3D1C1"/>
<stop offset="1" stop-color="#FFEEE6"/>
</linearGradient>
</defs>
</svg>
