<svg width="921" height="464" viewBox="0 0 921 464" fill="none" xmlns="http://www.w3.org/2000/svg">
<rect width="921" height="464" rx="5" fill="url(#paint0_linear_1_5000)"/>
<mask id="mask0_1_5000" style="mask-type:alpha" maskUnits="userSpaceOnUse" x="0" y="0" width="921" height="464">
<rect width="921" height="464" rx="5" fill="#F3D1C1"/>
</mask>
<g mask="url(#mask0_1_5000)">
<path d="M614.365 370.522C624.454 368.168 642.763 353.859 642.787 353.838C642.81 353.817 629.691 344.633 628.79 344.159C618.319 338.65 594.877 334.164 585.428 343.437C578.614 350.117 580.054 360.839 587.085 366.701C594.116 372.562 605.763 372.537 614.365 370.522Z" fill="#F8DACC" fill-opacity="0.69"/>
<path d="M870.325 517.097L871.481 518.249L880.514 515.826C878.94 514.362 877.321 512.896 875.66 511.383C870.938 507.11 865.808 502.624 860.504 498.083C863.985 492.386 867.132 486.491 869.928 480.427C879.735 482.255 898.776 478.756 901.235 478.287C902.86 484.356 904.287 490.287 905.6 495.899C906.503 499.764 907.335 503.473 908.121 507.063L915.17 501.81C914.495 499.287 913.904 496.698 913.216 494.017C911.569 487.867 909.809 481.293 907.903 474.555C910.215 473.481 929.019 464.623 935.389 457.214C941.128 450.501 946.572 440.344 944.581 431.216C942.59 422.088 933.774 416.048 924.694 419.009C912.127 423.125 905.288 446.022 905.35 457.816C905.348 458.518 906.235 466.086 906.865 470.842C906.135 468.115 905.31 465.413 904.459 462.615C902.804 457.037 900.991 451.516 899.05 445.576C898.01 442.746 896.966 439.883 895.918 436.988C894.939 434.093 893.528 431.168 892.329 428.215C889.409 421.456 886.134 414.733 882.679 408.045C887.544 406.579 904.79 401.121 911.506 395.329C918.221 389.538 925.112 380.367 924.528 371.037C923.943 361.708 916.132 354.404 906.734 355.959C893.676 358.131 883.456 379.743 881.719 391.42C881.608 392.151 881.283 400.702 881.235 405.377C879.128 401.382 877.045 397.365 874.782 393.383C868.241 381.879 861.263 370.435 854.357 358.985C852.239 355.49 850.171 351.966 848.093 348.46C849.837 347.992 870.454 341.922 877.975 335.432C884.671 329.676 891.595 320.466 890.997 311.14C890.399 301.814 882.615 294.503 873.204 296.062C860.146 298.234 849.939 319.842 848.202 331.519C848.073 332.401 847.653 344.69 847.703 347.819C843.117 340.074 838.617 332.321 834.493 324.496C828.868 313.968 823.935 303.085 819.724 291.915C820.528 291.699 842.101 285.49 849.815 278.846C856.506 273.075 863.417 263.87 862.833 254.54C862.248 245.21 854.451 237.903 845.043 239.476C831.981 241.634 821.778 263.255 820.028 274.936C819.892 275.849 819.43 289.07 819.546 291.466C819.367 290.797 818.99 290.153 818.76 289.513C814.838 278.19 811.934 266.539 810.083 254.699C808.977 248.169 808.283 241.865 807.748 235.723C811.927 234.968 830.738 231.37 838.339 226.16C845.618 221.167 853.508 212.781 853.93 203.444C854.351 194.108 847.433 185.995 837.901 186.505C824.689 187.227 812.172 207.569 809.172 219.058C809.018 219.684 808.043 226.187 807.418 230.944C807.214 228.164 806.961 225.308 806.817 222.643C806.25 212.563 806.395 203.447 806.552 195.307C806.687 190.681 806.882 186.448 807.146 182.577C810.77 179.749 825.489 168.069 829.752 160.1C834.015 152.13 837.065 141.212 833.145 132.733C829.225 124.254 819.33 120.242 811.121 125.09C799.778 131.815 797.968 155.658 800.574 167.194C800.837 168.176 806.092 183.386 806.318 183.194L806.551 183.029C806.241 186.781 805.964 190.817 805.73 195.235C805.384 203.382 805.077 212.6 805.404 222.656C805.644 233.491 806.51 244.303 807.998 255.039C809.622 267.067 812.308 278.927 816.025 290.48C816.062 290.617 816.102 290.767 816.138 290.903C813.838 287.764 807.253 279.151 806.668 278.548C798.45 270.053 777.564 258.479 765.697 264.337C757.145 268.56 755.175 279.203 760.068 286.953C764.962 294.703 776.006 298.319 784.786 299.092C794.707 299.983 815.068 292.798 816.681 292.219C820.765 303.898 825.621 315.292 831.215 326.325C834.403 332.779 837.877 339.156 841.419 345.514C839.362 342.85 837.516 340.48 837.23 340.177C828.998 331.685 808.126 320.108 796.245 325.969C787.693 330.192 785.723 340.835 790.617 348.585C795.51 356.335 806.555 359.951 815.348 360.721C824.141 361.491 841.762 355.742 846.362 354.157C847.74 356.579 849.123 359.015 850.474 361.445C857.143 373.045 863.855 384.59 870.085 396.133C872.282 400.192 874.294 404.271 876.279 408.358C874.467 406.008 872.914 404.028 872.636 403.751C864.418 395.256 843.546 383.679 831.665 389.54C823.113 393.763 821.143 404.406 826.036 412.156C830.93 419.906 841.974 423.522 850.767 424.292C859.279 425.049 875.463 419.876 880.951 418.009C882.904 422.251 884.857 426.492 886.563 430.682C887.659 433.575 888.909 436.28 889.866 439.254C890.822 442.228 891.842 445.053 892.81 447.907C894.478 453.482 896.247 459.219 897.746 464.708C898.765 468.513 899.739 472.154 900.722 475.823C898.58 471.749 894.221 463.87 893.793 463.254C887.461 454.999 879.121 448.504 869.569 444.39C868.902 443.444 868.152 442.559 867.328 441.747C860.757 435.367 849.942 435.066 844.029 442.543C835.809 452.918 842.709 475.8 849.297 485.624C849.686 486.206 854.588 492.025 857.817 495.632C855.631 493.792 853.537 491.971 851.277 490.077C846.818 486.347 842.261 482.746 837.364 478.855L830.063 473.403C827.65 471.536 824.868 469.87 822.24 468.075C816.078 464.042 809.643 460.243 803.097 456.575C806.358 452.661 817.734 438.588 820.144 430.078C822.554 421.568 823.247 410.083 817.612 402.619C811.978 395.156 801.453 393.374 794.463 399.882C784.77 408.899 788.151 432.548 793.153 443.266C793.461 443.929 797.923 451.21 800.442 455.168C796.471 452.988 792.526 450.801 788.491 448.711C776.668 442.732 764.582 437.028 752.507 431.306C748.809 429.55 745.148 427.769 741.471 425.978C742.649 424.595 756.521 408.172 759.235 398.616C761.631 390.109 762.334 378.607 756.69 371.161C751.045 363.715 740.531 361.916 733.55 368.407C723.861 377.437 727.225 401.076 732.226 411.794C732.603 412.599 739.041 423.121 740.802 425.66C732.712 421.735 724.679 417.75 716.929 413.514C706.429 407.824 696.307 401.462 686.624 394.468C687.182 393.822 701.742 376.747 704.51 366.957C706.919 358.447 707.612 346.962 701.978 339.499C696.343 332.035 685.805 330.257 678.828 336.761C669.135 345.778 672.517 369.427 677.514 380.131C677.902 380.978 684.832 392.245 686.23 394.194C685.669 393.789 685.047 393.43 684.455 393.019C674.831 385.739 665.877 377.613 657.699 368.738C653.176 363.9 649.129 359.036 645.294 354.204C648.328 351.3 662.07 337.879 665.54 329.348C668.852 321.151 670.81 309.81 666.032 301.78C661.253 293.751 650.973 290.807 643.325 296.498C632.693 304.407 633.46 328.275 637.303 339.464C637.471 340.092 640.287 345.972 642.393 350.348C640.693 348.144 638.893 345.893 637.31 343.745C631.348 335.712 626.373 327.983 622.031 321.094C619.59 317.159 617.456 313.551 615.51 310.155C617.003 305.75 622.818 287.921 621.969 278.911C621.147 270.113 617.653 259.137 609.721 254.219C601.789 249.301 591.307 251.44 587.132 260.014C581.341 271.931 592.983 292.78 601.538 300.952C602.282 301.658 615.069 311.399 615.154 311.171L615.246 310.913C617.063 314.211 619.046 317.743 621.303 321.538C625.495 328.525 630.319 336.397 636.133 344.587C642.293 353.498 648.968 362.04 656.125 370.169C664.104 379.306 672.879 387.715 682.348 395.294L682.708 395.548C679.081 394.167 668.812 390.665 668.001 390.474C656.455 387.928 632.657 389.808 625.992 401.243C621.19 409.489 625.405 419.452 633.726 423.258C642.046 427.063 653.286 423.932 661.054 419.729C669.802 414.985 682.845 397.806 683.864 396.378C693.689 403.859 704.002 410.674 714.736 416.777C720.969 420.367 727.36 423.784 733.809 427.141C730.598 426.058 727.8 425.098 727.395 425.003C715.848 422.457 692.064 424.334 685.385 435.772C680.579 444.004 684.798 453.981 693.129 457.769C701.46 461.557 712.679 458.461 720.444 454.244C728.209 450.028 739.719 435.525 742.682 431.646C745.18 432.905 747.641 434.189 750.151 435.49C762.111 441.491 774.067 447.42 785.665 453.591C789.735 455.759 793.665 458.053 797.607 460.342C794.778 459.376 792.404 458.581 792.029 458.491C780.486 455.959 756.685 457.826 750.02 469.26C745.204 477.51 749.433 487.47 757.754 491.275C766.075 495.08 777.314 491.949 785.082 487.746C792.593 483.671 803.241 470.423 806.778 465.849C810.751 468.306 814.723 470.764 818.462 473.328C820.973 475.124 823.511 476.695 825.928 478.634L833.15 484.225C837.623 487.951 842.252 491.767 846.527 495.517C849.51 498.094 852.272 500.612 855.138 503.133C851.114 500.923 843.133 496.749 842.434 496.483C831.406 492.22 807.599 490.463 799.268 500.751C793.276 508.205 795.932 518.675 803.596 523.679C811.259 528.684 822.818 527.294 831.124 524.336C840.281 521.062 855.221 506.662 857.072 504.85C861.649 509.016 866.128 513.092 870.325 517.097Z" fill="#F8DACC" fill-opacity="0.69"/>
</g>
<defs>
<linearGradient id="paint0_linear_1_5000" x1="23.4153" y1="11" x2="285.194" y2="694.331" gradientUnits="userSpaceOnUse">
<stop stop-color="#F3D1C1"/>
<stop offset="1" stop-color="#FFEEE6"/>
</linearGradient>
</defs>
</svg>
