<svg width="280" height="192" viewBox="0 0 280 192" fill="none" xmlns="http://www.w3.org/2000/svg">
<path d="M9.91092 42.2379C22.5917 18.8915 54.4917 -8.3621 98.2541 2.9899C142.017 14.3419 171.585 38.3571 166.74 80.1395C161.896 121.922 136.437 156.638 81.6001 157.654C26.7629 158.671 -17.8971 93.4319 9.91092 42.2379Z" fill="#EAB196"/>
<path d="M35.9268 133.583L42.8128 135.695L37.6956 129.667C40.5008 126.548 42.1069 122.534 42.2276 118.341" stroke="#A7542A" stroke-linecap="round" stroke-linejoin="round"/>
<path d="M27.5713 136.24C29.8794 135.504 32.0575 134.409 34.0261 132.997" stroke="#A7542A" stroke-linecap="round" stroke-linejoin="round"/>
<path d="M1 123.436C3.0284 133.209 13.826 139.228 25.1208 136.887" stroke="#A7542A" stroke-linecap="round" stroke-linejoin="round"/>
<path d="M2.6459 112.419C2.2124 113.242 1.84459 114.098 1.5459 114.979" stroke="#A7542A" stroke-linecap="round" stroke-linejoin="round"/>
<path d="M41.8983 114.953C39.8743 105.181 29.0723 99.1613 17.7819 101.507C12.655 102.513 8.0345 105.264 4.70508 109.29" stroke="#A7542A" stroke-linecap="round" stroke-linejoin="round"/>
<path d="M29.9164 111.371C26.6648 107.829 22.234 110.284 20.3904 113.879C17.3456 111.239 12.3164 110.592 10.618 115.094C7.74924 122.675 17.5612 127.299 22.102 128.971C22.6168 129.165 23.0392 129.328 23.3912 129.446C23.6772 129.204 24.0116 128.896 24.4164 128.527C28.0068 125.284 35.3988 117.346 29.9164 111.371Z" stroke="#A7542A" stroke-linecap="round" stroke-linejoin="round"/>
<path d="M130.718 15.7675L124.069 12.9999L128.579 19.4943C125.497 22.328 123.52 26.1635 123 30.3183" stroke="#A7542A" stroke-linecap="round" stroke-linejoin="round"/>
<path d="M139.28 13.915C136.913 14.4282 134.641 15.307 132.544 16.5198" stroke="#A7542A" stroke-linecap="round" stroke-linejoin="round"/>
<path d="M164.505 29.2183C163.427 19.2875 153.258 12.2475 141.792 13.5103" stroke="#A7542A" stroke-linecap="round" stroke-linejoin="round"/>
<path d="M161.808 40.0246C162.311 39.2462 162.752 38.4298 163.128 37.5826" stroke="#A7542A" stroke-linecap="round" stroke-linejoin="round"/>
<path d="M123 33.7239C124.078 43.6459 134.246 50.6771 145.713 49.4319C150.912 48.9211 155.774 46.6282 159.476 42.9419" stroke="#A7542A" stroke-linecap="round" stroke-linejoin="round"/>
<path d="M148.575 39.7959C153.659 37.0745 155.574 30.747 152.853 25.663C150.131 20.5791 143.804 18.6639 138.72 21.3853C133.636 24.1067 131.721 30.4342 134.442 35.5182C137.164 40.6021 143.491 42.5173 148.575 39.7959Z" stroke="#A7542A" stroke-linecap="round" stroke-linejoin="round"/>
<path d="M139.681 31.9111L142.805 34.8591L148.014 25.8875" stroke="#A7542A" stroke-linecap="round" stroke-linejoin="round"/>
<path opacity="0.2" d="M78.8542 108.248C78.8542 108.248 76.9611 131.156 79.6998 136.713C82.4384 142.27 83.8103 180.238 82.5819 185.014C82.5819 185.014 91.3987 187.237 94.8871 184.078C98.3755 180.919 103.741 183.961 112.579 180.887C121.417 177.814 115.041 109.593 115.041 109.593L115.312 84.7754L100.737 71.7896L78.8542 108.248Z" fill="black" fill-opacity="0.7"/>
<path d="M90.6067 119.266C90.5517 119.43 90.4629 119.58 90.3461 119.707C88.4637 121.489 80.4286 123.467 73.5263 124.892C67.8098 126.078 62.8909 126.881 62.8909 126.881C62.8909 126.881 59.1047 95.4161 59.1047 92.1085C59.1047 88.8009 53 35.2518 53 35.2518L67.6343 34.619L87.0492 33.7788C87.0492 33.7788 87.1661 35.2093 87.3629 37.7086C88.6445 53.6297 93.0475 112.986 90.6067 119.266Z" fill="#F4BEA5"/>
<path opacity="0.2" d="M90.6061 119.266L73.5257 122.76L67.0753 124.084C65.3258 122.366 63.9911 122.334 63.9911 122.334L63.4593 117.522L62.6244 109.646L55.2754 40.3569C56.8707 39.2561 57.6577 36.8472 57.6577 36.8472L67.4954 36.4909L84.5386 35.8688L87.3517 37.6874C88.6439 53.6298 93.0469 112.986 90.6061 119.266Z" fill="black" fill-opacity="0.7"/>
<path d="M90.6061 119.266L73.5257 122.76L67.0753 124.084C65.3258 122.366 63.9911 122.334 63.9911 122.334L63.4593 117.522L62.6244 109.646L55.2754 40.3569C56.8707 39.2561 57.6577 36.8472 57.6577 36.8472L67.4954 36.4909L84.5386 35.8688L87.3517 37.6874C88.6439 53.6298 93.0469 112.986 90.6061 119.266Z" stroke="#A7542A" stroke-linecap="round" stroke-linejoin="round"/>
<path d="M64.8955 98.8673L70.5961 98.8567L70.6014 100.638L69.0167 101.202L65.3635 101.601L64.8955 98.8673Z" fill="#F4BEA5" stroke="#A7542A" stroke-linecap="round" stroke-linejoin="round"/>
<path d="M65.2461 102.537L69.4364 102.393L70.5106 102.903L70.4574 105.27L65.5652 105.323L65.2461 102.537Z" fill="#F4BEA5" stroke="#A7542A" stroke-linecap="round" stroke-linejoin="round"/>
<path d="M65.9162 106.317L70.7022 105.972L70.649 107.764L68.3358 108.583L65.8896 108.444L65.9162 106.317Z" fill="#F4BEA5" stroke="#A7542A" stroke-linecap="round" stroke-linejoin="round"/>
<path d="M66.2035 109.338L70.0695 109.535L70.4205 110.524L69.8568 111.614L66.4003 111.837L65.8047 110.151L66.2035 109.338Z" fill="#F4BEA5" stroke="#A7542A" stroke-linecap="round" stroke-linejoin="round"/>
<path d="M70.6595 112.8L71.1913 114.347C71.2762 114.512 71.3205 114.694 71.3205 114.879C71.3205 115.064 71.2762 115.246 71.1913 115.411C71.0924 115.524 70.9662 115.609 70.8246 115.66C70.6831 115.71 70.5311 115.723 70.383 115.698C70.0852 115.671 69.7927 115.57 69.495 115.554C68.5963 115.517 67.772 116.256 66.8893 116.086C66.5436 115.129 65.6715 113.725 66.8521 113.294C67.0701 113.225 70.7872 113.151 70.6595 112.8Z" fill="#F4BEA5" stroke="#A7542A" stroke-linecap="round" stroke-linejoin="round"/>
<path d="M70.6436 117.155C70.7279 117.523 70.7883 117.896 70.8244 118.272C70.8783 118.509 70.8705 118.757 70.8016 118.99C70.7327 119.224 70.6051 119.436 70.4309 119.606C70.2041 119.731 69.9504 119.798 69.6917 119.803L66.6181 120.08C66.5732 119.499 66.5644 118.917 66.5915 118.335C66.7723 117.644 66.6447 117.703 67.2988 117.421C68.3357 116.979 69.5801 117.681 70.6436 117.155Z" fill="#F4BEA5" stroke="#A7542A" stroke-linecap="round" stroke-linejoin="round"/>
<path d="M59.4658 41.9309C59.4658 41.9309 60.6251 53.1353 60.6783 55.3528" stroke="#A7542A" stroke-linecap="round" stroke-linejoin="round"/>
<path d="M61.9648 42.0532L62.5073 48.2271" stroke="#A7542A" stroke-linecap="round" stroke-linejoin="round"/>
<path d="M70.6279 39.7188L71.3299 46.9561L72.3136 47.0518L71.9946 39.7879L70.6279 39.7188Z" fill="#F4BEA5" stroke="#A7542A" stroke-linecap="round" stroke-linejoin="round"/>
<path opacity="0.2" d="M90.6059 119.266C90.5509 119.43 90.4622 119.58 90.3454 119.707C88.4629 121.489 80.4279 123.467 73.5255 124.892V120.106L63.4804 117.532L61.9648 117.144L62.6455 109.657L65.2459 81.0477L67.5165 36.5121L67.6122 34.619L87.0484 33.7788C87.0484 33.7788 87.1654 35.2093 87.3621 37.7086C88.6437 53.6297 93.0467 112.986 90.6059 119.266Z" fill="black" fill-opacity="0.7"/>
<path d="M90.6067 119.266C90.5517 119.43 90.4629 119.58 90.3461 119.707C88.4637 121.489 80.4286 123.467 73.5263 124.892C67.8098 126.078 62.8909 126.881 62.8909 126.881C62.8909 126.881 59.1047 95.4161 59.1047 92.1085C59.1047 88.8009 53 35.2518 53 35.2518L67.6343 34.619L87.0492 33.7788C87.0492 33.7788 87.1661 35.2093 87.3629 37.7086C88.6445 53.6297 93.0475 112.986 90.6067 119.266Z" stroke="#A7542A" stroke-linecap="round" stroke-linejoin="round"/>
<path d="M100.907 190.666C101.029 189.544 99.2637 173.448 99.2318 171.698C99.1467 166.912 97.7907 160.632 97.7907 160.632C95.8976 155.793 94.4246 144.642 89.3728 137.49C84.321 130.337 84.3263 121.925 83.4861 114.783C82.6459 107.641 82.8533 108.258 83.066 101.92C83.2194 97.1582 83.0079 92.392 82.4332 87.6629C82.0131 83.4513 81.1729 76.0437 82.4332 72.5926C83.6935 69.1414 86.9905 68.3384 90.6012 71.7949C94.2119 75.2514 95.6849 89.423 95.6849 91.1726C95.6849 92.9221 95.6849 98.3887 96.9505 100.494C96.9505 100.494 104.103 96.8359 104.103 95.8255C104.103 94.8152 103.89 85.8868 104.943 85.4082L100.737 71.7949L108.713 68.9606C110.215 70.3073 111.512 71.8658 112.563 73.587C113.464 75.0121 114.217 76.5247 114.813 78.1017C118.179 87.0301 123.587 93.2571 124.703 95.8255C125.82 98.394 124.703 118.793 124.703 122.584C124.703 126.376 122.257 143.855 122.321 146.796C122.369 148.923 123.805 156.835 125.235 162.903C125.767 165.243 128.995 182.195 129.489 183.541L100.907 190.666Z" fill="#F7D4C2"/>
<path opacity="0.7" d="M159.976 150.613C164.226 163.1 134.948 181.261 134.948 181.261C107.285 197.02 69.2635 183.353 60.787 177.01C52.3106 170.667 44.3768 173.487 26.8609 168.349" stroke="#A7542A"/>
<path opacity="0.4" d="M107.203 84.5095C107.15 85.6528 108.516 94.7673 108.516 94.7673C109.463 97.0379 104.294 104.781 104.294 104.781C103.177 105.408 102.699 109.301 102.699 109.301C99.1999 108.524 91.1861 100.468 91.1861 100.468C91.1861 100.468 90.2396 103.77 89.176 111.943C88.1125 120.117 94.8553 139.532 97.7269 152.937C100.598 166.343 99.2318 171.682 99.2318 171.682C99.1467 166.896 97.7907 160.616 97.7907 160.616C95.8976 155.777 94.4246 144.626 89.3728 137.474C84.321 130.321 84.3263 121.925 83.4861 114.783C82.6459 107.641 82.8533 108.258 83.066 101.92C83.2194 97.1582 83.0079 92.392 82.4332 87.6629C82.0131 83.4513 81.1729 76.0437 82.4332 72.5926C83.6935 69.1414 86.9905 68.3384 90.6012 71.7949C94.2119 75.2514 95.6849 89.423 95.6849 91.1726C95.6849 92.9221 95.6849 98.3887 96.9505 100.494C96.9505 100.494 104.103 96.8359 104.103 95.8255C104.103 94.8152 103.89 85.8868 104.943 85.4082L100.737 71.7949L108.713 68.9606C110.215 70.3073 111.512 71.8658 112.563 73.587C109.984 78.7451 107.256 83.7969 107.203 84.5095Z" fill="#F4BEA5"/>
<path opacity="0.4" d="M120.615 148.205C120.966 145.014 122.013 137.431 122.678 132.698C121.864 136.394 120.551 138.266 120.551 138.266C120.551 138.266 122.816 111.146 123.039 109.492C123.263 107.838 125.549 100.404 124.709 95.799C125.826 98.3621 124.709 118.766 124.709 122.558C124.709 126.349 122.263 143.828 122.327 146.769C122.375 148.896 124.656 162.451 126.086 168.518C123.013 164.051 120.264 151.411 120.615 148.205Z" fill="#F4BEA5"/>
<path d="M129.479 183.514C127.799 178.675 122.401 149.694 122.337 146.769C122.274 143.844 124.72 126.344 124.72 122.558C124.72 118.771 125.836 98.362 124.72 95.7989C123.603 93.2358 118.195 87.0035 114.829 78.0751C113.557 74.5838 111.465 71.449 108.729 68.934L100.753 71.7683L104.959 85.3816C103.896 85.8602 104.119 94.7886 104.119 95.7989C104.119 96.8093 96.9667 100.468 96.9667 100.468C95.7011 98.3408 95.7011 92.8955 95.7011 91.1459C95.7011 89.3964 94.2281 75.2195 90.6174 71.7683C87.0067 68.3171 83.7044 69.1094 82.4494 72.5659C81.1945 76.0224 82.0294 83.4247 82.4494 87.6363C83.025 92.3707 83.2365 97.1422 83.0823 101.909C82.8695 108.248 82.6568 107.62 83.5023 114.772C84.3479 121.925 84.3425 130.337 89.389 137.49C94.4355 144.642 95.9138 155.793 97.8069 160.632C97.8069 160.632 101.38 186.46 100.923 190.666" stroke="#A7542A" stroke-linecap="round" stroke-linejoin="round"/>
<path d="M96.9502 100.468C96.9502 100.468 98.2105 106.355 101.05 109.301" stroke="#A7542A" stroke-linecap="round" stroke-linejoin="round"/>
<path d="M97.7158 103.153C97.7158 103.153 103.034 104.781 105.256 104.882" stroke="#A7542A" stroke-linecap="round" stroke-linejoin="round"/>
<path d="M104.103 95.7989C104.103 95.7989 107.889 94.0494 110.308 95.1023" stroke="#A7542A" stroke-linecap="round" stroke-linejoin="round"/>
<path d="M104.943 85.3817C104.943 85.3817 107.889 85.1105 108.517 83.6375" stroke="#A7542A" stroke-linecap="round" stroke-linejoin="round"/>
<path d="M90.3457 138.989C90.3457 138.989 96.0037 146.014 97.6841 149.587" stroke="#A7542A" stroke-linecap="round" stroke-linejoin="round"/>
<path d="M123.247 108.248C122.3 113.826 121.034 129.077 120.614 131.81" stroke="#A7542A" stroke-linecap="round" stroke-linejoin="round"/>
<path d="M125.055 97.7294C125.214 102.781 123.991 105.408 123.991 105.408" stroke="#A7542A" stroke-linecap="round" stroke-linejoin="round"/>
<path d="M81.5612 27.0413L120.55 37.3257C120.55 37.3257 106.847 78.9153 104.066 84.0735L99.418 120.329C99.418 120.329 74.51 119.234 63.0557 115.772C63.0557 115.772 70.2984 78.0166 70.6865 72.9808C71.0747 67.9449 81.5612 27.0413 81.5612 27.0413Z" fill="#F4BEA5"/>
<path d="M73.1756 70.7473L81.7689 34.0074C81.7689 34.0074 85.4647 32.1728 86.8952 30.4977L114.829 38.4423C114.829 38.4423 114.914 41.1809 116.515 42.9358L102.418 83.5576L98.9982 113.501C98.9982 113.501 94.4516 113.863 94.0156 117.224C94.0156 117.224 79.2749 118.021 69.3894 115.416C69.3894 115.416 68.2248 111.784 66.4434 109.487L73.1756 70.7473Z" stroke="#A7542A" stroke-linecap="round" stroke-linejoin="round"/>
<path d="M80.3278 72.6564C80.3278 72.6564 82.8644 63.0845 91.7981 64.8021C100.732 66.5197 95.6853 78.3144 95.6853 78.3144C95.6853 78.3144 95.7385 87.833 88.4905 86.5196C82.205 85.3816 78.8548 81.9304 80.3278 72.6564Z" fill="#F4BEA5" stroke="#A7542A" stroke-linecap="round" stroke-linejoin="round"/>
<path d="M85.1665 37.5011C85.1665 37.5011 82.4652 48.4396 81.7686 50.5454" stroke="#A7542A" stroke-linecap="round" stroke-linejoin="round"/>
<path d="M87.4803 38.4476L85.9062 44.446" stroke="#A7542A" stroke-linecap="round" stroke-linejoin="round"/>
<path d="M107.204 42.6538L112.58 44.5469L111.99 46.2326H110.309L106.73 45.3924L107.204 42.6538Z" fill="#F4BEA5" stroke="#A7542A" stroke-linecap="round" stroke-linejoin="round"/>
<path d="M106.311 46.2328L110.309 47.4931L111.15 48.3333L110.309 50.5454L105.678 48.9661L106.311 46.2328Z" fill="#F4BEA5" stroke="#A7542A" stroke-linecap="round" stroke-linejoin="round"/>
<path d="M105.677 50.0188L110.309 51.295L109.655 52.9648H107.203L104.943 52.0182L105.677 50.0188Z" fill="#F4BEA5" stroke="#A7542A" stroke-linecap="round" stroke-linejoin="round"/>
<path d="M104.944 52.9648L108.517 54.4378V55.4854L107.624 56.3309L104.295 55.3844V53.5923L104.944 52.9648Z" fill="#F4BEA5" stroke="#A7542A" stroke-linecap="round" stroke-linejoin="round"/>
<path d="M107.991 57.7135V59.3514C108.019 59.5317 108.004 59.7161 107.947 59.8897C107.891 60.0633 107.795 60.2213 107.667 60.3511C107.534 60.4232 107.386 60.461 107.236 60.461C107.085 60.461 106.937 60.4232 106.805 60.3511C106.534 60.2235 106.273 60.032 106.018 59.9204C105.183 59.5853 104.157 60.0054 103.359 59.5587C103.359 58.5431 103.003 56.9318 104.258 56.8999C104.465 56.9159 107.991 58.0857 107.991 57.7135Z" fill="#F4BEA5" stroke="#A7542A" stroke-linecap="round" stroke-linejoin="round"/>
<path d="M106.517 61.8136C106.477 62.1885 106.409 62.5599 106.315 62.9249C106.198 63.3982 105.969 63.9247 105.496 64.0523C105.241 64.0946 104.98 64.0727 104.736 63.9885L101.747 63.2015C101.892 62.6419 102.069 62.0915 102.279 61.553C102.683 60.9627 102.545 60.9734 103.252 60.9255C104.401 60.8776 105.336 61.9571 106.517 61.8136Z" fill="#F4BEA5" stroke="#A7542A" stroke-linecap="round" stroke-linejoin="round"/>
<path d="M96.4249 39.1868L94.6328 46.2327L95.5262 46.6528L97.6852 39.7079L96.4249 39.1868Z" fill="#F4BEA5" stroke="#A7542A" stroke-linecap="round" stroke-linejoin="round"/>
<path d="M73.9678 86.5035L79.4876 87.934L79.0409 89.6569L77.3658 89.8058L73.7285 89.2687L73.9678 86.5035Z" fill="#F4BEA5" stroke="#A7542A" stroke-linecap="round" stroke-linejoin="round"/>
<path d="M73.3828 90.1462L77.4721 91.0609L78.3867 91.8266L77.7379 94.1026L72.9893 92.9221L73.3828 90.1462Z" fill="#F4BEA5" stroke="#A7542A" stroke-linecap="round" stroke-linejoin="round"/>
<path d="M73.0803 93.975L77.8024 94.8471L77.2919 96.5647L74.8511 96.7774L72.5166 96.0276L73.0803 93.975Z" fill="#F4BEA5" stroke="#A7542A" stroke-linecap="round" stroke-linejoin="round"/>
<path d="M72.5961 96.9688L76.2866 98.1333L76.377 99.1809L75.5581 100.096L72.1601 99.4362L72.0059 97.6547L72.5961 96.9688Z" fill="#F4BEA5" stroke="#A7542A" stroke-linecap="round" stroke-linejoin="round"/>
<path d="M76.0362 101.441L76.1798 103.073C76.2234 103.251 76.2244 103.437 76.1829 103.615C76.1413 103.794 76.0582 103.96 75.9405 104.1C75.8153 104.183 75.6711 104.233 75.5213 104.245C75.3716 104.257 75.2212 104.231 75.0843 104.169C74.8025 104.068 74.5526 103.898 74.2601 103.813C73.4039 103.547 72.4149 104.052 71.6013 103.674C71.5055 102.664 71.0216 101.09 72.266 100.968C72.4574 100.957 76.0681 101.813 76.0362 101.441Z" fill="#F4BEA5" stroke="#A7542A" stroke-linecap="round" stroke-linejoin="round"/>
<path d="M74.9247 105.653C74.9171 106.039 74.8816 106.425 74.8183 106.807C74.7386 107.285 74.5578 107.833 74.1004 107.998C73.8492 108.062 73.5859 108.062 73.3347 107.998L70.293 107.466C70.3953 106.895 70.5321 106.33 70.7024 105.775C71.0534 105.153 70.9151 105.174 71.6171 105.068C72.7338 104.903 73.7548 105.897 74.9247 105.653Z" fill="#F4BEA5" stroke="#A7542A" stroke-linecap="round" stroke-linejoin="round"/>
<path d="M96.9512 110.816C96.9512 110.816 98.2168 96.7029 98.2168 95.2831" stroke="#A7542A" stroke-linecap="round" stroke-linejoin="round"/>
<path d="M94.4248 110.183C94.4248 110.183 94.9566 102.845 95.0523 101.569" stroke="#A7542A" stroke-linecap="round" stroke-linejoin="round"/>
<path d="M84.5605 104.881L82.8535 113.236H84.5605L85.7995 104.881H84.5605Z" fill="#F4BEA5" stroke="#A7542A" stroke-linecap="round" stroke-linejoin="round"/>
<path opacity="0.2" d="M104.157 83.8659C100.466 83.0949 97.1747 81.9622 94.7392 80.3297C94.7392 80.3297 96.5046 85.4027 102.764 94.0493L99.3975 120.329C99.3975 120.329 83.1413 119.617 70.8574 117.516C74.633 106.881 81.4928 86.7269 80.6792 82.7333C79.5784 77.2507 83.4657 70.7791 83.4657 70.7791C95.7548 68.5669 107.672 59.277 115.85 51.4227C111.687 63.7332 106.002 80.218 104.157 83.8659Z" fill="black" fill-opacity="0.7"/>
<path d="M81.5612 27.0413L120.55 37.3257C120.55 37.3257 106.847 78.9153 104.066 84.0735L99.418 120.329C99.418 120.329 74.51 119.234 63.0557 115.772C63.0557 115.772 70.2984 78.0166 70.6865 72.9808C71.0747 67.9449 81.5612 27.0413 81.5612 27.0413Z" stroke="#A7542A" stroke-linecap="round" stroke-linejoin="round"/>
<path d="M103.177 109.832L97.6843 149.587C96.4613 146.987 93.1271 142.552 91.4041 140.335C90.766 139.505 90.3406 138.989 90.3406 138.989L89.3675 137.49C84.321 130.337 84.321 121.925 83.4808 114.772C82.6406 107.62 82.848 108.248 83.0607 101.909C83.2153 97.1512 83.0056 92.3886 82.4332 87.6629C82.0131 83.4513 81.1729 76.0437 82.4332 72.5926C83.0501 70.9015 84.1615 69.8486 85.5547 69.6253C86.9479 69.4019 88.7453 70.0401 90.6012 71.7949C94.2119 75.2461 95.6849 89.423 95.6849 91.1726C95.6849 92.9221 95.6849 98.3887 96.9505 100.494C96.9505 100.468 100.343 106.886 103.177 109.832Z" fill="#F6D4C2"/>
<path opacity="0.4" d="M88.9527 134.655C90.1013 136.123 90.883 138.239 91.4041 140.335C90.766 139.505 90.3406 138.989 90.3406 138.989L89.3675 137.49C84.321 130.337 84.321 121.925 83.4808 114.773C82.6406 107.62 82.848 108.248 83.0607 101.909C83.2153 97.1513 83.0056 92.3887 82.4332 87.663C82.0131 83.4514 81.1729 76.0438 82.4332 72.5926C83.0501 70.9016 84.1615 69.8487 85.5547 69.6254C88.2135 70.3805 90.8724 73.0872 91.7976 77.7189C93.3929 85.4933 86.1981 79.2132 84.5337 85.8018C82.8692 92.3904 85.2888 94.1665 86.2832 95.8256C87.2776 97.4847 86.0067 101.143 84.5337 106.057C83.0607 110.97 85.7993 130.619 88.9527 134.655Z" fill="#F4BEA5"/>
<path d="M103.177 109.832C100.337 106.886 96.9501 100.468 96.9501 100.468C95.6845 98.3408 95.6845 92.8955 95.6845 91.1459C95.6845 89.3964 94.2115 75.2195 90.6008 71.7683C86.9901 68.3171 83.6878 69.1094 82.4328 72.5659C81.1779 76.0224 82.0127 83.4247 82.4328 87.6363C83.0083 92.3707 83.2199 97.1422 83.0657 101.909C82.8529 108.248 82.6402 107.62 83.4857 114.772C84.3313 121.925 84.3259 130.337 89.3724 137.49L90.3456 138.989C90.3456 138.989 96.0036 146.014 97.684 149.587" stroke="#A7542A" stroke-linecap="round" stroke-linejoin="round"/>
<path d="M84.5605 93.0072C84.5605 93.0072 89.3837 90.5132 91.7979 90.7259" stroke="#A7542A" stroke-linecap="round" stroke-linejoin="round"/>
<path d="M253.362 20.7291L194.027 46.8988C191.76 47.8985 190.733 50.5462 191.733 52.8128L207.672 88.9524C208.672 91.2189 211.32 92.2459 213.586 91.2463L272.921 65.0765C275.188 64.0768 276.215 61.4291 275.215 59.1625L259.275 23.0229C258.276 20.7564 255.628 19.7294 253.362 20.7291Z" stroke="#DDA081" stroke-linecap="round" stroke-linejoin="round"/>
<path d="M194.309 58.6459L261.852 28.8572" stroke="#DDA081" stroke-linecap="round" stroke-linejoin="round"/>
<path d="M259.657 42.7019L248.746 47.514L255.675 63.2246L266.586 58.4124L259.657 42.7019Z" stroke="#DDA081" stroke-linecap="round" stroke-linejoin="round"/>
<path d="M254.085 48.9603C255.722 45.4531 260.185 46.303 261.64 55.4356L265.629 56.2384L266.571 58.3794L255.669 63.1928L254.401 60.3312L258.247 57.5105C258.247 57.5105 252.547 52.267 254.085 48.9603Z" stroke="#DDA081" stroke-linecap="round" stroke-linejoin="round"/>
<path d="M234.767 75.6153C234.767 75.6153 243.011 73.478 240.215 72.4682C237.418 71.4584 236.62 69.8925 238.616 69.3269C240.612 68.7613 245.002 71.707 244.106 69.4311C243.209 67.1551 245.069 68.2933 245.387 68.3718C245.704 68.4504 247.825 66.8594 248.014 67.1054C248.202 67.3515 248.247 68.1679 255.667 64.9013" stroke="#DDA081" stroke-linecap="round" stroke-linejoin="round"/>
<path d="M202.244 64.3644L235.32 49.7742" stroke="#DDA081" stroke-linecap="round" stroke-linejoin="round"/>
<path d="M203.903 68.1134L223.386 59.5178" stroke="#DDA081" stroke-linecap="round" stroke-linejoin="round"/>
<path d="M206.821 74.7268L233.997 62.7401" stroke="#DDA081" stroke-linecap="round" stroke-linejoin="round"/>
<path d="M208.706 46.5651L241.871 31.9301" stroke="#DDA081" stroke-linecap="round" stroke-linejoin="round"/>
</svg>
